<svg width="32" height="22" viewBox="0 0 32 22" fill="none" xmlns="http://www.w3.org/2000/svg">
<path d="M11.5613 19.6859C11.4337 16.8188 9.93151 15.0943 7.56124 15.0566C5.13587 15.0189 3.61337 16.6951 3.39877 19.6386C1.71097 20.002 0.0251032 18.6178 0.00963648 16.8246C-0.0087302 14.7269 0.00480314 12.6293 0.00480314 10.5306C0.00480314 8.04726 0.00383647 5.56293 0.00480314 3.07956C0.00576981 1.22163 1.22667 0.00169167 3.08557 0.000725C7.98174 -0.000241667 12.8769 -0.000241667 17.7731 0.000725C19.6301 0.000725 20.85 1.22259 20.85 3.08343C20.851 8.34016 20.85 13.5969 20.85 18.8536C20.85 19.5158 20.6809 19.685 20.0158 19.685C17.3265 19.685 14.6372 19.685 11.9489 19.685H11.5613V19.6859ZM10.9939 10.4224C12.8392 10.4224 14.6856 10.4224 16.5309 10.4224C16.6518 10.4224 16.7755 10.434 16.8915 10.4088C17.1844 10.346 17.3642 10.1585 17.369 9.8559C17.3739 9.53593 17.1912 9.3397 16.8809 9.2759C16.7765 9.25463 16.6644 9.26526 16.5561 9.26526C12.8528 9.26526 9.14948 9.26526 5.44617 9.26526C5.34951 9.26526 5.25091 9.25657 5.15714 9.27203C4.84491 9.3252 4.66124 9.5108 4.64287 9.83077C4.62547 10.1304 4.85361 10.3789 5.16874 10.4166C5.27604 10.4291 5.38527 10.4224 5.49451 10.4224C7.32827 10.4224 9.16204 10.4224 10.9948 10.4224H10.9939ZM13.3593 4.63299C12.238 4.63299 11.1157 4.63106 9.99434 4.63299C9.53711 4.63299 9.27321 4.84856 9.27321 5.2101C9.27321 5.57163 9.53808 5.78913 9.99338 5.78913C12.2128 5.79106 14.4323 5.79106 16.6518 5.78913C17.1071 5.78913 17.3739 5.57066 17.3739 5.21106C17.3739 4.8505 17.109 4.63396 16.6527 4.63299C15.5546 4.63106 14.4574 4.63299 13.3593 4.63299Z" fill="white"/>
<path d="M22.0322 4.642C23.2667 4.642 24.4731 4.6014 25.6756 4.6536C26.8356 4.70386 27.8322 5.5352 28.1609 6.6604C28.4045 7.49173 28.5862 8.34143 28.8192 9.17567C28.8608 9.32357 29 9.46857 29.1305 9.56233C29.3035 9.68703 29.5191 9.75277 29.7076 9.85813C30.6916 10.4072 31.2465 11.2424 31.2658 12.3734C31.2919 13.8563 31.2794 15.3401 31.2697 16.8239C31.2639 17.7278 30.8386 18.5552 30.1435 19.0511C30.1029 18.7718 30.0797 18.5021 30.0246 18.2401C29.6766 16.5813 28.3523 15.3565 26.6142 15.0791C25.0589 14.8307 23.3894 15.6475 22.5803 17.0695C22.4527 17.2937 22.3309 17.4455 22.0312 17.3401V4.642H22.0322Z" fill="white"/>
<path d="M7.56705 16.2126C9.16399 16.231 10.4419 17.5437 10.4265 19.1513C10.412 20.7405 9.08665 22.0213 7.47812 21.9991C5.88698 21.9768 4.61195 20.6506 4.63708 19.044C4.66222 17.4683 5.97978 16.1942 7.56609 16.2126H7.56705Z" fill="white"/>
<path d="M28.9573 19.1328C28.9506 20.7094 27.6456 22.0018 26.0641 21.9999C24.4623 21.998 23.1651 20.6978 23.168 19.098C23.1709 17.5001 24.4817 16.2009 26.0796 16.2125C27.6794 16.2231 28.9651 17.5271 28.9573 19.1328Z" fill="white"/>
</svg>
