<?xml version="1.0" encoding="utf-8"?>
<!-- Generator: Adobe Illustrator 24.1.3, SVG Export Plug-In . SVG Version: 6.00 Build 0)  -->
<svg version="1.1" id="Capa_1" xmlns="http://www.w3.org/2000/svg" xmlns:xlink="http://www.w3.org/1999/xlink" x="0px" y="0px"
	 viewBox="0 0 109.66 53.46" style="enable-background:new 0 0 109.66 53.46;" xml:space="preserve">
<style type="text/css">
	.st0{fill:#004772;}
	.st1{fill:#FFFFFF;}
	.st2{fill:#004772;}
</style>
<g>
	<g>
		<path class="st0" d="M109.66,0H0v53.46h109.66c0,0,0-19.4,0-19.99"/>
		<path class="st1" d="M9.89,19.32l-2.11-5.14l-2.1,5.14 M56.36,17.28c-0.42,0.26-0.92,0.27-1.52,0.27h-3.74v-2.86h3.8
			c0.54,0,1.1,0.02,1.46,0.23C56.75,15.1,57,15.5,57,16.05C57,16.61,56.76,17.07,56.36,17.28z M83.07,19.32l-2.13-5.14l-2.12,5.14
			H83.07z M33.28,24.89h-3.16l-0.01-10.1l-4.47,10.1h-2.71l-4.48-10.11v10.11h-6.27L11,22.01H4.58l-1.2,2.88H0.04l5.52-12.9h4.58
			l5.24,12.21V11.99h5.03l4.03,8.75l3.71-8.75h5.13L33.28,24.89L33.28,24.89z M45.87,24.89h-10.3v-12.9h10.3v2.69h-7.21V17h7.04
			v2.64h-7.04v2.58h7.21V24.89z M60.39,15.47c0,2.06-1.37,3.12-2.17,3.44c0.67,0.26,1.25,0.71,1.53,1.09
			c0.43,0.64,0.51,1.21,0.51,2.37v2.53h-3.11l-0.01-1.63c0-0.78,0.07-1.89-0.49-2.51c-0.45-0.45-1.14-0.55-2.25-0.55h-3.31v4.69
			h-3.08v-12.9h7.09c1.58,0,2.74,0.04,3.73,0.62C59.81,13.19,60.39,14.03,60.39,15.47z M65.33,24.89h-3.15v-12.9h3.15V24.89z
			 M101.81,24.89h-4.37l-5.84-9.68v9.68h-6.28l-1.2-2.88h-6.4l-1.16,2.88h-3.61c-1.5,0-3.39-0.33-4.47-1.43
			c-1.08-1.1-1.65-2.58-1.65-4.92c0-1.91,0.34-3.66,1.66-5.04c1-1.03,2.56-1.5,4.68-1.5h2.98v2.76h-2.92
			c-1.12,0-1.76,0.17-2.37,0.76c-0.53,0.54-0.89,1.57-0.89,2.92c0,1.38,0.27,2.38,0.85,3.03c0.47,0.51,1.34,0.67,2.15,0.67h1.38
			l4.34-10.14h4.62l5.22,12.2v-12.2h4.69l5.42,8.98v-8.98h3.16V24.89L101.81,24.89z M0,27.42h5.27l1.19-2.86h2.66l1.18,2.86h10.36
			v-2.19l0.92,2.2h5.38l0.92-2.23v2.22h25.75l-0.01-4.7h0.5c0.35,0.01,0.45,0.04,0.45,0.62v4.08H67.9v-1.09
			c1.07,0.58,2.75,1.09,4.94,1.09h5.6l1.2-2.86h2.66l1.17,2.86h10.8V24.7l1.64,2.72h8.65V9.44H96v2.12l-1.2-2.12h-8.79v2.12
			l-1.1-2.12H73.04c-1.99,0-3.73,0.28-5.14,1.05V9.44h-8.19v1.05c-0.9-0.8-2.12-1.05-3.48-1.05H26.3l-2.01,4.65l-2.06-4.65h-9.43
			v2.12l-1.04-2.12H3.73L0,17.99L0,27.42L0,27.42z"/>
		<path class="st1" d="M109.66,36.93h-5.62c-0.56,0-0.93,0.02-1.25,0.23c-0.33,0.21-0.45,0.52-0.45,0.93c0,0.49,0.27,0.82,0.67,0.96
			c0.33,0.11,0.67,0.15,1.19,0.15l1.67,0.04c1.69,0.04,2.81,0.33,3.5,1.04c0.12,0.1,0.2,0.21,0.29,0.32 M109.66,45.44
			c-0.75,1.09-2.21,1.65-4.18,1.65h-5.95v-2.77h5.93c0.59,0,1-0.08,1.25-0.32c0.21-0.2,0.36-0.49,0.36-0.84
			c0-0.38-0.15-0.67-0.38-0.85c-0.22-0.2-0.55-0.29-1.09-0.29c-2.89-0.1-6.5,0.09-6.5-3.99c0-1.87,1.19-3.84,4.42-3.84h6.14v-2.57
			h-5.7c-1.72,0-2.97,0.41-3.86,1.05v-1.05h-8.44c-1.35,0-2.93,0.33-3.68,1.05v-1.05H72.91v1.05c-1.2-0.86-3.22-1.05-4.16-1.05
			h-9.94v1.05c-0.95-0.92-3.06-1.05-4.34-1.05H43.35l-2.55,2.75l-2.38-2.75H21.81v18h16.3l2.62-2.8l2.47,2.8l10.05,0.01v-4.23h0.99
			c1.33,0.02,2.91-0.03,4.29-0.63v4.86h8.29v-4.69h0.4c0.51,0,0.56,0.02,0.56,0.53v4.16h25.18c1.6,0,3.27-0.41,4.19-1.15v1.15h7.99
			c1.66,0,3.29-0.23,4.52-0.83V45.44L109.66,45.44z M97.37,40.28c0.6,0.62,0.92,1.41,0.92,2.73c0,2.77-1.73,4.07-4.84,4.07h-6v-2.77
			h5.98c0.58,0,1-0.08,1.26-0.32c0.21-0.2,0.36-0.49,0.36-0.84c0-0.38-0.16-0.67-0.38-0.85c-0.24-0.2-0.56-0.29-1.1-0.29
			c-2.88-0.1-6.49,0.09-6.49-3.99c0-1.87,1.18-3.84,4.41-3.84h6.18v2.75h-5.65c-0.56,0-0.92,0.02-1.24,0.23
			c-0.34,0.21-0.46,0.52-0.46,0.93c0,0.49,0.29,0.82,0.67,0.96c0.33,0.11,0.67,0.15,1.2,0.15l1.66,0.04
			C95.52,39.29,96.67,39.58,97.37,40.28z M69.56,39.49c-0.41,0.24-0.92,0.27-1.52,0.27h-3.74v-2.9h3.8c0.55,0,1.1,0.01,1.47,0.23
			c0.4,0.21,0.64,0.61,0.64,1.16C70.19,38.8,69.96,39.24,69.56,39.49z M71.42,41.09c0.69,0.25,1.25,0.71,1.51,1.08
			c0.44,0.63,0.5,1.22,0.51,2.35v2.56h-3.09v-1.61c0-0.78,0.07-1.93-0.5-2.52c-0.45-0.46-1.14-0.57-2.26-0.57h-3.29v4.71h-3.1v-12.9
			h7.12c1.56,0,2.7,0.07,3.71,0.61c0.97,0.59,1.58,1.39,1.58,2.86C73.6,39.72,72.23,40.77,71.42,41.09z M75.31,34.19H85.6v2.67
			h-7.22v2.35h7.04v2.63h-7.04v2.57l7.22,0.01v2.68H75.31V34.19z M54.51,40.14h-3.98v-3.28h4.02c1.11,0,1.89,0.45,1.89,1.58
			C56.44,39.55,55.7,40.14,54.51,40.14z M47.46,45.91l-4.73-5.25l4.73-5.09V45.91z M35.24,44.4h-7.58v-2.57h6.77V39.2h-6.77v-2.35
			h7.73l3.37,3.76L35.24,44.4z M59.75,38.44c0,3.58-2.67,4.32-5.37,4.32h-3.85v4.33h-5.99l-3.8-4.27l-3.94,4.27H24.59v-12.9h12.4
			l3.79,4.23l3.92-4.23h9.85C57,34.19,59.75,34.86,59.75,38.44z"/>
	</g>
</g>
</svg>
