<?xml version="1.0" encoding="utf-8"?>
<!-- Generator: Adobe Illustrator 24.1.3, SVG Export Plug-In . SVG Version: 6.00 Build 0)  -->
<svg version="1.1" id="Capa_1" xmlns="http://www.w3.org/2000/svg" xmlns:xlink="http://www.w3.org/1999/xlink" x="0px" y="0px"
	 viewBox="0 0 219.92 56.99" style="enable-background:new 0 0 219.92 56.99;" xml:space="preserve">
<style type="text/css">
	.st0{fill:#004772;}
	.st1{fill:#FFFFFF;}
	.st2{fill:#004772;}
</style>
<g>
	<g id="__x0023_Layer_x0020_1_1_">
		<path class="st0" d="M81.07,12.26c0-2.7-1.41-2.52-2.75-2.55V8.93c1.17,0.06,2.37,0.06,3.54,0.06c1.26,0,2.97-0.06,5.19-0.06
			c7.76,0,11.98,5.18,11.98,10.49c0,2.97-1.74,10.43-12.35,10.43c-1.53,0-2.94-0.06-4.35-0.06c-1.35,0-2.67,0.03-4.02,0.06v-0.78
			c1.8-0.18,2.67-0.24,2.75-2.28L81.07,12.26L81.07,12.26z M84,26.32L84,26.32c0,2.31,1.65,2.58,3.12,2.58c6.47,0,8.6-4.89,8.6-9.35
			c0-5.6-3.6-9.65-9.38-9.65c-1.23,0-1.8,0.09-2.34,0.12L84,26.32L84,26.32z"/>
		<path class="st0" d="M100.07,29.08h0.57c0.84,0,1.44,0,1.44-0.99v-8.12c0-1.32-0.45-1.5-1.56-2.1v-0.48
			c1.41-0.42,3.09-0.99,3.21-1.08c0.21-0.12,0.39-0.15,0.54-0.15c0.15,0,0.21,0.18,0.21,0.42v11.51c0,0.99,0.66,0.99,1.5,0.99h0.51
			v0.78c-1.02,0-2.07-0.06-3.15-0.06c-1.08,0-2.16,0.03-3.27,0.06L100.07,29.08L100.07,29.08z M103.28,11.54L103.28,11.54
			c-0.78,0-1.47-0.72-1.47-1.5c0-0.75,0.72-1.44,1.47-1.44c0.78,0,1.47,0.63,1.47,1.44C104.74,10.85,104.08,11.54,103.28,11.54z"/>
		<path class="st0" d="M109.33,20.14c0-1.11-0.33-1.41-1.74-1.98V17.6c1.29-0.42,2.51-0.81,3.95-1.44c0.09,0,0.18,0.06,0.18,0.3
			v1.95c1.71-1.23,3.18-2.25,5.19-2.25c2.54,0,3.44,1.86,3.44,4.2v7.73c0,0.99,0.66,0.99,1.5,0.99h0.54v0.78
			c-1.05,0-2.1-0.06-3.18-0.06c-1.08,0-2.16,0.03-3.24,0.06v-0.78h0.54c0.84,0,1.44,0,1.44-0.99v-7.76c0-1.71-1.04-2.55-2.75-2.55
			c-0.96,0-2.49,0.78-3.48,1.44v8.87c0,0.99,0.66,0.99,1.5,0.99h0.54v0.78c-1.05,0-2.1-0.06-3.18-0.06c-1.08,0-2.16,0.03-3.24,0.06
			v-0.78h0.54c0.84,0,1.44,0,1.44-0.99L109.33,20.14L109.33,20.14z"/>
		<path class="st0" d="M124.67,21.58c-0.06,0.27-0.06,0.72,0,1.74c0.18,2.85,2.01,5.18,4.4,5.18c1.65,0,2.94-0.9,4.05-2.01
			l0.42,0.42c-1.38,1.83-3.09,3.39-5.54,3.39c-4.77,0-5.72-4.62-5.72-6.53c0-5.88,3.96-7.61,6.05-7.61c2.43,0,5.04,1.53,5.07,4.7
			c0,0.18,0,0.36-0.03,0.54l-0.27,0.18H124.67L124.67,21.58z M129.98,20.62L129.98,20.62c0.75,0,0.84-0.39,0.84-0.75
			c0-1.53-0.93-2.76-2.61-2.76c-1.83,0-3.08,1.35-3.44,3.51H129.98L129.98,20.62z"/>
		<path class="st0" d="M134.08,29.08h0.81c0.84,0,1.44,0,1.44-0.99v-8.42c0-0.93-1.11-1.11-1.56-1.35v-0.45
			c2.19-0.93,3.39-1.71,3.66-1.71c0.18,0,0.27,0.09,0.27,0.39v2.7h0.06c0.75-1.17,2.01-3.09,3.83-3.09c0.75,0,1.71,0.51,1.71,1.59
			c0,0.81-0.57,1.53-1.41,1.53c-0.93,0-0.93-0.72-1.98-0.72c-0.51,0-2.19,0.69-2.19,2.49v7.04c0,0.99,0.6,0.99,1.44,0.99h1.68v0.78
			c-1.65-0.03-2.9-0.06-4.19-0.06c-1.23,0-2.49,0.03-3.57,0.06L134.08,29.08L134.08,29.08z"/>
		<path class="st0" d="M145.62,25.69c0.39,1.98,1.59,3.66,3.78,3.66c1.76,0,2.42-1.08,2.42-2.13c0-3.54-6.53-2.4-6.53-7.22
			c0-1.68,1.35-3.84,4.64-3.84c0.96,0,2.25,0.27,3.41,0.87l0.21,3.05h-0.69c-0.3-1.89-1.35-2.97-3.27-2.97
			c-1.2,0-2.34,0.69-2.34,1.98c0,3.51,6.95,2.43,6.95,7.13c0,1.98-1.59,4.08-5.15,4.08c-1.2,0-2.61-0.42-3.65-1.02l-0.33-3.45
			L145.62,25.69L145.62,25.69z"/>
		<path class="st0" d="M181.28,14.36h-0.75c-0.57-3.51-3.06-4.92-6.41-4.92c-3.45,0-8.45,2.31-8.45,9.5c0,6.06,4.32,10.4,8.93,10.4
			c2.97,0,5.43-2.04,6.02-5.19l0.69,0.18l-0.69,4.38c-1.26,0.78-4.64,1.59-6.62,1.59c-7.01,0-11.44-4.53-11.44-11.27
			c0-6.14,5.48-10.55,11.36-10.55c2.43,0,4.76,0.78,7.07,1.59L181.28,14.36L181.28,14.36z"/>
		<path class="st0" d="M182.36,29.08h0.57c0.84,0,1.44,0,1.44-0.99V11.39c0-1.95-0.45-2.01-1.59-2.34V8.58
			c1.2-0.39,2.46-0.93,3.09-1.29c0.33-0.18,0.57-0.33,0.66-0.33c0.18,0,0.24,0.18,0.24,0.42v20.71c0,0.99,0.66,0.99,1.5,0.99h0.51
			v0.78c-1.01,0-2.06-0.06-3.14-0.06c-1.08,0-2.16,0.03-3.27,0.06L182.36,29.08L182.36,29.08z"/>
		<path class="st0" d="M201.6,28.2c0,0.54,0.33,0.57,0.84,0.57c0.36,0,0.81-0.03,1.2-0.03v0.63c-1.29,0.12-3.75,0.75-4.32,0.93
			l-0.15-0.09v-2.43c-1.8,1.47-3.18,2.52-5.31,2.52c-1.62,0-3.3-1.05-3.3-3.56v-7.68c0-0.78-0.12-1.53-1.79-1.68v-0.57
			c1.08-0.03,3.47-0.21,3.86-0.21c0.33,0,0.33,0.21,0.33,0.87v7.73c0,0.9,0,3.48,2.61,3.48c1.02,0,2.37-0.78,3.62-1.82v-8.07
			c0-0.6-1.44-0.93-2.51-1.23v-0.54c2.69-0.18,4.37-0.42,4.67-0.42c0.24,0,0.24,0.21,0.24,0.54L201.6,28.2L201.6,28.2z"/>
		<path class="st0" d="M207.56,18.32c1.2-1.02,2.82-2.16,4.46-2.16c3.48,0,5.57,3.03,5.57,6.29c0,3.93-2.88,7.85-7.16,7.85
			c-2.22,0-3.38-0.72-4.16-1.05l-0.9,0.69l-0.63-0.33c0.27-1.77,0.42-3.51,0.42-5.33V11.39c0-1.95-0.45-2.01-1.59-2.34V8.58
			c1.2-0.39,2.46-0.93,3.09-1.29c0.33-0.18,0.57-0.33,0.66-0.33c0.18,0,0.24,0.18,0.24,0.42L207.56,18.32L207.56,18.32L207.56,18.32
			z M207.56,26.47L207.56,26.47c0,1.14,1.08,3.06,3.09,3.06c3.21,0,4.55-3.15,4.55-5.82c0-3.24-2.45-5.93-4.79-5.93
			c-1.11,0-2.04,0.72-2.85,1.41L207.56,26.47L207.56,26.47z"/>
		<path class="st0" d="M78.28,47.28h0.23c0.59,0,1.21-0.08,1.21-0.93v-8.54c0-0.85-0.62-0.93-1.21-0.93h-0.23v-0.49
			c0.64,0,1.61,0.06,2.42,0.06c0.81,0,1.79-0.06,2.56-0.06v0.49h-0.23c-0.58,0-1.21,0.08-1.21,0.93v8.54c0,0.85,0.62,0.93,1.21,0.93
			h0.23v0.49c-0.78,0-1.76-0.06-2.58-0.06c-0.8,0-1.76,0.06-2.4,0.06L78.28,47.28L78.28,47.28z"/>
		<path class="st0" d="M83.25,47.84c-0.79,0-1.76-0.07-2.58-0.07c-0.8,0-1.76,0.07-2.4,0.07h-0.07v-0.07v-0.49v-0.07h0.07h0.23
			c0.59-0.01,1.13-0.06,1.14-0.86v-8.54c-0.01-0.8-0.54-0.85-1.14-0.86h-0.3v-0.07v-0.56h0.07c0.64,0,1.62,0.06,2.42,0.06
			c0.81,0,1.79-0.06,2.56-0.06h0.07v0.07v0.56h-0.07h-0.23c-0.59,0.01-1.13,0.06-1.14,0.86v8.54c0,0.8,0.54,0.84,1.14,0.86h0.3v0.07
			v0.56L83.25,47.84L83.25,47.84z M83.18,47.7L83.18,47.7v-0.35h-0.16c-0.58,0-1.28-0.1-1.28-1v-8.54c0-0.9,0.7-1,1.28-1h0.16v-0.35
			c-0.75,0-1.7,0.06-2.49,0.06c-0.77,0-1.71-0.06-2.34-0.06v0.35h0.16c0.58,0,1.28,0.1,1.28,1v8.54c0,0.9-0.7,1-1.28,1h-0.16v0.35
			c0.63-0.01,1.55-0.07,2.32-0.07C81.47,47.64,82.41,47.7,83.18,47.7L83.18,47.7z"/>
		<path class="st0" d="M94.45,44.56l0.03-0.03v-6.11c0-1.34-0.93-1.53-1.42-1.53h-0.36v-0.49c0.77,0,1.52,0.06,2.28,0.06
			c0.67,0,1.34-0.06,2.01-0.06v0.49h-0.24c-0.69,0-1.45,0.13-1.45,2.07v7.42c0,0.57,0.02,1.14,0.1,1.65h-0.62l-8.4-9.36v6.72
			c0,1.42,0.27,1.91,1.53,1.91h0.28v0.49c-0.7,0-1.4-0.06-2.1-0.06c-0.73,0-1.48,0.06-2.22,0.06v-0.49h0.23
			c1.13,0,1.47-0.76,1.47-2.07v-6.87c0-0.91-0.75-1.47-1.48-1.47h-0.21v-0.49c0.62,0,1.26,0.06,1.87,0.06
			c0.49,0,0.96-0.06,1.45-0.06L94.45,44.56L94.45,44.56z"/>
		<path class="st0" d="M95.4,48.09l-0.67-0.02l-8.27-9.22v6.54c0.02,1.42,0.24,1.82,1.46,1.84h0.35v0.07v0.56h-0.07
			c-0.71,0-1.41-0.07-2.1-0.07c-0.73,0-1.48,0.07-2.22,0.07H83.8v-0.07v-0.56h0.07h0.23c1.08-0.01,1.39-0.7,1.4-2v-6.87
			c0-0.87-0.71-1.4-1.41-1.4H83.8v-0.07v-0.56h0.07c0.62,0,1.26,0.06,1.87,0.06c0.49,0,0.96-0.06,1.51-0.04l7.17,8.07v-6
			c-0.01-1.3-0.87-1.45-1.35-1.47h-0.43v-0.07v-0.56h0.07c0.77,0,1.52,0.06,2.28,0.06c0.66,0,1.33-0.06,2.01-0.06h0.07v0.07v0.56H97
			h-0.24c-0.67,0.02-1.36,0.08-1.38,2v7.42c0,0.57,0.02,1.14,0.1,1.63l0.02,0.08L95.4,48.09L95.4,48.09z M94.78,47.94L94.78,47.94
			h0.54c-0.07-0.49-0.09-1.03-0.09-1.57v-7.42c0-1.96,0.82-2.14,1.52-2.14h0.17v-0.35c-0.64,0-1.29,0.06-1.93,0.06
			c-0.75,0-1.47-0.06-2.21-0.06l0,0.35h0.29c0.5,0,1.49,0.22,1.49,1.61l-0.02,6.16l-0.03,0.03l-0.06,0.05l-7.25-8.2
			c-0.48,0-0.96,0.06-1.45,0.06c-0.6,0-1.21-0.06-1.8-0.06l0,0.35h0.14c0.77,0,1.55,0.58,1.55,1.54v6.87c0,1.3-0.36,2.14-1.54,2.14
			l-0.16,0v0.35c0.71-0.01,1.43-0.07,2.15-0.07c0.68,0,1.36,0.06,2.03,0.07v-0.35h-0.21c-1.28,0-1.6-0.56-1.6-1.98v-6.9L94.78,47.94
			L94.78,47.94z M94.45,44.56L94.45,44.56l0.05-0.05L94.45,44.56z M94.42,44.53L94.42,44.53L94.42,44.53l-0.01-0.02L94.42,44.53z"/>
		<path class="st0" d="M99.44,37.2c-1.22,0-1.27,0.29-1.52,1.48h-0.49c0.06-0.46,0.15-0.91,0.2-1.39c0.07-0.46,0.1-0.91,0.1-1.38
			h0.39c0.13,0.49,0.54,0.47,0.98,0.47h8.41c0.44,0,0.85-0.02,0.88-0.51l0.39,0.07c-0.06,0.44-0.13,0.88-0.18,1.32
			c-0.03,0.44-0.03,0.88-0.03,1.32l-0.49,0.18c-0.03-0.6-0.12-1.57-1.21-1.57h-2.67v8.68c0,1.26,0.57,1.4,1.35,1.4h0.31v0.49
			c-0.64,0-1.78-0.06-2.66-0.06c-0.98,0-2.12,0.06-2.76,0.06v-0.49h0.31c0.9,0,1.35-0.08,1.35-1.37V37.2L99.44,37.2L99.44,37.2z"/>
		<path class="st0" d="M105.87,47.84c-0.64,0-1.78-0.07-2.66-0.07c-0.98,0-2.12,0.07-2.76,0.07h-0.07v-0.07v-0.56h0.07h0.31
			c0.9-0.02,1.26-0.03,1.28-1.3v-8.64h-2.6V37.2v-0.07h2.74v8.78c0,1.31-0.53,1.44-1.42,1.44h-0.24v0.34c0.64,0,1.74-0.06,2.69-0.06
			c0.85,0,1.94,0.06,2.58,0.06v-0.34h-0.24c-0.79,0-1.42-0.19-1.42-1.48v-8.75h2.75c1.09,0,1.24,0.94,1.27,1.54l0.35-0.13
			c0-0.43,0-0.85,0.03-1.28c0.05-0.42,0.11-0.84,0.17-1.25l-0.25-0.04c-0.08,0.47-0.53,0.5-0.94,0.49H99.1h-0.08
			c-0.38,0-0.8-0.02-0.95-0.47H97.8c0,0.45-0.03,0.89-0.1,1.32c-0.05,0.45-0.12,0.88-0.18,1.31h0.35c0.21-1.14,0.36-1.51,1.57-1.49
			v0.07v0.07c-1.21,0.02-1.18,0.23-1.45,1.43l-0.01,0.06h-0.06h-0.57l0.01-0.08c0.07-0.46,0.15-0.91,0.2-1.39
			c0.07-0.45,0.1-0.9,0.1-1.37v-0.07h0.07h0.45l0.01,0.05c0.11,0.41,0.41,0.41,0.83,0.42h0.08h8.41c0.45-0.01,0.78-0.01,0.81-0.44
			l0.01-0.08l0.07,0.02l0.46,0.07l-0.01,0.07c-0.07,0.44-0.13,0.88-0.18,1.32c-0.03,0.43-0.03,0.88-0.03,1.32v0.05l-0.05,0.02
			l-0.58,0.21l0-0.09c-0.04-0.61-0.11-1.5-1.14-1.5h-2.6v8.61c0.01,1.23,0.5,1.32,1.28,1.33h0.38v0.07v0.56L105.87,47.84
			L105.87,47.84z"/>
		<path class="st0" d="M109.3,47.28h0.23c0.59,0,1.21-0.08,1.21-0.93v-8.54c0-0.85-0.62-0.93-1.21-0.93h-0.23v-0.49
			c0.99,0,2.69,0.06,4.06,0.06c1.37,0,3.07-0.06,4.17-0.06c-0.03,0.7-0.01,1.78,0.04,2.49l-0.49,0.13
			c-0.08-1.06-0.27-1.91-1.99-1.91h-2.26v4.27h1.94c0.98,0,1.19-0.55,1.29-1.44h0.49c-0.03,0.64-0.05,1.27-0.05,1.91
			c0,0.62,0.02,1.24,0.05,1.86l-0.49,0.1c-0.1-0.98-0.15-1.61-1.27-1.61h-1.95v3.8c0,1.06,0.94,1.06,1.99,1.06
			c1.96,0,2.82-0.13,3.31-1.99l0.46,0.11c-0.21,0.87-0.41,1.73-0.55,2.59c-1.04,0-2.92-0.06-4.39-0.06c-1.47,0-3.41,0.06-4.34,0.06
			L109.3,47.28L109.3,47.28z"/>
		<path class="st0" d="M118.03,47.84c-1.05,0-2.92-0.07-4.39-0.07c-1.47,0-3.41,0.07-4.34,0.07h-0.07v-0.07v-0.49v-0.07h0.07h0.23
			c0.59-0.01,1.13-0.06,1.14-0.86v-8.54c-0.01-0.8-0.54-0.85-1.14-0.86h-0.3v-0.07v-0.56h0.07c1,0,2.69,0.06,4.06,0.06
			c1.37,0,3.06-0.06,4.17-0.06h0.07l0,0.07c-0.01,0.25-0.02,0.53-0.02,0.84c0,0.56,0.02,1.18,0.05,1.65l0,0.06l-0.05,0.02
			l-0.57,0.15l0-0.08c-0.1-1.06-0.24-1.83-1.92-1.84h-2.2l0,4.13h1.87c0.94-0.01,1.11-0.49,1.22-1.37l0.01-0.06h0.06h0.56l0,0.07
			c-0.03,0.64-0.05,1.27-0.05,1.91c0,0.62,0.02,1.24,0.05,1.86l0,0.06l-0.06,0.01l-0.57,0.11l-0.01-0.08c-0.11-1-0.12-1.54-1.2-1.55
			l-1.88,0v3.73c0,0.99,0.86,0.98,1.92,0.99c1.96-0.01,2.75-0.11,3.24-1.94l0.02-0.07l0.07,0.01l0.52,0.13l-0.02,0.07
			c-0.21,0.86-0.41,1.73-0.55,2.59l-0.01,0.06L118.03,47.84L118.03,47.84z M117.97,47.7L117.97,47.7c0.14-0.82,0.33-1.65,0.53-2.47
			l-0.32-0.08c-0.49,1.83-1.43,1.99-3.36,1.98c-1.03,0-2.06,0-2.06-1.13v-3.87h2.03c1.14-0.01,1.26,0.68,1.34,1.6l0.35-0.07
			c-0.03-0.6-0.05-1.2-0.05-1.8c0-0.61,0.01-1.22,0.05-1.84h-0.35c-0.09,0.85-0.36,1.45-1.35,1.43h-2.01v-4.41h2.34
			c1.7-0.01,1.98,0.86,2.05,1.89l0.35-0.09c-0.03-0.46-0.05-1.05-0.05-1.6c0-0.28,0.01-0.54,0.02-0.77c-1.11,0-2.76,0.06-4.1,0.06
			c-1.34,0-2.99-0.06-3.99-0.06v0.35h0.16c0.58,0,1.28,0.1,1.28,1v8.54c0,0.9-0.7,1-1.28,1h-0.16v0.34c0.95,0,2.83-0.06,4.27-0.06
			C115.08,47.64,116.92,47.7,117.97,47.7L117.97,47.7z"/>
		<path class="st0" d="M120.78,38.12c0-1.19-0.65-1.24-1.16-1.24h-0.29v-0.49c0.52,0,1.53,0.07,2.53,0.07
			c0.98,0,1.76-0.07,2.62-0.07c2.05,0,3.88,0.56,3.88,2.87c0,1.46-0.98,2.36-2.27,2.87l2.79,4.17c0.46,0.69,0.78,0.88,1.58,0.98
			v0.49c-0.54,0-1.06-0.06-1.6-0.06c-0.51,0-1.03,0.06-1.53,0.06c-1.26-1.65-2.33-3.41-3.39-5.29h-1.07v3.49
			c0,1.26,0.58,1.3,1.33,1.3h0.29v0.49c-0.93,0-1.87-0.06-2.8-0.06c-0.78,0-1.55,0.06-2.36,0.06v-0.49h0.29
			c0.61,0,1.16-0.27,1.16-0.88L120.78,38.12L120.78,38.12z M122.87,41.9L122.87,41.9h0.8c1.63,0,2.51-0.62,2.51-2.54
			c0-1.45-0.93-2.38-2.38-2.38c-0.49,0-0.7,0.05-0.93,0.07L122.87,41.9L122.87,41.9z"/>
		<path class="st0" d="M130.47,47.84c-0.55,0-1.07-0.07-1.6-0.07c-0.5,0-1.02,0.07-1.59,0.04c-1.25-1.64-2.32-3.39-3.38-5.26h-0.96
			v3.42c0.02,1.23,0.51,1.22,1.26,1.23h0.37v0.07v0.56h-0.07c-0.93,0-1.88-0.07-2.8-0.07c-0.78,0-1.54,0.07-2.36,0.07h-0.07v-0.07
			v-0.56h0.07h0.29c0.59,0,1.08-0.26,1.09-0.81v-8.29c-0.01-1.16-0.58-1.15-1.09-1.17h-0.36v-0.07v-0.56h0.07
			c0.53,0,1.53,0.06,2.53,0.06c0.97,0,1.76-0.06,2.63-0.06c2.05,0,3.95,0.57,3.95,2.94c0,1.47-0.97,2.39-2.23,2.91l2.74,4.1
			c0.46,0.68,0.74,0.84,1.53,0.95l0.06,0.01v0.06v0.56L130.47,47.84L130.47,47.84z M122.87,42.42L122.87,42.42h1.11l0.02,0.04
			c1.06,1.87,2.13,3.63,3.33,5.25c0.5,0,1.02-0.07,1.53-0.07c0.52,0,1.02,0.06,1.53,0.06v-0.36c-0.77-0.09-1.12-0.32-1.57-1
			l-2.84-4.25l0.08-0.03c1.28-0.5,2.22-1.37,2.22-2.81c0-2.26-1.76-2.79-3.81-2.8c-0.86,0-1.64,0.06-2.63,0.06
			c-0.96,0-1.92-0.06-2.46-0.06v0.35h0.22c0.51,0,1.23,0.08,1.23,1.31v8.29c0,0.65-0.61,0.95-1.23,0.95h-0.22v0.34
			c0.78,0,1.53-0.06,2.29-0.06c0.91,0,1.83,0.06,2.73,0.06v-0.34h-0.22c-0.74,0-1.41-0.09-1.41-1.38v-3.56H122.87L122.87,42.42z
			 M122.87,41.97L122.87,41.97h-0.07v-4.99l0.06-0.01c0.22-0.02,0.44-0.06,0.94-0.06c1.49,0,2.45,0.97,2.45,2.45
			c0,1.95-0.94,2.61-2.58,2.61L122.87,41.97L122.87,41.97z M123.67,41.83L123.67,41.83c1.61-0.01,2.43-0.57,2.44-2.47
			c-0.01-1.42-0.89-2.31-2.31-2.31c-0.44,0-0.65,0.04-0.86,0.06v4.73H123.67L123.67,41.83z"/>
		<path class="st0" d="M141.54,44.56l0.03-0.03v-6.11c0-1.34-0.93-1.53-1.42-1.53h-0.36v-0.49c0.77,0,1.51,0.06,2.28,0.06
			c0.67,0,1.34-0.06,2.01-0.06v0.49h-0.25c-0.69,0-1.45,0.13-1.45,2.07v7.42c0,0.57,0.02,1.14,0.1,1.65h-0.62l-8.4-9.36v6.72
			c0,1.42,0.28,1.91,1.53,1.91h0.28v0.49c-0.7,0-1.4-0.06-2.1-0.06c-0.74,0-1.49,0.06-2.22,0.06v-0.49h0.23
			c1.13,0,1.47-0.76,1.47-2.07v-6.87c0-0.91-0.75-1.47-1.48-1.47h-0.21v-0.49c0.62,0,1.26,0.06,1.87,0.06
			c0.49,0,0.96-0.06,1.45-0.06L141.54,44.56L141.54,44.56z"/>
		<path class="st0" d="M142.48,48.09l-0.67-0.02l-8.28-9.22v6.53c0.02,1.42,0.23,1.82,1.46,1.84h0.34v0.07v0.56h-0.07
			c-0.71,0-1.4-0.07-2.1-0.07c-0.73,0-1.48,0.07-2.22,0.07h-0.07v-0.07v-0.56h0.07h0.23c1.08,0,1.39-0.7,1.4-2v-6.86
			c0-0.87-0.71-1.4-1.41-1.4h-0.29v-0.07v-0.56h0.07c0.62,0,1.26,0.06,1.87,0.06c0.48,0,0.95-0.06,1.5-0.04l7.17,8.07v-6
			c0-1.3-0.87-1.46-1.35-1.46h-0.43v-0.07v-0.56h0.07c0.77,0,1.52,0.06,2.28,0.06c0.66,0,1.33-0.06,2-0.06h0.07v0.07v0.56h-0.07
			h-0.24c-0.67,0.02-1.37,0.08-1.38,2v7.42c0,0.57,0.01,1.14,0.1,1.64l0.01,0.08L142.48,48.09L142.48,48.09z M141.86,47.94
			L141.86,47.94h0.54c-0.07-0.49-0.09-1.03-0.09-1.57v-7.42c0-1.96,0.83-2.14,1.53-2.14h0.17v-0.34c-0.64,0-1.29,0.06-1.93,0.06
			c-0.75,0-1.48-0.06-2.21-0.06v0.34h0.29c0.5,0.01,1.49,0.23,1.49,1.61l-0.02,6.16l-0.03,0.03l-0.05,0.05l-7.26-8.2
			c-0.48,0-0.96,0.06-1.45,0.06c-0.6,0-1.21-0.06-1.81-0.06v0.34h0.14c0.77,0.01,1.55,0.58,1.55,1.54v6.86
			c0,1.31-0.37,2.14-1.54,2.15l-0.16,0v0.34c0.7,0,1.43-0.06,2.15-0.06c0.68,0,1.36,0.06,2.04,0.06v-0.34H135
			c-1.28,0-1.61-0.56-1.61-1.98v-6.9L141.86,47.94L141.86,47.94z M141.54,44.56L141.54,44.56l0.05-0.05L141.54,44.56z M141.5,44.53
			L141.5,44.53L141.5,44.53l-0.01-0.02L141.5,44.53z"/>
		<path class="st0" d="M146.7,45.44c-0.16,0.55-0.36,0.98-0.36,1.27c0,0.49,0.69,0.57,1.22,0.57h0.18v0.49
			c-0.65-0.04-1.32-0.06-1.98-0.06c-0.59,0-1.17,0.03-1.76,0.06v-0.49h0.1c0.64,0,1.17-0.37,1.42-1.06l2.61-7.48
			c0.21-0.6,0.51-1.42,0.61-2.02c0.52-0.18,1.17-0.5,1.48-0.7c0.05-0.02,0.08-0.03,0.13-0.03c0.05,0,0.08,0,0.12,0.05
			c0.05,0.13,0.09,0.28,0.15,0.41l3,8.53c0.2,0.57,0.39,1.17,0.6,1.66c0.2,0.46,0.54,0.65,1.08,0.65h0.1v0.49
			c-0.73-0.04-1.47-0.06-2.25-0.06c-0.8,0-1.62,0.03-2.45,0.06v-0.49h0.18c0.37,0,1.01-0.06,1.01-0.47c0-0.21-0.15-0.65-0.33-1.17
			l-0.63-1.89h-3.7L146.7,45.44L146.7,45.44z M149.08,38.21L149.08,38.21h-0.03l-1.52,4.62h3.05L149.08,38.21z"/>
		<path class="st0" d="M155.39,47.84c-0.73-0.03-1.47-0.07-2.24-0.07c-0.8,0-1.61,0.03-2.45,0.07l-0.07,0v-0.07v-0.56h0.07h0.18
			c0.38,0,0.94-0.09,0.94-0.4c0-0.19-0.14-0.63-0.32-1.15l-0.62-1.84h-3.6l-0.51,1.65c-0.17,0.56-0.36,0.99-0.36,1.25
			c0.01,0.4,0.61,0.5,1.16,0.5h0.25v0.07v0.56l-0.07,0c-0.65-0.03-1.32-0.07-1.97-0.07c-0.58,0-1.17,0.03-1.76,0.07l-0.08,0v-0.07
			v-0.56h0.07h0.1c0.61,0,1.11-0.35,1.35-1.01l2.61-7.48c0.21-0.6,0.51-1.42,0.65-2.07c0.51-0.17,1.17-0.5,1.48-0.7
			c0.05-0.01,0.09-0.04,0.16-0.04c0.04,0,0.13,0.01,0.18,0.1c0.05,0.13,0.1,0.28,0.15,0.41l3,8.53c0.19,0.57,0.39,1.17,0.6,1.66
			c0.19,0.44,0.49,0.61,1.01,0.61h0.17v0.07v0.56L155.39,47.84L155.39,47.84z M150.77,47.7L150.77,47.7
			c0.81-0.03,1.6-0.06,2.38-0.06c0.76,0,1.47,0.03,2.18,0.06v-0.34h-0.02c-0.56,0-0.94-0.22-1.14-0.7c-0.21-0.5-0.41-1.1-0.6-1.67
			l-3-8.53c-0.05-0.13-0.1-0.28-0.14-0.39c-0.01-0.02-0.01-0.02-0.02-0.02h-0.03c-0.03,0-0.05,0.01-0.09,0.02
			c-0.31,0.2-0.97,0.52-1.45,0.65c-0.1,0.62-0.39,1.43-0.61,2.04l-2.61,7.49c-0.25,0.71-0.82,1.11-1.48,1.11h-0.03v0.34
			c0.56-0.03,1.12-0.06,1.69-0.06c0.63,0,1.27,0.03,1.9,0.06v-0.34h-0.11c-0.53-0.01-1.27-0.07-1.29-0.64c0-0.33,0.2-0.74,0.36-1.29
			l0.07,0.02l-0.07-0.02l0.54-1.74h3.8l0.65,1.94c0.18,0.52,0.33,0.96,0.33,1.2c-0.02,0.5-0.71,0.54-1.08,0.55h-0.11L150.77,47.7
			L150.77,47.7z M147.44,42.9L147.44,42.9l1.56-4.76h0.05h0.03v0.07l-0.02,0l0.02,0v-0.07h0.05l1.55,4.76H147.44z M147.63,42.76
			L147.63,42.76h2.85l-1.42-4.37L147.63,42.76z M149.01,38.23L149.01,38.23l0.04-0.01L149.01,38.23z"/>
		<path class="st0" d="M156.11,37.2c-1.22,0-1.27,0.29-1.52,1.48h-0.49c0.06-0.46,0.15-0.91,0.2-1.39c0.07-0.46,0.09-0.91,0.09-1.38
			h0.39c0.13,0.49,0.54,0.47,0.98,0.47h8.42c0.44,0,0.84-0.02,0.88-0.51l0.39,0.07c-0.06,0.44-0.13,0.88-0.18,1.32
			c-0.03,0.44-0.03,0.88-0.03,1.32l-0.49,0.18c-0.03-0.6-0.11-1.57-1.21-1.57h-2.67v8.68c0,1.26,0.57,1.4,1.35,1.4h0.31v0.49
			c-0.64,0-1.78-0.06-2.66-0.06c-0.98,0-2.12,0.06-2.76,0.06v-0.49h0.31c0.9,0,1.36-0.08,1.36-1.37V37.2L156.11,37.2L156.11,37.2z"
			/>
		<path class="st0" d="M162.53,47.84c-0.64,0-1.78-0.07-2.66-0.07c-0.97,0-2.12,0.07-2.76,0.07h-0.07v-0.07v-0.56h0.07h0.31
			c0.9-0.02,1.26-0.03,1.28-1.3l0-8.64h-2.6V37.2v-0.07h2.74v8.78c0,1.31-0.53,1.44-1.42,1.44h-0.24v0.35
			c0.65-0.01,1.74-0.07,2.69-0.07c0.85,0,1.94,0.06,2.59,0.07v-0.35h-0.24c-0.78,0-1.42-0.19-1.42-1.47v-8.75h2.75
			c1.09,0,1.24,0.94,1.27,1.54l0.36-0.13c0-0.43,0-0.85,0.03-1.28c0.05-0.42,0.11-0.84,0.17-1.25l-0.25-0.04
			c-0.07,0.47-0.53,0.5-0.94,0.49h-8.42h-0.08c-0.38,0-0.8-0.02-0.95-0.48h-0.27c0,0.45-0.04,0.89-0.1,1.33
			c-0.04,0.45-0.12,0.88-0.18,1.31h0.35c0.22-1.14,0.36-1.51,1.58-1.49v0.07v0.07c-1.21,0.02-1.18,0.23-1.45,1.43l-0.01,0.06h-0.06
			h-0.57l0.01-0.08c0.07-0.46,0.15-0.91,0.2-1.39c0.07-0.46,0.1-0.91,0.1-1.38v-0.07h0.07h0.45l0.01,0.05
			c0.11,0.41,0.41,0.41,0.83,0.42l0.08,0h8.42c0.45-0.01,0.78-0.02,0.81-0.44l0-0.08l0.08,0.02l0.46,0.07l-0.01,0.07
			c-0.07,0.44-0.13,0.88-0.18,1.32c-0.03,0.43-0.03,0.88-0.03,1.32v0.05l-0.05,0.02l-0.58,0.21l0-0.1c-0.04-0.61-0.11-1.5-1.14-1.5
			h-2.6v8.61c0.02,1.23,0.5,1.32,1.28,1.33h0.38v0.07v0.56L162.53,47.84L162.53,47.84z"/>
		<path class="st0" d="M166.05,47.28h0.23c0.59,0,1.21-0.08,1.21-0.93v-8.54c0-0.85-0.62-0.93-1.21-0.93h-0.23v-0.49
			c0.64,0,1.61,0.06,2.41,0.06c0.82,0,1.8-0.06,2.56-0.06v0.49h-0.23c-0.59,0-1.21,0.08-1.21,0.93v8.54c0,0.85,0.62,0.93,1.21,0.93
			h0.23v0.49c-0.78,0-1.76-0.06-2.58-0.06c-0.8,0-1.76,0.06-2.4,0.06L166.05,47.28L166.05,47.28z"/>
		<path class="st0" d="M171.03,47.84c-0.79,0-1.76-0.07-2.58-0.07c-0.8,0-1.76,0.07-2.4,0.07h-0.07v-0.07v-0.49v-0.07h0.07h0.23
			c0.59-0.01,1.13-0.06,1.13-0.86v-8.54c0-0.8-0.54-0.85-1.13-0.86h-0.3v-0.07v-0.56h0.07c0.64,0,1.62,0.06,2.41,0.06
			c0.81,0,1.79-0.06,2.56-0.06h0.07v0.07v0.56h-0.07h-0.23c-0.6,0.01-1.13,0.07-1.14,0.86v8.54c0.01,0.8,0.54,0.85,1.14,0.86h0.3
			v0.07v0.56L171.03,47.84L171.03,47.84z M170.96,47.7L170.96,47.7v-0.34h-0.16c-0.58,0-1.28-0.1-1.28-1v-8.54c0-0.9,0.69-1,1.28-1
			h0.16v-0.35c-0.75,0-1.69,0.06-2.49,0.06c-0.77,0-1.71-0.06-2.34-0.06v0.35h0.16c0.58,0,1.27,0.1,1.28,1v8.54c0,0.9-0.7,1-1.28,1
			h-0.16v0.34c0.63-0.01,1.55-0.06,2.33-0.06C169.24,47.64,170.19,47.7,170.96,47.7L170.96,47.7z"/>
		<path class="st0" d="M177.53,36.14c3.48,0,6.25,2.16,6.25,5.63c0,3.75-2.69,6.24-6.16,6.24c-3.46,0-6.1-2.35-6.1-5.85
			C171.52,38.77,174.14,36.14,177.53,36.14L177.53,36.14z M177.78,47.3L177.78,47.3c3.16,0,3.71-2.79,3.71-5.17
			c0-2.38-1.28-5.27-3.99-5.27c-2.85,0-3.7,2.54-3.7,4.73C173.8,44.51,175.13,47.3,177.78,47.3L177.78,47.3z"/>
		<path class="st0" d="M171.44,42.16c0.01-3.43,2.66-6.08,6.09-6.09v0.07v0.07c-3.35,0-5.95,2.59-5.95,5.95
			c0.01,3.47,2.61,5.78,6.03,5.78c3.44,0,6.09-2.46,6.09-6.17c0-3.43-2.73-5.55-6.18-5.56v-0.07v-0.07c3.5,0,6.31,2.18,6.32,5.7
			c0,3.79-2.73,6.31-6.23,6.32C174.13,48.08,171.45,45.71,171.44,42.16L171.44,42.16L171.44,42.16z M173.73,41.59L173.73,41.59
			c0-2.19,0.86-4.8,3.77-4.8c2.77,0.01,4.06,2.95,4.06,5.34c0,2.38-0.56,5.24-3.79,5.24V47.3v-0.07c3.1,0,3.64-2.72,3.65-5.1
			c0-2.36-1.27-5.19-3.92-5.2c-2.8,0-3.63,2.48-3.63,4.66c0,2.9,1.33,5.63,3.91,5.64v0.07v0.07
			C175.07,47.36,173.73,44.53,173.73,41.59L173.73,41.59z"/>
		<path class="st0" d="M194.76,44.56l0.03-0.03v-6.11c0-1.34-0.93-1.53-1.42-1.53h-0.35v-0.49c0.76,0,1.51,0.06,2.28,0.06
			c0.67,0,1.34-0.06,2.01-0.06v0.49h-0.25c-0.68,0-1.45,0.13-1.45,2.07v7.42c0,0.57,0.02,1.14,0.1,1.65h-0.62l-8.4-9.36v6.72
			c0,1.42,0.28,1.91,1.53,1.91h0.28v0.49c-0.7,0-1.4-0.06-2.1-0.06c-0.73,0-1.49,0.06-2.22,0.06v-0.49h0.23
			c1.13,0,1.47-0.76,1.47-2.07v-6.87c0-0.91-0.75-1.47-1.48-1.47h-0.21v-0.49c0.62,0,1.26,0.06,1.87,0.06
			c0.49,0,0.96-0.06,1.45-0.06L194.76,44.56L194.76,44.56z"/>
		<path class="st0" d="M195.71,48.09l-0.67-0.02l-8.27-9.22v6.54c0.02,1.42,0.23,1.82,1.46,1.83h0.35v0.07v0.56h-0.07
			c-0.71,0-1.41-0.07-2.1-0.07c-0.73,0-1.48,0.07-2.22,0.07h-0.07v-0.07v-0.56h0.07h0.23c1.08,0,1.38-0.7,1.4-2v-6.87
			c0-0.87-0.71-1.4-1.41-1.4h-0.28v-0.07v-0.56h0.07c0.63,0,1.26,0.06,1.88,0.06c0.48,0,0.95-0.06,1.51-0.04l7.16,8.07v-6
			c0-1.3-0.87-1.45-1.35-1.47h-0.43v-0.07v-0.56h0.07c0.77,0,1.52,0.06,2.28,0.06c0.67,0,1.33-0.06,2.01-0.06h0.07v0.07v0.56h-0.07
			h-0.25c-0.67,0.02-1.36,0.08-1.38,2v7.42c0,0.57,0.01,1.14,0.09,1.64l0.01,0.08L195.71,48.09L195.71,48.09z M195.09,47.94
			L195.09,47.94h0.53c-0.07-0.49-0.08-1.03-0.08-1.57v-7.42c0-1.96,0.82-2.14,1.52-2.14h0.18v-0.34c-0.64,0-1.29,0.06-1.94,0.06
			c-0.74,0-1.47-0.06-2.21-0.06v0.34h0.29c0.51,0.01,1.49,0.23,1.49,1.61l-0.02,6.16l-0.03,0.03l-0.05,0.05l-7.26-8.2
			c-0.48,0-0.96,0.06-1.45,0.06c-0.6,0-1.21-0.06-1.81-0.06v0.34h0.14c0.77,0.01,1.55,0.58,1.55,1.54v6.87
			c0,1.3-0.36,2.14-1.54,2.14l-0.16,0v0.34c0.71,0,1.43-0.06,2.15-0.06c0.68,0,1.35,0.06,2.03,0.06v-0.34h-0.21
			c-1.28,0-1.6-0.56-1.6-1.98v-6.9L195.09,47.94L195.09,47.94z M194.77,44.56L194.77,44.56l0.05-0.05L194.77,44.56z M194.73,44.53
			L194.73,44.53L194.73,44.53l-0.01-0.02L194.73,44.53z"/>
		<path class="st0" d="M199.93,45.44c-0.16,0.55-0.36,0.98-0.36,1.27c0,0.49,0.69,0.57,1.22,0.57h0.18v0.49
			c-0.65-0.04-1.32-0.06-1.97-0.06c-0.59,0-1.17,0.03-1.76,0.06v-0.49h0.09c0.64,0,1.18-0.37,1.42-1.06l2.61-7.48
			c0.21-0.6,0.51-1.42,0.6-2.02c0.52-0.18,1.17-0.5,1.49-0.7c0.05-0.02,0.08-0.03,0.13-0.03c0.05,0,0.08,0,0.11,0.05
			c0.05,0.13,0.1,0.28,0.15,0.41l3,8.53c0.2,0.57,0.39,1.17,0.6,1.66c0.2,0.46,0.54,0.65,1.08,0.65h0.1v0.49
			c-0.73-0.04-1.47-0.06-2.25-0.06c-0.8,0-1.61,0.03-2.45,0.06v-0.49h0.18c0.37,0,1.01-0.06,1.01-0.47c0-0.21-0.15-0.65-0.33-1.17
			l-0.63-1.89h-3.7L199.93,45.44L199.93,45.44z M202.31,38.21L202.31,38.21h-0.03l-1.52,4.62h3.05L202.31,38.21z"/>
		<path class="st0" d="M208.62,47.84c-0.73-0.03-1.47-0.07-2.25-0.07c-0.8,0-1.61,0.04-2.44,0.07l-0.07,0v-0.07v-0.56h0.07h0.18
			c0.38,0,0.94-0.09,0.94-0.4c0-0.19-0.14-0.63-0.33-1.15l-0.62-1.84h-3.6l-0.5,1.65c-0.16,0.56-0.36,0.99-0.35,1.25
			c0,0.4,0.61,0.5,1.15,0.5h0.25v0.07v0.57l-0.07,0c-0.65-0.03-1.32-0.07-1.97-0.07c-0.58,0-1.17,0.04-1.76,0.07l-0.07,0v-0.07
			v-0.56h0.07h0.09c0.61,0,1.12-0.35,1.35-1.01l2.61-7.48c0.21-0.6,0.5-1.42,0.65-2.07c0.51-0.18,1.17-0.5,1.48-0.7
			c0.04-0.01,0.09-0.03,0.15-0.03c0.04,0,0.13,0.01,0.18,0.09c0.05,0.13,0.1,0.28,0.15,0.41l3,8.53c0.19,0.57,0.39,1.17,0.6,1.66
			c0.19,0.43,0.49,0.6,1.01,0.61h0.17v0.07v0.57L208.62,47.84L208.62,47.84z M204,47.7L204,47.7c0.81-0.03,1.6-0.06,2.38-0.06
			c0.76,0,1.47,0.03,2.18,0.06l0-0.34h-0.03c-0.55,0-0.94-0.22-1.14-0.7c-0.21-0.5-0.41-1.1-0.6-1.67l-3-8.53
			c-0.05-0.13-0.1-0.28-0.14-0.39c-0.01-0.02-0.01-0.02-0.02-0.02h-0.03c-0.03,0-0.05,0.01-0.09,0.02c-0.32,0.2-0.97,0.53-1.45,0.65
			c-0.1,0.62-0.4,1.43-0.61,2.04l-2.61,7.49c-0.25,0.71-0.82,1.11-1.48,1.11h-0.02v0.34c0.56-0.03,1.12-0.06,1.69-0.06
			c0.63,0,1.28,0.03,1.9,0.06v-0.34h-0.11c-0.53-0.01-1.27-0.06-1.29-0.64c0-0.32,0.21-0.74,0.36-1.29l0.07,0.02l-0.07-0.02
			l0.54-1.74h3.8l0.65,1.94c0.18,0.52,0.33,0.96,0.33,1.2c-0.02,0.5-0.71,0.54-1.08,0.55H204L204,47.7L204,47.7z M200.67,42.9
			L200.67,42.9l1.56-4.76h0.05h0.04v0.07l-0.02,0l0.02,0v-0.07h0.05l1.54,4.76H200.67z M200.86,42.76L200.86,42.76h2.85l-1.42-4.37
			L200.86,42.76L200.86,42.76z M202.25,38.23L202.25,38.23l0.03-0.01L202.25,38.23z"/>
		<path class="st0" d="M212.73,46.17c0,0.65,0.45,0.85,0.97,0.91c0.67,0.05,1.4,0.05,2.16-0.03c0.68-0.08,1.27-0.47,1.56-0.88
			c0.26-0.36,0.41-0.82,0.51-1.17h0.47c-0.18,0.93-0.41,1.85-0.6,2.77c-1.43,0-2.87-0.06-4.3-0.06c-1.44,0-2.87,0.06-4.3,0.06v-0.49
			h0.22c0.59,0,1.23-0.08,1.23-1.09v-8.38c0-0.85-0.64-0.93-1.23-0.93h-0.22v-0.49c0.86,0,1.71,0.06,2.57,0.06
			c0.83,0,1.65-0.06,2.48-0.06v0.49h-0.41c-0.62,0-1.1,0.02-1.1,0.88V46.17L212.73,46.17z"/>
		<path class="st0" d="M217.8,47.84c-1.44,0-2.87-0.07-4.3-0.07c-1.44,0-2.87,0.07-4.31,0.07h-0.07v-0.07v-0.56h0.07h0.23
			c0.59-0.01,1.15-0.05,1.16-1.02v-8.38c-0.01-0.79-0.56-0.85-1.16-0.86h-0.3v-0.07v-0.56h0.07c0.87,0,1.72,0.06,2.58,0.06
			c0.83,0,1.64-0.06,2.48-0.06h0.07v0.07v0.56h-0.07h-0.41c-0.63,0.02-1.03-0.01-1.04,0.81v8.42c0,0.61,0.4,0.77,0.91,0.84
			c0.29,0.02,0.59,0.03,0.9,0.03c0.4,0,0.81-0.02,1.23-0.06c0.66-0.08,1.24-0.46,1.52-0.85c0.25-0.35,0.4-0.8,0.49-1.15l0.01-0.05
			h0.05h0.56l-0.01,0.09c-0.18,0.93-0.41,1.84-0.61,2.77l-0.01,0.06L217.8,47.84L217.8,47.84L217.8,47.84z M217.74,47.7L217.74,47.7
			c0.19-0.88,0.4-1.75,0.58-2.63h-0.33c-0.1,0.36-0.25,0.79-0.5,1.15c-0.3,0.42-0.91,0.82-1.61,0.91c-0.43,0.04-0.85,0.07-1.25,0.07
			c-0.32,0-0.62-0.01-0.92-0.04c-0.53-0.06-1.04-0.28-1.04-0.98v-8.42c0-0.91,0.57-0.95,1.18-0.95h0.34v-0.35
			c-0.8,0-1.6,0.06-2.41,0.06c-0.84,0-1.67-0.06-2.51-0.06v0.35h0.16c0.58,0,1.29,0.1,1.29,1v8.38c0,1.05-0.71,1.16-1.29,1.16h-0.16
			v0.34c1.41,0,2.82-0.06,4.24-0.06S216.33,47.7,217.74,47.7L217.74,47.7z"/>
		<path class="st0" d="M218.21,35.92c0.98,0,1.72,0.76,1.72,1.72c0,0.96-0.73,1.71-1.72,1.71c-0.98,0-1.72-0.75-1.72-1.71
			C216.49,36.68,217.22,35.92,218.21,35.92z M218.21,39.04L218.21,39.04c0.77,0,1.36-0.66,1.36-1.39c0-0.74-0.58-1.4-1.36-1.4
			c-0.77,0-1.36,0.66-1.36,1.4C216.84,38.38,217.43,39.04,218.21,39.04z M217.35,38.55L217.35,38.55v-0.08
			c0.21-0.03,0.25-0.02,0.25-0.15v-1.27c0-0.18-0.02-0.24-0.24-0.23v-0.09h0.88c0.3,0,0.58,0.14,0.58,0.46
			c0,0.26-0.17,0.44-0.41,0.52l0.28,0.39c0.13,0.18,0.28,0.35,0.38,0.4v0.06h-0.33c-0.16,0-0.3-0.34-0.62-0.79h-0.19v0.57
			c0,0.11,0.04,0.11,0.25,0.14v0.08L217.35,38.55L217.35,38.55z M217.93,37.65L217.93,37.65h0.2c0.22,0,0.33-0.17,0.33-0.44
			c0-0.27-0.16-0.37-0.34-0.37h-0.19V37.65z"/>
		<g>
			<path class="st0" d="M36.71,0h-7.97C12.97-0.01,0,11.75,0,28.74c0,15.55,12.97,28.32,28.74,28.25h7.97
				c15.58,0.07,29.79-12.7,29.79-28.25C66.5,11.74,52.28-0.01,36.71,0z M28.8,54.53c-14.4,0-26.07-11.68-26.08-26.08
				C2.73,14.03,14.4,2.36,28.8,2.36c14.41,0,26.08,11.68,26.08,26.09C54.88,42.85,43.21,54.52,28.8,54.53z"/>
			<path class="st0" d="M12.27,28.44c0.01,7.04,4.41,13.04,10.61,15.43V13.01C16.68,15.4,12.28,21.4,12.27,28.44z"/>
			<path class="st0" d="M34.72,13.01v30.87c6.2-2.38,10.61-8.39,10.62-15.43C45.32,21.4,40.92,15.39,34.72,13.01z"/>
		</g>
		<path class="st0" d="M81.07,12.26c0-2.7-1.41-2.52-2.75-2.55V8.93c1.17,0.06,2.37,0.06,3.54,0.06c1.26,0,2.97-0.06,5.19-0.06
			c7.76,0,11.98,5.18,11.98,10.49c0,2.97-1.74,10.43-12.35,10.43c-1.53,0-2.94-0.06-4.35-0.06c-1.35,0-2.67,0.03-4.02,0.06v-0.78
			c1.8-0.18,2.67-0.24,2.75-2.28L81.07,12.26L81.07,12.26z M84,26.32L84,26.32c0,2.31,1.65,2.58,3.12,2.58c6.47,0,8.6-4.89,8.6-9.35
			c0-5.6-3.6-9.65-9.38-9.65c-1.23,0-1.8,0.09-2.34,0.12L84,26.32L84,26.32z"/>
		<path class="st0" d="M100.07,29.08h0.57c0.84,0,1.44,0,1.44-0.99v-8.12c0-1.32-0.45-1.5-1.56-2.1v-0.48
			c1.41-0.42,3.09-0.99,3.21-1.08c0.21-0.12,0.39-0.15,0.54-0.15c0.15,0,0.21,0.18,0.21,0.42v11.51c0,0.99,0.66,0.99,1.5,0.99h0.51
			v0.78c-1.02,0-2.07-0.06-3.15-0.06c-1.08,0-2.16,0.03-3.27,0.06L100.07,29.08L100.07,29.08z M103.28,11.54L103.28,11.54
			c-0.78,0-1.47-0.72-1.47-1.5c0-0.75,0.72-1.44,1.47-1.44c0.78,0,1.47,0.63,1.47,1.44C104.74,10.85,104.08,11.54,103.28,11.54z"/>
		<path class="st0" d="M109.33,20.14c0-1.11-0.33-1.41-1.74-1.98V17.6c1.29-0.42,2.51-0.81,3.95-1.44c0.09,0,0.18,0.06,0.18,0.3
			v1.95c1.71-1.23,3.18-2.25,5.19-2.25c2.54,0,3.44,1.86,3.44,4.2v7.73c0,0.99,0.66,0.99,1.5,0.99h0.54v0.78
			c-1.05,0-2.1-0.06-3.18-0.06c-1.08,0-2.16,0.03-3.24,0.06v-0.78h0.54c0.84,0,1.44,0,1.44-0.99v-7.76c0-1.71-1.04-2.55-2.75-2.55
			c-0.96,0-2.49,0.78-3.48,1.44v8.87c0,0.99,0.66,0.99,1.5,0.99h0.54v0.78c-1.05,0-2.1-0.06-3.18-0.06c-1.08,0-2.16,0.03-3.24,0.06
			v-0.78h0.54c0.84,0,1.44,0,1.44-0.99L109.33,20.14L109.33,20.14z"/>
		<path class="st0" d="M124.67,21.58c-0.06,0.27-0.06,0.72,0,1.74c0.18,2.85,2.01,5.18,4.4,5.18c1.65,0,2.94-0.9,4.05-2.01
			l0.42,0.42c-1.38,1.83-3.09,3.39-5.54,3.39c-4.77,0-5.72-4.62-5.72-6.53c0-5.88,3.96-7.61,6.05-7.61c2.43,0,5.04,1.53,5.07,4.7
			c0,0.18,0,0.36-0.03,0.54l-0.27,0.18H124.67L124.67,21.58z M129.98,20.62L129.98,20.62c0.75,0,0.84-0.39,0.84-0.75
			c0-1.53-0.93-2.76-2.61-2.76c-1.83,0-3.08,1.35-3.44,3.51H129.98L129.98,20.62z"/>
		<path class="st0" d="M134.08,29.08h0.81c0.84,0,1.44,0,1.44-0.99v-8.42c0-0.93-1.11-1.11-1.56-1.35v-0.45
			c2.19-0.93,3.39-1.71,3.66-1.71c0.18,0,0.27,0.09,0.27,0.39v2.7h0.06c0.75-1.17,2.01-3.09,3.83-3.09c0.75,0,1.71,0.51,1.71,1.59
			c0,0.81-0.57,1.53-1.41,1.53c-0.93,0-0.93-0.72-1.98-0.72c-0.51,0-2.19,0.69-2.19,2.49v7.04c0,0.99,0.6,0.99,1.44,0.99h1.68v0.78
			c-1.65-0.03-2.9-0.06-4.19-0.06c-1.23,0-2.49,0.03-3.57,0.06L134.08,29.08L134.08,29.08z"/>
		<path class="st0" d="M145.62,25.69c0.39,1.98,1.59,3.66,3.78,3.66c1.76,0,2.42-1.08,2.42-2.13c0-3.54-6.53-2.4-6.53-7.22
			c0-1.68,1.35-3.84,4.64-3.84c0.96,0,2.25,0.27,3.41,0.87l0.21,3.05h-0.69c-0.3-1.89-1.35-2.97-3.27-2.97
			c-1.2,0-2.34,0.69-2.34,1.98c0,3.51,6.95,2.43,6.95,7.13c0,1.98-1.59,4.08-5.15,4.08c-1.2,0-2.61-0.42-3.65-1.02l-0.33-3.45
			L145.62,25.69L145.62,25.69z"/>
		<path class="st0" d="M181.28,14.36h-0.75c-0.57-3.51-3.06-4.92-6.41-4.92c-3.45,0-8.45,2.31-8.45,9.5c0,6.06,4.32,10.4,8.93,10.4
			c2.97,0,5.43-2.04,6.02-5.19l0.69,0.18l-0.69,4.38c-1.26,0.78-4.64,1.59-6.62,1.59c-7.01,0-11.44-4.53-11.44-11.27
			c0-6.14,5.48-10.55,11.36-10.55c2.43,0,4.76,0.78,7.07,1.59L181.28,14.36L181.28,14.36z"/>
		<path class="st0" d="M182.36,29.08h0.57c0.84,0,1.44,0,1.44-0.99V11.39c0-1.95-0.45-2.01-1.59-2.34V8.58
			c1.2-0.39,2.46-0.93,3.09-1.29c0.33-0.18,0.57-0.33,0.66-0.33c0.18,0,0.24,0.18,0.24,0.42v20.71c0,0.99,0.66,0.99,1.5,0.99h0.51
			v0.78c-1.01,0-2.06-0.06-3.14-0.06c-1.08,0-2.16,0.03-3.27,0.06L182.36,29.08L182.36,29.08z"/>
		<path class="st0" d="M201.6,28.2c0,0.54,0.33,0.57,0.84,0.57c0.36,0,0.81-0.03,1.2-0.03v0.63c-1.29,0.12-3.75,0.75-4.32,0.93
			l-0.15-0.09v-2.43c-1.8,1.47-3.18,2.52-5.31,2.52c-1.62,0-3.3-1.05-3.3-3.56v-7.68c0-0.78-0.12-1.53-1.79-1.68v-0.57
			c1.08-0.03,3.47-0.21,3.86-0.21c0.33,0,0.33,0.21,0.33,0.87v7.73c0,0.9,0,3.48,2.61,3.48c1.02,0,2.37-0.78,3.62-1.82v-8.07
			c0-0.6-1.44-0.93-2.51-1.23v-0.54c2.69-0.18,4.37-0.42,4.67-0.42c0.24,0,0.24,0.21,0.24,0.54L201.6,28.2L201.6,28.2z"/>
		<path class="st0" d="M207.56,18.32c1.2-1.02,2.82-2.16,4.46-2.16c3.48,0,5.57,3.03,5.57,6.29c0,3.93-2.88,7.85-7.16,7.85
			c-2.22,0-3.38-0.72-4.16-1.05l-0.9,0.69l-0.63-0.33c0.27-1.77,0.42-3.51,0.42-5.33V11.39c0-1.95-0.45-2.01-1.59-2.34V8.58
			c1.2-0.39,2.46-0.93,3.09-1.29c0.33-0.18,0.57-0.33,0.66-0.33c0.18,0,0.24,0.18,0.24,0.42L207.56,18.32L207.56,18.32L207.56,18.32
			z M207.56,26.47L207.56,26.47c0,1.14,1.08,3.06,3.09,3.06c3.21,0,4.55-3.15,4.55-5.82c0-3.24-2.45-5.93-4.79-5.93
			c-1.11,0-2.04,0.72-2.85,1.41L207.56,26.47L207.56,26.47z"/>
		<path class="st0" d="M78.28,47.28h0.23c0.59,0,1.21-0.08,1.21-0.93v-8.54c0-0.85-0.62-0.93-1.21-0.93h-0.23v-0.49
			c0.64,0,1.61,0.06,2.42,0.06c0.81,0,1.79-0.06,2.56-0.06v0.49h-0.23c-0.58,0-1.21,0.08-1.21,0.93v8.54c0,0.85,0.62,0.93,1.21,0.93
			h0.23v0.49c-0.78,0-1.76-0.06-2.58-0.06c-0.8,0-1.76,0.06-2.4,0.06L78.28,47.28L78.28,47.28z"/>
		<path class="st0" d="M83.25,47.84c-0.79,0-1.76-0.07-2.58-0.07c-0.8,0-1.76,0.07-2.4,0.07h-0.07v-0.07v-0.49v-0.07h0.07h0.23
			c0.59-0.01,1.13-0.06,1.14-0.86v-8.54c-0.01-0.8-0.54-0.85-1.14-0.86h-0.3v-0.07v-0.56h0.07c0.64,0,1.62,0.06,2.42,0.06
			c0.81,0,1.79-0.06,2.56-0.06h0.07v0.07v0.56h-0.07h-0.23c-0.59,0.01-1.13,0.06-1.14,0.86v8.54c0,0.8,0.54,0.84,1.14,0.86h0.3v0.07
			v0.56L83.25,47.84L83.25,47.84z M83.18,47.7L83.18,47.7v-0.35h-0.16c-0.58,0-1.28-0.1-1.28-1v-8.54c0-0.9,0.7-1,1.28-1h0.16v-0.35
			c-0.75,0-1.7,0.06-2.49,0.06c-0.77,0-1.71-0.06-2.34-0.06v0.35h0.16c0.58,0,1.28,0.1,1.28,1v8.54c0,0.9-0.7,1-1.28,1h-0.16v0.35
			c0.63-0.01,1.55-0.07,2.32-0.07C81.47,47.64,82.41,47.7,83.18,47.7L83.18,47.7z"/>
		<path class="st0" d="M94.45,44.56l0.03-0.03v-6.11c0-1.34-0.93-1.53-1.42-1.53h-0.36v-0.49c0.77,0,1.52,0.06,2.28,0.06
			c0.67,0,1.34-0.06,2.01-0.06v0.49h-0.24c-0.69,0-1.45,0.13-1.45,2.07v7.42c0,0.57,0.02,1.14,0.1,1.65h-0.62l-8.4-9.36v6.72
			c0,1.42,0.27,1.91,1.53,1.91h0.28v0.49c-0.7,0-1.4-0.06-2.1-0.06c-0.73,0-1.48,0.06-2.22,0.06v-0.49h0.23
			c1.13,0,1.47-0.76,1.47-2.07v-6.87c0-0.91-0.75-1.47-1.48-1.47h-0.21v-0.49c0.62,0,1.26,0.06,1.87,0.06
			c0.49,0,0.96-0.06,1.45-0.06L94.45,44.56L94.45,44.56z"/>
		<path class="st0" d="M95.4,48.09l-0.67-0.02l-8.27-9.22v6.54c0.02,1.42,0.24,1.82,1.46,1.84h0.35v0.07v0.56h-0.07
			c-0.71,0-1.41-0.07-2.1-0.07c-0.73,0-1.48,0.07-2.22,0.07H83.8v-0.07v-0.56h0.07h0.23c1.08-0.01,1.39-0.7,1.4-2v-6.87
			c0-0.87-0.71-1.4-1.41-1.4H83.8v-0.07v-0.56h0.07c0.62,0,1.26,0.06,1.87,0.06c0.49,0,0.96-0.06,1.51-0.04l7.17,8.07v-6
			c-0.01-1.3-0.87-1.45-1.35-1.47h-0.43v-0.07v-0.56h0.07c0.77,0,1.52,0.06,2.28,0.06c0.66,0,1.33-0.06,2.01-0.06h0.07v0.07v0.56H97
			h-0.24c-0.67,0.02-1.36,0.08-1.38,2v7.42c0,0.57,0.02,1.14,0.1,1.63l0.02,0.08L95.4,48.09L95.4,48.09z M94.78,47.94L94.78,47.94
			h0.54c-0.07-0.49-0.09-1.03-0.09-1.57v-7.42c0-1.96,0.82-2.14,1.52-2.14h0.17v-0.35c-0.64,0-1.29,0.06-1.93,0.06
			c-0.75,0-1.47-0.06-2.21-0.06l0,0.35h0.29c0.5,0,1.49,0.22,1.49,1.61l-0.02,6.16l-0.03,0.03l-0.06,0.05l-7.25-8.2
			c-0.48,0-0.96,0.06-1.45,0.06c-0.6,0-1.21-0.06-1.8-0.06l0,0.35h0.14c0.77,0,1.55,0.58,1.55,1.54v6.87c0,1.3-0.36,2.14-1.54,2.14
			l-0.16,0v0.35c0.71-0.01,1.43-0.07,2.15-0.07c0.68,0,1.36,0.06,2.03,0.07v-0.35h-0.21c-1.28,0-1.6-0.56-1.6-1.98v-6.9L94.78,47.94
			L94.78,47.94z M94.45,44.56L94.45,44.56l0.05-0.05L94.45,44.56z M94.42,44.53L94.42,44.53L94.42,44.53l-0.01-0.02L94.42,44.53z"/>
		<path class="st0" d="M99.44,37.2c-1.22,0-1.27,0.29-1.52,1.48h-0.49c0.06-0.46,0.15-0.91,0.2-1.39c0.07-0.46,0.1-0.91,0.1-1.38
			h0.39c0.13,0.49,0.54,0.47,0.98,0.47h8.41c0.44,0,0.85-0.02,0.88-0.51l0.39,0.07c-0.06,0.44-0.13,0.88-0.18,1.32
			c-0.03,0.44-0.03,0.88-0.03,1.32l-0.49,0.18c-0.03-0.6-0.12-1.57-1.21-1.57h-2.67v8.68c0,1.26,0.57,1.4,1.35,1.4h0.31v0.49
			c-0.64,0-1.78-0.06-2.66-0.06c-0.98,0-2.12,0.06-2.76,0.06v-0.49h0.31c0.9,0,1.35-0.08,1.35-1.37V37.2L99.44,37.2L99.44,37.2z"/>
		<path class="st0" d="M105.87,47.84c-0.64,0-1.78-0.07-2.66-0.07c-0.98,0-2.12,0.07-2.76,0.07h-0.07v-0.07v-0.56h0.07h0.31
			c0.9-0.02,1.26-0.03,1.28-1.3v-8.64h-2.6V37.2v-0.07h2.74v8.78c0,1.31-0.53,1.44-1.42,1.44h-0.24v0.34c0.64,0,1.74-0.06,2.69-0.06
			c0.85,0,1.94,0.06,2.58,0.06v-0.34h-0.24c-0.79,0-1.42-0.19-1.42-1.48v-8.75h2.75c1.09,0,1.24,0.94,1.27,1.54l0.35-0.13
			c0-0.43,0-0.85,0.03-1.28c0.05-0.42,0.11-0.84,0.17-1.25l-0.25-0.04c-0.08,0.47-0.53,0.5-0.94,0.49H99.1h-0.08
			c-0.38,0-0.8-0.02-0.95-0.47H97.8c0,0.45-0.03,0.89-0.1,1.32c-0.05,0.45-0.12,0.88-0.18,1.31h0.35c0.21-1.14,0.36-1.51,1.57-1.49
			v0.07v0.07c-1.21,0.02-1.18,0.23-1.45,1.43l-0.01,0.06h-0.06h-0.57l0.01-0.08c0.07-0.46,0.15-0.91,0.2-1.39
			c0.07-0.45,0.1-0.9,0.1-1.37v-0.07h0.07h0.45l0.01,0.05c0.11,0.41,0.41,0.41,0.83,0.42h0.08h8.41c0.45-0.01,0.78-0.01,0.81-0.44
			l0.01-0.08l0.07,0.02l0.46,0.07l-0.01,0.07c-0.07,0.44-0.13,0.88-0.18,1.32c-0.03,0.43-0.03,0.88-0.03,1.32v0.05l-0.05,0.02
			l-0.58,0.21l0-0.09c-0.04-0.61-0.11-1.5-1.14-1.5h-2.6v8.61c0.01,1.23,0.5,1.32,1.28,1.33h0.38v0.07v0.56L105.87,47.84
			L105.87,47.84z"/>
		<path class="st0" d="M109.3,47.28h0.23c0.59,0,1.21-0.08,1.21-0.93v-8.54c0-0.85-0.62-0.93-1.21-0.93h-0.23v-0.49
			c0.99,0,2.69,0.06,4.06,0.06c1.37,0,3.07-0.06,4.17-0.06c-0.03,0.7-0.01,1.78,0.04,2.49l-0.49,0.13
			c-0.08-1.06-0.27-1.91-1.99-1.91h-2.26v4.27h1.94c0.98,0,1.19-0.55,1.29-1.44h0.49c-0.03,0.64-0.05,1.27-0.05,1.91
			c0,0.62,0.02,1.24,0.05,1.86l-0.49,0.1c-0.1-0.98-0.15-1.61-1.27-1.61h-1.95v3.8c0,1.06,0.94,1.06,1.99,1.06
			c1.96,0,2.82-0.13,3.31-1.99l0.46,0.11c-0.21,0.87-0.41,1.73-0.55,2.59c-1.04,0-2.92-0.06-4.39-0.06c-1.47,0-3.41,0.06-4.34,0.06
			L109.3,47.28L109.3,47.28z"/>
		<path class="st0" d="M118.03,47.84c-1.05,0-2.92-0.07-4.39-0.07c-1.47,0-3.41,0.07-4.34,0.07h-0.07v-0.07v-0.49v-0.07h0.07h0.23
			c0.59-0.01,1.13-0.06,1.14-0.86v-8.54c-0.01-0.8-0.54-0.85-1.14-0.86h-0.3v-0.07v-0.56h0.07c1,0,2.69,0.06,4.06,0.06
			c1.37,0,3.06-0.06,4.17-0.06h0.07l0,0.07c-0.01,0.25-0.02,0.53-0.02,0.84c0,0.56,0.02,1.18,0.05,1.65l0,0.06l-0.05,0.02
			l-0.57,0.15l0-0.08c-0.1-1.06-0.24-1.83-1.92-1.84h-2.2l0,4.13h1.87c0.94-0.01,1.11-0.49,1.22-1.37l0.01-0.06h0.06h0.56l0,0.07
			c-0.03,0.64-0.05,1.27-0.05,1.91c0,0.62,0.02,1.24,0.05,1.86l0,0.06l-0.06,0.01l-0.57,0.11l-0.01-0.08c-0.11-1-0.12-1.54-1.2-1.55
			l-1.88,0v3.73c0,0.99,0.86,0.98,1.92,0.99c1.96-0.01,2.75-0.11,3.24-1.94l0.02-0.07l0.07,0.01l0.52,0.13l-0.02,0.07
			c-0.21,0.86-0.41,1.73-0.55,2.59l-0.01,0.06L118.03,47.84L118.03,47.84z M117.97,47.7L117.97,47.7c0.14-0.82,0.33-1.65,0.53-2.47
			l-0.32-0.08c-0.49,1.83-1.43,1.99-3.36,1.98c-1.03,0-2.06,0-2.06-1.13v-3.87h2.03c1.14-0.01,1.26,0.68,1.34,1.6l0.35-0.07
			c-0.03-0.6-0.05-1.2-0.05-1.8c0-0.61,0.01-1.22,0.05-1.84h-0.35c-0.09,0.85-0.36,1.45-1.35,1.43h-2.01v-4.41h2.34
			c1.7-0.01,1.98,0.86,2.05,1.89l0.35-0.09c-0.03-0.46-0.05-1.05-0.05-1.6c0-0.28,0.01-0.54,0.02-0.77c-1.11,0-2.76,0.06-4.1,0.06
			c-1.34,0-2.99-0.06-3.99-0.06v0.35h0.16c0.58,0,1.28,0.1,1.28,1v8.54c0,0.9-0.7,1-1.28,1h-0.16v0.34c0.95,0,2.83-0.06,4.27-0.06
			C115.08,47.64,116.92,47.7,117.97,47.7L117.97,47.7z"/>
		<path class="st0" d="M120.78,38.12c0-1.19-0.65-1.24-1.16-1.24h-0.29v-0.49c0.52,0,1.53,0.07,2.53,0.07
			c0.98,0,1.76-0.07,2.62-0.07c2.05,0,3.88,0.56,3.88,2.87c0,1.46-0.98,2.36-2.27,2.87l2.79,4.17c0.46,0.69,0.78,0.88,1.58,0.98
			v0.49c-0.54,0-1.06-0.06-1.6-0.06c-0.51,0-1.03,0.06-1.53,0.06c-1.26-1.65-2.33-3.41-3.39-5.29h-1.07v3.49
			c0,1.26,0.58,1.3,1.33,1.3h0.29v0.49c-0.93,0-1.87-0.06-2.8-0.06c-0.78,0-1.55,0.06-2.36,0.06v-0.49h0.29
			c0.61,0,1.16-0.27,1.16-0.88L120.78,38.12L120.78,38.12z M122.87,41.9L122.87,41.9h0.8c1.63,0,2.51-0.62,2.51-2.54
			c0-1.45-0.93-2.38-2.38-2.38c-0.49,0-0.7,0.05-0.93,0.07L122.87,41.9L122.87,41.9z"/>
		<path class="st0" d="M130.47,47.84c-0.55,0-1.07-0.07-1.6-0.07c-0.5,0-1.02,0.07-1.59,0.04c-1.25-1.64-2.32-3.39-3.38-5.26h-0.96
			v3.42c0.02,1.23,0.51,1.22,1.26,1.23h0.37v0.07v0.56h-0.07c-0.93,0-1.88-0.07-2.8-0.07c-0.78,0-1.54,0.07-2.36,0.07h-0.07v-0.07
			v-0.56h0.07h0.29c0.59,0,1.08-0.26,1.09-0.81v-8.29c-0.01-1.16-0.58-1.15-1.09-1.17h-0.36v-0.07v-0.56h0.07
			c0.53,0,1.53,0.06,2.53,0.06c0.97,0,1.76-0.06,2.63-0.06c2.05,0,3.95,0.57,3.95,2.94c0,1.47-0.97,2.39-2.23,2.91l2.74,4.1
			c0.46,0.68,0.74,0.84,1.53,0.95l0.06,0.01v0.06v0.56L130.47,47.84L130.47,47.84z M122.87,42.42L122.87,42.42h1.11l0.02,0.04
			c1.06,1.87,2.13,3.63,3.33,5.25c0.5,0,1.02-0.07,1.53-0.07c0.52,0,1.02,0.06,1.53,0.06v-0.36c-0.77-0.09-1.12-0.32-1.57-1
			l-2.84-4.25l0.08-0.03c1.28-0.5,2.22-1.37,2.22-2.81c0-2.26-1.76-2.79-3.81-2.8c-0.86,0-1.64,0.06-2.63,0.06
			c-0.96,0-1.92-0.06-2.46-0.06v0.35h0.22c0.51,0,1.23,0.08,1.23,1.31v8.29c0,0.65-0.61,0.95-1.23,0.95h-0.22v0.34
			c0.78,0,1.53-0.06,2.29-0.06c0.91,0,1.83,0.06,2.73,0.06v-0.34h-0.22c-0.74,0-1.41-0.09-1.41-1.38v-3.56H122.87L122.87,42.42z
			 M122.87,41.97L122.87,41.97h-0.07v-4.99l0.06-0.01c0.22-0.02,0.44-0.06,0.94-0.06c1.49,0,2.45,0.97,2.45,2.45
			c0,1.95-0.94,2.61-2.58,2.61L122.87,41.97L122.87,41.97z M123.67,41.83L123.67,41.83c1.61-0.01,2.43-0.57,2.44-2.47
			c-0.01-1.42-0.89-2.31-2.31-2.31c-0.44,0-0.65,0.04-0.86,0.06v4.73H123.67L123.67,41.83z"/>
		<path class="st0" d="M141.54,44.56l0.03-0.03v-6.11c0-1.34-0.93-1.53-1.42-1.53h-0.36v-0.49c0.77,0,1.51,0.06,2.28,0.06
			c0.67,0,1.34-0.06,2.01-0.06v0.49h-0.25c-0.69,0-1.45,0.13-1.45,2.07v7.42c0,0.57,0.02,1.14,0.1,1.65h-0.62l-8.4-9.36v6.72
			c0,1.42,0.28,1.91,1.53,1.91h0.28v0.49c-0.7,0-1.4-0.06-2.1-0.06c-0.74,0-1.49,0.06-2.22,0.06v-0.49h0.23
			c1.13,0,1.47-0.76,1.47-2.07v-6.87c0-0.91-0.75-1.47-1.48-1.47h-0.21v-0.49c0.62,0,1.26,0.06,1.87,0.06
			c0.49,0,0.96-0.06,1.45-0.06L141.54,44.56L141.54,44.56z"/>
		<path class="st0" d="M142.48,48.09l-0.67-0.02l-8.28-9.22v6.53c0.02,1.42,0.23,1.82,1.46,1.84h0.34v0.07v0.56h-0.07
			c-0.71,0-1.4-0.07-2.1-0.07c-0.73,0-1.48,0.07-2.22,0.07h-0.07v-0.07v-0.56h0.07h0.23c1.08,0,1.39-0.7,1.4-2v-6.86
			c0-0.87-0.71-1.4-1.41-1.4h-0.29v-0.07v-0.56h0.07c0.62,0,1.26,0.06,1.87,0.06c0.48,0,0.95-0.06,1.5-0.04l7.17,8.07v-6
			c0-1.3-0.87-1.46-1.35-1.46h-0.43v-0.07v-0.56h0.07c0.77,0,1.52,0.06,2.28,0.06c0.66,0,1.33-0.06,2-0.06h0.07v0.07v0.56h-0.07
			h-0.24c-0.67,0.02-1.37,0.08-1.38,2v7.42c0,0.57,0.01,1.14,0.1,1.64l0.01,0.08L142.48,48.09L142.48,48.09z M141.86,47.94
			L141.86,47.94h0.54c-0.07-0.49-0.09-1.03-0.09-1.57v-7.42c0-1.96,0.83-2.14,1.53-2.14h0.17v-0.34c-0.64,0-1.29,0.06-1.93,0.06
			c-0.75,0-1.48-0.06-2.21-0.06v0.34h0.29c0.5,0.01,1.49,0.23,1.49,1.61l-0.02,6.16l-0.03,0.03l-0.05,0.05l-7.26-8.2
			c-0.48,0-0.96,0.06-1.45,0.06c-0.6,0-1.21-0.06-1.81-0.06v0.34h0.14c0.77,0.01,1.55,0.58,1.55,1.54v6.86
			c0,1.31-0.37,2.14-1.54,2.15l-0.16,0v0.34c0.7,0,1.43-0.06,2.15-0.06c0.68,0,1.36,0.06,2.04,0.06v-0.34H135
			c-1.28,0-1.61-0.56-1.61-1.98v-6.9L141.86,47.94L141.86,47.94z M141.54,44.56L141.54,44.56l0.05-0.05L141.54,44.56z M141.5,44.53
			L141.5,44.53L141.5,44.53l-0.01-0.02L141.5,44.53z"/>
		<path class="st0" d="M146.7,45.44c-0.16,0.55-0.36,0.98-0.36,1.27c0,0.49,0.69,0.57,1.22,0.57h0.18v0.49
			c-0.65-0.04-1.32-0.06-1.98-0.06c-0.59,0-1.17,0.03-1.76,0.06v-0.49h0.1c0.64,0,1.17-0.37,1.42-1.06l2.61-7.48
			c0.21-0.6,0.51-1.42,0.61-2.02c0.52-0.18,1.17-0.5,1.48-0.7c0.05-0.02,0.08-0.03,0.13-0.03c0.05,0,0.08,0,0.12,0.05
			c0.05,0.13,0.09,0.28,0.15,0.41l3,8.53c0.2,0.57,0.39,1.17,0.6,1.66c0.2,0.46,0.54,0.65,1.08,0.65h0.1v0.49
			c-0.73-0.04-1.47-0.06-2.25-0.06c-0.8,0-1.62,0.03-2.45,0.06v-0.49h0.18c0.37,0,1.01-0.06,1.01-0.47c0-0.21-0.15-0.65-0.33-1.17
			l-0.63-1.89h-3.7L146.7,45.44L146.7,45.44z M149.08,38.21L149.08,38.21h-0.03l-1.52,4.62h3.05L149.08,38.21z"/>
		<path class="st0" d="M155.39,47.84c-0.73-0.03-1.47-0.07-2.24-0.07c-0.8,0-1.61,0.03-2.45,0.07l-0.07,0v-0.07v-0.56h0.07h0.18
			c0.38,0,0.94-0.09,0.94-0.4c0-0.19-0.14-0.63-0.32-1.15l-0.62-1.84h-3.6l-0.51,1.65c-0.17,0.56-0.36,0.99-0.36,1.25
			c0.01,0.4,0.61,0.5,1.16,0.5h0.25v0.07v0.56l-0.07,0c-0.65-0.03-1.32-0.07-1.97-0.07c-0.58,0-1.17,0.03-1.76,0.07l-0.08,0v-0.07
			v-0.56h0.07h0.1c0.61,0,1.11-0.35,1.35-1.01l2.61-7.48c0.21-0.6,0.51-1.42,0.65-2.07c0.51-0.17,1.17-0.5,1.48-0.7
			c0.05-0.01,0.09-0.04,0.16-0.04c0.04,0,0.13,0.01,0.18,0.1c0.05,0.13,0.1,0.28,0.15,0.41l3,8.53c0.19,0.57,0.39,1.17,0.6,1.66
			c0.19,0.44,0.49,0.61,1.01,0.61h0.17v0.07v0.56L155.39,47.84L155.39,47.84z M150.77,47.7L150.77,47.7
			c0.81-0.03,1.6-0.06,2.38-0.06c0.76,0,1.47,0.03,2.18,0.06v-0.34h-0.02c-0.56,0-0.94-0.22-1.14-0.7c-0.21-0.5-0.41-1.1-0.6-1.67
			l-3-8.53c-0.05-0.13-0.1-0.28-0.14-0.39c-0.01-0.02-0.01-0.02-0.02-0.02h-0.03c-0.03,0-0.05,0.01-0.09,0.02
			c-0.31,0.2-0.97,0.52-1.45,0.65c-0.1,0.62-0.39,1.43-0.61,2.04l-2.61,7.49c-0.25,0.71-0.82,1.11-1.48,1.11h-0.03v0.34
			c0.56-0.03,1.12-0.06,1.69-0.06c0.63,0,1.27,0.03,1.9,0.06v-0.34h-0.11c-0.53-0.01-1.27-0.07-1.29-0.64c0-0.33,0.2-0.74,0.36-1.29
			l0.07,0.02l-0.07-0.02l0.54-1.74h3.8l0.65,1.94c0.18,0.52,0.33,0.96,0.33,1.2c-0.02,0.5-0.71,0.54-1.08,0.55h-0.11L150.77,47.7
			L150.77,47.7z M147.44,42.9L147.44,42.9l1.56-4.76h0.05h0.03v0.07l-0.02,0l0.02,0v-0.07h0.05l1.55,4.76H147.44z M147.63,42.76
			L147.63,42.76h2.85l-1.42-4.37L147.63,42.76z M149.01,38.23L149.01,38.23l0.04-0.01L149.01,38.23z"/>
		<path class="st0" d="M156.11,37.2c-1.22,0-1.27,0.29-1.52,1.48h-0.49c0.06-0.46,0.15-0.91,0.2-1.39c0.07-0.46,0.09-0.91,0.09-1.38
			h0.39c0.13,0.49,0.54,0.47,0.98,0.47h8.42c0.44,0,0.84-0.02,0.88-0.51l0.39,0.07c-0.06,0.44-0.13,0.88-0.18,1.32
			c-0.03,0.44-0.03,0.88-0.03,1.32l-0.49,0.18c-0.03-0.6-0.11-1.57-1.21-1.57h-2.67v8.68c0,1.26,0.57,1.4,1.35,1.4h0.31v0.49
			c-0.64,0-1.78-0.06-2.66-0.06c-0.98,0-2.12,0.06-2.76,0.06v-0.49h0.31c0.9,0,1.36-0.08,1.36-1.37V37.2L156.11,37.2L156.11,37.2z"
			/>
		<path class="st0" d="M162.53,47.84c-0.64,0-1.78-0.07-2.66-0.07c-0.97,0-2.12,0.07-2.76,0.07h-0.07v-0.07v-0.56h0.07h0.31
			c0.9-0.02,1.26-0.03,1.28-1.3l0-8.64h-2.6V37.2v-0.07h2.74v8.78c0,1.31-0.53,1.44-1.42,1.44h-0.24v0.35
			c0.65-0.01,1.74-0.07,2.69-0.07c0.85,0,1.94,0.06,2.59,0.07v-0.35h-0.24c-0.78,0-1.42-0.19-1.42-1.47v-8.75h2.75
			c1.09,0,1.24,0.94,1.27,1.54l0.36-0.13c0-0.43,0-0.85,0.03-1.28c0.05-0.42,0.11-0.84,0.17-1.25l-0.25-0.04
			c-0.07,0.47-0.53,0.5-0.94,0.49h-8.42h-0.08c-0.38,0-0.8-0.02-0.95-0.48h-0.27c0,0.45-0.04,0.89-0.1,1.33
			c-0.04,0.45-0.12,0.88-0.18,1.31h0.35c0.22-1.14,0.36-1.51,1.58-1.49v0.07v0.07c-1.21,0.02-1.18,0.23-1.45,1.43l-0.01,0.06h-0.06
			h-0.57l0.01-0.08c0.07-0.46,0.15-0.91,0.2-1.39c0.07-0.46,0.1-0.91,0.1-1.38v-0.07h0.07h0.45l0.01,0.05
			c0.11,0.41,0.41,0.41,0.83,0.42l0.08,0h8.42c0.45-0.01,0.78-0.02,0.81-0.44l0-0.08l0.08,0.02l0.46,0.07l-0.01,0.07
			c-0.07,0.44-0.13,0.88-0.18,1.32c-0.03,0.43-0.03,0.88-0.03,1.32v0.05l-0.05,0.02l-0.58,0.21l0-0.1c-0.04-0.61-0.11-1.5-1.14-1.5
			h-2.6v8.61c0.02,1.23,0.5,1.32,1.28,1.33h0.38v0.07v0.56L162.53,47.84L162.53,47.84z"/>
		<path class="st0" d="M166.05,47.28h0.23c0.59,0,1.21-0.08,1.21-0.93v-8.54c0-0.85-0.62-0.93-1.21-0.93h-0.23v-0.49
			c0.64,0,1.61,0.06,2.41,0.06c0.82,0,1.8-0.06,2.56-0.06v0.49h-0.23c-0.59,0-1.21,0.08-1.21,0.93v8.54c0,0.85,0.62,0.93,1.21,0.93
			h0.23v0.49c-0.78,0-1.76-0.06-2.58-0.06c-0.8,0-1.76,0.06-2.4,0.06L166.05,47.28L166.05,47.28z"/>
		<path class="st0" d="M171.03,47.84c-0.79,0-1.76-0.07-2.58-0.07c-0.8,0-1.76,0.07-2.4,0.07h-0.07v-0.07v-0.49v-0.07h0.07h0.23
			c0.59-0.01,1.13-0.06,1.13-0.86v-8.54c0-0.8-0.54-0.85-1.13-0.86h-0.3v-0.07v-0.56h0.07c0.64,0,1.62,0.06,2.41,0.06
			c0.81,0,1.79-0.06,2.56-0.06h0.07v0.07v0.56h-0.07h-0.23c-0.6,0.01-1.13,0.07-1.14,0.86v8.54c0.01,0.8,0.54,0.85,1.14,0.86h0.3
			v0.07v0.56L171.03,47.84L171.03,47.84z M170.96,47.7L170.96,47.7v-0.34h-0.16c-0.58,0-1.28-0.1-1.28-1v-8.54c0-0.9,0.69-1,1.28-1
			h0.16v-0.35c-0.75,0-1.69,0.06-2.49,0.06c-0.77,0-1.71-0.06-2.34-0.06v0.35h0.16c0.58,0,1.27,0.1,1.28,1v8.54c0,0.9-0.7,1-1.28,1
			h-0.16v0.34c0.63-0.01,1.55-0.06,2.33-0.06C169.24,47.64,170.19,47.7,170.96,47.7L170.96,47.7z"/>
		<path class="st0" d="M177.53,36.14c3.48,0,6.25,2.16,6.25,5.63c0,3.75-2.69,6.24-6.16,6.24c-3.46,0-6.1-2.35-6.1-5.85
			C171.52,38.77,174.14,36.14,177.53,36.14L177.53,36.14z M177.78,47.3L177.78,47.3c3.16,0,3.71-2.79,3.71-5.17
			c0-2.38-1.28-5.27-3.99-5.27c-2.85,0-3.7,2.54-3.7,4.73C173.8,44.51,175.13,47.3,177.78,47.3L177.78,47.3z"/>
		<path class="st0" d="M171.44,42.16c0.01-3.43,2.66-6.08,6.09-6.09v0.07v0.07c-3.35,0-5.95,2.59-5.95,5.95
			c0.01,3.47,2.61,5.78,6.03,5.78c3.44,0,6.09-2.46,6.09-6.17c0-3.43-2.73-5.55-6.18-5.56v-0.07v-0.07c3.5,0,6.31,2.18,6.32,5.7
			c0,3.79-2.73,6.31-6.23,6.32C174.13,48.08,171.45,45.71,171.44,42.16L171.44,42.16L171.44,42.16z M173.73,41.59L173.73,41.59
			c0-2.19,0.86-4.8,3.77-4.8c2.77,0.01,4.06,2.95,4.06,5.34c0,2.38-0.56,5.24-3.79,5.24V47.3v-0.07c3.1,0,3.64-2.72,3.65-5.1
			c0-2.36-1.27-5.19-3.92-5.2c-2.8,0-3.63,2.48-3.63,4.66c0,2.9,1.33,5.63,3.91,5.64v0.07v0.07
			C175.07,47.36,173.73,44.53,173.73,41.59L173.73,41.59z"/>
		<path class="st0" d="M194.76,44.56l0.03-0.03v-6.11c0-1.34-0.93-1.53-1.42-1.53h-0.35v-0.49c0.76,0,1.51,0.06,2.28,0.06
			c0.67,0,1.34-0.06,2.01-0.06v0.49h-0.25c-0.68,0-1.45,0.13-1.45,2.07v7.42c0,0.57,0.02,1.14,0.1,1.65h-0.62l-8.4-9.36v6.72
			c0,1.42,0.28,1.91,1.53,1.91h0.28v0.49c-0.7,0-1.4-0.06-2.1-0.06c-0.73,0-1.49,0.06-2.22,0.06v-0.49h0.23
			c1.13,0,1.47-0.76,1.47-2.07v-6.87c0-0.91-0.75-1.47-1.48-1.47h-0.21v-0.49c0.62,0,1.26,0.06,1.87,0.06
			c0.49,0,0.96-0.06,1.45-0.06L194.76,44.56L194.76,44.56z"/>
		<path class="st0" d="M195.71,48.09l-0.67-0.02l-8.27-9.22v6.54c0.02,1.42,0.23,1.82,1.46,1.83h0.35v0.07v0.56h-0.07
			c-0.71,0-1.41-0.07-2.1-0.07c-0.73,0-1.48,0.07-2.22,0.07h-0.07v-0.07v-0.56h0.07h0.23c1.08,0,1.38-0.7,1.4-2v-6.87
			c0-0.87-0.71-1.4-1.41-1.4h-0.28v-0.07v-0.56h0.07c0.63,0,1.26,0.06,1.88,0.06c0.48,0,0.95-0.06,1.51-0.04l7.16,8.07v-6
			c0-1.3-0.87-1.45-1.35-1.47h-0.43v-0.07v-0.56h0.07c0.77,0,1.52,0.06,2.28,0.06c0.67,0,1.33-0.06,2.01-0.06h0.07v0.07v0.56h-0.07
			h-0.25c-0.67,0.02-1.36,0.08-1.38,2v7.42c0,0.57,0.01,1.14,0.09,1.64l0.01,0.08L195.71,48.09L195.71,48.09z M195.09,47.94
			L195.09,47.94h0.53c-0.07-0.49-0.08-1.03-0.08-1.57v-7.42c0-1.96,0.82-2.14,1.52-2.14h0.18v-0.34c-0.64,0-1.29,0.06-1.94,0.06
			c-0.74,0-1.47-0.06-2.21-0.06v0.34h0.29c0.51,0.01,1.49,0.23,1.49,1.61l-0.02,6.16l-0.03,0.03l-0.05,0.05l-7.26-8.2
			c-0.48,0-0.96,0.06-1.45,0.06c-0.6,0-1.21-0.06-1.81-0.06v0.34h0.14c0.77,0.01,1.55,0.58,1.55,1.54v6.87
			c0,1.3-0.36,2.14-1.54,2.14l-0.16,0v0.34c0.71,0,1.43-0.06,2.15-0.06c0.68,0,1.35,0.06,2.03,0.06v-0.34h-0.21
			c-1.28,0-1.6-0.56-1.6-1.98v-6.9L195.09,47.94L195.09,47.94z M194.77,44.56L194.77,44.56l0.05-0.05L194.77,44.56z M194.73,44.53
			L194.73,44.53L194.73,44.53l-0.01-0.02L194.73,44.53z"/>
		<path class="st0" d="M199.93,45.44c-0.16,0.55-0.36,0.98-0.36,1.27c0,0.49,0.69,0.57,1.22,0.57h0.18v0.49
			c-0.65-0.04-1.32-0.06-1.97-0.06c-0.59,0-1.17,0.03-1.76,0.06v-0.49h0.09c0.64,0,1.18-0.37,1.42-1.06l2.61-7.48
			c0.21-0.6,0.51-1.42,0.6-2.02c0.52-0.18,1.17-0.5,1.49-0.7c0.05-0.02,0.08-0.03,0.13-0.03c0.05,0,0.08,0,0.11,0.05
			c0.05,0.13,0.1,0.28,0.15,0.41l3,8.53c0.2,0.57,0.39,1.17,0.6,1.66c0.2,0.46,0.54,0.65,1.08,0.65h0.1v0.49
			c-0.73-0.04-1.47-0.06-2.25-0.06c-0.8,0-1.61,0.03-2.45,0.06v-0.49h0.18c0.37,0,1.01-0.06,1.01-0.47c0-0.21-0.15-0.65-0.33-1.17
			l-0.63-1.89h-3.7L199.93,45.44L199.93,45.44z M202.31,38.21L202.31,38.21h-0.03l-1.52,4.62h3.05L202.31,38.21z"/>
		<path class="st0" d="M208.62,47.84c-0.73-0.03-1.47-0.07-2.25-0.07c-0.8,0-1.61,0.04-2.44,0.07l-0.07,0v-0.07v-0.56h0.07h0.18
			c0.38,0,0.94-0.09,0.94-0.4c0-0.19-0.14-0.63-0.33-1.15l-0.62-1.84h-3.6l-0.5,1.65c-0.16,0.56-0.36,0.99-0.35,1.25
			c0,0.4,0.61,0.5,1.15,0.5h0.25v0.07v0.57l-0.07,0c-0.65-0.03-1.32-0.07-1.97-0.07c-0.58,0-1.17,0.04-1.76,0.07l-0.07,0v-0.07
			v-0.56h0.07h0.09c0.61,0,1.12-0.35,1.35-1.01l2.61-7.48c0.21-0.6,0.5-1.42,0.65-2.07c0.51-0.18,1.17-0.5,1.48-0.7
			c0.04-0.01,0.09-0.03,0.15-0.03c0.04,0,0.13,0.01,0.18,0.09c0.05,0.13,0.1,0.28,0.15,0.41l3,8.53c0.19,0.57,0.39,1.17,0.6,1.66
			c0.19,0.43,0.49,0.6,1.01,0.61h0.17v0.07v0.57L208.62,47.84L208.62,47.84z M204,47.7L204,47.7c0.81-0.03,1.6-0.06,2.38-0.06
			c0.76,0,1.47,0.03,2.18,0.06l0-0.34h-0.03c-0.55,0-0.94-0.22-1.14-0.7c-0.21-0.5-0.41-1.1-0.6-1.67l-3-8.53
			c-0.05-0.13-0.1-0.28-0.14-0.39c-0.01-0.02-0.01-0.02-0.02-0.02h-0.03c-0.03,0-0.05,0.01-0.09,0.02c-0.32,0.2-0.97,0.53-1.45,0.65
			c-0.1,0.62-0.4,1.43-0.61,2.04l-2.61,7.49c-0.25,0.71-0.82,1.11-1.48,1.11h-0.02v0.34c0.56-0.03,1.12-0.06,1.69-0.06
			c0.63,0,1.28,0.03,1.9,0.06v-0.34h-0.11c-0.53-0.01-1.27-0.06-1.29-0.64c0-0.32,0.21-0.74,0.36-1.29l0.07,0.02l-0.07-0.02
			l0.54-1.74h3.8l0.65,1.94c0.18,0.52,0.33,0.96,0.33,1.2c-0.02,0.5-0.71,0.54-1.08,0.55H204L204,47.7L204,47.7z M200.67,42.9
			L200.67,42.9l1.56-4.76h0.05h0.04v0.07l-0.02,0l0.02,0v-0.07h0.05l1.54,4.76H200.67z M200.86,42.76L200.86,42.76h2.85l-1.42-4.37
			L200.86,42.76L200.86,42.76z M202.25,38.23L202.25,38.23l0.03-0.01L202.25,38.23z"/>
		<path class="st0" d="M212.73,46.17c0,0.65,0.45,0.85,0.97,0.91c0.67,0.05,1.4,0.05,2.16-0.03c0.68-0.08,1.27-0.47,1.56-0.88
			c0.26-0.36,0.41-0.82,0.51-1.17h0.47c-0.18,0.93-0.41,1.85-0.6,2.77c-1.43,0-2.87-0.06-4.3-0.06c-1.44,0-2.87,0.06-4.3,0.06v-0.49
			h0.22c0.59,0,1.23-0.08,1.23-1.09v-8.38c0-0.85-0.64-0.93-1.23-0.93h-0.22v-0.49c0.86,0,1.71,0.06,2.57,0.06
			c0.83,0,1.65-0.06,2.48-0.06v0.49h-0.41c-0.62,0-1.1,0.02-1.1,0.88V46.17L212.73,46.17z"/>
		<path class="st0" d="M217.8,47.84c-1.44,0-2.87-0.07-4.3-0.07c-1.44,0-2.87,0.07-4.31,0.07h-0.07v-0.07v-0.56h0.07h0.23
			c0.59-0.01,1.15-0.05,1.16-1.02v-8.38c-0.01-0.79-0.56-0.85-1.16-0.86h-0.3v-0.07v-0.56h0.07c0.87,0,1.72,0.06,2.58,0.06
			c0.83,0,1.64-0.06,2.48-0.06h0.07v0.07v0.56h-0.07h-0.41c-0.63,0.02-1.03-0.01-1.04,0.81v8.42c0,0.61,0.4,0.77,0.91,0.84
			c0.29,0.02,0.59,0.03,0.9,0.03c0.4,0,0.81-0.02,1.23-0.06c0.66-0.08,1.24-0.46,1.52-0.85c0.25-0.35,0.4-0.8,0.49-1.15l0.01-0.05
			h0.05h0.56l-0.01,0.09c-0.18,0.93-0.41,1.84-0.61,2.77l-0.01,0.06L217.8,47.84L217.8,47.84L217.8,47.84z M217.74,47.7L217.74,47.7
			c0.19-0.88,0.4-1.75,0.58-2.63h-0.33c-0.1,0.36-0.25,0.79-0.5,1.15c-0.3,0.42-0.91,0.82-1.61,0.91c-0.43,0.04-0.85,0.07-1.25,0.07
			c-0.32,0-0.62-0.01-0.92-0.04c-0.53-0.06-1.04-0.28-1.04-0.98v-8.42c0-0.91,0.57-0.95,1.18-0.95h0.34v-0.35
			c-0.8,0-1.6,0.06-2.41,0.06c-0.84,0-1.67-0.06-2.51-0.06v0.35h0.16c0.58,0,1.29,0.1,1.29,1v8.38c0,1.05-0.71,1.16-1.29,1.16h-0.16
			v0.34c1.41,0,2.82-0.06,4.24-0.06S216.33,47.7,217.74,47.7L217.74,47.7z"/>
		<path class="st0" d="M218.21,35.92c0.98,0,1.72,0.76,1.72,1.72c0,0.96-0.73,1.71-1.72,1.71c-0.98,0-1.72-0.75-1.72-1.71
			C216.49,36.68,217.22,35.92,218.21,35.92z M218.21,39.04L218.21,39.04c0.77,0,1.36-0.66,1.36-1.39c0-0.74-0.58-1.4-1.36-1.4
			c-0.77,0-1.36,0.66-1.36,1.4C216.84,38.38,217.43,39.04,218.21,39.04z M217.35,38.55L217.35,38.55v-0.08
			c0.21-0.03,0.25-0.02,0.25-0.15v-1.27c0-0.18-0.02-0.24-0.24-0.23v-0.09h0.88c0.3,0,0.58,0.14,0.58,0.46
			c0,0.26-0.17,0.44-0.41,0.52l0.28,0.39c0.13,0.18,0.28,0.35,0.38,0.4v0.06h-0.33c-0.16,0-0.3-0.34-0.62-0.79h-0.19v0.57
			c0,0.11,0.04,0.11,0.25,0.14v0.08L217.35,38.55L217.35,38.55z M217.93,37.65L217.93,37.65h0.2c0.22,0,0.33-0.17,0.33-0.44
			c0-0.27-0.16-0.37-0.34-0.37h-0.19V37.65z"/>
	</g>
</g>
</svg>
