<?xml version="1.0" encoding="utf-8"?>
<!-- Generator: Adobe Illustrator 24.1.3, SVG Export Plug-In . SVG Version: 6.00 Build 0)  -->
<svg version="1.1" id="Capa_1" xmlns="http://www.w3.org/2000/svg" xmlns:xlink="http://www.w3.org/1999/xlink" x="0px" y="0px"
	 viewBox="0 0 92.02 71.55" style="enable-background:new 0 0 92.02 71.55;" xml:space="preserve">
<style type="text/css">
	.st0{fill:#004772;}
	.st1{fill:#FFFFFF;}
	.st2{fill:#004772;}
</style>
<g>
	<g>
		<path class="st0" d="M92.02,29.53c-0.14,1.17-0.25,2.35-0.43,3.52c-0.83,5.15-2.95,9.71-6.3,13.71c-2.37,2.83-5.21,5.1-8.48,6.83
			c-2.08,1.1-4.26,1.9-6.54,2.47c-2.28,0.56-4.59,0.85-6.92,0.82c-3.62-0.04-7.15-0.65-10.48-2.11c-1.58-0.69-3.08-1.55-4.61-2.34
			c-0.13-0.07-0.24-0.19-0.41-0.32c7.2-6.25,11.13-14.09,11.13-23.65c0-9.55-3.91-17.37-11.17-23.69c0.75-0.45,1.44-0.92,2.18-1.31
			c2.28-1.21,4.68-2.12,7.21-2.7c3.35-0.78,6.74-0.97,10.12-0.48c7.82,1.13,14.16,4.86,18.98,11.14c2.04,2.66,3.5,5.64,4.48,8.84
			c0.67,2.18,1.01,4.42,1.16,6.69c0.01,0.15,0.05,0.31,0.07,0.46C92.02,28.11,92.02,28.82,92.02,29.53z"/>
		<path class="st0" d="M89.88,71.55c-0.12-0.21-0.3-0.4-0.36-0.63c-0.1-0.38,0.05-0.73,0.42-0.86c0.34-0.13,0.68-0.07,0.94,0.28
			c0.26,0.36,0.18,0.65-0.06,0.96c-0.07,0.09-0.15,0.17-0.22,0.26C90.36,71.55,90.12,71.55,89.88,71.55z"/>
		<path class="st0" d="M44.12,4.81c-7.2,6.28-11.11,14.1-11.11,23.65c0,9.55,3.92,17.36,11.09,23.6
			c-8.03,5.91-23.32,7.79-34.74-2.56C-2.43,38.82-3.16,20.74,7.59,9.16C18.49-2.58,34.81-1.84,44.12,4.81z"/>
		<path class="st0" d="M56.9,27.72c-0.11,7.46-2.15,13.51-6.48,18.69c-1.19,1.43-2.62,2.66-3.93,3.99
			c-0.34,0.34-0.59,0.35-0.98,0.03c-3.69-3.08-6.49-6.81-8.3-11.27c-1.23-3.04-1.9-6.19-2.04-9.48c-0.19-4.64,0.67-9.04,2.63-13.25
			c1.83-3.93,4.45-7.23,7.77-10c0.33-0.27,0.56-0.24,0.87,0.02c3.22,2.65,5.75,5.84,7.57,9.58c1.17,2.4,2.04,4.9,2.4,7.56
			C56.64,25.2,56.8,26.83,56.9,27.72z"/>
		<path class="st0" d="M16.82,71.11c-0.56,0-1.06,0-1.64,0c-0.01-0.25-0.03-0.5-0.03-0.74c-0.05-1.4-0.06-2.8-0.18-4.19
			c-0.06-0.77-0.71-1.23-1.48-1.25c-0.78-0.01-1.59,0.56-1.74,1.26c-0.05,0.25-0.07,0.51-0.07,0.77c-0.01,1.19-0.02,2.37,0.01,3.56
			c0.01,0.47-0.1,0.68-0.62,0.66c-1.21-0.05-1.09,0.17-1.11-1.12c-0.02-1.2-0.04-2.41-0.09-3.61c-0.04-0.87-0.63-1.45-1.44-1.51
			c-0.84-0.06-1.64,0.5-1.81,1.29c-0.07,0.31-0.11,0.62-0.11,0.94C6.5,68.1,6.5,69.05,6.5,70c0,1.21-0.19,1.38-1.4,1.14
			c-0.13-0.03-0.32-0.25-0.32-0.38c-0.02-2.27-0.02-4.55,0-6.82c0-0.12,0.24-0.33,0.39-0.35c0.39-0.05,0.79-0.02,1.22-0.02
			C6.44,63.8,6.48,64,6.53,64.32c0.67-0.73,1.45-1.03,2.39-0.96c0.92,0.07,1.63,0.48,2.15,1.13c0.6-0.35,1.13-0.76,1.73-1
			c1.21-0.47,2.8,0.01,3.47,1.07c0.3,0.48,0.51,1.09,0.53,1.66C16.87,67.82,16.82,69.43,16.82,71.11z"/>
		<path class="st0" d="M85.76,70.52c-1.95,1.19-3.87,1-5.08-0.42c-1.32-1.55-1.35-3.99,0-5.5c0.97-1.09,2.97-1.94,5.14-0.38
			c0-0.6,0-1.12,0-1.64c0-0.38,0-0.75,0-1.13c0-0.93,0-0.93,0.95-0.93c0.79,0,0.8,0,0.8,0.77c0,2.97,0,5.93,0,8.9
			c0,0.97,0,0.96-0.96,0.97C86.16,71.17,85.73,71.2,85.76,70.52z M85.93,67.39c0.01-1.39-0.97-2.47-2.24-2.46
			c-1.25,0-2.29,1.06-2.26,2.4c0.03,1.41,0.89,2.38,2.22,2.39C84.99,69.72,85.92,68.77,85.93,67.39z"/>
		<path class="st0" d="M24.26,70.49c-1.03,0.8-2.11,1.03-3.29,0.7c-0.89-0.25-1.6-0.76-2.1-1.52c-1.02-1.54-0.87-3.76,0.4-5.15
			c1-1.09,3.14-1.77,4.94-0.38c0.11-0.19,0.2-0.51,0.35-0.54c0.42-0.07,0.87-0.04,1.3-0.01c0.08,0.01,0.2,0.23,0.2,0.36
			c0.01,2.26,0.02,4.51-0.01,6.77c0,0.14-0.23,0.33-0.4,0.42c-0.12,0.07-0.31,0-0.47,0.02C24.71,71.2,24.29,71.19,24.26,70.49z
			 M24.44,67.33c0-1.34-0.98-2.4-2.23-2.41c-1.25-0.01-2.26,1.05-2.27,2.39c-0.02,1.4,0.94,2.4,2.28,2.39
			C23.54,69.7,24.44,68.73,24.44,67.33z"/>
		<path class="st0" d="M72.28,63.6c0,2.52,0,5,0,7.55c-0.46,0-0.9,0.06-1.31-0.03c-0.19-0.04-0.32-0.37-0.51-0.62
			c-0.81,0.75-1.85,0.98-3.01,0.73c-0.89-0.2-1.63-0.65-2.18-1.4c-1.2-1.66-1-4.19,0.44-5.51c1.22-1.11,3.36-1.44,4.83-0.06
			c0.05-0.23,0.1-0.43,0.15-0.67C71.2,63.6,71.71,63.6,72.28,63.6z M66.23,67.32c-0.08,1.16,0.83,2.4,2.2,2.41
			c1.43,0.01,2.27-1.09,2.31-2.39c0.04-1.29-1.03-2.4-2.26-2.41C67.23,64.92,66.24,65.97,66.23,67.32z"/>
		<path class="st0" d="M49.62,70.2c-1.13,1.15-3.23,1.46-4.9,0.76c-1.28-0.54-2.13-2.01-2.11-3.66c0.02-2.35,1.69-4.17,4.22-3.91
			c1.32,0.14,2.31,0.83,2.77,2.07c0.28,0.75,0.35,1.59,0.54,2.52c-1.1,0-2,0-2.9,0c-0.9,0-1.81,0-2.7,0
			c-0.06,0.79,0.45,1.46,1.2,1.68c0.95,0.28,1.84,0.12,2.66-0.39c0.32-0.2,0.49-0.25,0.68,0.14C49.2,69.68,49.42,69.91,49.62,70.2z
			 M44.5,66.57c1.24,0,2.45,0,3.66,0c-0.19-1.2-0.85-1.73-1.99-1.68C45.26,64.94,44.56,65.62,44.5,66.57z"/>
		<path class="st0" d="M28.38,69.04c1.1,0.68,2.22,0.96,3.44,0.65c0.38-0.1,0.73-0.27,0.74-0.72c0.01-0.45-0.33-0.59-0.7-0.67
			c-0.81-0.18-1.62-0.31-2.42-0.53c-0.99-0.28-1.54-1.02-1.55-1.97c-0.01-0.97,0.6-1.88,1.52-2.17c1.49-0.47,2.96-0.36,4.36,0.33
			c0.13,0.07,0.28,0.36,0.24,0.47c-0.15,0.37-0.38,0.71-0.49,0.89c-1.02-0.15-1.92-0.3-2.82-0.4c-0.23-0.02-0.51,0.1-0.71,0.23
			c-0.49,0.33-0.43,0.9,0.13,1.08c0.58,0.18,1.19,0.24,1.78,0.36c0.8,0.16,1.59,0.36,2.09,1.08c0.76,1.08,0.24,2.74-1.05,3.26
			c-1.65,0.66-3.28,0.53-4.86-0.26c-0.43-0.21-0.56-0.44-0.21-0.85C28.06,69.6,28.19,69.33,28.38,69.04z"/>
		<path class="st0" d="M36.92,65.09c-0.53,0-0.99,0-1.49,0c0-0.53,0-0.99,0-1.51c0.48,0,0.93,0,1.45,0c0-0.76,0-1.48,0-2.24
			c0.6,0,1.12,0,1.73,0c0,0.56,0.02,1.13-0.01,1.69c-0.02,0.42,0.14,0.56,0.55,0.54c0.69-0.03,1.38-0.01,2.11-0.01
			c0,0.52,0,0.98,0,1.53c-0.87,0-1.73,0-2.63,0c0,1.28-0.06,2.49,0.02,3.68c0.05,0.84,0.94,1.22,1.87,0.78
			c0.6-0.28,0.75-0.05,0.89,0.45c0.24,0.84,0.26,0.91-0.59,1.11c-0.62,0.15-1.29,0.22-1.93,0.16c-1.16-0.11-1.92-1-1.96-2.22
			c-0.04-1.09-0.02-2.17-0.02-3.26C36.92,65.58,36.92,65.37,36.92,65.09z"/>
		<path class="st0" d="M62.9,69.08c0.17,0.26,0.31,0.46,0.44,0.68c0.41,0.7,0.41,0.75-0.3,1.11c-1.95,0.98-5.16,0.55-5.92-2.19
			c-0.76-2.73,0.61-5.09,3.53-5.3c0.92-0.07,1.8,0.08,2.6,0.58c0.31,0.19,0.5,0.38,0.19,0.73c-0.11,0.13-0.18,0.3-0.25,0.46
			c-0.2,0.4-0.4,0.44-0.82,0.2c-1.24-0.71-2.51-0.47-3.28,0.53c-0.61,0.8-0.59,2.19,0.04,2.98c0.63,0.81,1.87,1.11,2.83,0.68
			C62.28,69.4,62.57,69.24,62.9,69.08z"/>
		<path class="st0" d="M51.68,71.13c0-2.53,0-5.01,0-7.48c1.18-0.24,1.57-0.14,1.77,0.5c0.65-0.65,1.42-0.88,2.3-0.76
			c0.66,0.08,0.74,0.2,0.52,0.83c-0.05,0.15-0.12,0.29-0.17,0.44c-0.04,0.13-0.08,0.26-0.13,0.45c-0.17-0.03-0.34-0.04-0.5-0.08
			c-1.17-0.3-2.05,0.31-2.1,1.54c-0.05,1.2-0.02,2.41-0.02,3.62c0,1.11,0.06,0.96-1,0.97C52.13,71.16,51.92,71.14,51.68,71.13z"/>
		<path class="st0" d="M76.12,71.07c-0.14,0.05-0.17,0.07-0.21,0.08c-1.49,0.12-1.49,0.12-1.49-1.36c0-1.84,0.02-3.68-0.01-5.52
			c-0.01-0.59,0.18-0.78,0.74-0.71c0.29,0.03,0.59,0.01,0.91,0.01c0.03,0.24,0.04,0.43,0.07,0.72c0.92-0.97,1.95-1.16,3.13-0.68
			c-0.07,0.22-0.12,0.37-0.17,0.52c-0.28,0.9-0.28,0.9-1.23,0.82c-0.96-0.09-1.72,0.65-1.74,1.74c-0.02,1.25-0.01,2.49-0.01,3.74
			C76.12,70.64,76.12,70.85,76.12,71.07z"/>
		<path class="st0" d="M89.87,45.93c0-0.36,0-0.68,0-1c0.04-0.02,0.09-0.04,0.13-0.06c0.12,0.17,0.25,0.34,0.4,0.57
			c0.16-0.19,0.31-0.37,0.46-0.55c0.05,0,0.1,0.01,0.16,0.01c0.02,0.35,0.03,0.71,0.05,1.06c-0.04,0.01-0.09,0.02-0.13,0.03
			c-0.05-0.1-0.1-0.2-0.14-0.27C90.51,45.79,90.21,45.85,89.87,45.93z"/>
		<path class="st0" d="M88.78,44.9c0.2,0,0.43,0,0.68,0c-0.12,0.36-0.23,0.7-0.37,1.16C88.97,45.62,88.88,45.29,88.78,44.9z"/>
	</g>
</g>
</svg>
