<?xml version="1.0" encoding="utf-8"?>
<!-- Generator: Adobe Illustrator 24.1.3, SVG Export Plug-In . SVG Version: 6.00 Build 0)  -->
<svg version="1.1" id="Capa_1" xmlns="http://www.w3.org/2000/svg" xmlns:xlink="http://www.w3.org/1999/xlink" x="0px" y="0px"
	 viewBox="0 0 119.58 109.75" style="enable-background:new 0 0 119.58 109.75;" xml:space="preserve">
<style type="text/css">
	.st0{fill:#666666;}
	.st1{fill:#7F7F7F;}
	.st2{font-family:'Poppins-Medium';}
	.st3{font-size:14.3313px;}
	.st4{fill:#FFFFFF;}
	.st5{fill:#E4E4E4;}
</style>
<g>
	<g id="financail-money-payment-pay-hand_1_">
		<path class="st0" d="M89.23,14.74h-1.02v-4.06c0-0.56-0.46-1.01-1.02-1.01c-0.04,0-0.09,0-0.13,0.01l-0.88,0.11V5.6
			c0-0.31-0.15-0.61-0.4-0.8c-0.25-0.19-0.57-0.26-0.87-0.18l-37.24,9.55l3.79-6.56c0.44-0.77,0.67-1.64,0.67-2.53
			c0.01-2.8-2.26-5.08-5.07-5.09c-1.82,0-3.5,0.96-4.41,2.54L30.02,24.45c-0.45,0.77-0.69,1.65-0.69,2.55v12.56
			c0,0.47,0.06,0.94,0.19,1.39l3.24,11.36h-0.39c-0.56,0-1.02,0.45-1.02,1.02v6.09c0,0.56,0.45,1.02,1.02,1.02h22.34
			c0.56,0,1.02-0.45,1.02-1.02v-6.09c0-0.56-0.45-1.02-1.02-1.02v-2.55c0-1.89-0.75-3.7-2.08-5.04l-1.56-1.55h38.16
			c0.56,0,1.02-0.45,1.02-1.02v-26.4C90.25,15.2,89.79,14.74,89.23,14.74z M86.18,11.84v2.9H64.12L86.18,11.84z M84.15,6.91v3.15
			l-25.19,3.31L84.15,6.91z M53.7,58.4H33.39v-4.06H53.7V58.4z M47.69,42.54c0.05,0.12,0.13,0.23,0.22,0.32l-0.01,0.01l3.29,3.29
			c0.96,0.95,1.5,2.24,1.49,3.59v2.55H34.87l-3.4-11.91c-0.07-0.28-0.11-0.56-0.11-0.84V27c0-0.54,0.14-1.06,0.42-1.52L44.43,3.55
			c0.83-1.45,2.67-1.95,4.12-1.13c0.01,0.01,0.02,0.01,0.03,0.02c0.95,0.54,1.53,1.55,1.52,2.64c0,0.53-0.14,1.05-0.41,1.51
			l-4.7,8.14h-2.47c-0.56,0-1.02,0.45-1.02,1.02v21.32c0,0.41,0.25,0.78,0.63,0.94c0.39,0.16,0.83,0.06,1.12-0.24l8.95-9.26
			c1.2-1.19,3.13-1.18,4.32,0.01c0.42,0.43,0.71,0.97,0.83,1.56c0.02,0.2,0.04,0.41,0.05,0.57c-0.01,0.81-0.33,1.58-0.89,2.15
			l-8.62,8.62C47.61,41.73,47.53,42.16,47.69,42.54z M88.22,41.14H51.07l6.45-6.44c1.88,2.77,5.02,4.42,8.37,4.41
			c5.61,0,10.16-4.54,10.16-10.14S71.5,18.81,65.9,18.8c-4.45,0-8.38,2.89-9.7,7.14c-1.88-0.72-4.01-0.26-5.43,1.16l-7.22,7.47
			v-17.8h44.67V41.14z M59.36,29.77c-0.18-1-0.66-1.93-1.38-2.66c1.01-4.38,5.38-7.12,9.76-6.11c4.38,1.01,7.12,5.38,6.11,9.76
			c-1.01,4.38-5.38,7.12-9.76,6.11c-2.21-0.51-4.11-1.92-5.24-3.89c0.37-0.73,0.57-1.54,0.59-2.36
			C59.43,30.36,59.4,30.09,59.36,29.77z"/>
		<g>
			<path class="st0" d="M66.45,30.67c-0.17,0.27-0.41,0.49-0.74,0.66c-0.32,0.16-0.72,0.25-1.18,0.25c-0.7,0-1.27-0.17-1.72-0.51
				c-0.45-0.34-0.7-0.81-0.74-1.42h1.6c0.02,0.23,0.11,0.42,0.25,0.55c0.14,0.13,0.33,0.2,0.55,0.2c0.19,0,0.35-0.05,0.46-0.16
				S65.1,30,65.1,29.82c0-0.16-0.05-0.29-0.15-0.4c-0.1-0.11-0.23-0.19-0.38-0.26c-0.15-0.07-0.36-0.15-0.63-0.24
				c-0.39-0.13-0.71-0.26-0.96-0.39c-0.25-0.13-0.46-0.31-0.64-0.56c-0.18-0.25-0.27-0.57-0.27-0.97c0-0.37,0.09-0.69,0.28-0.96
				c0.19-0.27,0.45-0.48,0.78-0.62c0.33-0.14,0.71-0.21,1.14-0.21c0.69,0,1.24,0.16,1.65,0.49c0.41,0.33,0.64,0.78,0.69,1.35h-1.62
				c-0.03-0.2-0.1-0.37-0.22-0.49c-0.12-0.12-0.28-0.18-0.49-0.18c-0.18,0-0.32,0.05-0.43,0.14c-0.11,0.09-0.16,0.23-0.16,0.41
				c0,0.15,0.05,0.27,0.14,0.37c0.1,0.1,0.22,0.19,0.36,0.25c0.15,0.06,0.36,0.15,0.63,0.25c0.4,0.13,0.72,0.27,0.97,0.4
				c0.25,0.13,0.47,0.32,0.65,0.57c0.18,0.25,0.27,0.58,0.27,0.98C66.7,30.1,66.62,30.4,66.45,30.67z"/>
			<path class="st0" d="M70.65,23.18l-2.36,9.99h-1.45l2.36-9.99H70.65z"/>
		</g>
		<rect x="32.45" y="53.59" class="st0" width="22.66" height="5.78"/>
	</g>
	<text transform="matrix(1 0 0 1 14.4671 84.2147)"><tspan x="0" y="0" class="st1 st2 st3">Pago Contra</tspan><tspan x="-14.47" y="17.2" class="st1 st2 st3">Entrega: Efectivo</tspan></text>
</g>
</svg>
