<svg width="93" height="31" viewBox="0 0 93 31" fill="none" xmlns="http://www.w3.org/2000/svg">
<path d="M48.0529 9.80084C48.0012 13.9819 51.7751 16.3147 54.6249 17.6976C57.5459 19.1193 58.5281 20.0305 58.5217 21.3035C58.5023 23.2487 56.1888 24.1081 54.024 24.1469C50.25 24.2051 48.0594 23.1259 46.3146 22.3117L44.9575 28.6705C46.7088 29.4782 49.9463 30.1826 53.3067 30.2085C61.1905 30.2085 66.3474 26.3182 66.3797 20.2825C66.412 12.6248 55.7881 12.1983 55.8592 8.77335C55.8851 7.73293 56.8738 6.6279 59.0451 6.34356C60.1178 6.20139 63.084 6.09154 66.4443 7.64246L67.7626 1.49045C65.9532 0.844233 63.6333 0.210938 60.7382 0.210938C53.3131 0.210938 48.0981 4.15934 48.0529 9.80084ZM80.4414 0.740838C79.0004 0.740838 77.7855 1.58092 77.2491 2.8669L65.9855 29.7626H73.8629L75.4332 25.4264H85.0619L85.9731 29.7626H92.9199L86.8584 0.740838H80.4414ZM81.5465 8.57948L83.8212 19.4747H77.5916L81.5465 8.57948ZM38.5018 0.740838L32.2916 29.7626H39.8007L46.0108 0.740838H38.5018ZM27.3933 0.740838L19.5805 20.4958L16.414 3.70052C16.0456 1.82649 14.5787 0.740838 12.9502 0.740838H0.180942L0 1.58092C2.62365 2.1496 5.60272 3.06723 7.40568 4.04948C8.51071 4.65047 8.82736 5.1739 9.18924 6.60205L15.1797 29.7626H23.1153L35.2771 0.740838H27.3933Z" fill="#004772"/>
</svg>
