<?xml version="1.0" encoding="utf-8"?>
<!-- Generator: Adobe Illustrator 24.1.3, SVG Export Plug-In . SVG Version: 6.00 Build 0)  -->
<svg version="1.1" id="Capa_1" xmlns="http://www.w3.org/2000/svg" xmlns:xlink="http://www.w3.org/1999/xlink" x="0px" y="0px"
	 viewBox="0 0 91.87 116.98" style="enable-background:new 0 0 91.87 116.98;" xml:space="preserve">
<style type="text/css">
	.st0{fill:#666666;}
	.st1{fill:#FFFFFF;}
	.st2{fill:#E4E4E4;}
</style>
<g>
	<g>
		<path class="st0" d="M82.45,78.8c-5.28,0.4-10.56,0.83-15.83,1.33c-3.23,0.31-6.45,0.78-9.84,1.19c0.36-2.37,0.68-4.56,1.04-6.93
			c0.45,0.32,0.68,0.49,0.92,0.66c3.25,2.3,6.36,2,9.01-0.95c2.04-2.27,3.14-5.07,3.99-7.94c1.36-4.56,2.28-9.18,1.01-13.94
			c-1.1-4.14-5.12-5.19-8.23-2.18c-0.62,0.6-1.26,1.19-1.8,1.7c-0.14-0.49-0.13-1.18-0.47-1.52c-1.51-1.49-3.97-0.75-4.37,1.28
			c-1.15,5.81-2.24,11.62-3.45,17.42c-0.15,0.72-0.74,1.41-1.29,1.95c-0.36,0.35-1.02,0.4-1.55,0.58c-0.19-0.57-0.59-1.16-0.53-1.7
			c0.24-2.05,0.57-4.1,0.97-6.13c0.7-3.54,1.5-7.06,2.21-10.6c0.26-1.28-0.27-2.09-1.62-2.43c-1.91-0.47-2.26-0.33-3.49,1.89
			c-3.34-1.97-5.75-1.63-8.5,1.2c-2.33,2.41-3.75,5.35-4.86,8.46c-1.53,4.28-2.34,8.65-1.27,13.18c0.47,2.01,1.54,3.49,3.63,4.1
			c2.24,0.66,4.1,0.03,5.64-1.61c0.68-0.72,1.21-1.6,1.86-2.48c0.44,1.6,1.39,2.86,3.05,2.76c1.44-0.09,2.85-0.78,4.3-1.21
			c-0.24,1.21-0.59,2.46-0.72,3.74c-0.11,1.15-0.66,1.48-1.72,1.64c-5.9,0.89-11.79,1.85-17.68,2.79c-1.87,0.3-3.73,0.64-5.82,1.01
			c0.86-3.05,1.64-5.82,2.41-8.6c2.1-7.56,4.22-15.11,6.27-22.68c0.53-1.97-0.29-2.75-2.28-2.28c-2.34,0.56-3.79,2.05-4.6,4.34
			c-1.62,4.58-3.28,9.15-5.12,13.64c-0.52,1.27-1.61,2.38-2.66,3.34c-0.48,0.44-1.68,0.68-2.18,0.39c-0.51-0.3-0.81-1.4-0.75-2.11
			c0.12-1.38,0.5-2.74,0.86-4.08c0.75-2.79,1.66-5.53,2.31-8.34c0.42-1.84-1.09-3.29-3.2-3.39c-1.38-0.07-1.81,0.47-2.35,2.68
			C15.5,60,12.51,72.41,12.04,75.35c-0.35,2.15,0.12,4.31,2.17,5.6c2.06,1.29,4.08,0.76,5.92-0.6c1.03-0.76,1.96-1.65,3.1-2.62
			c-1.07,3.29-2.05,6.4-3.13,9.47c-0.16,0.45-0.75,0.81-1.22,1.07c-2.61,1.43-5.38,2.61-7.84,4.27c-5.55,3.74-9.43,8.77-10.81,15.47
			c-0.61,2.95-0.07,5.62,2.39,7.56c2.54,2,5.31,1.68,8.04,0.36c2.63-1.28,4.5-3.43,6.25-5.69c3.56-4.62,5.61-9.96,7.39-15.42
			c0.34-1.06,0.86-1.57,1.93-1.78c6.09-1.22,12.16-2.5,18.25-3.72c2.01-0.4,4.04-0.68,6.17-1.03c0.03,0.72-0.08,1.25,0.11,1.65
			c0.34,0.74,0.73,1.76,1.34,1.97c0.61,0.21,1.7-0.23,2.23-0.75c0.62-0.59,1.02-1.53,1.22-2.39c0.21-0.93,0.66-1.26,1.53-1.37
			c5.54-0.71,11.08-1.43,16.61-2.16c3.29-0.44,6.59-0.82,9.85-1.41c1.68-0.3,2.22-1.78,1.55-3.35
			C84.58,79.25,83.64,78.71,82.45,78.8z M59.46,69.71c1.02-3.8,1.96-7.62,3.17-11.35c0.42-1.3,1.44-2.49,2.42-3.49
			c1.17-1.18,2.34-0.77,2.75,0.83c0.21,0.83,0.25,1.7,0.32,2.18c-0.18,3.91-1.21,7.2-2.74,10.33c-0.9,1.83-2.25,3.29-4.6,3.08
			C59.85,71.2,59.17,70.8,59.46,69.71z M48.25,58.06c-1.26,4.22-2.63,8.41-4.01,12.6c-0.17,0.53-0.56,1.02-0.95,1.43
			c-1,1.08-2.3,0.85-3.09-0.38c-1.53-2.38,0.51-10.99,3.48-13.74c0.75-0.7,1.73-1.22,2.69-1.59C47.58,55.93,48.62,56.83,48.25,58.06
			z M10.67,108.52c-0.68,0.79-1.5,1.52-2.4,2.05c-0.54,0.32-1.59,0.51-1.97,0.21c-0.47-0.38-0.79-1.4-0.64-2.01
			c0.36-1.43,0.9-2.85,1.62-4.13c2.38-4.17,5.83-7.19,10.56-9.35C15.97,100.31,13.89,104.73,10.67,108.52z M79.38,64.57
			c0.18-0.88,0.62-1.28,1.59-1.48c5.53-1.14,9.82-5.64,10.79-11.15c0.61-3.48-1.41-5.98-4.93-6.13c-1.92-0.08-3.62,0.52-5.03,1.82
			c-5.57,5.14-7.75,11.75-8.33,19.03c-0.28,7.23,4.13,9.46,8,8.47c3.29-0.84,5.93-2.75,8.15-5.23c0.56-0.63,1.71-2.36,0.82-4.36
			c-0.75-1.67-1.43-1.7-2.75-0.39c-1.25,1.24-2.61,2.41-4.07,3.41c-1.07,0.73-2.43,1.24-3.64,0.31c-1.24-0.96-0.94-2.41-0.79-3.75
			C79.23,64.93,79.34,64.76,79.38,64.57z M84.08,52.02c0.5-0.78,1.48-1.52,2.28-0.84c0.48,0.4,0.59,1.72,0.33,2.43
			c-0.96,2.57-3.06,3.9-5.57,4.65c-0.17-0.13-0.35-0.25-0.52-0.38C81.76,55.91,82.86,53.93,84.08,52.02z"/>
		<path class="st0" d="M51.18,0C39.91,0,30.78,9.13,30.78,20.39c0,5.37,2.08,10.26,5.48,13.9l-0.48,8.64
			c-0.04,0.79,0.83,1.28,1.48,0.83l6.42-4.41c2.32,0.92,4.85,1.43,7.49,1.43c11.26,0,20.39-9.13,20.39-20.39S62.44,0,51.18,0z
			 M52.66,28.5c-0.52,0.88-1.24,1.57-2.13,2.03c-0.88,0.46-1.95,0.69-3.18,0.69c-1.92,0-3.49-0.58-4.64-1.71
			c-1.16-1.14-1.76-2.68-1.81-4.6c0-0.01-0.03-0.4,0.25-0.72c0.22-0.25,0.55-0.39,0.99-0.4c0.51-0.01,0.91,0.1,1.16,0.35
			c0.19,0.19,0.26,0.42,0.25,0.58c0.09,0.84,0.29,1.53,0.6,2.01c0.31,0.47,0.75,0.86,1.33,1.15c0.58,0.29,1.26,0.44,2,0.44
			c1.05,0,1.87-0.24,2.44-0.73c0.55-0.47,0.82-1.07,0.82-1.84c0-0.44-0.09-0.81-0.29-1.14c-0.19-0.32-0.49-0.59-0.89-0.79
			c-0.44-0.23-1.44-0.57-2.97-1.01c-1.44-0.42-2.45-0.83-3.08-1.26c-0.64-0.44-1.15-1.01-1.5-1.69c-0.36-0.68-0.54-1.45-0.54-2.3
			c0-1.52,0.52-2.79,1.54-3.76c1.01-0.97,2.39-1.46,4.08-1.46c1.15,0,2.18,0.23,3.06,0.68c0.89,0.46,1.59,1.12,2.08,1.97
			c0.49,0.84,0.75,1.84,0.78,2.97c0,0.03,0.02,0.45-0.28,0.78c-0.15,0.17-0.43,0.37-0.93,0.38c-0.51,0.02-0.91-0.1-1.17-0.35
			c-0.28-0.26-0.3-0.56-0.3-0.62c-0.09-1-0.4-1.76-0.91-2.23c-0.52-0.47-1.28-0.71-2.26-0.71c-1,0-1.76,0.21-2.26,0.63
			c-0.49,0.4-0.72,0.91-0.72,1.55c0,0.59,0.16,1.03,0.5,1.34c0.26,0.24,0.93,0.62,2.7,1.09c1.49,0.4,2.52,0.74,3.13,1.04l0,0
			c0.96,0.48,1.7,1.12,2.2,1.91c0.5,0.79,0.75,1.74,0.75,2.82C53.44,26.63,53.18,27.62,52.66,28.5z M64.8,15.37l-7.89,14.34
			c-0.25,0.46-0.73,0.74-1.25,0.74c-0.24,0-0.48-0.06-0.69-0.18c-0.69-0.38-0.94-1.25-0.56-1.94l7.89-14.34
			c0.38-0.69,1.25-0.94,1.94-0.56l0,0C64.92,13.81,65.18,14.68,64.8,15.37z"/>
	</g>
</g>
</svg>
