<?xml version="1.0" encoding="utf-8"?>
<!-- Generator: Adobe Illustrator 25.3.1, SVG Export Plug-In . SVG Version: 6.00 Build 0)  -->
<svg version="1.1"
	 id="Capa_1" text-rendering="geometricPrecision" image-rendering="optimizeQuality" shape-rendering="geometricPrecision"
	 xmlns="http://www.w3.org/2000/svg" xmlns:xlink="http://www.w3.org/1999/xlink" x="0px" y="0px" width="477.8px" height="186.6px"
	 viewBox="0 0 477.8 186.6" style="enable-background:new 0 0 477.8 186.6;" xml:space="preserve">
<style type="text/css">
	.st0{fillRule:evenodd;clip-rule:evenodd;fill:#FEFEFE;}
	.st1{fillRule:evenodd;clip-rule:evenodd;fill:#C2C2C2;}
	.st2{fillRule:evenodd;clip-rule:evenodd;fill:#EEEEEE;}
	.st3{fillRule:evenodd;clip-rule:evenodd;fill:#E2E2E2;}
	.st4{fill:#686868;}
</style>
<g>
	<path class="st0" d="M151.9,110.9c-9.7,8.7-20.4,16.5-31.3,23.5c-22.8,14.7-48.2,27-73.5,36.9c-8.4,3.2-18.3,5.1-26.6,0.8
		c-5.5-2.9-9.1-7.8-11-13.6c-1.4-4.3-2-9.3-2.8-13.8C0.2,108.6,3,66.5,10.3,30.5c1.8-8.9,6.1-21,15.6-24.2c4.6-1.5,9.7-1.5,14.4-0.5
		c1.5,0.3,2.9,0.8,4.3,1.3c31.1,11.6,58.9,26,85,46.5c7.4,5.8,15.5,11.8,22.3,18.3c4.4,4.2,8.5,9,9.6,15.2c0.3,1.7,0.4,3.4,0.2,5.1
		C161.3,99.2,157.6,106.8,151.9,110.9L151.9,110.9z"/>
	<path class="st1" d="M15.5,156.5c2.3,6.8,9,16.7,29.2,8.9c29.2-11.3,72.8-32.1,103.1-59.4c0,0,6.8-4.7,7.5-14.1s-6.6-15-29.8-33.2
		c-22.8-17.9-48.4-32.5-83.3-45.6c-1.2-0.5-2.1-0.8-3.4-1.1c-2.4-0.5-6.9-1.1-11,0.3c-5.9,2-9.6,10.8-11.3,19.4
		C14.8,40,4,93.8,12.9,143.6C13.6,147.1,14.5,153.3,15.5,156.5L15.5,156.5z"/>
	<path class="st2" d="M19.4,22L19.4,22c-1,3.5-1.9,8-2.3,13.8v-0.2c5.9-2,14.4-2.8,26.3-1.3C81.6,39,120.8,60.5,142,73.5l5.8,3.4
		c-1.5-1.5-3.3-3-5.3-4.7l0,0l-0.4-0.3l-0.2-0.2c-0.4-0.4-0.9-0.7-1.3-1.1l-0.2-0.2L140,70l-0.2-0.2l-0.2-0.2l-0.5-0.4l-0.2-0.2
		l-0.5-0.4l-0.2-0.2l-0.5-0.4l-0.2-0.2l-0.5-0.4l-0.3-0.2l-0.3-0.2l-0.3-0.2l-0.3-0.2l-0.3-0.2L135,66l-0.3-0.2l-0.3-0.2l-0.3-0.2
		l-0.3-0.2l-0.5-0.4l-0.3-0.2l-0.3-0.2l-0.2-0.2l0,0l-0.3-0.2l-0.3-0.2l-0.3-0.2l0,0l-0.2-0.2l-0.3-0.2l-0.3-0.2l-0.1-0.1l-0.2-0.1
		l-0.3-0.2l-0.3-0.2l-0.2-0.2l-0.1-0.1l-0.3-0.2l-0.3-0.2l-0.3-0.2l0,0l-0.3-0.2l-0.3-0.2l-0.3-0.2l-0.1-0.1l-0.2-0.2l-0.3-0.2
		l-0.3-0.3l-0.2-0.2l-0.1-0.1l-0.3-0.3l-0.3-0.3l-0.3-0.3C102.9,41,77.3,26.4,42.4,13.3c-1.2-0.5-2.1-0.8-3.4-1.1
		c-2.4-0.5-6.9-1.1-11,0.3c-0.1,0-0.2,0.1-0.2,0.1h-0.1c-0.1,0-0.2,0.1-0.2,0.1l0,0c-0.1,0-0.2,0.1-0.2,0.1l0,0
		c-0.1,0-0.2,0.1-0.2,0.1H27c-0.1,0-0.1,0.1-0.2,0.1l0,0c-0.1,0-0.1,0.1-0.2,0.1l0,0c-0.1,0-0.1,0.1-0.2,0.1h-0.1
		c-0.1,0-0.1,0.1-0.2,0.1l0,0c-0.1,0-0.1,0.1-0.2,0.1l0,0c-0.1,0-0.1,0.1-0.2,0.2h-0.1c-0.1,0.1-0.1,0.1-0.2,0.2l0,0l0,0
		c-0.1,0.1-0.1,0.1-0.2,0.2l0,0c-0.1,0.1-0.1,0.1-0.2,0.2l0,0c-0.1,0.1-0.1,0.1-0.2,0.2l0,0l0,0l0,0c-0.1,0.1-0.1,0.1-0.2,0.2l0,0
		c-0.1,0.1-0.1,0.1-0.2,0.2l0,0c-0.1,0.1-0.1,0.1-0.2,0.2l0,0c-0.1,0.1-0.1,0.1-0.2,0.2v0.1c-0.1,0.1-0.1,0.1-0.2,0.2l0,0
		c-0.1,0.1-0.1,0.1-0.2,0.2l0,0c-0.1,0.1-0.1,0.1-0.2,0.2V16c-0.1,0.1-0.1,0.1-0.2,0.2l0,0l0,0c-0.1,0.1-0.1,0.1-0.2,0.2l-0.1,0.1
		c-0.1,0.1-0.1,0.2-0.2,0.2l-0.1,0.1c-0.1,0.1-0.1,0.2-0.2,0.2l0,0L19.4,22z M22.7,18.4c-0.1,0.1-0.1,0.1-0.2,0.2L22.7,18.4z
		 M20.4,20.7c-0.1,0.1-0.1,0.1-0.2,0.2L20.4,20.7z M20,21.3c-0.1,0.1-0.1,0.2-0.2,0.2L20,21.3z M19.8,21.6L19.8,21.6
		c-0.1,0.1-0.1,0.2-0.2,0.3l0,0c-0.1,0.1-0.1,0.2-0.2,0.3l0,0l0,0c-0.1,0.1-0.1,0.2-0.2,0.3l0,0c-0.1,0.1-0.1,0.2-0.2,0.3l0,0
		L18.9,23v0.1c0,0.1-0.1,0.2-0.1,0.3v0.1l-0.1,0.3l0,0l0,0l-0.1,0.3v0.1c0,0.1-0.1,0.2-0.1,0.3v0.1c0,0.1-0.1,0.2-0.1,0.3l0,0l0,0
		c0,0.1-0.1,0.2-0.1,0.3v0.1l-0.1,0.3v0.1L19.8,21.6z M20.3,20.5c0,0.1-0.1,0.2-0.1,0.3L20.3,20.5z M19.8,21.6L19.8,21.6L19.8,21.6z
		"/>
	<path class="st3" d="M17.1,35.7c5.9-2,14.4-2.8,26.3-1.3c38.2,4.7,77.4,26.2,98.6,39.2c-17.8,51.4-95.8,88.2-95.8,88.2
		c-9.3-9.3-18.3-18-27-82.4C16.6,59.8,16.3,45.7,17.1,35.7L17.1,35.7z"/>
	<path class="st4" d="M198.8,15.8c8.4-1.1,16.9-1,25.4-1c5.6,0.1,11.5,1.6,16,4.9c3.8,3,4,8.3,3.8,12.7c-0.4,7.5-1.9,15.6-7.4,21
		c-4.6,4.8-11.1,7.3-17.6,8c-6.3,0.8-12.6,1.1-18.9,0.2c-1.5,6.1-3.1,12.1-4.3,18.3c-0.3,1.8-1.1,3.9-3.1,4.4
		c-2.4,0.4-4.8-0.1-7.2,0.1c-1.4,0-3,0.3-4.3-0.3c-1.3-0.8-0.5-2.4-0.4-3.6c1.7-8.6,3.5-17.1,5.3-25.7c0.5-2.5,0.9-5,1.8-7.4
		c6.8-0.1,13.6-0.1,20.4-0.1c1.1-0.1,2,0.4,3,0.9c-0.4,1.9-0.7,3.9-0.8,5.9c3.5-1.9,6.5-4.6,9.6-7.1c3.5-3,7-5.9,10.1-9.3
		c-4.6-5.7-9.3-11.3-13.9-17c-1.3,1.9-0.6,5-2.8,6.2c-3.2,0.7-6.6,0.2-9.9,0.2c-3.9-0.2-7.9,0.6-11.7-0.4c0.1-3,0.3-6.3,1.9-8.9
		C194.7,16.2,197,16.1,198.8,15.8L198.8,15.8z M253.7,35.9c6.5-1.6,13.7-2.3,20.1,0.2c3.3,1.2,5.9,4.1,6.7,7.6
		c1.5,6-0.7,12.1-1.5,18c-0.9,6.2-2.1,12.3-3.1,18.5c-0.3,2.1-1.3,4.5-3.6,5.1c-6.4,1.7-13.1,2.2-19.7,1.7
		c-4.6-0.4-9.9-1.4-12.8-5.5c-2.9-4-2.2-9.3-1.1-13.8c1-4.4,4-8.4,8.3-9.9c5.3-1.9,11.1-1.7,16.6-2.1c1.4-0.2,3.1,0.1,4.2-0.9
		c0.9-2.3,1.2-4.9,0.5-7.3c-1.1-2.6-4.3-3-6.8-2.8c-5.2,0-10.1,1.5-15,3.1c-0.6-2.6-1.4-5.7,0.2-8.1
		C248.2,37.4,251.1,36.6,253.7,35.9L253.7,35.9z M250.4,68.7c-0.5,2-1.3,4.4-0.3,6.4c2.3,2.9,6.5,3.5,10,2.9
		c1.7-0.3,4.3-0.6,4.4-2.9c0.3-3.6,1.8-7.2,1.1-10.8c-3.8-0.2-7.7-0.3-11.5,0.5C252.3,65.2,250.9,66.9,250.4,68.7z M300.2,36.4
		c8.3-3.1,17.5-1.8,26-0.3c1.6,0.4,3.5,0.4,4.7,1.6c0.9,1.2,0.5,2.7,0.3,4c-2.9,16-5.5,32.1-8.7,48c-1,4.7-3.2,9.7-7.6,12.1
		c-5.3,2.9-11.5,2.5-17.3,2.7c-5.3,0.1-11.2-1.1-15.1-5c-1-2.4,0.6-4.8,1.4-7c1.2,0.1,2.5,0.2,3.7,0.5c6.1,1.7,12.6,2.1,18.9,1.1
		c3.4-0.8,4-4.7,4.3-7.6c-5.9,0.8-12.3,1.2-17.8-1.5c-4.5-2.1-7.7-6.8-8.1-11.8c-0.6-9,1.1-18,4.4-26.3
		C291.2,42.1,295.3,38.1,300.2,36.4L300.2,36.4z M309.2,44.3c-3.4,0.6-6.4,2.7-8.3,5.5c-1.6,2.4-2,5.4-2.6,8.1c-1,5-2,10.1-1.1,15.2
		c0.3,2.2,2.5,3.3,4.4,3.8c3.5,0.8,7.1,0.3,10.5-0.6c1.1-0.2,1.2-1.6,1.4-2.5c1.5-8.3,2.8-16.7,4.3-25c0.1-1.1,0.5-2.3-0.1-3.4
		C315.2,44,312,43.8,309.2,44.3L309.2,44.3z M355.1,34.7c5.2-0.9,10.7-0.3,15.4,2.2c4.6,2.6,7.6,7.7,7.8,13c0.3,6-0.9,12.1-2.4,17.9
		c-1.3,4.9-3.4,9.8-7.2,13.3c-6.5,6.3-16.8,7.7-25.2,4.9c-4.7-1.5-8-5.8-9.1-10.5c-2.2-8.1-0.4-16.6,2.1-24.4
		C339,42.7,346.5,36.2,355.1,34.7L355.1,34.7z M355.2,45.7c-3.3,1-5.9,3.7-7,6.9c-1.8,5.3-2.8,10.9-2.8,16.4c0.1,2.1,0.4,4.6,2.2,6
		c2.4,1.9,5.7,1.6,8.5,1.1c2.8-0.4,4.9-2.6,6-5c2.8-5.6,3.7-11.9,3.9-18c0.1-2.4-0.5-5.2-2.6-6.6C361.1,44.8,357.9,44.9,355.2,45.7
		L355.2,45.7z M42.3,64.5c1.6-4.8,3.2-9.6,4.7-14.4c12.5,0,25.1,0,37.6,0c6.3,0,12.9,1.6,17.9,5.8c3.8,3,6.2,7.6,7,12.4
		c1.9,10.2-1,21.3-8.2,28.9c-6.5,7-16,10.7-25.4,11.7c-8,0.7-16.1,0.1-24.1-0.2c-2.3,9.4-4.2,18.8-6.4,28.2
		c-6.1-0.3-12.1-0.6-18.2-0.7c2.9-14.8,6.4-29.5,9.3-44.2c10-0.1,20,0,30.1,0c0,3.1,0,6.2,0,9.3c8.4-7.1,16.6-14.5,25-21.8
		c-6-7.9-12.3-15.7-18.4-23.5c-0.8,2.8-1.6,5.6-2.3,8.5C61.4,64.6,51.8,64.4,42.3,64.5L42.3,64.5z M233.6,93.9
		c5.4-2.7,11.9-2.7,17.7-1.1c0.1,2.5,0.4,5.5-1.3,7.5c-2.9,1.4-6.5,0.3-9.3,2c-2.2,1.9-1.7,5.2-2.1,7.9c3,0.4,6.1,0,9.2,0.7
		c0.5,2.6,0.6,5.8-1.2,8c-2.7,1.7-6.1,0.9-9,1.2c-0.8,1.1-1.4,2.4-1.6,3.7c-2.3,12.7-4.4,25.4-6.7,38.1c-1,4.3-2,9.2-5.7,12
		c-3.8,2.9-8.9,3.1-13.5,3c-1.9-0.2-4.3,0-5.5-1.8c-0.5-2.4,0.3-4.8,1.2-7c2.6-0.5,5.3,0,7.8-0.8c2.7-0.9,3.2-4,3.7-6.5
		c1.8-10.9,3.7-21.8,5.7-32.7c0.4-2.5,1.1-5,1-7.6c-2.5-0.9-5.7-0.1-7.6-2.3c-1.6-1.9-0.8-4.7,0.2-6.7c2.2-2.2,5.6-0.3,8.2-1.2
		c1.9-1.1,1.9-3.5,2.3-5.4C227.8,100.8,229.6,96.1,233.6,93.9L233.6,93.9z M371.4,98.5c0.5-2.1,0.5-5,2.8-6c3.3-0.3,6.6-0.2,9.9-0.2
		c1.4,3.8-0.2,7.7-1.1,11.3c-3.3,0.8-6.8,0.8-10.1,0.3C370.5,103.3,371.2,100.3,371.4,98.5L371.4,98.5z M187.5,94.6
		c8.2-1.4,16.5-1,24.7,0c1,0.1,2,0.4,3,0.7c0.5,2.5,0.4,5.3-0.7,7.6c-0.8,1.6-2.8,1.8-4.4,1.9c-5.5,0.1-10.9-0.1-16.4,0.1
		c-2.5,0.1-5.4,0.8-6.4,3.4c-1.8,4.3-2,9.1-2.8,13.8c7.4,0,14.9,0,22.3,0c1.2-0.1,3.2,0.2,3.1,1.9c0,2.1-0.4,4.2-1.1,6.2
		c-0.5,1.6-2.4,2.3-4,2.2c-6.5,0-13-0.1-19.4,0c-1.7-0.2-3.3,1.1-3.4,2.8c-0.5,4.4-1.9,8.9-1.4,13.3c0.2,2.4,2.8,3.1,4.8,3.2
		c6.3,0.1,12.6-0.1,18.9,0.1c1.4,0,1.2,1.8,1.4,2.8c0.4,2.7-0.4,6.5-3.6,7c-9.2,1-19,2.5-27.8-1.1c-4.2-1.7-6.1-6.3-6.6-10.6
		c-0.6-3.6,0.4-7.1,0.9-10.6c1.6-9.2,3.2-18.3,4.9-27.5c0.8-4.2,2.1-8.4,4.8-11.8C180.7,97.4,183.9,95.3,187.5,94.6L187.5,94.6z
		 M344.8,102.4c3.5-2.1,7.8-2.3,11.8-2.1c0.1,3.3-1.1,6.5-0.9,9.9c2.6,0.4,5.3,0.1,7.8,1.1c1.6,0.7,1.3,2.7,1,4.1
		c-0.5,1.9-1.2,4.6-3.6,4.5c-2.5,0.6-6.8-0.9-7.6,2.5c-1.5,7.4-2.6,14.8-3.9,22.2c-0.4,2.6-0.9,5.2-0.9,7.8c2.6,0.9,5.5,0.6,8.2,0.5
		c2.4,3.6,0.1,9.3-4.4,9.4c-4.4,0-9.3,0.8-13.1-2c-2.8-2.1-3.4-5.9-2.9-9.2c1.3-10.2,3.6-20.3,4.9-30.5c-2.8-0.8-6.3-0.1-8.5-2.4
		c-1.1-2-1-5,0.7-6.7c2.7-1.8,6.3-0.3,9.2-1.4C344.3,108,343.1,104.6,344.8,102.4L344.8,102.4z M265.3,110.4
		c4.9-0.6,10.4-1.1,14.7,1.7c5.7,3.5,8,10.7,7.9,17.1c-0.2,3.6,0.1,7.4-1,10.9c-5.1,1-10.4,0.4-15.5,0.6c-5,0.1-10-0.2-14.9,0.1
		c-1.4,3.5-0.8,8.1,2.6,10.2c2.6,1.3,5.6,1.1,8.4,1.1c5.2,0,10.2-1.8,15.3-2.8c0,3.2,0.8,7.5-2.3,9.5c-3.4,1.9-7.2,2.8-11,3.8
		c-5.6,1.4-11.7,0.9-16.7-2c-4.4-2.3-7.9-6.6-8.5-11.7c-1.1-9.8,0.9-20,5.6-28.7C252.9,114.5,259.1,111.2,265.3,110.4L265.3,110.4z
		 M262.4,122.7c-2.7,2.2-3.7,5.7-4.2,9c6.1,0.1,12.2,0.3,18.2-0.2c0.9-2.7,0.6-5.8-1.2-8.1C272.3,119.5,265.9,119.5,262.4,122.7
		L262.4,122.7z M298.8,118.4c4.1-5.9,11.7-8.7,18.7-8.4c4,0.2,8.1,0.9,11.5,2.9c2.7,1.7,0.8,5.1,0.4,7.5c-0.2,2.3-3,1.6-4.6,1.6
		c-3.7,0.2-7-2.8-10.7-1.5c-3,0.7-5.7,2.9-6.8,5.9c-2.6,6.3-3.8,13.3-3.5,20.1c0,2.1,1.1,4.4,3.3,5c5.5,1.8,11-0.5,16.4-1.5
		c0.2,2.9,0.5,6.2-1.1,8.8c-1.4,1.9-4,2.5-6.2,2.7c-2.9,0.3-5.8,0.7-8.7,1c-6.8,0.1-13.6-4.6-15.2-11.4c-1-5.4-0.5-10.9,0.4-16.2
		C293.8,129.1,295.4,123.3,298.8,118.4L298.8,118.4z M447.9,110.4c4.8-0.6,9.9-0.6,14.4,1.2c5.1,2.5,8.9,7.8,9.1,13.5
		c0.6,7-1.2,14-3.2,20.7c-1.3,4.5-3.8,8.9-7.6,11.8c-6.4,5-15.2,6.2-22.9,4c-4.5-1.1-7.8-4.9-9.8-8.9c-2.8-6-1.2-12.8-0.1-19
		c1.2-6.8,3.8-13.9,9.2-18.5C440.1,112.7,443.9,111,447.9,110.4z M449.2,120.9c-3.6,0.7-6.4,3.6-7.7,7c-1.9,5.1-2.8,10.6-3.1,16
		c-0.1,2.1,0.2,4.5,1.9,6c3.1,2.6,7.8,2.5,11.3,0.7c2.7-1.4,4.3-4.2,4.9-7c1.2-5.3,3.2-10.7,2.7-16.2c-0.1-2-0.9-4-2.5-5.2
		C454.5,120.6,451.7,120.4,449.2,120.9z M369.8,111.2c3.3-1.1,6.9-1.1,10.2-0.5c1.9,0.3,1.1,2.6,1.1,3.9
		c-2.2,13.8-4.9,27.5-7.2,41.3c-0.4,2.2-0.4,5.4-3.2,5.8c-2.9,0.3-5.9,0.6-8.7-0.4c-0.8-1.3-0.5-2.9-0.3-4.3c2-12,4.1-24,6.1-36
		C368.4,117.8,368.8,114.4,369.8,111.2L369.8,111.2z M386.5,111.4c0.8-0.8,2-0.8,3.1-0.9c2.4-0.1,4.9-0.2,7.3,0.4
		c1.3,0.2,1,1.9,1.3,2.9c0.5,8.3,0.8,16.5,1.2,24.8c0.3,4.8,0.3,9.6,1.4,14.3c3.3-3.2,4.4-7.8,6.2-11.9c4-10,7.8-20,12.2-29.9
		c3.5-0.9,7.3-0.9,10.9-0.4c1.8,0.5,0.9,2.6,0.4,3.8c-6.3,13.8-12.3,27.6-18.7,41.4c-2.7,6.2-10.8,8-16.7,5.9
		c-3.1-1-4.4-4.3-4.7-7.3c-1.5-12.9-2.7-25.8-3.9-38.7C386.2,114.4,386,112.9,386.5,111.4L386.5,111.4z"/>
</g>
</svg>
