<svg width="128" height="34" viewBox="0 0 128 34" fill="none" xmlns="http://www.w3.org/2000/svg">
<rect y="19" width="128" height="7" rx="3.5" fill="#C4C4C4"/>
<rect y="19" width="48" height="7" rx="3.5" fill="#17BF93"/>
<g filter="url(#filter0_d)">
<g clipPath="url(#clip0)">
<path d="M47.6328 2.08398L35.9902 7.70455C35.8442 7.77503 35.7515 7.92281 35.7515 8.0849V21.9151C35.7515 22.0772 35.8442 22.2249 35.9902 22.2954L47.6328 27.916C47.8648 28.028 48.1352 28.028 48.3673 27.916L60.0098 22.2954C60.1558 22.2249 60.2485 22.0772 60.2485 21.9151V8.0849C60.2485 7.92281 60.1558 7.77503 60.0098 7.70455L48.3673 2.08398C48.1352 1.97201 47.8648 1.97201 47.6328 2.08398Z" fill="#FFD485"/>
<path d="M35.8217 7.85364C35.7773 7.92123 35.7515 8.0008 35.7515 8.08484V21.915C35.7515 22.0771 35.8442 22.2249 35.9902 22.2954L47.6328 27.9159C47.7487 27.9719 47.8744 27.9999 48 27.9999V13.7328L35.8217 7.85364Z" fill="#FFC350"/>
<path d="M60.1783 7.85364C60.2227 7.92123 60.2485 8.0008 60.2485 8.08484V21.915C60.2485 22.0771 60.1558 22.2249 60.0098 22.2954L48.3672 27.9159C48.2513 27.9719 48.1256 27.9999 48 27.9999V13.7328L60.1783 7.85364Z" fill="#F7B844"/>
<path d="M39.2355 21.1778C39.1741 21.1778 39.1113 21.1642 39.0524 21.1358L37.2549 20.268C37.0446 20.1665 36.9567 19.9141 37.0582 19.7042C37.1592 19.4942 37.4125 19.4068 37.622 19.5074L39.4195 20.3753C39.6298 20.4768 39.7177 20.7292 39.6162 20.9391C39.5436 21.09 39.3927 21.1778 39.2355 21.1778Z" fill="#FFE17D"/>
<path d="M40.8899 20.1009C40.8285 20.1009 40.7657 20.0873 40.7068 20.0589L37.2573 18.3938C37.0474 18.2923 36.9591 18.0399 37.0606 17.83C37.1616 17.6204 37.4153 17.5326 37.6244 17.6332L41.0738 19.2983C41.2838 19.3998 41.372 19.6522 41.2706 19.8622C41.198 20.013 41.0471 20.1009 40.8899 20.1009Z" fill="#FFF6D8"/>
<path d="M56.0513 9.83928L43.8302 3.9353L40.6086 5.49683L52.8572 11.4099L56.0513 9.83928Z" fill="#FF7676"/>
<path d="M52.8572 11.4098V15.9907C52.8572 16.1464 53.0199 16.2485 53.1602 16.1809L55.8126 14.9004C55.9586 14.8299 56.0513 14.6821 56.0513 14.5201V9.83923L52.8572 11.4098Z" fill="#FF5454"/>
</g>
</g>
<defs>
<filter id="filter0_d" x="31" y="0" width="34" height="34" filterUnits="userSpaceOnUse" color-interpolation-filters="sRGB">
<feFlood flood-opacity="0" result="BackgroundImageFix"/>
<feColorMatrix in="SourceAlpha" type="matrix" values="0 0 0 0 0 0 0 0 0 0 0 0 0 0 0 0 0 0 127 0"/>
<feOffset dy="2"/>
<feGaussianBlur stdDeviation="2"/>
<feColorMatrix type="matrix" values="0 0 0 0 0 0 0 0 0 0 0 0 0 0 0 0 0 0 0.15 0"/>
<feBlend mode="normal" in2="BackgroundImageFix" result="effect1_dropShadow"/>
<feBlend mode="normal" in="SourceGraphic" in2="effect1_dropShadow" result="shape"/>
</filter>
<clipPath id="clip0">
<rect width="26" height="26" fill="white" transform="translate(35 2)"/>
</clipPath>
</defs>
</svg>
