<svg width="307" height="43" viewBox="0 0 307 43" fill="none" xmlns="http://www.w3.org/2000/svg">
<path d="M107.05 19.05C106.857 18.6433 106.577 18.33 106.21 18.11C105.843 17.8833 105.417 17.77 104.93 17.77C104.443 17.77 104.003 17.8833 103.61 18.11C103.223 18.33 102.917 18.65 102.69 19.07C102.47 19.4833 102.36 19.9633 102.36 20.51C102.36 21.0567 102.47 21.5367 102.69 21.95C102.917 22.3633 103.223 22.6833 103.61 22.91C104.003 23.13 104.443 23.24 104.93 23.24C105.61 23.24 106.17 23.0367 106.61 22.63C107.05 22.2233 107.307 21.6733 107.38 20.98H104.6V20.24H108.35V20.94C108.297 21.5133 108.117 22.04 107.81 22.52C107.503 22.9933 107.1 23.37 106.6 23.65C106.1 23.9233 105.543 24.06 104.93 24.06C104.283 24.06 103.693 23.91 103.16 23.61C102.627 23.3033 102.203 22.88 101.89 22.34C101.583 21.8 101.43 21.19 101.43 20.51C101.43 19.83 101.583 19.22 101.89 18.68C102.203 18.1333 102.627 17.71 103.16 17.41C103.693 17.1033 104.283 16.95 104.93 16.95C105.67 16.95 106.323 17.1333 106.89 17.5C107.463 17.8667 107.88 18.3833 108.14 19.05H107.05ZM110.463 19.41C110.623 19.0967 110.85 18.8533 111.143 18.68C111.443 18.5067 111.807 18.42 112.233 18.42V19.36H111.993C110.973 19.36 110.463 19.9133 110.463 21.02V24H109.553V18.52H110.463V19.41ZM112.944 21.24C112.944 20.68 113.057 20.19 113.284 19.77C113.51 19.3433 113.82 19.0133 114.214 18.78C114.614 18.5467 115.057 18.43 115.544 18.43C116.024 18.43 116.44 18.5333 116.794 18.74C117.147 18.9467 117.41 19.2067 117.584 19.52V18.52H118.504V24H117.584V22.98C117.404 23.3 117.134 23.5667 116.774 23.78C116.42 23.9867 116.007 24.09 115.534 24.09C115.047 24.09 114.607 23.97 114.214 23.73C113.82 23.49 113.51 23.1533 113.284 22.72C113.057 22.2867 112.944 21.7933 112.944 21.24ZM117.584 21.25C117.584 20.8367 117.5 20.4767 117.334 20.17C117.167 19.8633 116.94 19.63 116.654 19.47C116.374 19.3033 116.064 19.22 115.724 19.22C115.384 19.22 115.074 19.3 114.794 19.46C114.514 19.62 114.29 19.8533 114.124 20.16C113.957 20.4667 113.874 20.8267 113.874 21.24C113.874 21.66 113.957 22.0267 114.124 22.34C114.29 22.6467 114.514 22.8833 114.794 23.05C115.074 23.21 115.384 23.29 115.724 23.29C116.064 23.29 116.374 23.21 116.654 23.05C116.94 22.8833 117.167 22.6467 117.334 22.34C117.5 22.0267 117.584 21.6633 117.584 21.25ZM119.701 21.25C119.701 20.6833 119.815 20.19 120.041 19.77C120.268 19.3433 120.581 19.0133 120.981 18.78C121.388 18.5467 121.851 18.43 122.371 18.43C123.045 18.43 123.598 18.5933 124.031 18.92C124.471 19.2467 124.761 19.7 124.901 20.28H123.921C123.828 19.9467 123.645 19.6833 123.371 19.49C123.105 19.2967 122.771 19.2 122.371 19.2C121.851 19.2 121.431 19.38 121.111 19.74C120.791 20.0933 120.631 20.5967 120.631 21.25C120.631 21.91 120.791 22.42 121.111 22.78C121.431 23.14 121.851 23.32 122.371 23.32C122.771 23.32 123.105 23.2267 123.371 23.04C123.638 22.8533 123.821 22.5867 123.921 22.24H124.901C124.755 22.8 124.461 23.25 124.021 23.59C123.581 23.9233 123.031 24.09 122.371 24.09C121.851 24.09 121.388 23.9733 120.981 23.74C120.581 23.5067 120.268 23.1767 120.041 22.75C119.815 22.3233 119.701 21.8233 119.701 21.25ZM126.586 17.63C126.412 17.63 126.266 17.57 126.146 17.45C126.026 17.33 125.966 17.1833 125.966 17.01C125.966 16.8367 126.026 16.69 126.146 16.57C126.266 16.45 126.412 16.39 126.586 16.39C126.752 16.39 126.892 16.45 127.006 16.57C127.126 16.69 127.186 16.8367 127.186 17.01C127.186 17.1833 127.126 17.33 127.006 17.45C126.892 17.57 126.752 17.63 126.586 17.63ZM127.026 18.52V24H126.116V18.52H127.026ZM128.237 21.24C128.237 20.68 128.35 20.19 128.577 19.77C128.803 19.3433 129.113 19.0133 129.507 18.78C129.907 18.5467 130.35 18.43 130.837 18.43C131.317 18.43 131.733 18.5333 132.087 18.74C132.44 18.9467 132.703 19.2067 132.877 19.52V18.52H133.797V24H132.877V22.98C132.697 23.3 132.427 23.5667 132.067 23.78C131.713 23.9867 131.3 24.09 130.827 24.09C130.34 24.09 129.9 23.97 129.507 23.73C129.113 23.49 128.803 23.1533 128.577 22.72C128.35 22.2867 128.237 21.7933 128.237 21.24ZM132.877 21.25C132.877 20.8367 132.793 20.4767 132.627 20.17C132.46 19.8633 132.233 19.63 131.947 19.47C131.667 19.3033 131.357 19.22 131.017 19.22C130.677 19.22 130.367 19.3 130.087 19.46C129.807 19.62 129.583 19.8533 129.417 20.16C129.25 20.4667 129.167 20.8267 129.167 21.24C129.167 21.66 129.25 22.0267 129.417 22.34C129.583 22.6467 129.807 22.8833 130.087 23.05C130.367 23.21 130.677 23.29 131.017 23.29C131.357 23.29 131.667 23.21 131.947 23.05C132.233 22.8833 132.46 22.6467 132.627 22.34C132.793 22.0267 132.877 21.6633 132.877 21.25ZM137.274 24.09C136.854 24.09 136.478 24.02 136.144 23.88C135.811 23.7333 135.548 23.5333 135.354 23.28C135.161 23.02 135.054 22.7233 135.034 22.39H135.974C136.001 22.6633 136.128 22.8867 136.354 23.06C136.588 23.2333 136.891 23.32 137.264 23.32C137.611 23.32 137.884 23.2433 138.084 23.09C138.284 22.9367 138.384 22.7433 138.384 22.51C138.384 22.27 138.278 22.0933 138.064 21.98C137.851 21.86 137.521 21.7433 137.074 21.63C136.668 21.5233 136.334 21.4167 136.074 21.31C135.821 21.1967 135.601 21.0333 135.414 20.82C135.234 20.6 135.144 20.3133 135.144 19.96C135.144 19.68 135.228 19.4233 135.394 19.19C135.561 18.9567 135.798 18.7733 136.104 18.64C136.411 18.5 136.761 18.43 137.154 18.43C137.761 18.43 138.251 18.5833 138.624 18.89C138.998 19.1967 139.198 19.6167 139.224 20.15H138.314C138.294 19.8633 138.178 19.6333 137.964 19.46C137.758 19.2867 137.478 19.2 137.124 19.2C136.798 19.2 136.538 19.27 136.344 19.41C136.151 19.55 136.054 19.7333 136.054 19.96C136.054 20.14 136.111 20.29 136.224 20.41C136.344 20.5233 136.491 20.6167 136.664 20.69C136.844 20.7567 137.091 20.8333 137.404 20.92C137.798 21.0267 138.118 21.1333 138.364 21.24C138.611 21.34 138.821 21.4933 138.994 21.7C139.174 21.9067 139.268 22.1767 139.274 22.51C139.274 22.81 139.191 23.08 139.024 23.32C138.858 23.56 138.621 23.75 138.314 23.89C138.014 24.0233 137.668 24.09 137.274 24.09ZM144.135 19.53C144.315 19.2167 144.582 18.9567 144.935 18.75C145.295 18.5367 145.712 18.43 146.185 18.43C146.672 18.43 147.112 18.5467 147.505 18.78C147.905 19.0133 148.218 19.3433 148.445 19.77C148.672 20.19 148.785 20.68 148.785 21.24C148.785 21.7933 148.672 22.2867 148.445 22.72C148.218 23.1533 147.905 23.49 147.505 23.73C147.112 23.97 146.672 24.09 146.185 24.09C145.718 24.09 145.305 23.9867 144.945 23.78C144.592 23.5667 144.322 23.3033 144.135 22.99V26.6H143.225V18.52H144.135V19.53ZM147.855 21.24C147.855 20.8267 147.772 20.4667 147.605 20.16C147.438 19.8533 147.212 19.62 146.925 19.46C146.645 19.3 146.335 19.22 145.995 19.22C145.662 19.22 145.352 19.3033 145.065 19.47C144.785 19.63 144.558 19.8667 144.385 20.18C144.218 20.4867 144.135 20.8433 144.135 21.25C144.135 21.6633 144.218 22.0267 144.385 22.34C144.558 22.6467 144.785 22.8833 145.065 23.05C145.352 23.21 145.662 23.29 145.995 23.29C146.335 23.29 146.645 23.21 146.925 23.05C147.212 22.8833 147.438 22.6467 147.605 22.34C147.772 22.0267 147.855 21.66 147.855 21.24ZM152.373 24.09C151.86 24.09 151.393 23.9733 150.973 23.74C150.56 23.5067 150.233 23.1767 149.993 22.75C149.76 22.3167 149.643 21.8167 149.643 21.25C149.643 20.69 149.763 20.1967 150.003 19.77C150.25 19.3367 150.583 19.0067 151.003 18.78C151.423 18.5467 151.893 18.43 152.413 18.43C152.933 18.43 153.403 18.5467 153.823 18.78C154.243 19.0067 154.573 19.3333 154.813 19.76C155.06 20.1867 155.183 20.6833 155.183 21.25C155.183 21.8167 155.056 22.3167 154.803 22.75C154.556 23.1767 154.22 23.5067 153.793 23.74C153.366 23.9733 152.893 24.09 152.373 24.09ZM152.373 23.29C152.7 23.29 153.006 23.2133 153.293 23.06C153.58 22.9067 153.81 22.6767 153.983 22.37C154.163 22.0633 154.253 21.69 154.253 21.25C154.253 20.81 154.166 20.4367 153.993 20.13C153.82 19.8233 153.593 19.5967 153.313 19.45C153.033 19.2967 152.73 19.22 152.403 19.22C152.07 19.22 151.763 19.2967 151.483 19.45C151.21 19.5967 150.99 19.8233 150.823 20.13C150.656 20.4367 150.573 20.81 150.573 21.25C150.573 21.6967 150.653 22.0733 150.813 22.38C150.98 22.6867 151.2 22.9167 151.473 23.07C151.746 23.2167 152.046 23.29 152.373 23.29ZM157.289 19.41C157.449 19.0967 157.676 18.8533 157.969 18.68C158.269 18.5067 158.633 18.42 159.059 18.42V19.36H158.819C157.799 19.36 157.289 19.9133 157.289 21.02V24H156.379V18.52H157.289V19.41ZM162.436 21.24C162.436 20.68 162.549 20.19 162.776 19.77C163.003 19.3433 163.313 19.0133 163.706 18.78C164.106 18.5467 164.549 18.43 165.036 18.43C165.516 18.43 165.933 18.5333 166.286 18.74C166.639 18.9467 166.903 19.2067 167.076 19.52V18.52H167.996V24H167.076V22.98C166.896 23.3 166.626 23.5667 166.266 23.78C165.913 23.9867 165.499 24.09 165.026 24.09C164.539 24.09 164.099 23.97 163.706 23.73C163.313 23.49 163.003 23.1533 162.776 22.72C162.549 22.2867 162.436 21.7933 162.436 21.24ZM167.076 21.25C167.076 20.8367 166.993 20.4767 166.826 20.17C166.659 19.8633 166.433 19.63 166.146 19.47C165.866 19.3033 165.556 19.22 165.216 19.22C164.876 19.22 164.566 19.3 164.286 19.46C164.006 19.62 163.783 19.8533 163.616 20.16C163.449 20.4667 163.366 20.8267 163.366 21.24C163.366 21.66 163.449 22.0267 163.616 22.34C163.783 22.6467 164.006 22.8833 164.286 23.05C164.566 23.21 164.876 23.29 165.216 23.29C165.556 23.29 165.866 23.21 166.146 23.05C166.433 22.8833 166.659 22.6467 166.826 22.34C166.993 22.0267 167.076 21.6633 167.076 21.25ZM174.254 18.52L170.954 26.58H170.014L171.094 23.94L168.884 18.52H169.894L171.614 22.96L173.314 18.52H174.254ZM180.028 18.52V24H179.118V23.19C178.945 23.47 178.702 23.69 178.388 23.85C178.082 24.0033 177.742 24.08 177.368 24.08C176.942 24.08 176.558 23.9933 176.218 23.82C175.878 23.64 175.608 23.3733 175.408 23.02C175.215 22.6667 175.118 22.2367 175.118 21.73V18.52H176.018V21.61C176.018 22.15 176.155 22.5667 176.428 22.86C176.702 23.1467 177.075 23.29 177.548 23.29C178.035 23.29 178.418 23.14 178.698 22.84C178.978 22.54 179.118 22.1033 179.118 21.53V18.52H180.028ZM181.225 21.24C181.225 20.68 181.338 20.19 181.565 19.77C181.792 19.3433 182.102 19.0133 182.495 18.78C182.895 18.5467 183.342 18.43 183.835 18.43C184.262 18.43 184.658 18.53 185.025 18.73C185.392 18.9233 185.672 19.18 185.865 19.5V16.6H186.785V24H185.865V22.97C185.685 23.2967 185.418 23.5667 185.065 23.78C184.712 23.9867 184.298 24.09 183.825 24.09C183.338 24.09 182.895 23.97 182.495 23.73C182.102 23.49 181.792 23.1533 181.565 22.72C181.338 22.2867 181.225 21.7933 181.225 21.24ZM185.865 21.25C185.865 20.8367 185.782 20.4767 185.615 20.17C185.448 19.8633 185.222 19.63 184.935 19.47C184.655 19.3033 184.345 19.22 184.005 19.22C183.665 19.22 183.355 19.3 183.075 19.46C182.795 19.62 182.572 19.8533 182.405 20.16C182.238 20.4667 182.155 20.8267 182.155 21.24C182.155 21.66 182.238 22.0267 182.405 22.34C182.572 22.6467 182.795 22.8833 183.075 23.05C183.355 23.21 183.665 23.29 184.005 23.29C184.345 23.29 184.655 23.21 184.935 23.05C185.222 22.8833 185.448 22.6467 185.615 22.34C185.782 22.0267 185.865 21.6633 185.865 21.25ZM187.983 21.24C187.983 20.68 188.096 20.19 188.323 19.77C188.549 19.3433 188.859 19.0133 189.253 18.78C189.653 18.5467 190.096 18.43 190.583 18.43C191.063 18.43 191.479 18.5333 191.833 18.74C192.186 18.9467 192.449 19.2067 192.623 19.52V18.52H193.543V24H192.623V22.98C192.443 23.3 192.173 23.5667 191.813 23.78C191.459 23.9867 191.046 24.09 190.573 24.09C190.086 24.09 189.646 23.97 189.253 23.73C188.859 23.49 188.549 23.1533 188.323 22.72C188.096 22.2867 187.983 21.7933 187.983 21.24ZM192.623 21.25C192.623 20.8367 192.539 20.4767 192.373 20.17C192.206 19.8633 191.979 19.63 191.693 19.47C191.413 19.3033 191.103 19.22 190.763 19.22C190.423 19.22 190.113 19.3 189.833 19.46C189.553 19.62 189.329 19.8533 189.163 20.16C188.996 20.4667 188.913 20.8267 188.913 21.24C188.913 21.66 188.996 22.0267 189.163 22.34C189.329 22.6467 189.553 22.8833 189.833 23.05C190.113 23.21 190.423 23.29 190.763 23.29C191.103 23.29 191.413 23.21 191.693 23.05C191.979 22.8833 192.206 22.6467 192.373 22.34C192.539 22.0267 192.623 21.6633 192.623 21.25ZM195.991 19.41C196.151 19.0967 196.377 18.8533 196.671 18.68C196.971 18.5067 197.334 18.42 197.761 18.42V19.36H197.521C196.501 19.36 195.991 19.9133 195.991 21.02V24H195.081V18.52H195.991V19.41ZM201.481 18.42C202.148 18.42 202.688 18.6233 203.101 19.03C203.514 19.43 203.721 20.01 203.721 20.77V24H202.821V20.9C202.821 20.3533 202.684 19.9367 202.411 19.65C202.138 19.3567 201.764 19.21 201.291 19.21C200.811 19.21 200.428 19.36 200.141 19.66C199.861 19.96 199.721 20.3967 199.721 20.97V24H198.811V18.52H199.721V19.3C199.901 19.02 200.144 18.8033 200.451 18.65C200.764 18.4967 201.108 18.42 201.481 18.42ZM207.598 24.09C207.084 24.09 206.618 23.9733 206.198 23.74C205.784 23.5067 205.458 23.1767 205.218 22.75C204.984 22.3167 204.868 21.8167 204.868 21.25C204.868 20.69 204.988 20.1967 205.228 19.77C205.474 19.3367 205.808 19.0067 206.228 18.78C206.648 18.5467 207.118 18.43 207.638 18.43C208.158 18.43 208.628 18.5467 209.048 18.78C209.468 19.0067 209.798 19.3333 210.038 19.76C210.284 20.1867 210.408 20.6833 210.408 21.25C210.408 21.8167 210.281 22.3167 210.028 22.75C209.781 23.1767 209.444 23.5067 209.018 23.74C208.591 23.9733 208.118 24.09 207.598 24.09ZM207.598 23.29C207.924 23.29 208.231 23.2133 208.518 23.06C208.804 22.9067 209.034 22.6767 209.208 22.37C209.388 22.0633 209.478 21.69 209.478 21.25C209.478 20.81 209.391 20.4367 209.218 20.13C209.044 19.8233 208.818 19.5967 208.538 19.45C208.258 19.2967 207.954 19.22 207.628 19.22C207.294 19.22 206.988 19.2967 206.708 19.45C206.434 19.5967 206.214 19.8233 206.048 20.13C205.881 20.4367 205.798 20.81 205.798 21.25C205.798 21.6967 205.878 22.0733 206.038 22.38C206.204 22.6867 206.424 22.9167 206.698 23.07C206.971 23.2167 207.271 23.29 207.598 23.29ZM213.544 24.09C213.124 24.09 212.747 24.02 212.414 23.88C212.081 23.7333 211.817 23.5333 211.624 23.28C211.431 23.02 211.324 22.7233 211.304 22.39H212.244C212.271 22.6633 212.397 22.8867 212.624 23.06C212.857 23.2333 213.161 23.32 213.534 23.32C213.881 23.32 214.154 23.2433 214.354 23.09C214.554 22.9367 214.654 22.7433 214.654 22.51C214.654 22.27 214.547 22.0933 214.334 21.98C214.121 21.86 213.791 21.7433 213.344 21.63C212.937 21.5233 212.604 21.4167 212.344 21.31C212.091 21.1967 211.871 21.0333 211.684 20.82C211.504 20.6 211.414 20.3133 211.414 19.96C211.414 19.68 211.497 19.4233 211.664 19.19C211.831 18.9567 212.067 18.7733 212.374 18.64C212.681 18.5 213.031 18.43 213.424 18.43C214.031 18.43 214.521 18.5833 214.894 18.89C215.267 19.1967 215.467 19.6167 215.494 20.15H214.584C214.564 19.8633 214.447 19.6333 214.234 19.46C214.027 19.2867 213.747 19.2 213.394 19.2C213.067 19.2 212.807 19.27 212.614 19.41C212.421 19.55 212.324 19.7333 212.324 19.96C212.324 20.14 212.381 20.29 212.494 20.41C212.614 20.5233 212.761 20.6167 212.934 20.69C213.114 20.7567 213.361 20.8333 213.674 20.92C214.067 21.0267 214.387 21.1333 214.634 21.24C214.881 21.34 215.091 21.4933 215.264 21.7C215.444 21.9067 215.537 22.1767 215.544 22.51C215.544 22.81 215.461 23.08 215.294 23.32C215.127 23.56 214.891 23.75 214.584 23.89C214.284 24.0233 213.937 24.09 213.544 24.09ZM219.155 21.24C219.155 20.68 219.268 20.19 219.495 19.77C219.721 19.3433 220.031 19.0133 220.425 18.78C220.825 18.5467 221.268 18.43 221.755 18.43C222.235 18.43 222.651 18.5333 223.005 18.74C223.358 18.9467 223.621 19.2067 223.795 19.52V18.52H224.715V24H223.795V22.98C223.615 23.3 223.345 23.5667 222.985 23.78C222.631 23.9867 222.218 24.09 221.745 24.09C221.258 24.09 220.818 23.97 220.425 23.73C220.031 23.49 219.721 23.1533 219.495 22.72C219.268 22.2867 219.155 21.7933 219.155 21.24ZM223.795 21.25C223.795 20.8367 223.711 20.4767 223.545 20.17C223.378 19.8633 223.151 19.63 222.865 19.47C222.585 19.3033 222.275 19.22 221.935 19.22C221.595 19.22 221.285 19.3 221.005 19.46C220.725 19.62 220.501 19.8533 220.335 20.16C220.168 20.4667 220.085 20.8267 220.085 21.24C220.085 21.66 220.168 22.0267 220.335 22.34C220.501 22.6467 220.725 22.8833 221.005 23.05C221.285 23.21 221.595 23.29 221.935 23.29C222.275 23.29 222.585 23.21 222.865 23.05C223.151 22.8833 223.378 22.6467 223.545 22.34C223.711 22.0267 223.795 21.6633 223.795 21.25ZM229.828 19.41C229.988 19.0967 230.215 18.8533 230.508 18.68C230.808 18.5067 231.172 18.42 231.598 18.42V19.36H231.358C230.338 19.36 229.828 19.9133 229.828 21.02V24H228.918V18.52H229.828V19.41ZM237.649 21.05C237.649 21.2233 237.639 21.4067 237.619 21.6H233.239C233.272 22.14 233.456 22.5633 233.789 22.87C234.129 23.17 234.539 23.32 235.019 23.32C235.412 23.32 235.739 23.23 235.999 23.05C236.266 22.8633 236.452 22.6167 236.559 22.31H237.539C237.392 22.8367 237.099 23.2667 236.659 23.6C236.219 23.9267 235.672 24.09 235.019 24.09C234.499 24.09 234.032 23.9733 233.619 23.74C233.212 23.5067 232.892 23.1767 232.659 22.75C232.426 22.3167 232.309 21.8167 232.309 21.25C232.309 20.6833 232.422 20.1867 232.649 19.76C232.876 19.3333 233.192 19.0067 233.599 18.78C234.012 18.5467 234.486 18.43 235.019 18.43C235.539 18.43 235.999 18.5433 236.399 18.77C236.799 18.9967 237.106 19.31 237.319 19.71C237.539 20.1033 237.649 20.55 237.649 21.05ZM236.709 20.86C236.709 20.5133 236.632 20.2167 236.479 19.97C236.326 19.7167 236.116 19.5267 235.849 19.4C235.589 19.2667 235.299 19.2 234.979 19.2C234.519 19.2 234.126 19.3467 233.799 19.64C233.479 19.9333 233.296 20.34 233.249 20.86H236.709ZM239.76 19.53C239.94 19.2167 240.207 18.9567 240.56 18.75C240.92 18.5367 241.337 18.43 241.81 18.43C242.297 18.43 242.737 18.5467 243.13 18.78C243.53 19.0133 243.843 19.3433 244.07 19.77C244.297 20.19 244.41 20.68 244.41 21.24C244.41 21.7933 244.297 22.2867 244.07 22.72C243.843 23.1533 243.53 23.49 243.13 23.73C242.737 23.97 242.297 24.09 241.81 24.09C241.343 24.09 240.93 23.9867 240.57 23.78C240.217 23.5667 239.947 23.3033 239.76 22.99V26.6H238.85V18.52H239.76V19.53ZM243.48 21.24C243.48 20.8267 243.397 20.4667 243.23 20.16C243.063 19.8533 242.837 19.62 242.55 19.46C242.27 19.3 241.96 19.22 241.62 19.22C241.287 19.22 240.977 19.3033 240.69 19.47C240.41 19.63 240.183 19.8667 240.01 20.18C239.843 20.4867 239.76 20.8433 239.76 21.25C239.76 21.6633 239.843 22.0267 240.01 22.34C240.183 22.6467 240.41 22.8833 240.69 23.05C240.977 23.21 241.287 23.29 241.62 23.29C241.96 23.29 242.27 23.21 242.55 23.05C242.837 22.8833 243.063 22.6467 243.23 22.34C243.397 22.0267 243.48 21.66 243.48 21.24ZM247.998 24.09C247.485 24.09 247.018 23.9733 246.598 23.74C246.185 23.5067 245.858 23.1767 245.618 22.75C245.385 22.3167 245.268 21.8167 245.268 21.25C245.268 20.69 245.388 20.1967 245.628 19.77C245.875 19.3367 246.208 19.0067 246.628 18.78C247.048 18.5467 247.518 18.43 248.038 18.43C248.558 18.43 249.028 18.5467 249.448 18.78C249.868 19.0067 250.198 19.3333 250.438 19.76C250.685 20.1867 250.808 20.6833 250.808 21.25C250.808 21.8167 250.681 22.3167 250.428 22.75C250.181 23.1767 249.845 23.5067 249.418 23.74C248.991 23.9733 248.518 24.09 247.998 24.09ZM247.998 23.29C248.325 23.29 248.631 23.2133 248.918 23.06C249.205 22.9067 249.435 22.6767 249.608 22.37C249.788 22.0633 249.878 21.69 249.878 21.25C249.878 20.81 249.791 20.4367 249.618 20.13C249.445 19.8233 249.218 19.5967 248.938 19.45C248.658 19.2967 248.355 19.22 248.028 19.22C247.695 19.22 247.388 19.2967 247.108 19.45C246.835 19.5967 246.615 19.8233 246.448 20.13C246.281 20.4367 246.198 20.81 246.198 21.25C246.198 21.6967 246.278 22.0733 246.438 22.38C246.605 22.6867 246.825 22.9167 247.098 23.07C247.371 23.2167 247.671 23.29 247.998 23.29ZM252.914 19.41C253.074 19.0967 253.301 18.8533 253.594 18.68C253.894 18.5067 254.258 18.42 254.684 18.42V19.36H254.444C253.424 19.36 252.914 19.9133 252.914 21.02V24H252.004V18.52H252.914V19.41ZM256.845 19.27V22.5C256.845 22.7667 256.902 22.9567 257.015 23.07C257.128 23.1767 257.325 23.23 257.605 23.23H258.275V24H257.455C256.948 24 256.568 23.8833 256.315 23.65C256.062 23.4167 255.935 23.0333 255.935 22.5V19.27H255.225V18.52H255.935V17.14H256.845V18.52H258.275V19.27H256.845ZM259.037 21.24C259.037 20.68 259.151 20.19 259.377 19.77C259.604 19.3433 259.914 19.0133 260.307 18.78C260.707 18.5467 261.151 18.43 261.637 18.43C262.117 18.43 262.534 18.5333 262.887 18.74C263.241 18.9467 263.504 19.2067 263.677 19.52V18.52H264.597V24H263.677V22.98C263.497 23.3 263.227 23.5667 262.867 23.78C262.514 23.9867 262.101 24.09 261.627 24.09C261.141 24.09 260.701 23.97 260.307 23.73C259.914 23.49 259.604 23.1533 259.377 22.72C259.151 22.2867 259.037 21.7933 259.037 21.24ZM263.677 21.25C263.677 20.8367 263.594 20.4767 263.427 20.17C263.261 19.8633 263.034 19.63 262.747 19.47C262.467 19.3033 262.157 19.22 261.817 19.22C261.477 19.22 261.167 19.3 260.887 19.46C260.607 19.62 260.384 19.8533 260.217 20.16C260.051 20.4667 259.967 20.8267 259.967 21.24C259.967 21.66 260.051 22.0267 260.217 22.34C260.384 22.6467 260.607 22.8833 260.887 23.05C261.167 23.21 261.477 23.29 261.817 23.29C262.157 23.29 262.467 23.21 262.747 23.05C263.034 22.8833 263.261 22.6467 263.427 22.34C263.594 22.0267 263.677 21.6633 263.677 21.25ZM267.045 19.41C267.205 19.0967 267.432 18.8533 267.725 18.68C268.025 18.5067 268.389 18.42 268.815 18.42V19.36H268.575C267.555 19.36 267.045 19.9133 267.045 21.02V24H266.135V18.52H267.045V19.41ZM106.49 33.52L103.19 41.58H102.25L103.33 38.94L101.12 33.52H102.13L103.85 37.96L105.55 33.52H106.49ZM116.661 33.42C117.087 33.42 117.467 33.51 117.801 33.69C118.134 33.8633 118.397 34.1267 118.591 34.48C118.784 34.8333 118.881 35.2633 118.881 35.77V39H117.981V35.9C117.981 35.3533 117.844 34.9367 117.571 34.65C117.304 34.3567 116.941 34.21 116.481 34.21C116.007 34.21 115.631 34.3633 115.351 34.67C115.071 34.97 114.931 35.4067 114.931 35.98V39H114.031V35.9C114.031 35.3533 113.894 34.9367 113.621 34.65C113.354 34.3567 112.991 34.21 112.531 34.21C112.057 34.21 111.681 34.3633 111.401 34.67C111.121 34.97 110.981 35.4067 110.981 35.98V39H110.071V33.52H110.981V34.31C111.161 34.0233 111.401 33.8033 111.701 33.65C112.007 33.4967 112.344 33.42 112.711 33.42C113.171 33.42 113.577 33.5233 113.931 33.73C114.284 33.9367 114.547 34.24 114.721 34.64C114.874 34.2533 115.127 33.9533 115.481 33.74C115.834 33.5267 116.227 33.42 116.661 33.42ZM125.374 36.05C125.374 36.2233 125.364 36.4067 125.344 36.6H120.964C120.997 37.14 121.18 37.5633 121.514 37.87C121.854 38.17 122.264 38.32 122.744 38.32C123.137 38.32 123.464 38.23 123.724 38.05C123.99 37.8633 124.177 37.6167 124.284 37.31H125.264C125.117 37.8367 124.824 38.2667 124.384 38.6C123.944 38.9267 123.397 39.09 122.744 39.09C122.224 39.09 121.757 38.9733 121.344 38.74C120.937 38.5067 120.617 38.1767 120.384 37.75C120.15 37.3167 120.034 36.8167 120.034 36.25C120.034 35.6833 120.147 35.1867 120.374 34.76C120.6 34.3333 120.917 34.0067 121.324 33.78C121.737 33.5467 122.21 33.43 122.744 33.43C123.264 33.43 123.724 33.5433 124.124 33.77C124.524 33.9967 124.83 34.31 125.044 34.71C125.264 35.1033 125.374 35.55 125.374 36.05ZM124.434 35.86C124.434 35.5133 124.357 35.2167 124.204 34.97C124.05 34.7167 123.84 34.5267 123.574 34.4C123.314 34.2667 123.024 34.2 122.704 34.2C122.244 34.2 121.85 34.3467 121.524 34.64C121.204 34.9333 121.02 35.34 120.974 35.86H124.434ZM127.065 32.63C126.891 32.63 126.745 32.57 126.625 32.45C126.511 32.33 126.455 32.1833 126.455 32.01C126.455 31.8367 126.511 31.69 126.625 31.57C126.745 31.45 126.891 31.39 127.065 31.39C127.238 31.39 127.381 31.45 127.495 31.57C127.615 31.69 127.675 31.8367 127.675 32.01C127.675 32.1833 127.615 32.33 127.495 32.45C127.381 32.57 127.238 32.63 127.065 32.63ZM127.515 40.19C127.515 40.6767 127.391 41.0333 127.145 41.26C126.898 41.4867 126.538 41.6 126.065 41.6H125.535V40.83H125.915C126.168 40.83 126.345 40.78 126.445 40.68C126.551 40.58 126.605 40.41 126.605 40.17V33.52H127.515V40.19ZM131.445 39.09C130.932 39.09 130.465 38.9733 130.045 38.74C129.632 38.5067 129.305 38.1767 129.065 37.75C128.832 37.3167 128.715 36.8167 128.715 36.25C128.715 35.69 128.835 35.1967 129.075 34.77C129.322 34.3367 129.655 34.0067 130.075 33.78C130.495 33.5467 130.965 33.43 131.485 33.43C132.005 33.43 132.475 33.5467 132.895 33.78C133.315 34.0067 133.645 34.3333 133.885 34.76C134.132 35.1867 134.255 35.6833 134.255 36.25C134.255 36.8167 134.128 37.3167 133.875 37.75C133.628 38.1767 133.292 38.5067 132.865 38.74C132.438 38.9733 131.965 39.09 131.445 39.09ZM131.445 38.29C131.772 38.29 132.078 38.2133 132.365 38.06C132.652 37.9067 132.882 37.6767 133.055 37.37C133.235 37.0633 133.325 36.69 133.325 36.25C133.325 35.81 133.238 35.4367 133.065 35.13C132.892 34.8233 132.665 34.5967 132.385 34.45C132.105 34.2967 131.802 34.22 131.475 34.22C131.142 34.22 130.835 34.2967 130.555 34.45C130.282 34.5967 130.062 34.8233 129.895 35.13C129.728 35.4367 129.645 35.81 129.645 36.25C129.645 36.6967 129.725 37.0733 129.885 37.38C130.052 37.6867 130.272 37.9167 130.545 38.07C130.818 38.2167 131.118 38.29 131.445 38.29ZM136.362 34.41C136.522 34.0967 136.748 33.8533 137.042 33.68C137.342 33.5067 137.705 33.42 138.132 33.42V34.36H137.892C136.872 34.36 136.362 34.9133 136.362 36.02V39H135.452V33.52H136.362V34.41ZM138.842 36.24C138.842 35.68 138.955 35.19 139.182 34.77C139.409 34.3433 139.719 34.0133 140.112 33.78C140.512 33.5467 140.955 33.43 141.442 33.43C141.922 33.43 142.339 33.5333 142.692 33.74C143.045 33.9467 143.309 34.2067 143.482 34.52V33.52H144.402V39H143.482V37.98C143.302 38.3 143.032 38.5667 142.672 38.78C142.319 38.9867 141.905 39.09 141.432 39.09C140.945 39.09 140.505 38.97 140.112 38.73C139.719 38.49 139.409 38.1533 139.182 37.72C138.955 37.2867 138.842 36.7933 138.842 36.24ZM143.482 36.25C143.482 35.8367 143.399 35.4767 143.232 35.17C143.065 34.8633 142.839 34.63 142.552 34.47C142.272 34.3033 141.962 34.22 141.622 34.22C141.282 34.22 140.972 34.3 140.692 34.46C140.412 34.62 140.189 34.8533 140.022 35.16C139.855 35.4667 139.772 35.8267 139.772 36.24C139.772 36.66 139.855 37.0267 140.022 37.34C140.189 37.6467 140.412 37.8833 140.692 38.05C140.972 38.21 141.282 38.29 141.622 38.29C141.962 38.29 142.272 38.21 142.552 38.05C142.839 37.8833 143.065 37.6467 143.232 37.34C143.399 37.0267 143.482 36.6633 143.482 36.25ZM146.85 34.41C147.01 34.0967 147.237 33.8533 147.53 33.68C147.83 33.5067 148.193 33.42 148.62 33.42V34.36H148.38C147.36 34.36 146.85 34.9133 146.85 36.02V39H145.94V33.52H146.85V34.41ZM153.446 34.27V37.5C153.446 37.7667 153.503 37.9567 153.616 38.07C153.73 38.1767 153.926 38.23 154.206 38.23H154.876V39H154.056C153.55 39 153.17 38.8833 152.916 38.65C152.663 38.4167 152.536 38.0333 152.536 37.5V34.27H151.826V33.52H152.536V32.14H153.446V33.52H154.876V34.27H153.446ZM160.839 33.52V39H159.929V38.19C159.756 38.47 159.512 38.69 159.199 38.85C158.892 39.0033 158.552 39.08 158.179 39.08C157.752 39.08 157.369 38.9933 157.029 38.82C156.689 38.64 156.419 38.3733 156.219 38.02C156.026 37.6667 155.929 37.2367 155.929 36.73V33.52H156.829V36.61C156.829 37.15 156.966 37.5667 157.239 37.86C157.512 38.1467 157.886 38.29 158.359 38.29C158.846 38.29 159.229 38.14 159.509 37.84C159.789 37.54 159.929 37.1033 159.929 36.53V33.52H160.839ZM170.041 36.05C170.041 36.2233 170.031 36.4067 170.011 36.6H165.631C165.665 37.14 165.848 37.5633 166.181 37.87C166.521 38.17 166.931 38.32 167.411 38.32C167.805 38.32 168.131 38.23 168.391 38.05C168.658 37.8633 168.845 37.6167 168.951 37.31H169.931C169.785 37.8367 169.491 38.2667 169.051 38.6C168.611 38.9267 168.065 39.09 167.411 39.09C166.891 39.09 166.425 38.9733 166.011 38.74C165.605 38.5067 165.285 38.1767 165.051 37.75C164.818 37.3167 164.701 36.8167 164.701 36.25C164.701 35.6833 164.815 35.1867 165.041 34.76C165.268 34.3333 165.585 34.0067 165.991 33.78C166.405 33.5467 166.878 33.43 167.411 33.43C167.931 33.43 168.391 33.5433 168.791 33.77C169.191 33.9967 169.498 34.31 169.711 34.71C169.931 35.1033 170.041 35.55 170.041 36.05ZM169.101 35.86C169.101 35.5133 169.025 35.2167 168.871 34.97C168.718 34.7167 168.508 34.5267 168.241 34.4C167.981 34.2667 167.691 34.2 167.371 34.2C166.911 34.2 166.518 34.3467 166.191 34.64C165.871 34.9333 165.688 35.34 165.641 35.86H169.101ZM174.103 39L172.803 36.96L171.553 39H170.603L172.373 36.28L170.603 33.52H171.633L172.933 35.55L174.173 33.52H175.123L173.363 36.23L175.133 39H174.103ZM176.938 34.53C177.118 34.2167 177.384 33.9567 177.738 33.75C178.098 33.5367 178.514 33.43 178.988 33.43C179.474 33.43 179.914 33.5467 180.308 33.78C180.708 34.0133 181.021 34.3433 181.248 34.77C181.474 35.19 181.588 35.68 181.588 36.24C181.588 36.7933 181.474 37.2867 181.248 37.72C181.021 38.1533 180.708 38.49 180.308 38.73C179.914 38.97 179.474 39.09 178.988 39.09C178.521 39.09 178.108 38.9867 177.748 38.78C177.394 38.5667 177.124 38.3033 176.938 37.99V41.6H176.028V33.52H176.938V34.53ZM180.658 36.24C180.658 35.8267 180.574 35.4667 180.408 35.16C180.241 34.8533 180.014 34.62 179.728 34.46C179.448 34.3 179.138 34.22 178.798 34.22C178.464 34.22 178.154 34.3033 177.868 34.47C177.588 34.63 177.361 34.8667 177.188 35.18C177.021 35.4867 176.938 35.8433 176.938 36.25C176.938 36.6633 177.021 37.0267 177.188 37.34C177.361 37.6467 177.588 37.8833 177.868 38.05C178.154 38.21 178.464 38.29 178.798 38.29C179.138 38.29 179.448 38.21 179.728 38.05C180.014 37.8833 180.241 37.6467 180.408 37.34C180.574 37.0267 180.658 36.66 180.658 36.24ZM187.786 36.05C187.786 36.2233 187.776 36.4067 187.756 36.6H183.376C183.409 37.14 183.592 37.5633 183.926 37.87C184.266 38.17 184.676 38.32 185.156 38.32C185.549 38.32 185.876 38.23 186.136 38.05C186.402 37.8633 186.589 37.6167 186.696 37.31H187.676C187.529 37.8367 187.236 38.2667 186.796 38.6C186.356 38.9267 185.809 39.09 185.156 39.09C184.636 39.09 184.169 38.9733 183.756 38.74C183.349 38.5067 183.029 38.1767 182.796 37.75C182.562 37.3167 182.446 36.8167 182.446 36.25C182.446 35.6833 182.559 35.1867 182.786 34.76C183.012 34.3333 183.329 34.0067 183.736 33.78C184.149 33.5467 184.622 33.43 185.156 33.43C185.676 33.43 186.136 33.5433 186.536 33.77C186.936 33.9967 187.242 34.31 187.456 34.71C187.676 35.1033 187.786 35.55 187.786 36.05ZM186.846 35.86C186.846 35.5133 186.769 35.2167 186.616 34.97C186.462 34.7167 186.252 34.5267 185.986 34.4C185.726 34.2667 185.436 34.2 185.116 34.2C184.656 34.2 184.262 34.3467 183.936 34.64C183.616 34.9333 183.432 35.34 183.386 35.86H186.846ZM189.897 34.41C190.057 34.0967 190.283 33.8533 190.577 33.68C190.877 33.5067 191.24 33.42 191.667 33.42V34.36H191.427C190.407 34.36 189.897 34.9133 189.897 36.02V39H188.987V33.52H189.897V34.41ZM193.187 32.63C193.014 32.63 192.867 32.57 192.747 32.45C192.627 32.33 192.567 32.1833 192.567 32.01C192.567 31.8367 192.627 31.69 192.747 31.57C192.867 31.45 193.014 31.39 193.187 31.39C193.354 31.39 193.494 31.45 193.607 31.57C193.727 31.69 193.787 31.8367 193.787 32.01C193.787 32.1833 193.727 32.33 193.607 32.45C193.494 32.57 193.354 32.63 193.187 32.63ZM193.627 33.52V39H192.717V33.52H193.627ZM200.178 36.05C200.178 36.2233 200.168 36.4067 200.148 36.6H195.768C195.802 37.14 195.985 37.5633 196.318 37.87C196.658 38.17 197.068 38.32 197.548 38.32C197.942 38.32 198.268 38.23 198.528 38.05C198.795 37.8633 198.982 37.6167 199.088 37.31H200.068C199.922 37.8367 199.628 38.2667 199.188 38.6C198.748 38.9267 198.202 39.09 197.548 39.09C197.028 39.09 196.562 38.9733 196.148 38.74C195.742 38.5067 195.422 38.1767 195.188 37.75C194.955 37.3167 194.838 36.8167 194.838 36.25C194.838 35.6833 194.952 35.1867 195.178 34.76C195.405 34.3333 195.722 34.0067 196.128 33.78C196.542 33.5467 197.015 33.43 197.548 33.43C198.068 33.43 198.528 33.5433 198.928 33.77C199.328 33.9967 199.635 34.31 199.848 34.71C200.068 35.1033 200.178 35.55 200.178 36.05ZM199.238 35.86C199.238 35.5133 199.162 35.2167 199.008 34.97C198.855 34.7167 198.645 34.5267 198.378 34.4C198.118 34.2667 197.828 34.2 197.508 34.2C197.048 34.2 196.655 34.3467 196.328 34.64C196.008 34.9333 195.825 35.34 195.778 35.86H199.238ZM204.049 33.42C204.716 33.42 205.256 33.6233 205.669 34.03C206.083 34.43 206.289 35.01 206.289 35.77V39H205.389V35.9C205.389 35.3533 205.253 34.9367 204.979 34.65C204.706 34.3567 204.333 34.21 203.859 34.21C203.379 34.21 202.996 34.36 202.709 34.66C202.429 34.96 202.289 35.3967 202.289 35.97V39H201.379V33.52H202.289V34.3C202.469 34.02 202.713 33.8033 203.019 33.65C203.333 33.4967 203.676 33.42 204.049 33.42ZM207.436 36.25C207.436 35.6833 207.549 35.19 207.776 34.77C208.003 34.3433 208.316 34.0133 208.716 33.78C209.123 33.5467 209.586 33.43 210.106 33.43C210.779 33.43 211.333 33.5933 211.766 33.92C212.206 34.2467 212.496 34.7 212.636 35.28H211.656C211.563 34.9467 211.379 34.6833 211.106 34.49C210.839 34.2967 210.506 34.2 210.106 34.2C209.586 34.2 209.166 34.38 208.846 34.74C208.526 35.0933 208.366 35.5967 208.366 36.25C208.366 36.91 208.526 37.42 208.846 37.78C209.166 38.14 209.586 38.32 210.106 38.32C210.506 38.32 210.839 38.2267 211.106 38.04C211.373 37.8533 211.556 37.5867 211.656 37.24H212.636C212.489 37.8 212.196 38.25 211.756 38.59C211.316 38.9233 210.766 39.09 210.106 39.09C209.586 39.09 209.123 38.9733 208.716 38.74C208.316 38.5067 208.003 38.1767 207.776 37.75C207.549 37.3233 207.436 36.8233 207.436 36.25ZM214.32 32.63C214.147 32.63 214 32.57 213.88 32.45C213.76 32.33 213.7 32.1833 213.7 32.01C213.7 31.8367 213.76 31.69 213.88 31.57C214 31.45 214.147 31.39 214.32 31.39C214.487 31.39 214.627 31.45 214.74 31.57C214.86 31.69 214.92 31.8367 214.92 32.01C214.92 32.1833 214.86 32.33 214.74 32.45C214.627 32.57 214.487 32.63 214.32 32.63ZM214.76 33.52V39H213.85V33.52H214.76ZM215.971 36.24C215.971 35.68 216.084 35.19 216.311 34.77C216.538 34.3433 216.848 34.0133 217.241 33.78C217.641 33.5467 218.084 33.43 218.571 33.43C219.051 33.43 219.468 33.5333 219.821 33.74C220.174 33.9467 220.438 34.2067 220.611 34.52V33.52H221.531V39H220.611V37.98C220.431 38.3 220.161 38.5667 219.801 38.78C219.448 38.9867 219.034 39.09 218.561 39.09C218.074 39.09 217.634 38.97 217.241 38.73C216.848 38.49 216.538 38.1533 216.311 37.72C216.084 37.2867 215.971 36.7933 215.971 36.24ZM220.611 36.25C220.611 35.8367 220.528 35.4767 220.361 35.17C220.194 34.8633 219.968 34.63 219.681 34.47C219.401 34.3033 219.091 34.22 218.751 34.22C218.411 34.22 218.101 34.3 217.821 34.46C217.541 34.62 217.318 34.8533 217.151 35.16C216.984 35.4667 216.901 35.8267 216.901 36.24C216.901 36.66 216.984 37.0267 217.151 37.34C217.318 37.6467 217.541 37.8833 217.821 38.05C218.101 38.21 218.411 38.29 218.751 38.29C219.091 38.29 219.401 38.21 219.681 38.05C219.968 37.8833 220.194 37.6467 220.361 37.34C220.528 37.0267 220.611 36.6633 220.611 36.25ZM223.359 39.06C223.185 39.06 223.039 39 222.919 38.88C222.799 38.76 222.739 38.6133 222.739 38.44C222.739 38.2667 222.799 38.12 222.919 38C223.039 37.88 223.185 37.82 223.359 37.82C223.525 37.82 223.665 37.88 223.779 38C223.899 38.12 223.959 38.2667 223.959 38.44C223.959 38.6133 223.899 38.76 223.779 38.88C223.665 39 223.525 39.06 223.359 39.06Z" fill="#4D4D4D"/>
<path d="M0 30.0036C0 25.129 3.10632 21.4105 8.06732 21.4105C12.2091 21.4105 14.6554 23.8228 15.0082 26.9521H11.6231C11.3159 25.2957 10.0472 24.2174 8.07301 24.2174C4.96669 24.2174 3.4875 26.7464 3.4875 30.0091C3.4875 33.3663 5.27391 35.7786 8.09577 35.7786C10.0984 35.7786 11.5093 34.6058 11.7198 32.8827H15.0594C14.9627 34.3279 14.3312 35.7341 13.199 36.7679C12.0498 37.824 10.4227 38.5132 8.09577 38.5132C3.36233 38.5077 0 34.9448 0 30.0036Z" fill="#FF5454"/>
<path d="M16.0835 32.2769C16.0835 28.7585 18.6493 26.0516 22.3872 26.0516C26.125 26.0516 28.6908 28.7641 28.6908 32.2769C28.6908 35.7952 26.125 38.5021 22.3872 38.5021C18.6493 38.5076 16.0835 35.7952 16.0835 32.2769ZM25.448 32.2769C25.448 29.9813 24.3443 28.4139 22.3872 28.4139C20.413 28.4139 19.332 29.9758 19.332 32.2769C19.332 34.5724 20.413 36.1176 22.3872 36.1176C24.3443 36.1176 25.448 34.578 25.448 32.2769Z" fill="#FF5454"/>
<path d="M27.3026 21.7329L30.7844 21.3939L33.8395 31.2486C34.1695 32.3269 34.5678 33.8666 34.5678 33.8666H34.6133C34.6133 33.8666 35.0115 32.3047 35.3415 31.2486L38.8347 20.6935H42.2937L36.0754 38.1631H32.9691L27.3026 21.7329Z" fill="#00ADF6"/>
<path d="M40.5927 32.2546C40.5927 28.7641 43.0163 26.0516 46.5436 26.0516C50.4236 26.0516 52.4945 28.9475 52.4945 33.1551H43.7445C43.9777 34.9726 45.0132 36.0954 46.828 36.0954C48.074 36.0954 48.8022 35.5451 49.1549 34.6502H52.3068C51.8573 36.7401 49.9514 38.5132 46.8508 38.5132C42.8513 38.5076 40.5927 35.773 40.5927 32.2546ZM43.79 30.9929H49.1549C49.0582 29.4977 48.0512 28.4639 46.5891 28.4639C44.8937 28.4639 44.0745 29.4533 43.79 30.9929Z" fill="#00ADF6"/>
<path d="M57.1028 27.9803H57.171C57.996 26.7186 59.0997 26.0516 60.7496 26.0516C63.2414 26.0516 64.9141 27.8914 64.9141 30.4649V38.163H61.7167V30.9262C61.7167 29.6645 60.9657 28.7641 59.6231 28.7641C58.2122 28.7641 57.1767 29.8646 57.1767 31.4765V38.163H53.9794V26.374H57.1084V27.9803H57.1028Z" fill="#00ADF6"/>
<path d="M66.2965 32.2769C66.2965 28.5973 68.4357 26.0517 71.4453 26.0517C73.1406 26.0517 74.1988 26.8076 74.8588 27.7969H74.9271V21.7329H78.1244V38.1631H75.0408V36.6234H74.9953C74.2899 37.7517 73.0894 38.5077 71.3941 38.5077C68.3674 38.5077 66.2965 36.0954 66.2965 32.2769ZM75.001 32.3491C75.001 30.0981 74.25 28.5807 72.2019 28.5807C70.4383 28.5807 69.5451 30.0981 69.5451 32.2824C69.5451 34.5558 70.461 35.8897 72.1109 35.8897C74.0111 35.8897 75.001 34.5057 75.001 32.3491Z" fill="#00ADF6"/>
<path d="M79.6036 32.2546C79.6036 28.7641 82.0273 26.0516 85.5546 26.0516C89.4346 26.0516 91.5055 28.9475 91.5055 33.1551H82.7555C82.9887 34.9726 84.0242 36.0954 85.839 36.0954C87.085 36.0954 87.8132 35.5451 88.1659 34.6502H91.3178C90.874 36.7401 88.9624 38.5132 85.8618 38.5132C81.8623 38.5076 79.6036 35.773 79.6036 32.2546ZM82.8067 30.9929H88.1716C88.0749 29.4977 87.0679 28.4639 85.6058 28.4639C83.9104 28.4639 83.0854 29.4533 82.8067 30.9929Z" fill="#00ADF6"/>
<path d="M20.4698 25.1068L17.8641 16.2025L56.4997 3.61865L61.5233 22.4666L39.0963 23.4893L38.8403 20.6936L57.8765 19.9654L54.5369 7.35379L21.3516 17.9089L22.5805 22.1053L30.1984 21.4439L30.4544 24.2397L20.4698 25.1068Z" fill="#00ADF6"/>
<path d="M67.5786 -4.10031e-05L61.3284 4.6413L62.7674 6.49091L69.0176 1.84957L67.5786 -4.10031e-05Z" fill="#00ADF6"/>
<path d="M73.0215 7.44909L64.9174 9.55383L65.5283 11.7991L73.6324 9.69437L73.0215 7.44909Z" fill="#00ADF6"/>
<path d="M65.3624 15.5816L65.067 17.887L72.6488 18.8141L72.9442 16.5087L65.3624 15.5816Z" fill="#00ADF6"/>
</svg>
