<svg width="141" height="34" viewBox="0 0 141 34" fill="none" xmlns="http://www.w3.org/2000/svg">
    <rect y="18" width="128" height="7" rx="3.5" fill="#C4C4C4" />
    <rect y="18" width="122" height="7" rx="3.5" fill="#17BF93" />
    <g filter="url(#filter0_d)">
        <g clipPath="url(#clip0)">
            <path d="M123.633 2.08398L111.99 7.70455C111.844 7.77503 111.751 7.92281 111.751 8.0849V21.9151C111.751 22.0772 111.844 22.2249 111.99 22.2954L123.633 27.916C123.865 28.028 124.135 28.028 124.367 27.916L136.01 22.2954C136.156 22.2249 136.249 22.0772 136.249 21.9151V8.0849C136.249 7.92281 136.156 7.77503 136.01 7.70455L124.367 2.08398C124.135 1.97201 123.865 1.97201 123.633 2.08398Z" fill="#FFD485" />
            <path d="M111.822 7.85364C111.777 7.92123 111.751 8.0008 111.751 8.08484V21.915C111.751 22.0771 111.844 22.2249 111.99 22.2954L123.633 27.9159C123.749 27.9719 123.874 27.9999 124 27.9999V13.7328L111.822 7.85364Z" fill="#FFC350" />
            <path d="M136.178 7.85364C136.223 7.92123 136.249 8.0008 136.249 8.08484V21.915C136.249 22.0771 136.156 22.2249 136.01 22.2954L124.367 27.9159C124.251 27.9719 124.126 27.9999 124 27.9999V13.7328L136.178 7.85364Z" fill="#F7B844" />
            <path d="M115.236 21.1778C115.174 21.1778 115.111 21.1642 115.052 21.1358L113.255 20.268C113.045 20.1665 112.957 19.9141 113.058 19.7042C113.159 19.4942 113.412 19.4068 113.622 19.5074L115.419 20.3753C115.63 20.4768 115.718 20.7292 115.616 20.9391C115.544 21.09 115.393 21.1778 115.236 21.1778Z" fill="#FFE17D" />
            <path d="M116.89 20.1009C116.828 20.1009 116.766 20.0873 116.707 20.0589L113.257 18.3938C113.047 18.2923 112.959 18.0399 113.061 17.83C113.162 17.6204 113.415 17.5326 113.624 17.6332L117.074 19.2983C117.284 19.3998 117.372 19.6522 117.271 19.8622C117.198 20.013 117.047 20.1009 116.89 20.1009Z" fill="#FFF6D8" />
            <path d="M132.051 9.83928L119.83 3.9353L116.609 5.49683L128.857 11.4099L132.051 9.83928Z" fill="#FF7676" />
            <path d="M128.857 11.4098V15.9907C128.857 16.1464 129.02 16.2485 129.16 16.1809L131.813 14.9004C131.959 14.8299 132.051 14.6821 132.051 14.5201V9.83923L128.857 11.4098Z" fill="#FF5454" />
        </g>
    </g>
    <defs>
        <filter id="filter0_d" x="107" y="0" width="34" height="34" filterUnits="userSpaceOnUse" color-interpolation-filters="sRGB">
            <feFlood flood-opacity="0" result="BackgroundImageFix" />
            <feColorMatrix in="SourceAlpha" type="matrix" values="0 0 0 0 0 0 0 0 0 0 0 0 0 0 0 0 0 0 127 0" />
            <feOffset dy="2" />
            <feGaussianBlur stdDeviation="2" />
            <feColorMatrix type="matrix" values="0 0 0 0 0 0 0 0 0 0 0 0 0 0 0 0 0 0 0.15 0" />
            <feBlend mode="normal" in2="BackgroundImageFix" result="effect1_dropShadow" />
            <feBlend mode="normal" in="SourceGraphic" in2="effect1_dropShadow" result="shape" />
        </filter>
        <clipPath id="clip0">
            <rect width="26" height="26" fill="white" transform="translate(111 2)" />
        </clipPath>
    </defs>
</svg>
