<svg width="128" height="34" viewBox="0 0 128 34" fill="none" xmlns="http://www.w3.org/2000/svg">
<rect y="18.0001" width="128" height="7" rx="3.5" fill="#C4C4C4"/>
<rect y="18.0001" width="90" height="7" rx="3.5" fill="#17BF93"/>
<g filter="url(#filter0_d)">
<g clipPath="url(#clip0)">
<path d="M87.6328 2.08398L75.9902 7.70455C75.8442 7.77503 75.7515 7.92281 75.7515 8.0849V21.9151C75.7515 22.0772 75.8442 22.2249 75.9902 22.2954L87.6328 27.916C87.8648 28.028 88.1352 28.028 88.3673 27.916L100.01 22.2954C100.156 22.2249 100.249 22.0772 100.249 21.9151V8.0849C100.249 7.92281 100.156 7.77503 100.01 7.70455L88.3673 2.08398C88.1352 1.97201 87.8648 1.97201 87.6328 2.08398Z" fill="#FFD485"/>
<path d="M75.8217 7.8537C75.7773 7.92129 75.7515 8.00086 75.7515 8.08491V21.9151C75.7515 22.0772 75.8442 22.2249 75.9902 22.2954L87.6328 27.9159C87.7487 27.972 87.8744 27.9999 88 27.9999V13.7329L75.8217 7.8537Z" fill="#FFC350"/>
<path d="M100.178 7.8537C100.223 7.92129 100.249 8.00086 100.249 8.08491V21.9151C100.249 22.0772 100.156 22.2249 100.01 22.2954L88.3672 27.9159C88.2513 27.972 88.1256 28 88 28V13.7329L100.178 7.8537Z" fill="#F7B844"/>
<path d="M79.2355 21.1779C79.1741 21.1779 79.1113 21.1643 79.0524 21.1359L77.2549 20.2681C77.0446 20.1666 76.9567 19.9142 77.0582 19.7042C77.1592 19.4943 77.4125 19.4069 77.622 19.5075L79.4195 20.3754C79.6298 20.4768 79.7177 20.7293 79.6162 20.9392C79.5436 21.0901 79.3927 21.1779 79.2355 21.1779Z" fill="#FFE17D"/>
<path d="M80.8899 20.1009C80.8285 20.1009 80.7657 20.0873 80.7068 20.0589L77.2573 18.3938C77.0474 18.2923 76.9591 18.0399 77.0606 17.83C77.1616 17.6204 77.4153 17.5326 77.6244 17.6332L81.0738 19.2983C81.2838 19.3998 81.372 19.6522 81.2706 19.8622C81.198 20.013 81.0471 20.1009 80.8899 20.1009Z" fill="#FFF6D8"/>
<path d="M96.0513 9.83928L83.8302 3.9353L80.6086 5.49683L92.8572 11.4099L96.0513 9.83928Z" fill="#FF7676"/>
<path d="M92.8572 11.4099V15.9907C92.8572 16.1464 93.0199 16.2486 93.1602 16.1809L95.8126 14.9005C95.9586 14.83 96.0513 14.6822 96.0513 14.5201V9.83929L92.8572 11.4099Z" fill="#FF5454"/>
</g>
</g>
<defs>
<filter id="filter0_d" x="71" y="0" width="34" height="34" filterUnits="userSpaceOnUse" color-interpolation-filters="sRGB">
<feFlood flood-opacity="0" result="BackgroundImageFix"/>
<feColorMatrix in="SourceAlpha" type="matrix" values="0 0 0 0 0 0 0 0 0 0 0 0 0 0 0 0 0 0 127 0"/>
<feOffset dy="2"/>
<feGaussianBlur stdDeviation="2"/>
<feColorMatrix type="matrix" values="0 0 0 0 0 0 0 0 0 0 0 0 0 0 0 0 0 0 0.15 0"/>
<feBlend mode="normal" in2="BackgroundImageFix" result="effect1_dropShadow"/>
<feBlend mode="normal" in="SourceGraphic" in2="effect1_dropShadow" result="shape"/>
</filter>
<clipPath id="clip0">
<rect width="26" height="26" fill="white" transform="translate(75 2)"/>
</clipPath>
</defs>
</svg>
