<svg width="35" height="34" viewBox="0 0 35 34" fill="none" xmlns="http://www.w3.org/2000/svg">
<path d="M15.0209 15.9375H1.5625C0.975998 15.9375 0.5 15.4615 0.5 14.875C0.5 14.2885 0.975998 13.8125 1.5625 13.8125H15.0209C15.6074 13.8125 16.0834 14.2885 16.0834 14.875C16.0834 15.4615 15.6074 15.9375 15.0209 15.9375Z" fill="#004772"/>
<path d="M9.70824 21.25C9.43613 21.25 9.16428 21.1465 8.95728 20.9385C8.54224 20.5232 8.54224 19.8503 8.95728 19.4352L13.5191 14.8737L8.95728 10.3135C8.54224 9.89816 8.54224 9.22528 8.95728 8.81024C9.37231 8.3952 10.0452 8.3952 10.4605 8.81024L15.773 14.1227C16.188 14.5378 16.188 15.2107 15.773 15.626L10.4605 20.9385C10.2522 21.1465 9.98009 21.25 9.70824 21.25Z" fill="#004772"/>
<path d="M23.1667 34C21.604 34 20.3335 32.7292 20.3335 31.1666V5.66657C20.3335 4.45543 21.1042 3.37452 22.2515 2.97634L30.7629 0.138769C32.6669 -0.44488 34.5001 0.96755 34.5001 2.83341V28.3334C34.5001 29.5432 33.7294 30.6226 32.5834 31.0221L24.0691 33.8612C23.7589 33.9574 23.4715 34 23.1667 34ZM31.6667 2.12499C31.5746 2.12499 31.4967 2.1364 31.4132 2.16182L22.9373 4.98798C22.6595 5.08448 22.4585 5.36489 22.4585 5.66657V31.1666C22.4585 31.6498 22.9825 31.9756 23.4203 31.8382L31.8962 29.012C32.1725 28.9155 32.3751 28.6351 32.3751 28.3334V2.83341C32.3751 2.44379 32.0578 2.12499 31.6667 2.12499Z" fill="#004772"/>
<path d="M12.896 7.08342C12.3095 7.08342 11.8335 6.60742 11.8335 6.02092V3.89592C11.8335 1.7468 13.58 0 15.7292 0H31.6667C32.2532 0 32.7292 0.475998 32.7292 1.0625C32.7292 1.649 32.2532 2.125 31.6667 2.125H15.7292C14.753 2.125 13.9585 2.9198 13.9585 3.89592V6.02092C13.9585 6.60742 13.4825 7.08342 12.896 7.08342Z" fill="#004772"/>
<path d="M21.396 29.75H15.7292C13.58 29.75 11.8335 28.0032 11.8335 25.8541V23.7291C11.8335 23.1426 12.3095 22.6666 12.896 22.6666C13.4825 22.6666 13.9585 23.1426 13.9585 23.7291V25.8541C13.9585 26.8302 14.753 27.625 15.7292 27.625H21.396C21.9825 27.625 22.4585 28.101 22.4585 28.6875C22.4585 29.274 21.9825 29.75 21.396 29.75Z" fill="#004772"/>
</svg>
