<svg width="141" height="34" viewBox="0 0 141 34" fill="none" xmlns="http://www.w3.org/2000/svg">
<rect x="13" y="20" width="128" height="7" rx="3.5" fill="#C4C4C4"/>
<g filter="url(#filter0_d)">
<g clipPath="url(#clip0)">
<path d="M16.6328 2.08398L4.99019 7.70455C4.84419 7.77503 4.75146 7.92281 4.75146 8.0849V21.9151C4.75146 22.0772 4.84424 22.2249 4.99019 22.2954L16.6328 27.916C16.8648 28.028 17.1352 28.028 17.3673 27.916L29.0098 22.2954C29.1558 22.2249 29.2485 22.0772 29.2485 21.9151V8.0849C29.2485 7.92281 29.1558 7.77503 29.0098 7.70455L17.3673 2.08398C17.1352 1.97201 16.8648 1.97201 16.6328 2.08398Z" fill="#FFD485"/>
<path d="M4.8217 7.85364C4.77731 7.92123 4.75146 8.0008 4.75146 8.08484V21.915C4.75146 22.0771 4.84424 22.2249 4.99019 22.2954L16.6328 27.9159C16.7487 27.9719 16.8744 27.9999 17 27.9999V13.7328L4.8217 7.85364Z" fill="#FFC350"/>
<path d="M29.1783 7.85364C29.2227 7.92123 29.2485 8.0008 29.2485 8.08484V21.915C29.2485 22.0771 29.1558 22.2249 29.0098 22.2954L17.3672 27.9159C17.2513 27.9719 17.1256 27.9999 17 27.9999V13.7328L29.1783 7.85364Z" fill="#F7B844"/>
<path d="M8.23551 21.1778C8.17406 21.1778 8.11135 21.1642 8.05239 21.1358L6.25489 20.268C6.04455 20.1665 5.9567 19.9141 6.05816 19.7042C6.15922 19.4942 6.41246 19.4068 6.62199 19.5074L8.41949 20.3753C8.62982 20.4768 8.71768 20.7292 8.61621 20.9391C8.54365 21.09 8.39268 21.1778 8.23551 21.1778Z" fill="#FFE17D"/>
<path d="M9.88991 20.1009C9.82846 20.1009 9.76575 20.0873 9.70679 20.0589L6.25732 18.3938C6.04739 18.2923 5.95913 18.0399 6.06059 17.83C6.16165 17.6204 6.4153 17.5326 6.62442 17.6332L10.0738 19.2983C10.2838 19.3998 10.372 19.6522 10.2706 19.8622C10.198 20.013 10.0471 20.1009 9.88991 20.1009Z" fill="#FFF6D8"/>
<path d="M25.0513 9.83928L12.8302 3.9353L9.60864 5.49683L21.8572 11.4099L25.0513 9.83928Z" fill="#FF7676"/>
<path d="M21.8572 11.4098V15.9907C21.8572 16.1464 22.0199 16.2485 22.1602 16.1809L24.8126 14.9004C24.9586 14.8299 25.0513 14.6821 25.0513 14.5201V9.83923L21.8572 11.4098Z" fill="#FF5454"/>
</g>
</g>
<defs>
<filter id="filter0_d" x="0" y="0" width="34" height="34" filterUnits="userSpaceOnUse" color-interpolation-filters="sRGB">
<feFlood flood-opacity="0" result="BackgroundImageFix"/>
<feColorMatrix in="SourceAlpha" type="matrix" values="0 0 0 0 0 0 0 0 0 0 0 0 0 0 0 0 0 0 127 0"/>
<feOffset dy="2"/>
<feGaussianBlur stdDeviation="2"/>
<feColorMatrix type="matrix" values="0 0 0 0 0 0 0 0 0 0 0 0 0 0 0 0 0 0 0.15 0"/>
<feBlend mode="normal" in2="BackgroundImageFix" result="effect1_dropShadow"/>
<feBlend mode="normal" in="SourceGraphic" in2="effect1_dropShadow" result="shape"/>
</filter>
<clipPath id="clip0">
<rect width="26" height="26" fill="white" transform="translate(4 2)"/>
</clipPath>
</defs>
</svg>
