<svg width="69" height="38" viewBox="0 0 69 38" fill="none" xmlns="http://www.w3.org/2000/svg">
<path d="M23.4786 26.2651L17.8059 32.9123C17.0547 33.7921 17.1343 35.1083 17.9869 35.8916C18.6349 36.4872 19.5823 36.6276 20.3758 36.2452C23.2655 34.8511 29.8992 31.618 29.7655 31.3981C29.6657 31.2323 28.1752 28.659 26.974 26.5831C26.2313 25.299 24.443 25.1349 23.4786 26.2651Z" fill="#ECECEC"/>
<path d="M33.7017 32.5491L20.7862 36.7635C19.6036 37.1492 18.3313 36.503 17.9456 35.3204C17.5599 34.1378 18.2061 32.8655 19.3887 32.4798L32.3042 28.2654C33.4868 27.8797 34.7591 28.526 35.1448 29.7086C35.5305 30.8911 34.8842 32.1634 33.7017 32.5491Z" fill="#FBC39D"/>
<path d="M47.0115 26.2651L52.6842 32.9123C53.4354 33.7921 53.3559 35.1083 52.5032 35.8916C51.8552 36.4872 50.9078 36.6276 50.1143 36.2452C47.2247 34.8511 40.591 31.618 40.7246 31.3981C40.8245 31.2323 42.315 28.659 43.5162 26.5831C44.2589 25.299 46.0472 25.1349 47.0115 26.2651Z" fill="#ECECEC"/>
<path d="M36.7891 32.5491L49.7046 36.7635C50.8872 37.1492 52.1594 36.503 52.5452 35.3204C52.9309 34.1378 52.2846 32.8655 51.102 32.4798L38.1866 28.2654C37.004 27.8797 35.7317 28.526 35.346 29.7086C34.9602 30.8911 35.6065 32.1634 36.7891 32.5491Z" fill="#FBC39D"/>
<path d="M43.9245 27.3068L27.4883 26.9718V24.8587C27.4883 21.4073 30.9971 18.1895 34.4485 18.1895H37.0404C40.106 18.1895 43.9262 21.431 43.9262 24.4966V27.3068H43.9245Z" fill="#ECECEC"/>
<path d="M36.8674 14.2964H34.4515C33.9642 14.2964 33.5684 14.6923 33.5684 15.1795V18.9659C33.5684 20.1214 34.5039 21.057 35.6595 21.057C36.815 21.057 37.7506 20.1214 37.7506 18.9659V15.1795C37.7523 14.6923 37.3564 14.2964 36.8674 14.2964Z" fill="#FBC39D"/>
<path d="M33.5703 18.188C33.5703 18.188 33.7395 19.4196 35.6614 19.4196C37.5833 19.4196 37.7525 18.188 37.7525 18.188H33.5703Z" fill="#F9AC7F"/>
<path d="M29.7681 8.28076C28.9035 8.28076 28.2031 9.00825 28.2031 9.90662C28.2031 10.805 28.9035 11.5325 29.7681 11.5325C30.6326 11.5325 31.333 10.805 31.333 9.90662C31.333 9.00994 30.6326 8.28076 29.7681 8.28076Z" fill="#F9AC7F"/>
<path d="M41.5747 8.28076C40.7102 8.28076 40.0098 9.00825 40.0098 9.90662C40.0098 10.805 40.7102 11.5325 41.5747 11.5325C42.4392 11.5325 43.1397 10.805 43.1397 9.90662C43.1397 9.00994 42.4392 8.28076 41.5747 8.28076Z" fill="#F9AC7F"/>
<path d="M35.1837 18.6022L35.1735 18.6124C35.3359 18.6259 35.4983 18.6344 35.6641 18.6344C36.1615 18.6344 36.6454 18.5701 37.1056 18.4483C37.1073 18.4449 37.109 18.4398 37.1107 18.4347C39.6653 17.7631 41.5568 15.359 41.5568 12.4947V5.31793C41.5568 1.93425 38.9175 2.47395 35.6641 2.47395C32.4091 2.47395 29.7715 1.93425 29.7715 5.31793V12.4964C29.7698 15.7126 32.1536 18.3468 35.1837 18.6022Z" fill="#FBC39D"/>
<path d="M40.3689 10.1366V12.0737H38.2795C38.2795 12.0737 37.7618 10.6746 35.6639 10.6746C33.5677 10.6746 33.0483 12.0737 33.0483 12.0737H30.9589V10.1366C30.9589 9.37356 30.2432 9.12147 29.7695 9.03857V12.4967C29.7695 15.7129 32.1516 18.3471 35.1817 18.6008L35.1716 18.611C35.334 18.6245 35.4964 18.633 35.6622 18.633C35.828 18.633 35.9904 18.6245 36.1528 18.611L36.1427 18.6008C39.1728 18.3471 41.5549 15.7112 41.5549 12.4967V9.03857C41.0862 9.12147 40.3689 9.37356 40.3689 10.1366Z" fill="#1D1D1B"/>
<path d="M38.3823 8.2808C38.3823 8.51766 38.1978 8.71053 37.9694 8.71053C37.741 8.71053 37.5566 8.51766 37.5566 8.2808C37.5566 8.04394 37.741 7.85107 37.9694 7.85107C38.1978 7.85277 38.3823 8.04394 38.3823 8.2808Z" fill="black"/>
<path d="M38.7511 7.60189H37.3097C37.2234 7.60189 37.1523 7.53252 37.1523 7.44455V7.06896C37.1523 6.98268 37.2217 6.91162 37.3097 6.91162H38.7511C38.8374 6.91162 38.9085 6.98099 38.9085 7.06896V7.44455C38.9068 7.53083 38.8374 7.60189 38.7511 7.60189Z" fill="black"/>
<path d="M33.5 13.0815H37.579C37.579 13.0815 37.2187 14.4739 35.5387 14.4739C33.8604 14.4739 33.5 13.0815 33.5 13.0815Z" fill="#E6E6E6"/>
<path d="M36.1427 17.4755L36.1528 17.4856C35.9904 17.4991 35.828 17.5076 35.6622 17.5076C35.4964 17.5076 35.334 17.4991 35.1716 17.4856L35.1817 17.4755C32.1516 17.2217 29.7695 14.5858 29.7695 11.3713V12.4981C29.7695 15.7143 32.1516 18.3484 35.1817 18.6022L35.1716 18.6124C35.334 18.6259 35.4964 18.6344 35.6622 18.6344C35.828 18.6344 35.9904 18.6259 36.1528 18.6124L36.1427 18.6022C39.1728 18.3484 41.5549 15.7126 41.5549 12.4981V11.3696C41.5549 14.5858 39.1728 17.22 36.1427 17.4755Z" fill="#111110"/>
<path d="M33.5307 8.2808C33.5307 8.51766 33.3463 8.71053 33.1179 8.71053C32.8895 8.71053 32.7051 8.51766 32.7051 8.2808C32.7051 8.04394 32.8895 7.85107 33.1179 7.85107C33.3463 7.85277 33.5307 8.04394 33.5307 8.2808Z" fill="black"/>
<path d="M33.9035 7.60189H32.462C32.3757 7.60189 32.3047 7.53252 32.3047 7.44455V7.06896C32.3047 6.98268 32.3741 6.91162 32.462 6.91162H33.9035C33.9898 6.91162 34.0608 6.98099 34.0608 7.06896V7.44455C34.0591 7.53083 33.9898 7.60189 33.9035 7.60189Z" fill="black"/>
<path d="M40.0003 0.114012C38.388 -0.112694 35.8773 -0.138072 34.0451 1.36766C33.9977 1.40657 33.9639 1.44379 33.9283 1.48101H32.4784C30.9828 1.48101 29.7715 2.53841 29.7715 3.84451V5.18275V8.23651V11.9636C30.0473 11.9636 30.2706 11.7302 30.2706 11.4442V6.21139C30.2706 6.21139 30.3636 4.55 31.8694 4.55H35.3004H35.3325H39.2424C40.8479 4.55 41.0425 6.00498 41.0611 6.19277V11.4476C41.0611 11.7352 41.2844 11.967 41.5602 11.967V8.23651V5.18275V3.99508L41.5771 1.94965C41.5856 1.02929 40.9122 0.242591 40.0003 0.114012Z" fill="#1D1D1B"/>
<path d="M36.2331 9.63525H34.8475C34.5599 9.63525 34.3281 9.86704 34.3281 10.1546C34.3281 10.4423 34.5599 10.674 34.8475 10.674H36.2331C36.5207 10.674 36.7525 10.4423 36.7525 10.1546C36.7525 9.86704 36.5207 9.63525 36.2331 9.63525Z" fill="#F9AC7F"/>
<path d="M48.8774 36.9308H22.1294C21.5864 36.9308 21.1465 36.4909 21.1465 35.9478C21.1465 35.4047 21.5864 34.9648 22.1294 34.9648H48.8757C49.4187 34.9648 49.8586 35.4047 49.8586 35.9478C49.8603 36.4909 49.4204 36.9308 48.8774 36.9308Z" fill="#262626"/>
<path d="M45.9794 36.9303H25.3424C24.4847 36.9303 23.791 36.235 23.791 35.3789V23.8034C23.791 22.9456 24.4864 22.252 25.3424 22.252H45.9794C46.8372 22.252 47.5309 22.9473 47.5309 23.8034V35.3789C47.5309 36.2367 46.8372 36.9303 45.9794 36.9303Z" fill="#323232"/>
<path d="M35.5049 31.3927C34.5118 31.3927 33.7031 30.584 33.7031 29.5909C33.7031 28.5978 34.5118 27.7891 35.5049 27.7891C36.498 27.7891 37.3067 28.5978 37.3067 29.5909C37.3067 30.584 36.498 31.3927 35.5049 31.3927ZM35.5049 28.1021C34.6844 28.1021 34.0161 28.7703 34.0161 29.5909C34.0161 30.4114 34.6844 31.0797 35.5049 31.0797C36.3255 31.0797 36.9937 30.4114 36.9937 29.5909C36.9937 28.7703 36.3255 28.1021 35.5049 28.1021Z" fill="#DBDBDB"/>
<path d="M59.0059 37.2494H13.7849C13.6089 37.2494 13.4668 37.1073 13.4668 36.9313C13.4668 36.7554 13.6089 36.6133 13.7849 36.6133H59.0059C59.1819 36.6133 59.324 36.7554 59.324 36.9313C59.3257 37.1056 59.1819 37.2494 59.0059 37.2494Z" fill="#141414"/>
<path d="M12.1957 37.2494H7.12861C6.95266 37.2494 6.81055 37.1073 6.81055 36.9313C6.81055 36.7554 6.95266 36.6133 7.12861 36.6133H12.1957C12.3716 36.6133 12.5137 36.7554 12.5137 36.9313C12.5137 37.1056 12.3716 37.2494 12.1957 37.2494Z" fill="#141414"/>
<path d="M65.805 37.2494H60.738C60.562 37.2494 60.4199 37.1073 60.4199 36.9313C60.4199 36.7554 60.562 36.6133 60.738 36.6133H65.805C65.981 36.6133 66.1231 36.7554 66.1231 36.9313C66.1231 37.1056 65.981 37.2494 65.805 37.2494Z" fill="#40BCDF"/>
<path d="M68.6349 37.2494H67.5505C67.3745 37.2494 67.2324 37.1073 67.2324 36.9313C67.2324 36.7554 67.3745 36.6133 67.5505 36.6133H68.6349C68.8109 36.6133 68.953 36.7554 68.953 36.9313C68.9547 37.1056 68.8109 37.2494 68.6349 37.2494Z" fill="#40BCDF"/>
<path d="M5.30207 37.2494H3.57978C3.40383 37.2494 3.26172 37.1073 3.26172 36.9313C3.26172 36.7554 3.40383 36.6133 3.57978 36.6133H5.30207C5.47802 36.6133 5.62014 36.7554 5.62014 36.9313C5.62014 37.1056 5.47802 37.2494 5.30207 37.2494Z" fill="#40BCDF"/>
<path d="M0.766401 37.2494H0.318065C0.142114 37.2494 0 37.1073 0 36.9313C0 36.7554 0.142114 36.6133 0.318065 36.6133H0.766401C0.942352 36.6133 1.08447 36.7554 1.08447 36.9313C1.08447 37.1056 0.942352 37.2494 0.766401 37.2494Z" fill="#40BCDF"/>
</svg>
