<svg width="151" height="206" viewBox="0 0 151 206" fill="none" xmlns="http://www.w3.org/2000/svg">
<g opacity="0.2">
<path opacity="0.09" d="M81.0456 132.486L13.0949 173.63C12.1604 174.103 11.3789 174.831 10.8407 175.73C10.3026 176.629 10.0297 177.662 10.0537 178.709C10.1049 179.544 10.3337 180.357 10.7249 181.096C11.5199 182.455 12.6644 183.577 14.0396 184.344L47.41 203.611C49.4611 204.754 51.7582 205.386 54.1057 205.45C56.0358 205.559 57.9615 205.171 59.6992 204.323C59.8483 204.323 64.2237 201.746 64.3231 201.688L128.072 163.106C129.012 162.63 129.795 161.894 130.328 160.986C130.861 160.079 131.123 159.037 131.081 157.984C131.039 157.417 130.916 156.859 130.716 156.327C129.952 154.642 128.661 153.252 127.037 152.366L93.4176 132.934C92.9447 132.662 92.4548 132.421 91.9509 132.213C90.265 131.522 88.4611 131.164 86.6391 131.16C84.6909 131.107 82.7625 131.564 81.0456 132.486Z" fill="black"/>
<path opacity="0.18" d="M79.8198 133.456L13.1453 173.762C12.2346 174.217 11.4798 174.933 10.9767 175.818C10.4736 176.704 10.2448 177.718 10.3195 178.734C10.4152 179.534 10.6717 180.306 11.0736 181.004C11.9192 182.286 13.0547 183.351 14.3883 184.112L47.0377 203.006C49.0313 204.129 51.2513 204.792 53.5345 204.945C55.4164 205.109 57.3099 204.805 59.0451 204.058C59.3517 204.058 63.4453 201.713 63.6608 201.572L126.54 163.569C127.462 163.112 128.22 162.383 128.714 161.48C129.207 160.578 129.412 159.545 129.299 158.523C129.219 157.969 129.066 157.428 128.844 156.915C127.989 155.32 126.699 154.001 125.123 153.112L91.9764 133.986C91.5094 133.719 91.028 133.479 90.5344 133.265C88.8781 132.58 87.1062 132.217 85.3139 132.196C83.4035 132.125 81.5083 132.559 79.8198 133.456Z" fill="black"/>
<path opacity="0.27" d="M78.5851 134.433L13.2033 173.903C12.3108 174.339 11.5787 175.045 11.1114 175.922C10.6442 176.798 10.4657 177.8 10.6013 178.784C10.7377 179.548 11.0189 180.279 11.43 180.938C12.3184 182.147 13.4469 183.16 14.7446 183.913L46.6649 202.343C48.0902 203.171 51.1646 204.365 52.9711 204.365C54.808 204.593 56.673 204.374 58.4071 203.726C58.8546 203.726 62.6747 201.613 62.9979 201.431L125.007 164.008C125.905 163.562 126.634 162.836 127.083 161.939C127.531 161.042 127.675 160.023 127.493 159.036C127.369 158.506 127.186 157.992 126.946 157.503C126.457 156.368 124.526 154.636 123.192 153.857L90.5428 135.013C90.0834 134.748 89.6104 134.508 89.1258 134.292C87.5012 133.605 85.7602 133.233 83.9963 133.199C82.115 133.123 80.2473 133.549 78.5851 134.433Z" fill="black"/>
<path opacity="0.36" d="M77.3584 135.402L13.2859 174.002C12.4117 174.421 11.7018 175.119 11.2682 175.986C10.8346 176.854 10.7019 177.84 10.891 178.791C11.0902 179.517 11.4065 180.206 11.8274 180.83C12.7594 181.96 13.881 182.919 15.1421 183.664L46.3414 201.671C47.5927 202.392 50.8742 203.784 52.457 203.784C54.2476 204.08 56.083 203.944 57.8102 203.386C58.4151 203.386 61.9535 201.513 62.3927 201.265L123.499 164.455C125.529 163.287 126.283 161.439 125.769 159.541C125.604 159.041 125.396 158.556 125.148 158.091C124.684 157.113 122.512 155.282 121.344 154.611L89.1835 136.04C88.8852 135.866 88.1228 135.469 87.7913 135.319C86.1956 134.63 84.4825 134.253 82.7448 134.209C80.8741 134.109 79.0117 134.521 77.3584 135.402Z" fill="black"/>
<path opacity="0.45" d="M76.123 136.372L13.3349 174.168C11.3792 175.295 10.6583 177.06 11.1555 178.858C11.3976 179.548 11.7411 180.199 12.1747 180.789C13.1465 181.836 14.2626 182.741 15.4894 183.474L45.9678 201.074C47.0368 201.688 50.5337 203.279 51.8845 203.279C53.6297 203.636 55.434 203.582 57.1548 203.121C57.9172 203.121 61.1821 201.464 61.7207 201.174L121.94 164.887C123.962 163.718 124.617 161.879 123.97 160.039C123.762 159.566 123.524 159.106 123.258 158.663C122.835 157.835 120.424 155.92 119.413 155.349L87.7326 137.06C87.4757 136.911 86.6553 136.472 86.3736 136.347C84.8048 135.651 83.1169 135.263 81.4016 135.204C79.5687 135.108 77.7443 135.512 76.123 136.372Z" fill="black"/>
<path opacity="0.55" d="M74.8968 137.35L13.3931 174.309C11.4706 175.419 10.8326 177.151 11.4375 178.899C11.7232 179.55 12.0937 180.161 12.5396 180.714C13.5275 181.684 14.6229 182.537 15.8045 183.258L45.5537 200.437C46.4487 200.95 50.1528 202.732 51.2881 202.732C52.9875 203.159 54.7622 203.19 56.4755 202.823C57.3788 202.823 60.3785 201.414 61.0249 201.041L120.415 165.359C122.421 164.199 122.984 162.376 122.197 160.586C121.985 160.115 121.706 159.677 121.368 159.285C121.12 158.556 118.319 156.608 117.482 156.128L86.2827 138.113C86.0672 137.988 85.1722 137.508 84.9402 137.4C83.4045 136.707 81.7508 136.313 80.0677 136.24C78.2747 136.126 76.4851 136.51 74.8968 137.35Z" fill="black"/>
<path opacity="0.64" d="M73.6632 138.32L13.4606 174.441C11.5547 175.543 10.9746 177.25 11.7204 178.933C11.9951 179.578 12.4015 180.16 12.9137 180.64C13.1457 181.112 15.5903 182.72 16.1538 183.043L45.1571 199.807C45.8615 200.213 49.7811 202.193 50.6926 202.193C52.3469 202.691 54.0934 202.801 55.7972 202.517C56.8579 202.517 59.5759 201.348 60.33 200.917L118.85 165.815C120.848 164.663 121.336 162.84 120.383 161.1C120.15 160.654 119.854 160.244 119.505 159.882C119.314 159.302 116.248 157.271 115.577 156.882L84.8668 139.148C84.6928 139.049 83.7315 138.519 83.5492 138.436C82.0457 137.739 80.4227 137.337 78.7678 137.251C77.0005 137.132 75.2345 137.502 73.6632 138.32Z" fill="black"/>
<path opacity="0.73" d="M72.4367 139.29L13.5186 174.582C11.6458 175.66 11.1651 177.35 11.9938 178.974C12.3112 179.583 12.748 180.121 13.2782 180.557C14.2849 181.41 15.3666 182.17 16.51 182.828L44.8173 199.169C45.3476 199.476 49.4827 201.655 50.1622 201.655C51.7695 202.231 53.4883 202.427 55.1839 202.227C56.7699 202.055 58.3054 201.567 59.7001 200.793L117.35 166.271C119.339 165.127 119.72 163.313 118.643 161.63C118.374 161.207 118.047 160.822 117.674 160.487C117.533 160.048 114.21 157.935 113.704 157.644L83.4746 140.184C83.3503 140.11 82.3227 139.538 82.1819 139.48C80.7101 138.78 79.1182 138.366 77.4916 138.262C75.744 138.129 73.9939 138.485 72.4367 139.29Z" fill="black"/>
<path opacity="0.82" d="M71.2024 140.259L13.5851 174.715C11.7289 175.784 11.3312 177.449 12.2759 179.007C12.6304 179.584 13.0949 180.085 13.6431 180.482C14.6744 181.255 15.7508 181.967 16.8667 182.612L44.4447 198.539C44.801 198.738 49.1432 201.099 49.599 201.099C51.1693 201.759 52.8718 202.042 54.571 201.928C56.1482 201.846 57.6876 201.416 59.079 200.668L115.851 166.693C117.823 165.55 118.13 163.743 116.903 162.119C116.602 161.719 116.248 161.362 115.851 161.058C115.751 160.76 112.172 158.572 111.84 158.373L82.0662 141.22C81.975 141.17 80.8894 140.557 80.7983 140.516C79.355 139.815 77.7913 139.396 76.1909 139.281C74.4694 139.136 72.7417 139.474 71.2024 140.259Z" fill="black"/>
<path opacity="0.91" d="M69.9755 141.236L13.6261 174.855C11.7948 175.908 11.4634 177.557 12.5324 179.048C12.9268 179.588 13.4187 180.049 13.9825 180.407C14.0405 180.523 17.0485 182.313 17.1977 182.396L44.0548 197.901C44.2288 198 48.7865 200.561 49.0268 200.561C50.5439 201.286 52.2097 201.647 53.8911 201.613C55.453 201.634 56.9948 201.26 58.3742 200.527L114.284 167.165C116.24 166.03 116.464 164.224 115.113 162.657C114.773 162.286 114.389 161.958 113.969 161.68C113.92 161.53 110.083 159.252 109.917 159.152L80.6487 142.256L79.414 141.551C77.9972 140.854 76.4629 140.427 74.8895 140.292C73.1951 140.135 71.4909 140.462 69.9755 141.236Z" fill="black"/>
<path opacity="0.2" d="M57.7275 200.395L112.726 167.621C115.096 166.246 114.798 163.859 112.063 162.276L77.9636 142.587C75.229 141.013 71.0856 140.839 68.7074 142.206L13.6756 174.988C11.3056 176.355 11.604 178.75 14.3468 180.333L48.4382 200.014C51.2059 201.597 55.3493 201.771 57.7275 200.395Z" fill="black"/>
</g>
<path d="M83.2502 50.7023L82.4268 52.1406L128.252 78.3742L129.075 76.9359L83.2502 50.7023Z" fill="#BECAD3"/>
<path d="M2.25639 108.024L1.41943 106.59L78.8666 61.4277L124.51 87.4396L123.689 88.8815L78.8749 63.342L2.25639 108.024Z" fill="#BECAD3"/>
<path d="M75.6935 48.1025H74.0361V71.7361H75.6935V48.1025Z" fill="url(#paint0_linear_7176_11672)"/>
<path d="M2.73741 96.3066H1.08008V126.719H2.73741V96.3066Z" fill="url(#paint1_linear_7176_11672)"/>
<path d="M8.83702 92.3286H7.17969V123.056H8.83702V92.3286Z" fill="url(#paint2_linear_7176_11672)"/>
<path d="M14.9361 88.3589H13.2788V119.392H14.9361V88.3589Z" fill="url(#paint3_linear_7176_11672)"/>
<path d="M21.0343 84.3901H19.377V115.73H21.0343V84.3901Z" fill="url(#paint4_linear_7176_11672)"/>
<path d="M27.1422 80.4126H25.4849V112.059H27.1422V80.4126Z" fill="url(#paint5_linear_7176_11672)"/>
<path d="M33.2311 76.4434H31.5737V108.397H33.2311V76.4434Z" fill="url(#paint6_linear_7176_11672)"/>
<path d="M39.3307 72.4736H37.6733V104.742H39.3307V72.4736Z" fill="url(#paint7_linear_7176_11672)"/>
<path d="M45.4386 68.4966H43.7812V101.071H45.4386V68.4966Z" fill="url(#paint8_linear_7176_11672)"/>
<path d="M51.5377 64.5269H49.8804V97.4084H51.5377V64.5269Z" fill="url(#paint9_linear_7176_11672)"/>
<path d="M57.6368 60.5493H55.9795V93.7374H57.6368V60.5493Z" fill="url(#paint10_linear_7176_11672)"/>
<path d="M63.7359 56.5801H62.0786V90.0748H63.7359V56.5801Z" fill="url(#paint11_linear_7176_11672)"/>
<path d="M69.8356 52.6113H68.1782V86.4209H69.8356V52.6113Z" fill="url(#paint12_linear_7176_11672)"/>
<path d="M55.4988 143.416C55.4384 144.002 55.532 144.594 55.7703 145.133C56.0087 145.673 56.3835 146.14 56.8578 146.49L59.5344 148.04C60.4128 148.529 59.8493 147.418 61.1917 146.648C62.5982 145.736 63.7696 144.505 64.6105 143.055C65.4515 141.605 65.9382 139.977 66.0312 138.303C66.0312 136.787 67.4399 136.778 66.5781 136.265L63.7274 134.69C63.1807 134.457 62.583 134.369 61.9922 134.434C61.4014 134.499 60.8374 134.716 60.3548 135.063C58.9455 135.975 57.7712 137.207 56.9275 138.658C56.0837 140.11 55.5942 141.74 55.4988 143.416Z" fill="url(#paint13_linear_7176_11672)"/>
<path d="M58.3008 144.999C58.3008 148.065 60.4636 149.3 63.1402 147.758C64.5453 146.845 65.7156 145.614 66.5564 144.164C67.3971 142.714 67.8847 141.087 67.9796 139.414C67.9796 136.348 65.8168 135.113 63.1402 136.654C61.735 137.568 60.5647 138.799 59.724 140.249C58.8832 141.699 58.3957 143.326 58.3008 144.999Z" fill="url(#paint14_linear_7176_11672)"/>
<path d="M64.7198 143.131C65.6067 141.614 65.6147 139.968 64.7375 139.456C63.8604 138.943 62.4303 139.757 61.5434 141.274C60.6565 142.792 60.6486 144.437 61.5257 144.95C62.4028 145.463 63.8328 144.648 64.7198 143.131Z" fill="url(#paint15_linear_7176_11672)"/>
<path style="mix-blend-mode:screen" d="M62.9068 136.538C63.3823 136.2 63.9342 135.987 64.5128 135.916C65.0915 135.845 65.6787 135.919 66.2215 136.132C65.7243 136.03 65.2117 136.027 64.7138 136.126C64.2158 136.224 63.7424 136.42 63.3212 136.703C61.916 137.617 60.7457 138.848 59.9049 140.298C59.0642 141.748 58.5766 143.375 58.4817 145.048C58.4817 146.647 59.0701 147.75 60.0148 148.214C58.8298 147.882 58.0674 146.714 58.0674 144.899C58.1597 143.223 58.6461 141.592 59.4869 140.139C60.3278 138.687 61.4995 137.453 62.9068 136.538Z" fill="url(#paint16_radial_7176_11672)"/>
<path d="M64.5225 130.928V142.463L63.2463 143.251L53.0703 137.64L64.5225 130.928Z" fill="url(#paint17_linear_7176_11672)"/>
<path d="M6.32677 171.997C6.26777 172.581 6.36119 173.171 6.59791 173.708C6.83464 174.245 7.20659 174.712 7.6775 175.063L10.3624 176.621C11.2408 177.11 10.6773 175.999 12.0197 175.229C13.4262 174.317 14.5976 173.086 15.4386 171.636C16.2795 170.186 16.7662 168.558 16.8591 166.884C16.8591 165.368 18.2678 165.351 17.406 164.846L14.5555 163.271C14.0087 163.038 13.411 162.95 12.8202 163.015C12.2294 163.08 11.6654 163.297 11.1828 163.644C9.7721 164.555 8.59679 165.786 7.75286 167.238C6.90892 168.69 6.42025 170.32 6.32677 171.997Z" fill="url(#paint18_linear_7176_11672)"/>
<path d="M9.14258 173.579C9.14258 176.653 11.3054 177.888 13.982 176.339C15.3872 175.425 16.5574 174.194 17.3982 172.744C18.2389 171.294 18.7265 169.667 18.8214 167.994C18.8214 164.928 16.6503 163.693 13.982 165.234C12.5755 166.146 11.4041 167.377 10.5632 168.827C9.72222 170.277 9.2355 171.905 9.14258 173.579Z" fill="url(#paint19_linear_7176_11672)"/>
<path d="M11.7124 172.096C11.7124 173.522 12.7151 174.102 13.9664 173.381C14.6219 172.955 15.1676 172.38 15.5592 171.703C15.9508 171.026 16.1773 170.267 16.2204 169.486C16.2204 168.053 15.2094 167.481 13.9664 168.202C13.3109 168.628 12.7652 169.203 12.3736 169.88C11.9819 170.556 11.7554 171.316 11.7124 172.096Z" fill="url(#paint20_linear_7176_11672)"/>
<path style="mix-blend-mode:screen" d="M13.7339 165.119C14.2094 164.781 14.7613 164.568 15.34 164.497C15.9186 164.426 16.5058 164.5 17.0486 164.713C16.5514 164.611 16.0389 164.609 15.5409 164.707C15.0429 164.805 14.5695 165.001 14.1483 165.284C12.7431 166.198 11.5728 167.429 10.7321 168.879C9.89132 170.329 9.40375 171.956 9.30886 173.629C9.30886 175.228 9.8972 176.322 10.8419 176.795C9.65688 176.463 8.89453 175.286 8.89453 173.48C8.9849 171.803 9.47042 170.172 10.3115 168.719C11.1525 167.266 12.3252 166.032 13.7339 165.119Z" fill="url(#paint21_radial_7176_11672)"/>
<path d="M15.3496 159.509V171.044L14.0735 171.831L3.89746 166.221L15.3496 159.509Z" fill="url(#paint22_linear_7176_11672)"/>
<path d="M73.6535 141.141L25.373 169.467L26.2117 170.896L74.4922 142.57L73.6535 141.141Z" fill="#BECAD3"/>
<path d="M89.194 150.048L40.7134 178.491L41.552 179.921L90.0326 151.477L89.194 150.048Z" fill="#BECAD3"/>
<path d="M59.2999 132.412L58.4707 133.847L104.907 160.679L105.737 159.244L59.2999 132.412Z" fill="url(#paint23_linear_7176_11672)"/>
<path d="M53.7984 132.593L52.9697 134.035L99.629 160.851L100.458 159.409L53.7984 132.593Z" fill="url(#paint24_linear_7176_11672)"/>
<path d="M47.8121 136.183L46.9834 137.625L93.6427 164.441L94.4713 162.999L47.8121 136.183Z" fill="url(#paint25_linear_7176_11672)"/>
<path d="M41.2613 143.109L40.4321 144.544L86.8688 171.376L87.698 169.941L41.2613 143.109Z" fill="url(#paint26_linear_7176_11672)"/>
<path d="M35.8169 143.375L34.9883 144.816L81.6475 171.632L82.4762 170.19L35.8169 143.375Z" fill="url(#paint27_linear_7176_11672)"/>
<path d="M29.2413 150.25L28.4121 151.685L74.8488 178.516L75.678 177.081L29.2413 150.25Z" fill="url(#paint28_linear_7176_11672)"/>
<path d="M23.2296 153.812L22.4004 155.247L68.8371 182.078L69.6663 180.643L23.2296 153.812Z" fill="url(#paint29_linear_7176_11672)"/>
<path d="M17.2335 157.387L16.4043 158.822L62.841 185.654L63.6702 184.219L17.2335 157.387Z" fill="url(#paint30_linear_7176_11672)"/>
<path d="M11.2105 160.948L10.3813 162.383L56.8181 189.215L57.6472 187.78L11.2105 160.948Z" fill="url(#paint31_linear_7176_11672)"/>
<path d="M89.819 43.72L74.5679 88.4941L76.1367 89.0285L91.3878 44.2544L89.819 43.72Z" fill="url(#paint32_linear_7176_11672)"/>
<path d="M94.9708 46.6707L79.7197 91.4448L81.2885 91.9792L96.5396 47.2051L94.9708 46.6707Z" fill="url(#paint33_linear_7176_11672)"/>
<path d="M100.179 49.655L84.9253 94.437L86.4941 94.9714L101.748 50.1894L100.179 49.655Z" fill="url(#paint34_linear_7176_11672)"/>
<path d="M105.382 52.6292L90.1284 97.4111L91.6972 97.9455L106.951 53.1636L105.382 52.6292Z" fill="url(#paint35_linear_7176_11672)"/>
<path d="M110.535 55.5813L95.2808 100.363L96.8496 100.898L112.103 56.1157L110.535 55.5813Z" fill="url(#paint36_linear_7176_11672)"/>
<path d="M115.739 58.574L100.485 103.356L102.054 103.89L117.308 59.1084L115.739 58.574Z" fill="url(#paint37_linear_7176_11672)"/>
<path d="M120.933 61.5472L105.68 106.329L107.249 106.863L122.502 62.0815L120.933 61.5472Z" fill="url(#paint38_linear_7176_11672)"/>
<path d="M126.118 64.5159L110.864 109.298L112.433 109.832L127.687 65.0502L126.118 64.5159Z" fill="url(#paint39_linear_7176_11672)"/>
<path d="M109.288 67.3527L107.979 71.09L99.7501 66.3417L101.051 62.6624L92.3418 57.6987L83.7651 81.9455L109.313 96.6709L117.89 72.2501L109.288 67.3527Z" fill="#FF5454"/>
<path d="M52.657 198.978C52.5966 199.564 52.6902 200.156 52.9285 200.696C53.1668 201.235 53.5417 201.702 54.016 202.052L56.6926 203.602C57.571 204.091 57.0075 202.98 58.3499 202.218C59.7514 201.305 60.9187 200.076 61.7579 198.63C62.597 197.183 63.0846 195.56 63.1811 193.89C63.1811 192.373 64.5815 192.365 63.7197 191.86L60.8774 190.285C60.3297 190.05 59.7303 189.96 59.1377 190.026C58.5451 190.091 57.9796 190.309 57.4964 190.658C56.0945 191.569 54.9262 192.796 54.0856 194.242C53.245 195.687 52.7557 197.309 52.657 198.978Z" fill="url(#paint40_linear_7176_11672)"/>
<path d="M55.457 200.569C55.457 203.635 57.6281 204.87 60.2964 203.329C61.7029 202.417 62.8743 201.186 63.7153 199.736C64.5562 198.286 65.0429 196.658 65.1359 194.984C65.1359 191.91 62.973 190.675 60.2964 192.224C58.8913 193.138 57.7209 194.369 56.8802 195.819C56.0394 197.269 55.5519 198.896 55.457 200.569Z" fill="url(#paint41_linear_7176_11672)"/>
<path d="M58.0342 199.078C58.0342 200.511 59.0451 201.083 60.2881 200.362C60.9441 199.938 61.4907 199.365 61.8838 198.689C62.2768 198.014 62.5052 197.256 62.5504 196.476C62.5504 195.042 61.5394 194.462 60.2881 195.183C59.6327 195.609 59.087 196.184 58.6953 196.861C58.3037 197.537 58.0772 198.297 58.0342 199.078Z" fill="url(#paint42_linear_7176_11672)"/>
<path style="mix-blend-mode:screen" d="M60.0646 192.109C60.5381 191.768 61.0902 191.551 61.6697 191.48C62.2492 191.409 62.8373 191.486 63.3792 191.703C62.8913 191.599 62.3875 191.592 61.8968 191.683C61.4062 191.774 60.9384 191.961 60.5203 192.233C59.1127 193.146 57.9406 194.378 57.0996 195.83C56.2586 197.282 55.7725 198.911 55.6809 200.586C55.6809 202.177 56.2693 203.28 57.2056 203.752C56.0289 203.42 55.2583 202.244 55.2583 200.437C55.352 198.77 55.8357 197.148 56.6704 195.701C57.5052 194.255 58.6677 193.025 60.0646 192.109Z" fill="url(#paint43_radial_7176_11672)"/>
<path d="M61.689 186.49V198.025L60.4045 198.821L50.2285 193.202L61.689 186.49Z" fill="url(#paint44_linear_7176_11672)"/>
<path d="M101.83 170.397C101.77 170.984 101.864 171.576 102.102 172.115C102.34 172.654 102.715 173.122 103.189 173.472L105.866 175.021C106.744 175.51 106.181 174.4 107.523 173.637C108.928 172.724 110.099 171.493 110.939 170.043C111.78 168.593 112.268 166.966 112.363 165.293C112.363 163.776 113.763 163.76 112.901 163.254L110.059 161.68C109.511 161.444 108.912 161.355 108.319 161.42C107.727 161.486 107.161 161.703 106.678 162.053C105.271 162.965 104.099 164.196 103.257 165.646C102.415 167.096 101.926 168.723 101.83 170.397Z" fill="url(#paint45_linear_7176_11672)"/>
<path d="M104.631 171.988C104.631 175.054 106.802 176.289 109.471 174.748C110.877 173.836 112.049 172.605 112.89 171.155C113.731 169.705 114.217 168.077 114.31 166.403C114.31 163.337 112.147 162.102 109.471 163.644C108.066 164.557 106.895 165.788 106.055 167.238C105.214 168.688 104.726 170.315 104.631 171.988Z" fill="url(#paint46_linear_7176_11672)"/>
<path d="M107.215 170.497C107.215 171.93 108.226 172.502 109.469 171.79C110.126 171.364 110.674 170.79 111.067 170.113C111.46 169.436 111.688 168.676 111.732 167.895C111.732 166.461 110.721 165.89 109.469 166.602C108.814 167.028 108.268 167.603 107.876 168.28C107.485 168.957 107.258 169.716 107.215 170.497Z" fill="url(#paint47_linear_7176_11672)"/>
<path style="mix-blend-mode:screen" d="M109.238 163.528C109.714 163.191 110.266 162.977 110.844 162.906C111.423 162.835 112.01 162.909 112.553 163.122C112.058 163.021 111.547 163.018 111.051 163.115C110.554 163.212 110.082 163.406 109.661 163.685C108.255 164.6 107.084 165.832 106.243 167.283C105.402 168.735 104.915 170.364 104.822 172.038C104.822 173.638 105.41 174.732 106.346 175.204C105.17 174.872 104.399 173.696 104.399 171.889C104.491 170.213 104.978 168.582 105.818 167.13C106.659 165.677 107.831 164.443 109.238 163.528Z" fill="url(#paint48_radial_7176_11672)"/>
<path d="M110.862 157.917V169.444L109.578 170.24L99.4019 164.621L110.862 157.917Z" fill="url(#paint49_linear_7176_11672)"/>
<path d="M43.8964 195.548C41.2809 195.553 38.7097 194.873 36.4384 193.576L4.35242 175.237C3.3211 174.646 2.46418 173.793 1.86824 172.764C1.2723 171.735 0.958496 170.568 0.958496 169.379C0.958496 168.19 1.2723 167.022 1.86824 165.993C2.46418 164.965 3.3211 164.111 4.35242 163.52L61.141 130.912C63.2719 129.678 65.042 127.907 66.275 125.775C67.508 123.644 68.1607 121.226 68.1681 118.764V118.449C68.1692 115.947 67.4994 113.49 66.2285 111.334C64.9577 109.179 63.1322 107.403 60.9421 106.193L48.5949 99.3564L50.2026 96.4561L62.5414 103.293C65.25 104.79 67.5079 106.985 69.0804 109.651C70.6529 112.316 71.4824 115.354 71.4827 118.449V118.764C71.4753 121.81 70.6686 124.8 69.1432 127.437C67.6178 130.073 65.427 132.263 62.79 133.787L6.00151 166.445C5.47638 166.746 5.04004 167.181 4.73661 167.705C4.43317 168.228 4.27337 168.823 4.27337 169.428C4.27337 170.034 4.43317 170.628 4.73661 171.152C5.04004 171.676 5.47638 172.11 6.00151 172.412L38.0958 190.75C39.8634 191.756 41.8624 192.285 43.8964 192.285C45.9304 192.285 47.9294 191.756 49.6971 190.75L107.53 157.736C109.666 156.517 111.445 154.757 112.686 152.633C113.927 150.509 114.587 148.096 114.599 145.636C114.612 143.176 113.977 140.756 112.757 138.62C111.538 136.483 109.778 134.705 107.654 133.464L94.9174 126.006L96.5748 123.139L109.311 130.597C111.936 132.132 114.111 134.331 115.618 136.973C117.124 139.615 117.91 142.606 117.894 145.647C117.879 148.688 117.065 151.672 115.532 154.298C113.999 156.925 111.802 159.102 109.162 160.611L51.3213 193.626C49.0546 194.899 46.4961 195.561 43.8964 195.548Z" fill="#BECAD3"/>
<path d="M50.2366 96.8115L62.2688 103.441C64.9222 104.91 67.1339 107.063 68.6742 109.676C70.2145 112.288 71.0271 115.266 71.0278 118.299V118.614C71.0336 121.609 70.2492 124.554 68.7535 127.149C67.2578 129.745 65.1039 131.9 62.5091 133.397L5.72055 166.047C5.14023 166.379 4.65799 166.858 4.32258 167.437C3.98716 168.015 3.81053 168.672 3.81053 169.341C3.81053 170.009 3.98716 170.666 4.32258 171.244C4.65799 171.823 5.14023 172.302 5.72055 172.635L37.8066 190.965C39.5708 191.964 41.5584 192.503 43.586 192.532C45.6135 192.561 47.6158 192.079 49.4079 191.13C49.5156 191.081 50.5349 190.509 50.6343 190.451L107.282 158.133C107.572 157.967 108.111 157.636 108.392 157.445C110.338 156.148 111.936 154.393 113.046 152.334C114.155 150.275 114.743 147.975 114.757 145.637C114.771 143.298 114.211 140.992 113.126 138.92C112.04 136.848 110.464 135.074 108.533 133.753C108.285 133.497 105.219 131.657 104.929 131.475L95.8712 126.179L96.3187 123.992L96.5756 123.569L109.006 130.837C111.512 132.301 113.602 134.383 115.074 136.885C116.546 139.387 117.352 142.225 117.414 145.127C117.476 148.029 116.793 150.899 115.43 153.462C114.067 156.025 112.069 158.195 109.627 159.765C109.378 159.931 108.865 160.229 108.608 160.379L51.0155 193.252C48.9188 194.447 46.5586 195.105 44.1458 195.166H43.6238C41.3906 195.143 39.1919 194.613 37.1933 193.616C36.953 193.5 36.4889 193.252 36.2569 193.119L4.3947 174.889C3.55621 174.418 2.83744 173.761 2.2942 172.967C1.75096 172.174 1.39784 171.266 1.26231 170.314C1.12612 169.37 1.2044 168.408 1.49133 167.498C1.77826 166.589 2.26645 165.755 2.91965 165.061C3.51293 164.435 4.19404 163.899 4.9416 163.469L61.1915 131.151C63.3097 129.929 65.0806 128.186 66.3365 126.088C67.5923 123.989 68.2915 121.605 68.3677 119.161C68.3677 119.161 68.3677 118.879 68.3677 118.854C68.3854 118.301 68.3688 117.748 68.318 117.197C68.318 117.114 68.318 116.956 68.318 116.874C68.092 114.741 67.3874 112.687 66.2567 110.865C65.1261 109.042 63.5986 107.499 61.7882 106.349C61.5561 106.134 58.7304 104.518 58.4735 104.361L49.5736 99.4218L49.9879 97.2424L50.2366 96.8115Z" fill="#C6D0D6"/>
<path d="M50.2695 97.1929L61.9952 103.681C64.5927 105.119 66.758 107.226 68.2662 109.784C69.7744 112.341 70.5705 115.255 70.5719 118.224V118.539C70.5669 121.461 69.7941 124.33 68.331 126.86C66.8679 129.389 64.7659 131.489 62.2355 132.95L5.43868 165.608C4.80496 165.97 4.27829 166.494 3.91199 167.125C3.54569 167.757 3.35275 168.474 3.35275 169.204C3.35275 169.934 3.54569 170.651 3.91199 171.283C4.27829 171.914 4.80496 172.438 5.43868 172.8L37.5329 191.139C39.3006 192.141 41.287 192.694 43.3182 192.751C45.3494 192.807 47.3635 192.365 49.184 191.462C49.4077 191.363 50.2281 190.915 50.4353 190.791L107.108 158.473C107.298 158.365 108.044 157.934 108.218 157.81C110.11 156.607 111.7 154.986 112.868 153.073C114.036 151.16 114.75 149.004 114.955 146.772C115.046 145.841 115.046 144.903 114.955 143.971C114.753 142.033 114.165 140.154 113.226 138.446C112.286 136.739 111.015 135.236 109.486 134.027C108.369 133.145 107.193 132.342 105.964 131.624L96.8986 126.329L96.3849 124.39L96.6334 123.967L108.765 131.06C111.248 132.499 113.315 134.557 114.764 137.033C116.212 139.51 116.993 142.32 117.03 145.189C117.067 148.058 116.358 150.888 114.973 153.401C113.588 155.914 111.575 158.024 109.13 159.525C108.964 159.641 108.301 160.031 108.119 160.13L50.7833 192.862C48.6997 194.047 46.3515 194.688 43.9551 194.727H43.433C41.2113 194.672 39.0327 194.102 37.0689 193.061L36.1491 192.556L4.50228 174.458C3.67 173.99 2.96373 173.327 2.44412 172.526C1.92451 171.725 1.60704 170.809 1.51905 169.859C1.47347 169.432 1.47347 169.001 1.51905 168.574C1.67713 167.116 2.38184 165.772 3.49128 164.812C4.13307 164.249 4.8299 163.752 5.57124 163.329L61.2742 131.301C63.3749 130.088 65.1432 128.374 66.4212 126.313C67.6993 124.251 68.4477 121.905 68.5996 119.484C68.5996 119.434 68.5996 119.227 68.5996 119.177C68.6301 118.625 68.6301 118.072 68.5996 117.52C68.5996 117.462 68.5996 117.255 68.5996 117.197C68.4517 115.074 67.84 113.009 66.8077 111.148C65.7754 109.286 64.3477 107.674 62.6249 106.424C61.5834 105.667 60.4958 104.975 59.3683 104.353L50.5761 99.5297L50.0458 97.6238L50.2695 97.1929Z" fill="#CFD5DA"/>
<path d="M50.3041 97.5664L61.7232 103.889C64.2667 105.296 66.3868 107.358 67.8631 109.862C69.3393 112.366 70.1179 115.219 70.1176 118.126V118.482C70.1088 121.339 69.3502 124.144 67.9179 126.616C66.4855 129.088 64.4295 131.141 61.9552 132.569L5.16666 165.202C4.4774 165.593 3.90413 166.16 3.50533 166.845C3.10653 167.53 2.89643 168.309 2.89643 169.101C2.89643 169.894 3.10653 170.672 3.50533 171.357C3.90413 172.042 4.4774 172.609 5.16666 173L37.2526 191.338C39.0216 192.341 41.0039 192.909 43.0357 192.994C45.0674 193.079 47.0903 192.679 48.9369 191.827C49.2683 191.678 49.8898 191.347 50.2047 191.173L106.927 158.805C107.018 158.755 107.955 158.217 108.037 158.15C110.04 156.947 111.734 155.293 112.984 153.319C114.234 151.345 115.005 149.106 115.237 146.782C115.468 144.457 115.152 142.11 114.315 139.929C113.478 137.747 112.143 135.792 110.416 134.218C109.362 133.256 108.209 132.409 106.977 131.691L97.911 126.387L96.4277 124.73L96.6763 124.299L108.501 131.219C110.946 132.645 112.975 134.684 114.39 137.135C115.804 139.586 116.554 142.364 116.566 145.194C116.578 148.024 115.851 150.808 114.457 153.271C113.062 155.733 111.05 157.789 108.617 159.236C108.535 159.294 107.698 159.774 107.606 159.824L50.5196 192.407C48.4511 193.588 46.1144 194.218 43.7328 194.239H43.219C41.015 194.178 38.8567 193.596 36.9212 192.54L36.0179 192.034L4.59488 174.077C3.76718 173.614 3.07163 172.946 2.5742 172.139C2.07676 171.331 1.79394 170.409 1.75256 169.462C1.73419 169.034 1.76195 168.607 1.83541 168.185C1.95443 167.471 2.21517 166.788 2.60227 166.176C2.98936 165.564 3.49502 165.036 4.08941 164.622C4.77121 164.128 5.47938 163.672 6.21079 163.255L61.3503 131.5C63.4341 130.296 65.1989 128.609 66.4965 126.582C67.7941 124.555 68.5869 122.246 68.8083 119.849C68.8083 119.775 68.8083 119.617 68.8083 119.543C68.8512 119.011 68.865 118.477 68.8497 117.943C68.8497 117.943 68.8497 117.653 68.8497 117.628C68.7745 115.515 68.2518 113.441 67.3162 111.544C66.3806 109.647 65.0533 107.97 63.4219 106.624C62.4345 105.808 61.375 105.084 60.2564 104.461L51.5057 99.6215L50.0307 97.9642L50.3041 97.5664Z" fill="#D7DBDD"/>
<path d="M43.4836 193.757C41.119 193.757 38.7948 193.143 36.7383 191.976L4.64404 173.637C3.82599 173.17 3.14607 172.494 2.67317 171.679C2.20027 170.864 1.95117 169.939 1.95117 168.997C1.95117 168.054 2.20027 167.129 2.67317 166.314C3.14607 165.499 3.82599 164.824 4.64404 164.356L61.4243 131.74C63.7729 130.384 65.7241 128.435 67.0824 126.087C68.4408 123.74 69.1586 121.077 69.164 118.365V118.05C69.1644 115.296 68.4267 112.592 67.0276 110.219C65.6286 107.847 63.6193 105.892 61.2088 104.56L50.0964 98.4109L50.3367 97.9717L61.4491 104.12C63.9261 105.5 65.9905 107.514 67.4297 109.957C68.8688 112.4 69.6305 115.182 69.6364 118.017V118.332C69.6327 121.132 68.8926 123.881 67.4905 126.304C66.0883 128.727 64.0734 130.739 61.648 132.138L4.8595 164.787C4.11718 165.211 3.50013 165.824 3.07096 166.563C2.6418 167.302 2.41578 168.142 2.41578 168.997C2.41578 169.852 2.6418 170.691 3.07096 171.43C3.50013 172.17 4.11718 172.782 4.8595 173.206L36.9454 191.545C38.9276 192.669 41.1675 193.26 43.4464 193.26C45.7252 193.26 47.9651 192.669 49.9472 191.545L107.788 158.531C110.139 157.189 112.094 155.252 113.459 152.914C114.824 150.577 115.549 147.922 115.563 145.215C115.576 142.508 114.877 139.846 113.536 137.495C112.194 135.144 110.258 133.188 107.921 131.823L96.4272 125.111L96.6841 124.68L108.202 131.417C110.615 132.826 112.614 134.846 113.998 137.273C115.383 139.7 116.104 142.448 116.09 145.242C116.075 148.036 115.326 150.777 113.917 153.19C112.508 155.602 110.488 157.602 108.062 158.986L50.229 192.001C48.1711 193.161 45.8464 193.767 43.4836 193.757Z" fill="#DFE0E0"/>
<path d="M50.1738 96.4079L48.5205 99.2808L94.8819 125.961L96.5352 123.088L50.1738 96.4079Z" fill="#BECAD3"/>
<path d="M70.1851 84.9927L69.356 86.4277L115.793 113.26L116.622 111.825L70.1851 84.9927Z" fill="#BECAD3"/>
<path d="M64.1885 88.4732L63.3594 89.9082L109.796 116.74L110.625 115.305L64.1885 88.4732Z" fill="#BECAD3"/>
<path d="M58.1812 91.9532L57.3521 93.3882L103.789 120.22L104.618 118.785L58.1812 91.9532Z" fill="#BECAD3"/>
<path d="M52.1734 95.4278L51.3442 96.8628L97.781 123.695L98.6101 122.26L52.1734 95.4278Z" fill="#BECAD3"/>
<path d="M46.1651 98.9151L45.3359 100.35L91.7727 127.182L92.6018 125.747L46.1651 98.9151Z" fill="#BECAD3"/>
<path d="M40.1573 102.386L39.3281 103.821L85.7648 130.653L86.594 129.218L40.1573 102.386Z" fill="#BECAD3"/>
<path d="M34.1651 105.882L33.3359 107.317L79.7727 134.149L80.6018 132.714L34.1651 105.882Z" fill="#BECAD3"/>
<path d="M28.5582 106.077L27.7295 107.519L74.3887 134.335L75.2174 132.893L28.5582 106.077Z" fill="#BECAD3"/>
<path d="M22.1441 112.825L21.3149 114.26L67.7517 141.092L68.5808 139.657L22.1441 112.825Z" fill="#BECAD3"/>
<path d="M16.1524 116.313L15.3232 117.748L61.76 144.58L62.5891 143.145L16.1524 116.313Z" fill="#BECAD3"/>
<path d="M10.1202 119.78L9.29102 121.215L55.7277 148.047L56.5569 146.612L10.1202 119.78Z" fill="#BECAD3"/>
<path d="M4.1197 123.259L3.29053 124.694L49.7272 151.526L50.5564 150.091L4.1197 123.259Z" fill="#BECAD3"/>
<path d="M37.268 151.77C36.9782 151.767 36.6935 151.693 36.4393 151.554L4.3533 133.216C3.32003 132.625 2.4613 131.772 1.86402 130.742C1.26674 129.713 0.952148 128.543 0.952148 127.353C0.952148 126.163 1.26674 124.994 1.86402 123.964C2.4613 122.935 3.32003 122.081 4.3533 121.49L68.4673 84.6229L87.5266 29.7321C88.7283 26.2677 91.0909 23.3255 94.2139 21.404L99.8406 17.9567C100.215 17.7351 100.662 17.6696 101.084 17.7744C101.506 17.8792 101.87 18.1459 102.098 18.5169C102.325 18.8879 102.398 19.3334 102.299 19.7573C102.201 20.1812 101.94 20.5494 101.573 20.7825L95.9459 24.2297C93.4774 25.7533 91.6079 28.0793 90.6507 30.8176L71.2184 86.8852L6.00239 124.366C5.47727 124.667 5.04093 125.101 4.73749 125.625C4.43406 126.149 4.27425 126.744 4.27425 127.349C4.27425 127.954 4.43406 128.549 4.73749 129.073C5.04093 129.597 5.47727 130.031 6.00239 130.332L38.0966 148.671C38.4159 148.852 38.6661 149.133 38.808 149.472C38.9499 149.81 38.9754 150.186 38.8806 150.541C38.7859 150.895 38.5761 151.208 38.2842 151.431C37.9924 151.653 37.6349 151.772 37.268 151.77Z" fill="#BECAD3"/>
<path d="M101.681 18.5859C101.75 18.6949 101.788 18.8213 101.789 18.9505C101.954 19.4809 101.291 20.351 100.794 20.6576L96.9242 23.0276C96.7834 23.1187 95.3498 24.0137 95.2669 24.1131C93.1101 25.5505 91.4354 27.6033 90.4606 30.0049C90.3695 30.1955 90.2286 30.585 90.1623 30.7839L70.7964 86.5366L5.72117 123.959C4.99085 124.385 4.42824 125.048 4.12676 125.838C3.82528 126.628 3.80306 127.497 4.06384 128.301C4.27875 128.983 4.69828 129.582 5.26542 130.017C6.00258 130.601 6.78386 131.127 7.60226 131.591L37.3182 148.579C37.8735 148.894 38.611 149.863 38.3707 150.435C38.3785 150.493 38.3785 150.551 38.3707 150.609C38.3422 150.672 38.309 150.733 38.2712 150.791C38.2135 150.863 38.1466 150.927 38.0723 150.982L37.9646 151.04C37.6518 151.175 37.3083 151.224 36.9702 151.181C36.6958 151.144 36.4311 151.054 36.1913 150.916L4.49476 132.801C3.51454 132.243 2.69954 131.435 2.13263 130.46C1.56571 129.485 1.26709 128.377 1.26709 127.249C1.26709 126.121 1.56571 125.013 2.13263 124.038C2.69954 123.063 3.51454 122.255 4.49476 121.697L68.3932 84.9538L69.0976 83.686L87.5603 30.4193C87.8787 29.5082 88.258 28.6195 88.6956 27.7592C89.9052 25.3914 91.7029 23.3741 93.9162 21.9006C94.0488 21.7928 95.5321 20.8647 95.6812 20.7736L99.4683 18.4367C99.9572 18.1301 101.043 17.9313 101.44 18.3207L101.548 18.387C101.599 18.4483 101.644 18.515 101.681 18.5859Z" fill="#C6D0D6"/>
<path d="M101.275 18.6607C101.309 18.7142 101.331 18.7749 101.338 18.8382C101.345 18.9014 101.338 18.9654 101.316 19.0253C101.432 19.3733 100.38 20.3346 100.048 20.5335L96.2031 22.8952C95.9214 23.0692 94.7861 23.7901 94.5458 24.0056C92.4512 25.5019 90.8408 27.579 89.9135 29.9803C89.8555 30.1129 89.6733 30.6183 89.6318 30.7509L70.3984 86.1639L5.43929 123.512C4.91315 123.811 4.46209 124.227 4.12037 124.726C3.77865 125.226 3.55524 125.797 3.46706 126.396C3.39767 126.867 3.41168 127.346 3.50848 127.813C3.65133 128.508 3.98403 129.151 4.46971 129.669C5.11601 130.356 5.86187 130.943 6.68229 131.409L36.5143 148.446C36.8789 148.662 38.0722 149.698 37.9065 150.104C37.9228 150.161 37.9228 150.221 37.9065 150.278C37.8895 150.342 37.8644 150.403 37.8318 150.46C37.7782 150.532 37.7069 150.589 37.6247 150.626H37.517C37.3678 150.742 36.7463 150.543 36.5557 150.543C36.2955 150.475 36.0449 150.375 35.8099 150.245L4.50289 132.395C3.57821 131.866 2.80976 131.101 2.27534 130.18C1.74093 129.258 1.45947 128.211 1.45947 127.146C1.45947 126.08 1.74093 125.033 2.27534 124.112C2.80976 123.19 3.57821 122.425 4.50289 121.896L68.1776 85.2772L69.0892 84.1834L87.4855 31.1073C87.6513 30.6432 88.3143 28.8533 88.5546 28.4307C89.6551 26.0214 91.3697 23.9438 93.5266 22.4063C93.7917 22.1825 94.9684 21.4284 95.2667 21.2461L99.0704 18.9176C99.3935 18.7104 100.728 18.2049 101.001 18.4618C101.036 18.4509 101.074 18.4509 101.109 18.4618C101.182 18.5114 101.239 18.5802 101.275 18.6607Z" fill="#CFD5DA"/>
<path d="M100.869 18.7431C100.905 18.7938 100.925 18.8547 100.925 18.9171C100.925 18.9796 100.905 19.0404 100.869 19.0912C100.927 19.2735 99.4847 20.3093 99.3272 20.4087L95.507 22.7539C94.9334 23.1004 94.3801 23.4795 93.8497 23.8891C91.8232 25.4537 90.2806 27.5594 89.3998 29.9633C89.3998 30.0296 89.1512 30.6511 89.1263 30.7256L70.0173 85.8485L5.17411 123.139C4.64593 123.437 4.18587 123.843 3.82343 124.329C3.46099 124.816 3.20411 125.373 3.06927 125.964C2.96748 126.432 2.93954 126.913 2.98642 127.39C3.05389 128.107 3.30504 128.795 3.71565 129.387C4.25658 130.171 4.9676 130.822 5.79561 131.293L35.6607 148.388C35.8513 148.487 37.4838 149.606 37.4009 149.797C37.4221 149.817 37.4389 149.842 37.4503 149.869C37.4617 149.896 37.4675 149.925 37.4672 149.954C37.4715 150.021 37.454 150.088 37.4175 150.145C37.3705 150.22 37.2962 150.273 37.2103 150.294C37.1721 150.303 37.1325 150.303 37.0943 150.294C37.0197 150.352 36.2657 150.004 36.1662 150.004C35.9223 149.901 35.6844 149.785 35.4536 149.656L4.54432 131.997C3.67304 131.498 2.94902 130.778 2.44549 129.909C1.94196 129.04 1.67676 128.054 1.67676 127.05C1.67676 126.046 1.94196 125.059 2.44549 124.191C2.94902 123.322 3.67304 122.602 4.54432 122.103L68.0036 85.6414L69.1306 84.705L87.4607 31.8278C87.5353 31.5957 88.3391 29.3418 88.4634 29.1346C89.4439 26.6882 91.0604 24.5483 93.1453 22.9362C93.6937 22.5122 94.2634 22.1166 94.8524 21.7512L98.6477 19.4309C98.8134 19.3232 100.404 18.5028 100.537 18.6022C100.575 18.5896 100.615 18.5896 100.653 18.6022C100.697 18.6087 100.739 18.6247 100.776 18.649C100.814 18.6733 100.845 18.7054 100.869 18.7431Z" fill="#D7DBDD"/>
<path d="M36.8544 149.972C36.8167 149.984 36.7761 149.984 36.7384 149.972L4.64413 131.575C3.82804 131.107 3.14993 130.432 2.67837 129.618C2.20681 128.804 1.9585 127.88 1.9585 126.939C1.9585 125.998 2.20681 125.074 2.67837 124.26C3.14993 123.446 3.82804 122.77 4.64413 122.302L69.2138 85.1698L88.4058 29.8149C89.4938 26.646 91.6461 23.952 94.4965 22.1911L100.115 18.7439C100.158 18.7319 100.204 18.7319 100.247 18.7439C100.29 18.7467 100.332 18.7594 100.37 18.781C100.407 18.8025 100.439 18.8323 100.463 18.8682C100.497 18.9243 100.507 18.9915 100.491 19.0551C100.476 19.1187 100.436 19.1736 100.38 19.2079L94.7616 22.6552C92.0114 24.3441 89.9299 26.9322 88.8698 29.9806L69.6365 85.5095L4.90931 122.733C4.16895 123.158 3.55375 123.77 3.12593 124.509C2.69812 125.247 2.47282 126.085 2.47282 126.939C2.47282 127.792 2.69812 128.63 3.12593 129.369C3.55375 130.107 4.16895 130.72 4.90931 131.144L36.9953 149.483C37.0531 149.516 37.0971 149.569 37.1196 149.632C37.1424 149.693 37.1424 149.761 37.1196 149.822C37.0981 149.873 37.0604 149.915 37.0125 149.942C36.9645 149.969 36.9089 149.98 36.8544 149.972Z" fill="#DFE0E0"/>
<path d="M4.02202 102.646C3.07472 102.099 2.28384 101.317 1.72513 100.377C1.16641 99.436 0.858559 98.3677 0.831113 97.274C0.803667 96.1804 1.05755 95.098 1.56839 94.1305C2.07922 93.1631 2.82989 92.343 3.74854 91.7489L44.6433 65.331L85.5297 38.9297L131.786 65.8779C132.158 66.0911 132.468 66.3968 132.687 66.7655C132.906 67.1341 133.026 67.5532 133.036 67.9818C133.045 68.4105 132.943 68.8343 132.74 69.212C132.537 69.5897 132.24 69.9084 131.877 70.1373L130.129 67.353C130.012 67.4296 129.917 67.5343 129.852 67.6574C129.787 67.7805 129.754 67.918 129.756 68.0573C129.761 68.1955 129.801 68.33 129.872 68.4487C129.943 68.5674 130.043 68.6664 130.162 68.7368L85.6457 42.8078L45.6045 68.6705L5.54673 94.5332C5.10618 94.8195 4.74636 95.214 4.50159 95.6789C4.25683 96.1438 4.13531 96.6636 4.14861 97.1889C4.16191 97.7141 4.30958 98.2272 4.57756 98.6791C4.84554 99.1311 5.22487 99.5068 5.67935 99.7704L4.02202 102.646Z" fill="#BECAD3"/>
<path d="M85.5465 39.2275L130.369 65.3388C130.719 65.538 131.025 65.8058 131.268 66.1262C131.512 66.4466 131.688 66.813 131.786 67.2033C131.786 67.7005 131.977 68.3717 131.645 68.7198L131.571 68.7944C131.445 68.9083 131.313 69.0136 131.173 69.1093L129.151 66.6233C128.969 66.7393 128.703 66.847 128.703 67.0542C128.703 67.2613 128.703 67.3691 128.844 67.4768L88.1816 43.7935L84.8172 42.8074L46.4334 67.6177L45.2318 68.3966L5.58843 94.0024C5.31498 94.1778 5.06443 94.3866 4.84261 94.6239C4.36809 95.1402 4.07685 95.7983 4.01394 96.4967C3.96801 96.906 4.00368 97.3203 4.11889 97.7158C4.2341 98.1112 4.42657 98.4798 4.68516 98.8004C4.78536 98.931 4.89929 99.0504 5.02494 99.1567C5.02494 99.3805 4.09683 101.402 4.24599 101.568L3.98911 102.016C2.93726 101.321 2.14017 100.303 1.71852 99.1153C1.42097 98.2908 1.31061 97.4105 1.39538 96.5381C1.47382 95.6919 1.73992 94.8738 2.17432 94.1433C2.8202 93.053 3.71102 92.1281 4.7763 91.4418L43.6159 66.3581L45.1821 65.3471L85.5465 39.2275Z" fill="#C6D0D6"/>
<path d="M85.5558 39.543L128.928 64.809C129.309 65.0328 130.519 65.994 130.527 66.4663C130.536 66.9387 131.124 67.527 130.909 67.7591C130.88 67.7766 130.855 67.799 130.834 67.8254L130.453 68.1237L128.191 65.936C128.066 66.0106 127.669 65.936 127.677 66.1017C127.685 66.2675 127.428 66.1763 127.553 66.2509L87.3208 42.8162H84.0062L45.9869 67.3779L44.802 68.1403L5.54797 93.4975C5.28132 93.6701 5.02915 93.8641 4.79391 94.0775C4.27807 94.5402 3.91168 95.146 3.74148 95.8177C3.54409 96.6007 3.62922 97.4282 3.98183 98.1546C4.05219 98.2955 4.13248 98.4312 4.22212 98.5606C4.28013 99.0081 3.77464 100.632 4.06468 100.955L3.80779 101.403C2.82388 100.646 2.12803 99.5762 1.83556 98.37C1.64075 97.5332 1.64075 96.6628 1.83556 95.826C2.0165 95.0143 2.38548 94.2565 2.91282 93.6135C3.16142 93.0251 5.11709 91.517 5.68059 91.1275L44.0561 66.3421L45.5975 65.3477L85.5558 39.543Z" fill="#CFD5DA"/>
<path d="M85.5632 39.8491L127.494 64.2699C127.684 64.3859 129.259 65.4301 129.267 65.6538C129.275 65.8775 130.27 66.5902 130.162 66.7062L130.087 66.7642L129.723 67.0543L127.237 65.1649C127.179 65.2063 126.649 64.9909 126.657 65.0572C126.665 65.1235 126.201 64.908 126.259 64.9412L86.4831 41.7385L83.243 42.7826L45.6049 67.104L44.4366 67.8581L5.58035 92.9584C5.50577 93.0081 4.85942 93.4473 4.8097 93.5053C4.2138 93.9602 3.76219 94.5777 3.50929 95.2835C3.2564 95.9892 3.213 96.7531 3.38437 97.4829C3.41982 97.6372 3.46411 97.7894 3.51698 97.9387C3.61642 98.6099 3.51699 99.828 3.98933 100.317L3.73239 100.764C2.81785 99.939 2.22979 98.8128 2.07506 97.5906C1.96969 96.7513 2.06631 95.899 2.35683 95.1046C2.64623 94.3278 3.12133 93.6337 3.74069 93.0827C4.65738 92.266 5.63533 91.5208 6.66591 90.8536L44.5774 66.3665L46.0939 65.3886L85.5632 39.8491Z" fill="#D7DBDD"/>
<path d="M3.60772 100.127C3.10297 99.5971 2.72138 98.9625 2.49015 98.2683C2.25892 97.5741 2.18376 96.8374 2.27004 96.1108C2.35631 95.3842 2.60189 94.6856 2.98925 94.0649C3.37662 93.4441 3.89618 92.9165 4.51094 92.5197L45.0411 66.3421L85.5711 40.1562L129.424 65.704L129.341 65.7538C129.219 65.8336 129.106 65.9252 129.002 66.0272L85.5877 40.7446L45.1819 66.8393L4.78441 92.934C4.24213 93.2856 3.78214 93.7501 3.4358 94.2958C3.08947 94.8414 2.86496 95.4554 2.77763 96.0958C2.69031 96.7361 2.74223 97.3878 2.92982 98.0063C3.11741 98.6247 3.43626 99.1954 3.8646 99.6794L3.60772 100.127Z" fill="#DFE0E0"/>
<path d="M123.126 73.8833H121.469V97.5169H123.126V73.8833Z" fill="url(#paint50_linear_7176_11672)"/>
<path d="M84.0783 80.9489L83.2549 82.3872L109.706 97.5295L110.529 96.0912L84.0783 80.9489Z" fill="#BECAD3"/>
<path d="M96.9819 21.4446C96.9543 21.7293 97.0008 22.0163 97.117 22.2776C97.2331 22.539 97.415 22.7659 97.6448 22.9362L145.923 49.901C146.346 50.1413 146.072 49.6027 146.752 49.2298C147.433 48.7859 148.001 48.1878 148.408 47.4838C148.816 46.7798 149.051 45.9897 149.097 45.1776C149.097 44.4401 149.784 44.4318 149.362 44.1832L101.001 17.2101C100.732 17.0954 100.439 17.052 100.148 17.0839C99.858 17.1159 99.5808 17.2221 99.3435 17.3924C98.6579 17.8334 98.0865 18.4305 97.676 19.1348C97.2655 19.8391 97.0276 20.6306 96.9819 21.4446Z" fill="url(#paint51_linear_7176_11672)"/>
<path d="M145.342 48.426C145.342 49.9176 146.395 50.5142 147.696 49.7684C148.377 49.3241 148.944 48.7259 149.351 48.022C149.759 47.3181 149.995 46.5282 150.041 45.7163C150.041 44.2247 148.988 43.628 147.696 44.3738C147.013 44.8172 146.444 45.4151 146.035 46.119C145.627 46.823 145.389 47.6133 145.342 48.426Z" fill="url(#paint52_linear_7176_11672)"/>
<path style="mix-blend-mode:screen" d="M147.581 44.3165C147.81 44.1499 148.078 44.0449 148.359 44.0115C148.641 43.9782 148.926 44.0175 149.188 44.1259C148.948 44.0735 148.7 44.0707 148.46 44.1177C148.219 44.1648 147.99 44.2606 147.788 44.3993C147.104 44.8413 146.534 45.4388 146.125 46.143C145.716 46.8473 145.479 47.6383 145.434 48.4515C145.4 48.7515 145.452 49.0549 145.584 49.3263C145.716 49.5978 145.923 49.8261 146.18 49.9845C145.608 49.8271 145.235 49.2553 145.235 48.3272C145.289 47.5227 145.529 46.7416 145.936 46.0456C146.343 45.3496 146.906 44.7576 147.581 44.3165Z" fill="url(#paint53_radial_7176_11672)"/>
<path d="M141.681 51.6246C141.314 51.6272 140.956 51.5079 140.664 51.2854C140.373 51.063 140.163 50.7499 140.068 50.3954C139.973 50.0409 139.999 49.6649 140.141 49.3265C140.282 48.9881 140.533 48.7063 140.852 48.5254L146.868 45.0699C147.057 44.961 147.265 44.8905 147.481 44.8622C147.697 44.8339 147.917 44.8484 148.127 44.905C148.338 44.9616 148.535 45.059 148.708 45.1918C148.881 45.3246 149.026 45.4901 149.135 45.6789C149.243 45.8677 149.314 46.0761 149.342 46.2922C149.371 46.5083 149.356 46.7278 149.299 46.9383C149.243 47.1487 149.145 47.346 149.013 47.5188C148.88 47.6916 148.714 47.8365 148.525 47.9453L142.501 51.4009C142.252 51.5455 141.969 51.6227 141.681 51.6246Z" fill="#BECAD3"/>
<path style="mix-blend-mode:color-dodge" d="M107.382 22.8371C106.669 24.0718 114.931 30.2123 125.844 36.5516C136.758 42.8909 146.172 47.0342 146.893 45.7995C147.613 44.5648 139.343 38.4326 128.43 32.0933C117.516 25.754 108.103 21.6107 107.382 22.8371Z" fill="url(#paint54_radial_7176_11672)"/>
<path d="M123.379 89.4541L45.2012 135.321L46.0398 136.75L124.218 90.8836L123.379 89.4541Z" fill="#BECAD3"/>
<path d="M46.2755 122.161H44.6182V152.573H46.2755V122.161Z" fill="url(#paint55_linear_7176_11672)"/>
<path d="M52.673 148.96H51.0156V119.062L52.673 118.233V148.96Z" fill="url(#paint56_linear_7176_11672)"/>
<path d="M59.0787 114.305H57.4214V145.339H59.0787V114.305Z" fill="url(#paint57_linear_7176_11672)"/>
<path d="M65.4845 110.377H63.8271V141.718H65.4845V110.377Z" fill="url(#paint58_linear_7176_11672)"/>
<path d="M71.8893 106.449H70.2319V138.096H71.8893V106.449Z" fill="url(#paint59_linear_7176_11672)"/>
<path d="M78.2862 102.53H76.6289V134.483H78.2862V102.53Z" fill="url(#paint60_linear_7176_11672)"/>
<path d="M84.692 98.6016H83.0347V130.87H84.692V98.6016Z" fill="url(#paint61_linear_7176_11672)"/>
<path d="M91.0983 94.6738H89.4409V127.249H91.0983V94.6738Z" fill="url(#paint62_linear_7176_11672)"/>
<path d="M97.504 90.7466H95.8467V123.628H97.504V90.7466Z" fill="url(#paint63_linear_7176_11672)"/>
<path d="M103.901 86.8184H102.244V120.006H103.901V86.8184Z" fill="url(#paint64_linear_7176_11672)"/>
<path d="M110.307 82.8984H108.649V116.393H110.307V82.8984Z" fill="url(#paint65_linear_7176_11672)"/>
<path d="M116.712 78.9702H115.055V112.78H116.712V78.9702Z" fill="url(#paint66_linear_7176_11672)"/>
<path d="M5.55479 101.808H3.89746V131.657H5.55479V101.808Z" fill="url(#paint67_linear_7176_11672)"/>
<path d="M10.5597 104.618H8.90234V134.466H10.5597V104.618Z" fill="url(#paint68_linear_7176_11672)"/>
<path d="M15.5743 107.427H13.917V137.276H15.5743V107.427Z" fill="url(#paint69_linear_7176_11672)"/>
<path d="M20.5792 110.236H18.9219V140.085H20.5792V110.236Z" fill="url(#paint70_linear_7176_11672)"/>
<path d="M25.5851 113.045H23.9277V142.894H25.5851V113.045Z" fill="url(#paint71_linear_7176_11672)"/>
<path d="M30.5885 115.854H28.9312V145.703H30.5885V115.854Z" fill="url(#paint72_linear_7176_11672)"/>
<path d="M35.6026 118.672H33.9453V148.52H35.6026V118.672Z" fill="url(#paint73_linear_7176_11672)"/>
<path d="M40.6085 121.481H38.9512V151.33H40.6085V121.481Z" fill="url(#paint74_linear_7176_11672)"/>
<path d="M44.5016 123.752C41.9769 123.74 39.4995 123.065 37.317 121.796L4.02122 102.621C3.07271 102.075 2.28079 101.295 1.72195 100.354C1.1631 99.4134 0.856179 98.3446 0.830818 97.2508C0.772811 95.0051 4.14549 96.0823 4.14549 97.1596C4.15433 97.6866 4.3004 98.2022 4.56923 98.6556C4.83805 99.109 5.22039 99.4845 5.67855 99.7451L38.9744 118.945C40.735 119.965 42.7433 120.479 44.7775 120.429C46.8116 120.379 48.7924 119.768 50.5011 118.664L130.128 67.3525C129.896 67.5016 131.835 65.8774 131.835 65.8774C132.207 66.0906 132.517 66.3963 132.736 66.765C132.955 67.1336 133.075 67.5527 133.084 67.9813C133.094 68.41 132.992 68.8338 132.789 69.2115C132.586 69.5892 132.289 69.9079 131.926 70.1368L52.3159 121.448C49.9883 122.954 47.2742 123.755 44.5016 123.752Z" fill="#BECAD3"/>
<path d="M44.4772 123.321C42.0159 123.319 39.5982 122.67 37.4667 121.439L4.17086 102.256C3.27111 101.744 2.51943 101.008 1.98928 100.119C1.45914 99.2303 1.16865 98.2191 1.1462 97.1844C1.09648 95.1873 3.73166 96.0408 3.75652 97.1181C3.76899 97.7049 3.93364 98.2784 4.23433 98.7824C4.53502 99.2865 4.96145 99.7038 5.47187 99.9935L38.7677 119.177C40.3114 120.073 42.0578 120.562 43.8424 120.597C45.627 120.631 47.3911 120.211 48.9686 119.376C49.5652 119.376 109.859 80.727 110.365 80.4287L130.36 67.2446C130.653 67.4163 130.899 67.6572 131.077 67.9462C131.254 68.2352 131.358 68.5634 131.38 68.902C131.4 69.2267 131.333 69.551 131.188 69.842C131.042 70.133 130.823 70.3805 130.551 70.5593L52.0761 121.108C49.8066 122.556 47.1696 123.324 44.4772 123.321Z" fill="#CBD4DB"/>
<path d="M44.4522 122.89C42.0526 122.887 39.6956 122.256 37.6157 121.059L4.32813 101.909C3.48184 101.427 2.77501 100.734 2.2768 99.8973C1.77859 99.0607 1.50606 98.109 1.48581 97.1355C1.43609 95.3787 3.35859 96.0002 3.39173 97.0858C3.40551 97.732 3.58592 98.3637 3.91547 98.9197C4.24502 99.4757 4.71257 99.9373 5.27282 100.26L38.5686 119.435C39.9015 120.212 41.3926 120.678 42.9307 120.799C44.4688 120.919 46.0143 120.691 47.4519 120.131C48.6452 120.131 89.6228 94.1274 90.6338 93.4728L128.935 68.6128C129.151 68.7385 129.336 68.9096 129.479 69.1142C129.622 69.3188 129.719 69.552 129.763 69.7978C129.778 70.0116 129.736 70.2255 129.643 70.4186C129.55 70.6117 129.409 70.7775 129.233 70.8999L51.8936 120.769C49.669 122.178 47.0851 122.914 44.4522 122.89Z" fill="#D8DEE3"/>
<path d="M44.4274 122.459C42.0993 122.451 39.8137 121.834 37.7981 120.669L4.47736 101.494C3.68342 101.04 3.02038 100.389 2.55278 99.6034C2.08518 98.8178 1.82899 97.9245 1.80908 97.0105C1.80908 95.5023 2.98575 95.9001 3.01061 97.0105C3.02497 97.7182 3.22267 98.4102 3.58431 99.0187C3.94596 99.6273 4.45924 100.132 5.07403 100.483L38.3699 119.666C40.6547 120.985 43.3495 121.405 45.9273 120.843C47.7255 120.843 69.3786 107.501 70.895 106.524L127.501 69.9131C127.76 70.09 127.96 70.3414 128.073 70.634C128.088 70.7418 128.076 70.8516 128.037 70.9532C127.997 71.0547 127.933 71.1445 127.849 71.2141L51.6119 120.354C49.469 121.731 46.9747 122.462 44.4274 122.459Z" fill="#E4E8EA"/>
<path d="M44.4026 122.029C42.1272 122.028 39.892 121.428 37.9225 120.288L4.62663 101.08C3.89415 100.658 3.28149 100.056 2.84649 99.3306C2.41149 98.6056 2.16853 97.7817 2.14062 96.9367C2.14062 95.6688 2.613 95.8345 2.63786 96.9367C2.65441 97.7056 2.86997 98.4572 3.26355 99.118C3.65713 99.7788 4.21526 100.326 4.88351 100.707L38.1462 119.858C40.13 121.006 42.3928 121.584 44.6844 121.527C46.976 121.47 49.2073 120.78 51.1314 119.534L126.035 71.2231C126.146 71.318 126.266 71.4039 126.391 71.48L126.474 71.5297L51.4049 119.949C49.3199 121.302 46.8883 122.024 44.4026 122.029Z" fill="#F1F2F2"/>
<path d="M43.8969 153.517C41.2826 153.521 38.7124 152.844 36.4389 151.554L4.35291 133.215C3.9705 132.995 3.69109 132.633 3.57609 132.207C3.46109 131.781 3.51993 131.327 3.73971 130.945C3.95948 130.562 4.32216 130.283 4.74797 130.168C5.17378 130.053 5.62783 130.112 6.01024 130.331L38.1045 148.67C39.873 149.674 41.8717 150.201 43.9052 150.201C45.9387 150.201 47.9374 149.674 49.7059 148.67L114.905 111.446L133.774 57.0772C135.033 53.4641 137.551 50.4253 140.867 48.5171L146.884 45.0616C147.072 44.9527 147.281 44.8822 147.497 44.8539C147.713 44.8256 147.933 44.8402 148.143 44.8967C148.353 44.9533 148.551 45.0507 148.724 45.1835C148.896 45.3163 149.041 45.4818 149.15 45.6706C149.259 45.8594 149.329 46.0678 149.358 46.2839C149.386 46.5 149.371 46.7195 149.315 46.93C149.258 47.1404 149.161 47.3377 149.028 47.5105C148.895 47.6833 148.73 47.8282 148.541 47.937L142.516 51.3926C139.892 52.8998 137.9 55.3039 136.907 58.1628L127.269 85.9397L117.623 113.708L51.33 151.545C49.0657 152.837 46.5039 153.517 43.8969 153.517Z" fill="#BECAD3"/>
<path d="M148.839 45.7497C148.903 45.8632 148.935 45.9923 148.93 46.1226C149.079 46.6529 148.4 47.5065 147.894 47.7799L143.61 50.2659C143.469 50.3488 142.06 51.1692 141.953 51.2686C139.591 52.7276 137.768 54.9146 136.757 57.5002L136.533 58.1051L126.962 85.6749L117.341 113.385L51.1806 151.156C49.0828 152.348 46.7229 153.003 44.3109 153.062H43.7889C41.5553 153.043 39.3556 152.513 37.3584 151.512C37.1098 151.396 36.654 151.148 36.422 151.015L4.55153 132.785C4.44404 132.718 4.35332 132.627 4.28635 132.519C4.0982 132.314 3.98068 132.053 3.95087 131.776C3.92106 131.499 3.98051 131.219 4.12061 130.978L4.20345 130.895C4.56807 130.365 5.80282 130.497 6.36631 130.821L37.9385 148.861C39.7614 149.89 41.8196 150.431 43.9132 150.431C46.0068 150.431 48.0649 149.89 49.8879 148.861L114.864 111.77L115.576 110.477L125.214 82.7331L133.882 57.7571C134.201 56.8398 134.583 55.9456 135.025 55.0805C136.305 52.5864 138.238 50.4869 140.619 49.0064C140.751 48.8986 142.276 48.0202 142.408 47.9291L146.602 45.526C147.107 45.2359 148.193 45.0702 148.582 45.4679C148.615 45.4823 148.646 45.5019 148.673 45.526C148.739 45.5918 148.795 45.6672 148.839 45.7497Z" fill="#C6D0D6"/>
<path d="M148.533 45.8236C148.559 45.8794 148.572 45.9403 148.572 46.0018C148.572 46.0633 148.559 46.1242 148.533 46.18C148.632 46.5363 147.563 47.4561 147.223 47.655L142.972 50.0996C142.699 50.257 141.58 50.9282 141.315 51.1188C139.04 52.6507 137.302 54.8557 136.343 57.425C136.343 57.5244 136.161 57.9139 136.127 58.0216L126.631 85.3676L117.027 113.012L50.9819 150.716C48.8989 151.903 46.5508 152.547 44.1537 152.589H43.6317C41.4106 152.536 39.2321 151.969 37.2675 150.932C37.1101 150.857 36.5051 150.517 36.3477 150.426L4.7009 132.345C4.64697 132.315 4.60039 132.273 4.56455 132.223C4.52871 132.173 4.50451 132.115 4.49374 132.055C4.38467 131.898 4.32617 131.711 4.32617 131.52C4.32617 131.329 4.38467 131.143 4.49374 130.986C4.51844 130.962 4.55063 130.947 4.58488 130.944C4.82519 130.588 6.34167 131.069 6.72285 131.284L37.773 149.026C39.7555 150.169 42.0152 150.742 44.3029 150.683C46.3438 150.62 48.337 150.05 50.1035 149.026L114.856 112.067L115.784 110.949L125.38 83.3042L134.023 58.4442C134.18 57.9719 134.851 56.1654 135.1 55.7428C136.257 53.2083 138.093 51.0432 140.403 49.4863C140.677 49.2709 141.87 48.5582 142.168 48.3842L146.312 45.9811C146.643 45.7905 147.969 45.3181 148.251 45.5833H148.359C148.438 45.6459 148.498 45.729 148.533 45.8236Z" fill="#CFD5DA"/>
<path d="M148.227 45.8986C148.263 45.9493 148.283 46.0102 148.283 46.0726C148.283 46.135 148.263 46.1959 148.227 46.2466C148.276 46.4206 146.826 47.4068 146.661 47.5062L142.443 49.9342C142.02 50.1745 141.2 50.68 140.785 50.97C138.571 52.5653 136.89 54.7922 135.962 57.359C135.962 57.4088 135.772 57.8894 135.755 57.9474L126.325 85.1028L116.754 112.681L50.8169 150.319C48.7462 151.493 46.4105 152.121 44.0301 152.142H43.5164C41.3091 152.086 39.1471 151.503 37.2102 150.443C37.1357 150.443 36.3816 149.987 36.307 149.938L4.88393 131.989C4.82938 131.956 4.78593 131.908 4.75931 131.85C4.73269 131.793 4.72414 131.728 4.73478 131.666C4.69724 131.567 4.68588 131.46 4.70185 131.355C4.71783 131.251 4.76057 131.152 4.82592 131.069H4.93365C5.05795 130.895 6.85619 131.724 7.0385 131.831L37.5749 149.233C39.502 150.329 41.6808 150.905 43.8976 150.905C46.1144 150.905 48.2931 150.329 50.2203 149.233L114.749 112.399L115.892 111.454L125.447 83.9095L134.065 59.1075C134.139 58.8755 134.951 56.6215 135.076 56.3978C136.108 53.8183 137.849 51.5833 140.098 49.9508C140.657 49.5436 141.238 49.1674 141.838 48.8238L145.981 46.4289C146.147 46.3378 147.763 45.5588 147.895 45.6914C147.931 45.6833 147.967 45.6833 148.003 45.6914C148.052 45.7091 148.098 45.7366 148.136 45.7722C148.174 45.8078 148.205 45.8508 148.227 45.8986Z" fill="#D7DBDD"/>
<path d="M43.8975 151.695C41.5324 151.698 39.2073 151.084 37.1522 149.913L5.05794 131.574C5.00977 131.547 4.97227 131.504 4.95137 131.452C4.93048 131.401 4.92741 131.344 4.94267 131.291C4.95793 131.237 4.99061 131.19 5.03553 131.158C5.08046 131.125 5.135 131.108 5.1905 131.11C5.22838 131.099 5.26865 131.099 5.30653 131.11L37.3925 149.449C39.3747 150.573 41.6146 151.164 43.8934 151.164C46.1723 151.164 48.4122 150.573 50.3943 149.449L116.041 112.001L125.571 84.5642L135.101 57.1602C136.244 53.8712 138.536 51.1053 141.556 49.3707L147.58 45.9069C147.621 45.8956 147.664 45.8956 147.705 45.9069C147.748 45.9069 147.791 45.9184 147.829 45.9402C147.867 45.962 147.898 45.9934 147.92 46.0312C147.936 46.0595 147.947 46.0907 147.951 46.1231C147.956 46.1555 147.953 46.1884 147.945 46.22C147.936 46.2515 147.922 46.2811 147.902 46.307C147.882 46.3329 147.857 46.3547 147.829 46.371L141.805 49.8348C138.889 51.5101 136.676 54.1821 135.573 57.3591L125.985 84.8211L116.431 112.341L50.6097 149.913C48.564 151.077 46.2513 151.691 43.8975 151.695Z" fill="#DFE0E0"/>
<path d="M44.5016 124.58C42.5112 124.58 40.5403 124.189 38.7009 123.429C38.4655 123.334 38.2532 123.19 38.0782 123.007C37.9031 122.823 37.7694 122.605 37.6862 122.365C37.6029 122.125 37.572 121.871 37.5955 121.618C37.6191 121.366 37.6965 121.121 37.8225 120.901L38.5601 119.617C38.7767 119.253 39.1173 118.98 39.5193 118.848C39.9212 118.715 40.3574 118.732 40.7477 118.896C42.0249 119.402 43.3916 119.643 44.7649 119.605C46.1381 119.566 47.4893 119.249 48.7361 118.672C49.122 118.507 49.5542 118.484 49.9551 118.609C50.3561 118.733 50.6995 118.997 50.9238 119.352L51.6944 120.561C51.8315 120.774 51.9214 121.013 51.9579 121.264C51.9944 121.514 51.9766 121.769 51.9059 122.012C51.8352 122.255 51.7131 122.48 51.5479 122.671C51.3828 122.863 51.1784 123.016 50.9486 123.122C48.9343 124.08 46.7321 124.578 44.5016 124.58Z" fill="url(#paint75_radial_7176_11672)"/>
<path style="mix-blend-mode:color-dodge" d="M44.4351 122.094C42.669 122.093 40.9203 121.744 39.2891 121.066C39.2701 121.059 39.2529 121.048 39.2386 121.034C39.2243 121.02 39.2133 121.003 39.2063 120.984C39.1997 120.971 39.1963 120.957 39.1963 120.942C39.1963 120.928 39.1997 120.914 39.2063 120.901L39.9437 119.616H40.0929C41.5766 120.204 43.1644 120.485 44.7598 120.44C46.3552 120.396 47.925 120.028 49.374 119.359C49.3951 119.363 49.4151 119.372 49.4324 119.385C49.4496 119.398 49.4636 119.415 49.4734 119.434L50.2523 120.636C50.2583 120.649 50.2614 120.663 50.2614 120.677C50.2614 120.691 50.2583 120.705 50.2523 120.718C50.2391 120.755 50.2124 120.784 50.1778 120.801C48.3831 121.653 46.4215 122.094 44.4351 122.094Z" fill="url(#paint76_radial_7176_11672)"/>
<g style="mix-blend-mode:darken">
<path d="M50.9748 122.228C49.0669 123.128 46.9922 123.62 44.8833 123.673C42.7744 123.726 40.6776 123.338 38.7271 122.534C38.4702 122.429 38.2417 122.264 38.0603 122.054C37.8789 121.844 37.7496 121.594 37.683 121.324C37.5614 121.746 37.601 122.197 37.794 122.591C37.987 122.984 38.3196 123.292 38.7271 123.454C40.6763 124.263 42.7737 124.654 44.8835 124.601C46.9933 124.548 49.0685 124.053 50.9748 123.147C51.3486 122.972 51.6498 122.671 51.8266 122.298C52.0035 121.924 52.0451 121.501 51.9443 121.101C51.8734 121.347 51.75 121.576 51.5827 121.77C51.4154 121.965 51.208 122.121 50.9748 122.228Z" fill="#17BF93"/>
</g>
<path d="M4.43638 101.908C4.32938 102.1 4.18012 102.265 3.9999 102.391C3.81967 102.517 3.61317 102.6 3.39605 102.635C3.17893 102.669 2.95689 102.653 2.74663 102.589C2.53637 102.525 2.3434 102.414 2.18238 102.264C0.832914 100.949 0.0508237 99.1582 0.00283413 97.2742C-0.0451555 95.3902 0.644756 93.562 1.9255 92.1795C2.07998 92.0235 2.26771 91.9043 2.47467 91.8309C2.68164 91.7575 2.90252 91.7318 3.1208 91.7557C3.33909 91.7796 3.54914 91.8525 3.73533 91.9689C3.92151 92.0854 4.07904 92.2423 4.19609 92.4281L5.36449 94.2346C5.51598 94.4866 5.59185 94.7767 5.58303 95.0706C5.57422 95.3644 5.48109 95.6496 5.31477 95.892C5.07671 96.2647 4.95814 96.7013 4.97499 97.1432C4.98417 97.5861 5.12562 98.0161 5.38108 98.378C5.56024 98.6122 5.66801 98.8931 5.69152 99.1871C5.71504 99.4811 5.65329 99.7756 5.51364 100.035L4.43638 101.908Z" fill="url(#paint77_radial_7176_11672)"/>
<path style="mix-blend-mode:color-dodge" d="M3.91431 100.682C2.85802 99.8438 2.14207 98.6509 1.8997 97.3247C1.65732 95.9985 1.90501 94.6294 2.59671 93.4722L3.77345 94.7897C3.48103 95.4972 3.3976 96.2737 3.53311 97.0271C3.66882 97.7787 4.02343 98.4734 4.5524 99.0242L3.91431 100.682Z" fill="url(#paint78_radial_7176_11672)"/>
<g style="mix-blend-mode:darken">
<path d="M2.73749 101.527C1.56174 100.379 0.811318 98.8649 0.609532 97.2341C0.407746 95.6032 0.766567 93.9522 1.62706 92.5522C0.485623 93.9493 -0.0905796 95.7234 0.0122084 97.5245C0.114996 99.3256 0.88929 101.023 2.18225 102.281C2.34327 102.43 2.53624 102.542 2.7465 102.606C2.95675 102.67 3.17879 102.685 3.39591 102.651C3.61304 102.617 3.81954 102.533 3.99976 102.408C4.17999 102.282 4.32925 102.116 4.43625 101.924L4.65171 101.56C4.38464 101.791 4.04154 101.916 3.68825 101.91C3.33497 101.904 2.99639 101.767 2.73749 101.527Z" fill="#17BF93"/>
</g>
<path style="mix-blend-mode:color-dodge" d="M32.768 117.877C32.2625 119.103 35.1132 121.44 39.1322 123.089C43.1512 124.738 46.8139 125.086 47.3194 123.86C47.8249 122.633 44.9826 120.296 40.9636 118.639C36.9445 116.982 33.2735 116.65 32.768 117.877Z" fill="url(#paint79_radial_7176_11672)"/>
<rect x="51.4326" y="64.7583" width="30.1715" height="64.7583" rx="5" transform="rotate(-180 51.4326 64.7583)" fill="url(#paint80_linear_7176_11672)"/>
<path d="M40.8056 89.7384C38.8107 92.0578 35.2192 92.0578 33.2243 89.7384L12.0643 65.1377C9.27607 61.896 11.5792 56.8772 15.855 56.8772L58.1749 56.8772C62.4508 56.8772 64.7539 61.896 61.9656 65.1377L40.8056 89.7384Z" fill="#00ADF6"/>
<defs>
<linearGradient id="paint0_linear_7176_11672" x1="74.0361" y1="59.9193" x2="75.6935" y2="59.9193" gradientUnits="userSpaceOnUse">
<stop offset="0.03" stop-color="#BECAD3"/>
<stop offset="0.32" stop-color="#E4E5E7"/>
<stop offset="0.33" stop-color="#E6E7E8"/>
<stop offset="0.41" stop-color="#DCE0E3"/>
<stop offset="0.58" stop-color="#CBD3DA"/>
<stop offset="0.77" stop-color="#C1CCD5"/>
<stop offset="1" stop-color="#BECAD3"/>
</linearGradient>
<linearGradient id="paint1_linear_7176_11672" x1="3.23461" y1="3562.37" x2="6.54928" y2="3562.37" gradientUnits="userSpaceOnUse">
<stop offset="0.03" stop-color="#BECAD3"/>
<stop offset="0.32" stop-color="#E4E5E7"/>
<stop offset="0.33" stop-color="#E6E7E8"/>
<stop offset="0.41" stop-color="#DCE0E3"/>
<stop offset="0.58" stop-color="#CBD3DA"/>
<stop offset="0.77" stop-color="#C1CCD5"/>
<stop offset="1" stop-color="#BECAD3"/>
</linearGradient>
<linearGradient id="paint2_linear_7176_11672" x1="21.5322" y1="3452.63" x2="24.8469" y2="3452.63" gradientUnits="userSpaceOnUse">
<stop offset="0.03" stop-color="#BECAD3"/>
<stop offset="0.32" stop-color="#E4E5E7"/>
<stop offset="0.33" stop-color="#E6E7E8"/>
<stop offset="0.41" stop-color="#DCE0E3"/>
<stop offset="0.58" stop-color="#CBD3DA"/>
<stop offset="0.77" stop-color="#C1CCD5"/>
<stop offset="1" stop-color="#BECAD3"/>
</linearGradient>
<linearGradient id="paint3_linear_7176_11672" x1="39.8293" y1="3339.13" x2="43.144" y2="3339.13" gradientUnits="userSpaceOnUse">
<stop offset="0.03" stop-color="#BECAD3"/>
<stop offset="0.32" stop-color="#E4E5E7"/>
<stop offset="0.33" stop-color="#E6E7E8"/>
<stop offset="0.41" stop-color="#DCE0E3"/>
<stop offset="0.58" stop-color="#CBD3DA"/>
<stop offset="0.77" stop-color="#C1CCD5"/>
<stop offset="1" stop-color="#BECAD3"/>
</linearGradient>
<linearGradient id="paint4_linear_7176_11672" x1="58.1254" y1="3223.11" x2="61.4401" y2="3223.11" gradientUnits="userSpaceOnUse">
<stop offset="0.03" stop-color="#BECAD3"/>
<stop offset="0.32" stop-color="#E4E5E7"/>
<stop offset="0.33" stop-color="#E6E7E8"/>
<stop offset="0.41" stop-color="#DCE0E3"/>
<stop offset="0.58" stop-color="#CBD3DA"/>
<stop offset="0.77" stop-color="#C1CCD5"/>
<stop offset="1" stop-color="#BECAD3"/>
</linearGradient>
<linearGradient id="paint5_linear_7176_11672" x1="76.4479" y1="3103.95" x2="79.7625" y2="3103.95" gradientUnits="userSpaceOnUse">
<stop offset="0.03" stop-color="#BECAD3"/>
<stop offset="0.32" stop-color="#E4E5E7"/>
<stop offset="0.33" stop-color="#E6E7E8"/>
<stop offset="0.41" stop-color="#DCE0E3"/>
<stop offset="0.58" stop-color="#CBD3DA"/>
<stop offset="0.77" stop-color="#C1CCD5"/>
<stop offset="1" stop-color="#BECAD3"/>
</linearGradient>
<linearGradient id="paint6_linear_7176_11672" x1="94.7181" y1="2981.97" x2="98.0328" y2="2981.97" gradientUnits="userSpaceOnUse">
<stop offset="0.03" stop-color="#BECAD3"/>
<stop offset="0.32" stop-color="#E4E5E7"/>
<stop offset="0.33" stop-color="#E6E7E8"/>
<stop offset="0.41" stop-color="#DCE0E3"/>
<stop offset="0.58" stop-color="#CBD3DA"/>
<stop offset="0.77" stop-color="#C1CCD5"/>
<stop offset="1" stop-color="#BECAD3"/>
</linearGradient>
<linearGradient id="paint7_linear_7176_11672" x1="113.016" y1="2857.87" x2="116.33" y2="2857.87" gradientUnits="userSpaceOnUse">
<stop offset="0.03" stop-color="#BECAD3"/>
<stop offset="0.32" stop-color="#E4E5E7"/>
<stop offset="0.33" stop-color="#E6E7E8"/>
<stop offset="0.41" stop-color="#DCE0E3"/>
<stop offset="0.58" stop-color="#CBD3DA"/>
<stop offset="0.77" stop-color="#C1CCD5"/>
<stop offset="1" stop-color="#BECAD3"/>
</linearGradient>
<linearGradient id="paint8_linear_7176_11672" x1="131.338" y1="2730.19" x2="134.653" y2="2730.19" gradientUnits="userSpaceOnUse">
<stop offset="0.03" stop-color="#BECAD3"/>
<stop offset="0.32" stop-color="#E4E5E7"/>
<stop offset="0.33" stop-color="#E6E7E8"/>
<stop offset="0.41" stop-color="#DCE0E3"/>
<stop offset="0.58" stop-color="#CBD3DA"/>
<stop offset="0.77" stop-color="#C1CCD5"/>
<stop offset="1" stop-color="#BECAD3"/>
</linearGradient>
<linearGradient id="paint9_linear_7176_11672" x1="149.635" y1="2600.02" x2="152.95" y2="2600.02" gradientUnits="userSpaceOnUse">
<stop offset="0.03" stop-color="#BECAD3"/>
<stop offset="0.32" stop-color="#E4E5E7"/>
<stop offset="0.33" stop-color="#E6E7E8"/>
<stop offset="0.41" stop-color="#DCE0E3"/>
<stop offset="0.58" stop-color="#CBD3DA"/>
<stop offset="0.77" stop-color="#C1CCD5"/>
<stop offset="1" stop-color="#BECAD3"/>
</linearGradient>
<linearGradient id="paint10_linear_7176_11672" x1="167.932" y1="2466.69" x2="171.247" y2="2466.69" gradientUnits="userSpaceOnUse">
<stop offset="0.03" stop-color="#BECAD3"/>
<stop offset="0.32" stop-color="#E4E5E7"/>
<stop offset="0.33" stop-color="#E6E7E8"/>
<stop offset="0.41" stop-color="#DCE0E3"/>
<stop offset="0.58" stop-color="#CBD3DA"/>
<stop offset="0.77" stop-color="#C1CCD5"/>
<stop offset="1" stop-color="#BECAD3"/>
</linearGradient>
<linearGradient id="paint11_linear_7176_11672" x1="186.229" y1="2330.54" x2="189.544" y2="2330.54" gradientUnits="userSpaceOnUse">
<stop offset="0.03" stop-color="#BECAD3"/>
<stop offset="0.32" stop-color="#E4E5E7"/>
<stop offset="0.33" stop-color="#E6E7E8"/>
<stop offset="0.41" stop-color="#DCE0E3"/>
<stop offset="0.58" stop-color="#CBD3DA"/>
<stop offset="0.77" stop-color="#C1CCD5"/>
<stop offset="1" stop-color="#BECAD3"/>
</linearGradient>
<linearGradient id="paint12_linear_7176_11672" x1="204.527" y1="2192.08" x2="207.842" y2="2192.08" gradientUnits="userSpaceOnUse">
<stop offset="0.03" stop-color="#BECAD3"/>
<stop offset="0.32" stop-color="#E4E5E7"/>
<stop offset="0.33" stop-color="#E6E7E8"/>
<stop offset="0.41" stop-color="#DCE0E3"/>
<stop offset="0.58" stop-color="#CBD3DA"/>
<stop offset="0.77" stop-color="#C1CCD5"/>
<stop offset="1" stop-color="#BECAD3"/>
</linearGradient>
<linearGradient id="paint13_linear_7176_11672" x1="-827.545" y1="3560.3" x2="-952.382" y2="3381.42" gradientUnits="userSpaceOnUse">
<stop stop-color="#1E1F21"/>
<stop offset="0.08" stop-color="#2C2E30"/>
<stop offset="0.22" stop-color="#515359"/>
<stop offset="0.27" stop-color="#5D6066"/>
<stop offset="0.61" stop-color="#37383C"/>
</linearGradient>
<linearGradient id="paint14_linear_7176_11672" x1="-817.536" y1="3164.78" x2="-704.487" y2="3164.78" gradientUnits="userSpaceOnUse">
<stop stop-color="#484B4F"/>
<stop offset="1" stop-color="#1E1F21"/>
</linearGradient>
<linearGradient id="paint15_linear_7176_11672" x1="-234.868" y1="1030.53" x2="-269.372" y2="1030.44" gradientUnits="userSpaceOnUse">
<stop stop-color="#D4D1D8"/>
<stop offset="1" stop-color="#BECAD3"/>
</linearGradient>
<radialGradient id="paint16_radial_7176_11672" cx="0" cy="0" r="1" gradientUnits="userSpaceOnUse" gradientTransform="translate(-622.392 3136.04) scale(51.4524 77.7643)">
<stop stop-color="white"/>
<stop offset="1"/>
</radialGradient>
<linearGradient id="paint17_linear_7176_11672" x1="53.0703" y1="137.094" x2="64.5225" y2="137.094" gradientUnits="userSpaceOnUse">
<stop offset="0.03" stop-color="#00ADF6"/>
<stop offset="1" stop-color="#00ADF6"/>
</linearGradient>
<linearGradient id="paint18_linear_7176_11672" x1="-201.637" y1="4063.02" x2="-326.476" y2="3884.15" gradientUnits="userSpaceOnUse">
<stop stop-color="#1E1F21"/>
<stop offset="0.08" stop-color="#2C2E30"/>
<stop offset="0.22" stop-color="#515359"/>
<stop offset="0.27" stop-color="#5D6066"/>
<stop offset="0.61" stop-color="#37383C"/>
</linearGradient>
<linearGradient id="paint19_linear_7176_11672" x1="-292.353" y1="3623.42" x2="-179.304" y2="3623.42" gradientUnits="userSpaceOnUse">
<stop stop-color="#484B4F"/>
<stop offset="1" stop-color="#1E1F21"/>
</linearGradient>
<linearGradient id="paint20_linear_7176_11672" x1="-114.69" y1="1781.23" x2="-90.1222" y2="1781.23" gradientUnits="userSpaceOnUse">
<stop stop-color="#D4D1D8"/>
<stop offset="1" stop-color="#BECAD3"/>
</linearGradient>
<radialGradient id="paint21_radial_7176_11672" cx="0" cy="0" r="1" gradientUnits="userSpaceOnUse" gradientTransform="translate(-187.7 3589.67) scale(51.4521 77.7642)">
<stop stop-color="white"/>
<stop offset="1"/>
</radialGradient>
<linearGradient id="paint22_linear_7176_11672" x1="57.7227" y1="2369.26" x2="215.992" y2="2369.26" gradientUnits="userSpaceOnUse">
<stop offset="0.03" stop-color="#00ADF6"/>
<stop offset="1" stop-color="#00ADF6"/>
</linearGradient>
<linearGradient id="paint23_linear_7176_11672" x1="1691.49" y1="13424.6" x2="1685.57" y2="13425" gradientUnits="userSpaceOnUse">
<stop offset="0.03" stop-color="#BECAD3"/>
<stop offset="0.32" stop-color="#E4E5E7"/>
<stop offset="0.33" stop-color="#E6E7E8"/>
<stop offset="0.41" stop-color="#DCE0E3"/>
<stop offset="0.58" stop-color="#CBD3DA"/>
<stop offset="0.77" stop-color="#C1CCD5"/>
<stop offset="1" stop-color="#BECAD3"/>
</linearGradient>
<linearGradient id="paint24_linear_7176_11672" x1="1711.18" y1="13696" x2="1704.46" y2="13696.4" gradientUnits="userSpaceOnUse">
<stop offset="0.03" stop-color="#BECAD3"/>
<stop offset="0.32" stop-color="#E4E5E7"/>
<stop offset="0.33" stop-color="#E6E7E8"/>
<stop offset="0.41" stop-color="#DCE0E3"/>
<stop offset="0.58" stop-color="#CBD3DA"/>
<stop offset="0.77" stop-color="#C1CCD5"/>
<stop offset="1" stop-color="#BECAD3"/>
</linearGradient>
<linearGradient id="paint25_linear_7176_11672" x1="1693.67" y1="13931.6" x2="1686.97" y2="13932" gradientUnits="userSpaceOnUse">
<stop offset="0.03" stop-color="#BECAD3"/>
<stop offset="0.32" stop-color="#E4E5E7"/>
<stop offset="0.33" stop-color="#E6E7E8"/>
<stop offset="0.41" stop-color="#DCE0E3"/>
<stop offset="0.58" stop-color="#CBD3DA"/>
<stop offset="0.77" stop-color="#C1CCD5"/>
<stop offset="1" stop-color="#BECAD3"/>
</linearGradient>
<linearGradient id="paint26_linear_7176_11672" x1="1637.43" y1="14125.6" x2="1630.69" y2="14125.9" gradientUnits="userSpaceOnUse">
<stop offset="0.03" stop-color="#BECAD3"/>
<stop offset="0.32" stop-color="#E4E5E7"/>
<stop offset="0.33" stop-color="#E6E7E8"/>
<stop offset="0.41" stop-color="#DCE0E3"/>
<stop offset="0.58" stop-color="#CBD3DA"/>
<stop offset="0.77" stop-color="#C1CCD5"/>
<stop offset="1" stop-color="#BECAD3"/>
</linearGradient>
<linearGradient id="paint27_linear_7176_11672" x1="1658.64" y1="14402.2" x2="1651.91" y2="14402.6" gradientUnits="userSpaceOnUse">
<stop offset="0.03" stop-color="#BECAD3"/>
<stop offset="0.32" stop-color="#E4E5E7"/>
<stop offset="0.33" stop-color="#E6E7E8"/>
<stop offset="0.41" stop-color="#DCE0E3"/>
<stop offset="0.58" stop-color="#CBD3DA"/>
<stop offset="0.77" stop-color="#C1CCD5"/>
<stop offset="1" stop-color="#BECAD3"/>
</linearGradient>
<linearGradient id="paint28_linear_7176_11672" x1="1601.35" y1="14595" x2="1594.67" y2="14595.4" gradientUnits="userSpaceOnUse">
<stop offset="0.03" stop-color="#BECAD3"/>
<stop offset="0.32" stop-color="#E4E5E7"/>
<stop offset="0.33" stop-color="#E6E7E8"/>
<stop offset="0.41" stop-color="#DCE0E3"/>
<stop offset="0.58" stop-color="#CBD3DA"/>
<stop offset="0.77" stop-color="#C1CCD5"/>
<stop offset="1" stop-color="#BECAD3"/>
</linearGradient>
<linearGradient id="paint29_linear_7176_11672" x1="1583.32" y1="14829.2" x2="1576.62" y2="14829.5" gradientUnits="userSpaceOnUse">
<stop offset="0.03" stop-color="#BECAD3"/>
<stop offset="0.32" stop-color="#E4E5E7"/>
<stop offset="0.33" stop-color="#E6E7E8"/>
<stop offset="0.41" stop-color="#DCE0E3"/>
<stop offset="0.58" stop-color="#CBD3DA"/>
<stop offset="0.77" stop-color="#C1CCD5"/>
<stop offset="1" stop-color="#BECAD3"/>
</linearGradient>
<linearGradient id="paint30_linear_7176_11672" x1="1565.3" y1="15063.9" x2="1558.62" y2="15064.3" gradientUnits="userSpaceOnUse">
<stop offset="0.03" stop-color="#BECAD3"/>
<stop offset="0.32" stop-color="#E4E5E7"/>
<stop offset="0.33" stop-color="#E6E7E8"/>
<stop offset="0.41" stop-color="#DCE0E3"/>
<stop offset="0.58" stop-color="#CBD3DA"/>
<stop offset="0.77" stop-color="#C1CCD5"/>
<stop offset="1" stop-color="#BECAD3"/>
</linearGradient>
<linearGradient id="paint31_linear_7176_11672" x1="1547.26" y1="15298.1" x2="1540.52" y2="15298.5" gradientUnits="userSpaceOnUse">
<stop offset="0.03" stop-color="#BECAD3"/>
<stop offset="0.32" stop-color="#E4E5E7"/>
<stop offset="0.33" stop-color="#E6E7E8"/>
<stop offset="0.41" stop-color="#DCE0E3"/>
<stop offset="0.58" stop-color="#CBD3DA"/>
<stop offset="0.77" stop-color="#C1CCD5"/>
<stop offset="1" stop-color="#BECAD3"/>
</linearGradient>
<linearGradient id="paint32_linear_7176_11672" x1="45989.3" y1="316.964" x2="45990.4" y2="327.725" gradientUnits="userSpaceOnUse">
<stop offset="0.03" stop-color="#BECAD3"/>
<stop offset="0.32" stop-color="#E4E5E7"/>
<stop offset="0.33" stop-color="#E6E7E8"/>
<stop offset="0.41" stop-color="#DCE0E3"/>
<stop offset="0.58" stop-color="#CBD3DA"/>
<stop offset="0.77" stop-color="#C1CCD5"/>
<stop offset="1" stop-color="#BECAD3"/>
</linearGradient>
<linearGradient id="paint33_linear_7176_11672" x1="46289.2" y1="325.873" x2="46290.3" y2="336.842" gradientUnits="userSpaceOnUse">
<stop offset="0.03" stop-color="#BECAD3"/>
<stop offset="0.32" stop-color="#E4E5E7"/>
<stop offset="0.33" stop-color="#E6E7E8"/>
<stop offset="0.41" stop-color="#DCE0E3"/>
<stop offset="0.58" stop-color="#CBD3DA"/>
<stop offset="0.77" stop-color="#C1CCD5"/>
<stop offset="1" stop-color="#BECAD3"/>
</linearGradient>
<linearGradient id="paint34_linear_7176_11672" x1="46598.6" y1="334.78" x2="46599.7" y2="345.655" gradientUnits="userSpaceOnUse">
<stop offset="0.03" stop-color="#BECAD3"/>
<stop offset="0.32" stop-color="#E4E5E7"/>
<stop offset="0.33" stop-color="#E6E7E8"/>
<stop offset="0.41" stop-color="#DCE0E3"/>
<stop offset="0.58" stop-color="#CBD3DA"/>
<stop offset="0.77" stop-color="#C1CCD5"/>
<stop offset="1" stop-color="#BECAD3"/>
</linearGradient>
<linearGradient id="paint35_linear_7176_11672" x1="46899.5" y1="343.704" x2="46900.6" y2="354.673" gradientUnits="userSpaceOnUse">
<stop offset="0.03" stop-color="#BECAD3"/>
<stop offset="0.32" stop-color="#E4E5E7"/>
<stop offset="0.33" stop-color="#E6E7E8"/>
<stop offset="0.41" stop-color="#DCE0E3"/>
<stop offset="0.58" stop-color="#CBD3DA"/>
<stop offset="0.77" stop-color="#C1CCD5"/>
<stop offset="1" stop-color="#BECAD3"/>
</linearGradient>
<linearGradient id="paint36_linear_7176_11672" x1="47200.8" y1="352.63" x2="47201.9" y2="363.599" gradientUnits="userSpaceOnUse">
<stop offset="0.03" stop-color="#BECAD3"/>
<stop offset="0.32" stop-color="#E4E5E7"/>
<stop offset="0.33" stop-color="#E6E7E8"/>
<stop offset="0.41" stop-color="#DCE0E3"/>
<stop offset="0.58" stop-color="#CBD3DA"/>
<stop offset="0.77" stop-color="#C1CCD5"/>
<stop offset="1" stop-color="#BECAD3"/>
</linearGradient>
<linearGradient id="paint37_linear_7176_11672" x1="47502.2" y1="361.548" x2="47503.3" y2="372.423" gradientUnits="userSpaceOnUse">
<stop offset="0.03" stop-color="#BECAD3"/>
<stop offset="0.32" stop-color="#E4E5E7"/>
<stop offset="0.33" stop-color="#E6E7E8"/>
<stop offset="0.41" stop-color="#DCE0E3"/>
<stop offset="0.58" stop-color="#CBD3DA"/>
<stop offset="0.77" stop-color="#C1CCD5"/>
<stop offset="1" stop-color="#BECAD3"/>
</linearGradient>
<linearGradient id="paint38_linear_7176_11672" x1="47803.5" y1="370.458" x2="47804.6" y2="381.334" gradientUnits="userSpaceOnUse">
<stop offset="0.03" stop-color="#BECAD3"/>
<stop offset="0.32" stop-color="#E4E5E7"/>
<stop offset="0.33" stop-color="#E6E7E8"/>
<stop offset="0.41" stop-color="#DCE0E3"/>
<stop offset="0.58" stop-color="#CBD3DA"/>
<stop offset="0.77" stop-color="#C1CCD5"/>
<stop offset="1" stop-color="#BECAD3"/>
</linearGradient>
<linearGradient id="paint39_linear_7176_11672" x1="48104.4" y1="379.345" x2="48105.5" y2="390.314" gradientUnits="userSpaceOnUse">
<stop offset="0.03" stop-color="#BECAD3"/>
<stop offset="0.32" stop-color="#E4E5E7"/>
<stop offset="0.33" stop-color="#E6E7E8"/>
<stop offset="0.41" stop-color="#DCE0E3"/>
<stop offset="0.58" stop-color="#CBD3DA"/>
<stop offset="0.77" stop-color="#C1CCD5"/>
<stop offset="1" stop-color="#BECAD3"/>
</linearGradient>
<linearGradient id="paint40_linear_7176_11672" x1="-790.221" y1="4528.38" x2="-914.767" y2="4349.65" gradientUnits="userSpaceOnUse">
<stop stop-color="#1E1F21"/>
<stop offset="0.08" stop-color="#2C2E30"/>
<stop offset="0.22" stop-color="#515359"/>
<stop offset="0.27" stop-color="#5D6066"/>
<stop offset="0.61" stop-color="#37383C"/>
</linearGradient>
<linearGradient id="paint41_linear_7176_11672" x1="-787.278" y1="4055.47" x2="-674.229" y2="4055.47" gradientUnits="userSpaceOnUse">
<stop stop-color="#484B4F"/>
<stop offset="1" stop-color="#1E1F21"/>
</linearGradient>
<linearGradient id="paint42_linear_7176_11672" x1="-321.104" y1="1997.09" x2="-296.491" y2="1997.09" gradientUnits="userSpaceOnUse">
<stop stop-color="#D4D1D8"/>
<stop offset="1" stop-color="#BECAD3"/>
</linearGradient>
<radialGradient id="paint43_radial_7176_11672" cx="0" cy="0" r="1" gradientUnits="userSpaceOnUse" gradientTransform="translate(-594.578 4009.65) scale(51.243 77.5961)">
<stop stop-color="white"/>
<stop offset="1"/>
</radialGradient>
<linearGradient id="paint44_linear_7176_11672" x1="744.847" y1="2799.21" x2="903.345" y2="2799.21" gradientUnits="userSpaceOnUse">
<stop offset="0.03" stop-color="#00ADF6"/>
<stop offset="1" stop-color="#00ADF6"/>
</linearGradient>
<linearGradient id="paint45_linear_7176_11672" x1="-1416.31" y1="4033.67" x2="-1541.13" y2="3854.74" gradientUnits="userSpaceOnUse">
<stop stop-color="#1E1F21"/>
<stop offset="0.08" stop-color="#2C2E30"/>
<stop offset="0.22" stop-color="#515359"/>
<stop offset="0.27" stop-color="#5D6066"/>
<stop offset="0.61" stop-color="#37383C"/>
</linearGradient>
<linearGradient id="paint46_linear_7176_11672" x1="-1312.44" y1="3596.53" x2="-1199.4" y2="3596.53" gradientUnits="userSpaceOnUse">
<stop stop-color="#484B4F"/>
<stop offset="1" stop-color="#1E1F21"/>
</linearGradient>
<linearGradient id="paint47_linear_7176_11672" x1="-539.917" y1="1768.24" x2="-515.304" y2="1768.24" gradientUnits="userSpaceOnUse">
<stop stop-color="#D4D1D8"/>
<stop offset="1" stop-color="#BECAD3"/>
</linearGradient>
<radialGradient id="paint48_radial_7176_11672" cx="0" cy="0" r="1" gradientUnits="userSpaceOnUse" gradientTransform="translate(-1031.95 3564.3) scale(51.4521 77.7644)">
<stop stop-color="white"/>
<stop offset="1"/>
</radialGradient>
<linearGradient id="paint49_linear_7176_11672" x1="1474.08" y1="2343.89" x2="1632.58" y2="2343.89" gradientUnits="userSpaceOnUse">
<stop offset="0.03" stop-color="#00ADF6"/>
<stop offset="1" stop-color="#00ADF6"/>
</linearGradient>
<linearGradient id="paint50_linear_7176_11672" x1="364.401" y1="2031.22" x2="367.715" y2="2031.22" gradientUnits="userSpaceOnUse">
<stop offset="0.03" stop-color="#BECAD3"/>
<stop offset="0.32" stop-color="#E4E5E7"/>
<stop offset="0.33" stop-color="#E6E7E8"/>
<stop offset="0.41" stop-color="#DCE0E3"/>
<stop offset="0.58" stop-color="#CBD3DA"/>
<stop offset="0.77" stop-color="#C1CCD5"/>
<stop offset="1" stop-color="#BECAD3"/>
</linearGradient>
<linearGradient id="paint51_linear_7176_11672" x1="121.179" y1="36.5512" x2="124.949" y2="30.0213" gradientUnits="userSpaceOnUse">
<stop offset="0.11" stop-color="#00ADF6"/>
<stop offset="0.64" stop-color="#00ADF6"/>
<stop offset="0.93" stop-color="#00ADF6"/>
</linearGradient>
<linearGradient id="paint52_linear_7176_11672" x1="5070.72" y1="823.099" x2="5187.19" y2="812.659" gradientUnits="userSpaceOnUse">
<stop offset="0.03" stop-color="#00ADF6"/>
<stop offset="1" stop-color="#00ADF6"/>
</linearGradient>
<radialGradient id="paint53_radial_7176_11672" cx="0" cy="0" r="1" gradientUnits="userSpaceOnUse" gradientTransform="translate(-590.412 814.39) scale(12.0954 18.3127)">
<stop stop-color="white"/>
<stop offset="1"/>
</radialGradient>
<radialGradient id="paint54_radial_7176_11672" cx="0" cy="0" r="1" gradientUnits="userSpaceOnUse" gradientTransform="translate(185.127 29.2991) rotate(-149.826) scale(22.7272 2.66406)">
<stop stop-color="#00ADF6"/>
<stop offset="0.06" stop-color="#0093D1"/>
<stop offset="0.15" stop-color="#0071A0"/>
<stop offset="0.25" stop-color="#005375"/>
<stop offset="0.35" stop-color="#003951"/>
<stop offset="0.46" stop-color="#002434"/>
<stop offset="0.57" stop-color="#00141D"/>
<stop offset="0.69" stop-color="#00090D"/>
<stop offset="0.82" stop-color="#000203"/>
<stop offset="1"/>
</radialGradient>
<linearGradient id="paint55_linear_7176_11672" x1="133.849" y1="4537.08" x2="137.164" y2="4537.08" gradientUnits="userSpaceOnUse">
<stop offset="0.03" stop-color="#BECAD3"/>
<stop offset="0.32" stop-color="#E4E5E7"/>
<stop offset="0.33" stop-color="#E6E7E8"/>
<stop offset="0.41" stop-color="#DCE0E3"/>
<stop offset="0.58" stop-color="#CBD3DA"/>
<stop offset="0.77" stop-color="#C1CCD5"/>
<stop offset="1" stop-color="#BECAD3"/>
</linearGradient>
<linearGradient id="paint56_linear_7176_11672" x1="153.041" y1="4439.06" x2="156.356" y2="4439.06" gradientUnits="userSpaceOnUse">
<stop offset="0.03" stop-color="#BECAD3"/>
<stop offset="0.32" stop-color="#E4E5E7"/>
<stop offset="0.33" stop-color="#E6E7E8"/>
<stop offset="0.41" stop-color="#DCE0E3"/>
<stop offset="0.58" stop-color="#CBD3DA"/>
<stop offset="0.77" stop-color="#C1CCD5"/>
<stop offset="1" stop-color="#BECAD3"/>
</linearGradient>
<linearGradient id="paint57_linear_7176_11672" x1="172.258" y1="4337.04" x2="175.573" y2="4337.04" gradientUnits="userSpaceOnUse">
<stop offset="0.03" stop-color="#BECAD3"/>
<stop offset="0.32" stop-color="#E4E5E7"/>
<stop offset="0.33" stop-color="#E6E7E8"/>
<stop offset="0.41" stop-color="#DCE0E3"/>
<stop offset="0.58" stop-color="#CBD3DA"/>
<stop offset="0.77" stop-color="#C1CCD5"/>
<stop offset="1" stop-color="#BECAD3"/>
</linearGradient>
<linearGradient id="paint58_linear_7176_11672" x1="191.475" y1="4231.92" x2="194.79" y2="4231.92" gradientUnits="userSpaceOnUse">
<stop offset="0.03" stop-color="#BECAD3"/>
<stop offset="0.32" stop-color="#E4E5E7"/>
<stop offset="0.33" stop-color="#E6E7E8"/>
<stop offset="0.41" stop-color="#DCE0E3"/>
<stop offset="0.58" stop-color="#CBD3DA"/>
<stop offset="0.77" stop-color="#C1CCD5"/>
<stop offset="1" stop-color="#BECAD3"/>
</linearGradient>
<linearGradient id="paint59_linear_7176_11672" x1="210.691" y1="4124.33" x2="214.006" y2="4124.33" gradientUnits="userSpaceOnUse">
<stop offset="0.03" stop-color="#BECAD3"/>
<stop offset="0.32" stop-color="#E4E5E7"/>
<stop offset="0.33" stop-color="#E6E7E8"/>
<stop offset="0.41" stop-color="#DCE0E3"/>
<stop offset="0.58" stop-color="#CBD3DA"/>
<stop offset="0.77" stop-color="#C1CCD5"/>
<stop offset="1" stop-color="#BECAD3"/>
</linearGradient>
<linearGradient id="paint60_linear_7176_11672" x1="229.883" y1="4013.95" x2="233.197" y2="4013.95" gradientUnits="userSpaceOnUse">
<stop offset="0.03" stop-color="#BECAD3"/>
<stop offset="0.32" stop-color="#E4E5E7"/>
<stop offset="0.33" stop-color="#E6E7E8"/>
<stop offset="0.41" stop-color="#DCE0E3"/>
<stop offset="0.58" stop-color="#CBD3DA"/>
<stop offset="0.77" stop-color="#C1CCD5"/>
<stop offset="1" stop-color="#BECAD3"/>
</linearGradient>
<linearGradient id="paint61_linear_7176_11672" x1="249.099" y1="3901.74" x2="252.414" y2="3901.74" gradientUnits="userSpaceOnUse">
<stop offset="0.03" stop-color="#BECAD3"/>
<stop offset="0.32" stop-color="#E4E5E7"/>
<stop offset="0.33" stop-color="#E6E7E8"/>
<stop offset="0.41" stop-color="#DCE0E3"/>
<stop offset="0.58" stop-color="#CBD3DA"/>
<stop offset="0.77" stop-color="#C1CCD5"/>
<stop offset="1" stop-color="#BECAD3"/>
</linearGradient>
<linearGradient id="paint62_linear_7176_11672" x1="268.317" y1="3785.41" x2="271.632" y2="3785.41" gradientUnits="userSpaceOnUse">
<stop offset="0.03" stop-color="#BECAD3"/>
<stop offset="0.32" stop-color="#E4E5E7"/>
<stop offset="0.33" stop-color="#E6E7E8"/>
<stop offset="0.41" stop-color="#DCE0E3"/>
<stop offset="0.58" stop-color="#CBD3DA"/>
<stop offset="0.77" stop-color="#C1CCD5"/>
<stop offset="1" stop-color="#BECAD3"/>
</linearGradient>
<linearGradient id="paint63_linear_7176_11672" x1="287.534" y1="3666.61" x2="290.849" y2="3666.61" gradientUnits="userSpaceOnUse">
<stop offset="0.03" stop-color="#BECAD3"/>
<stop offset="0.32" stop-color="#E4E5E7"/>
<stop offset="0.33" stop-color="#E6E7E8"/>
<stop offset="0.41" stop-color="#DCE0E3"/>
<stop offset="0.58" stop-color="#CBD3DA"/>
<stop offset="0.77" stop-color="#C1CCD5"/>
<stop offset="1" stop-color="#BECAD3"/>
</linearGradient>
<linearGradient id="paint64_linear_7176_11672" x1="306.725" y1="3545.02" x2="310.04" y2="3545.02" gradientUnits="userSpaceOnUse">
<stop offset="0.03" stop-color="#BECAD3"/>
<stop offset="0.32" stop-color="#E4E5E7"/>
<stop offset="0.33" stop-color="#E6E7E8"/>
<stop offset="0.41" stop-color="#DCE0E3"/>
<stop offset="0.58" stop-color="#CBD3DA"/>
<stop offset="0.77" stop-color="#C1CCD5"/>
<stop offset="1" stop-color="#BECAD3"/>
</linearGradient>
<linearGradient id="paint65_linear_7176_11672" x1="325.942" y1="3420.65" x2="329.257" y2="3420.65" gradientUnits="userSpaceOnUse">
<stop offset="0.03" stop-color="#BECAD3"/>
<stop offset="0.32" stop-color="#E4E5E7"/>
<stop offset="0.33" stop-color="#E6E7E8"/>
<stop offset="0.41" stop-color="#DCE0E3"/>
<stop offset="0.58" stop-color="#CBD3DA"/>
<stop offset="0.77" stop-color="#C1CCD5"/>
<stop offset="1" stop-color="#BECAD3"/>
</linearGradient>
<linearGradient id="paint66_linear_7176_11672" x1="345.159" y1="3293.93" x2="348.474" y2="3293.93" gradientUnits="userSpaceOnUse">
<stop offset="0.03" stop-color="#BECAD3"/>
<stop offset="0.32" stop-color="#E4E5E7"/>
<stop offset="0.33" stop-color="#E6E7E8"/>
<stop offset="0.41" stop-color="#DCE0E3"/>
<stop offset="0.58" stop-color="#CBD3DA"/>
<stop offset="0.77" stop-color="#C1CCD5"/>
<stop offset="1" stop-color="#BECAD3"/>
</linearGradient>
<linearGradient id="paint67_linear_7176_11672" x1="11.6869" y1="3691.7" x2="15.0016" y2="3691.7" gradientUnits="userSpaceOnUse">
<stop offset="0.03" stop-color="#BECAD3"/>
<stop offset="0.32" stop-color="#E4E5E7"/>
<stop offset="0.33" stop-color="#E6E7E8"/>
<stop offset="0.41" stop-color="#DCE0E3"/>
<stop offset="0.58" stop-color="#CBD3DA"/>
<stop offset="0.77" stop-color="#C1CCD5"/>
<stop offset="1" stop-color="#BECAD3"/>
</linearGradient>
<linearGradient id="paint68_linear_7176_11672" x1="26.7021" y1="3795.69" x2="30.0168" y2="3795.69" gradientUnits="userSpaceOnUse">
<stop offset="0.03" stop-color="#BECAD3"/>
<stop offset="0.32" stop-color="#E4E5E7"/>
<stop offset="0.33" stop-color="#E6E7E8"/>
<stop offset="0.41" stop-color="#DCE0E3"/>
<stop offset="0.58" stop-color="#CBD3DA"/>
<stop offset="0.77" stop-color="#C1CCD5"/>
<stop offset="1" stop-color="#BECAD3"/>
</linearGradient>
<linearGradient id="paint69_linear_7176_11672" x1="41.7436" y1="3899.69" x2="45.0583" y2="3899.69" gradientUnits="userSpaceOnUse">
<stop offset="0.03" stop-color="#BECAD3"/>
<stop offset="0.32" stop-color="#E4E5E7"/>
<stop offset="0.33" stop-color="#E6E7E8"/>
<stop offset="0.41" stop-color="#DCE0E3"/>
<stop offset="0.58" stop-color="#CBD3DA"/>
<stop offset="0.77" stop-color="#C1CCD5"/>
<stop offset="1" stop-color="#BECAD3"/>
</linearGradient>
<linearGradient id="paint70_linear_7176_11672" x1="56.7588" y1="4003.68" x2="60.0735" y2="4003.68" gradientUnits="userSpaceOnUse">
<stop offset="0.03" stop-color="#BECAD3"/>
<stop offset="0.32" stop-color="#E4E5E7"/>
<stop offset="0.33" stop-color="#E6E7E8"/>
<stop offset="0.41" stop-color="#DCE0E3"/>
<stop offset="0.58" stop-color="#CBD3DA"/>
<stop offset="0.77" stop-color="#C1CCD5"/>
<stop offset="1" stop-color="#BECAD3"/>
</linearGradient>
<linearGradient id="paint71_linear_7176_11672" x1="71.775" y1="4107.68" x2="75.0896" y2="4107.68" gradientUnits="userSpaceOnUse">
<stop offset="0.03" stop-color="#BECAD3"/>
<stop offset="0.32" stop-color="#E4E5E7"/>
<stop offset="0.33" stop-color="#E6E7E8"/>
<stop offset="0.41" stop-color="#DCE0E3"/>
<stop offset="0.58" stop-color="#CBD3DA"/>
<stop offset="0.77" stop-color="#C1CCD5"/>
<stop offset="1" stop-color="#BECAD3"/>
</linearGradient>
<linearGradient id="paint72_linear_7176_11672" x1="86.7887" y1="4211.68" x2="90.1033" y2="4211.68" gradientUnits="userSpaceOnUse">
<stop offset="0.03" stop-color="#BECAD3"/>
<stop offset="0.32" stop-color="#E4E5E7"/>
<stop offset="0.33" stop-color="#E6E7E8"/>
<stop offset="0.41" stop-color="#DCE0E3"/>
<stop offset="0.58" stop-color="#CBD3DA"/>
<stop offset="0.77" stop-color="#C1CCD5"/>
<stop offset="1" stop-color="#BECAD3"/>
</linearGradient>
<linearGradient id="paint73_linear_7176_11672" x1="101.83" y1="4315.98" x2="105.144" y2="4315.98" gradientUnits="userSpaceOnUse">
<stop offset="0.03" stop-color="#BECAD3"/>
<stop offset="0.32" stop-color="#E4E5E7"/>
<stop offset="0.33" stop-color="#E6E7E8"/>
<stop offset="0.41" stop-color="#DCE0E3"/>
<stop offset="0.58" stop-color="#CBD3DA"/>
<stop offset="0.77" stop-color="#C1CCD5"/>
<stop offset="1" stop-color="#BECAD3"/>
</linearGradient>
<linearGradient id="paint74_linear_7176_11672" x1="116.846" y1="4419.98" x2="120.161" y2="4419.98" gradientUnits="userSpaceOnUse">
<stop offset="0.03" stop-color="#BECAD3"/>
<stop offset="0.32" stop-color="#E4E5E7"/>
<stop offset="0.33" stop-color="#E6E7E8"/>
<stop offset="0.41" stop-color="#DCE0E3"/>
<stop offset="0.58" stop-color="#CBD3DA"/>
<stop offset="0.77" stop-color="#C1CCD5"/>
<stop offset="1" stop-color="#BECAD3"/>
</linearGradient>
<radialGradient id="paint75_radial_7176_11672" cx="0" cy="0" r="1" gradientUnits="userSpaceOnUse" gradientTransform="translate(45.4297 84.7548) scale(40.8367)">
<stop offset="0.29" stop-color="#00ADF6"/>
<stop offset="0.9" stop-color="#00ADF6"/>
<stop offset="1" stop-color="#00ADF6"/>
</radialGradient>
<radialGradient id="paint76_radial_7176_11672" cx="0" cy="0" r="1" gradientUnits="userSpaceOnUse" gradientTransform="translate(10285 695.704) scale(252.948 62.513)">
<stop stop-color="#00ADF6"/>
<stop offset="0.06" stop-color="#0093D1"/>
<stop offset="0.15" stop-color="#0071A0"/>
<stop offset="0.25" stop-color="#005375"/>
<stop offset="0.35" stop-color="#003951"/>
<stop offset="0.46" stop-color="#002434"/>
<stop offset="0.57" stop-color="#00141D"/>
<stop offset="0.69" stop-color="#00090D"/>
<stop offset="0.82" stop-color="#000203"/>
<stop offset="1"/>
</radialGradient>
<radialGradient id="paint77_radial_7176_11672" cx="0" cy="0" r="1" gradientUnits="userSpaceOnUse" gradientTransform="translate(5235.57 2162.65) scale(273.119 522.907)">
<stop offset="0.29" stop-color="#00ADF6"/>
<stop offset="0.9" stop-color="#00ADF6"/>
<stop offset="1" stop-color="#00ADF6"/>
</radialGradient>
<radialGradient id="paint78_radial_7176_11672" cx="0" cy="0" r="1" gradientUnits="userSpaceOnUse" gradientTransform="translate(3368.14 -1564.62) rotate(-8.87995) scale(55.3602 145.486)">
<stop stop-color="#00ADF6"/>
<stop offset="0.06" stop-color="#0093D1"/>
<stop offset="0.15" stop-color="#0071A0"/>
<stop offset="0.25" stop-color="#005375"/>
<stop offset="0.35" stop-color="#003951"/>
<stop offset="0.46" stop-color="#002434"/>
<stop offset="0.57" stop-color="#00141D"/>
<stop offset="0.69" stop-color="#00090D"/>
<stop offset="0.82" stop-color="#000203"/>
<stop offset="1"/>
</radialGradient>
<radialGradient id="paint79_radial_7176_11672" cx="0" cy="0" r="1" gradientUnits="userSpaceOnUse" gradientTransform="translate(78.6927 127.912) rotate(-157.557) scale(7.82779 2.39542)">
<stop stop-color="#00ADF6"/>
<stop offset="0.12" stop-color="#0085BD"/>
<stop offset="0.24" stop-color="#00628B"/>
<stop offset="0.36" stop-color="#004460"/>
<stop offset="0.49" stop-color="#002B3E"/>
<stop offset="0.61" stop-color="#001823"/>
<stop offset="0.74" stop-color="#000B0F"/>
<stop offset="0.86" stop-color="#000304"/>
<stop offset="1"/>
</radialGradient>
<linearGradient id="paint80_linear_7176_11672" x1="66.5184" y1="64.7583" x2="66.5184" y2="129.517" gradientUnits="userSpaceOnUse">
<stop offset="0.166667" stop-color="#00ADF6"/>
<stop offset="0.947917" stop-color="#00ADF6" stop-opacity="0"/>
</linearGradient>
</defs>
</svg>
