<svg width="237" height="300" viewBox="0 0 237 300" fill="none" xmlns="http://www.w3.org/2000/svg">
<g opacity="0.2">
<path opacity="0.09" d="M128.018 183.106L20.6851 248.095C19.2089 248.843 17.9745 249.993 17.1244 251.413C16.2743 252.833 15.8433 254.464 15.8812 256.119C15.9621 257.436 16.3235 258.722 16.9414 259.888C18.1972 262.036 20.0051 263.807 22.1772 265.019L74.8883 295.452C78.1282 297.259 81.7566 298.256 85.4646 298.358C88.5134 298.529 91.5552 297.916 94.2999 296.578C94.5356 296.578 101.447 292.507 101.604 292.416L202.301 231.471C203.785 230.72 205.021 229.558 205.864 228.124C206.706 226.69 207.119 225.044 207.052 223.382C206.987 222.486 206.793 221.605 206.476 220.764C205.27 218.103 203.23 215.907 200.665 214.507L147.561 183.813C146.814 183.384 146.04 183.003 145.244 182.674C142.581 181.582 139.732 181.018 136.854 181.012C133.776 180.927 130.73 181.649 128.018 183.106Z" fill="black"/>
<path opacity="0.18" d="M126.08 184.637L20.7627 248.304C19.3243 249.024 18.132 250.154 17.3372 251.553C16.5425 252.951 16.1812 254.554 16.2992 256.158C16.4504 257.421 16.8556 258.641 17.4904 259.744C18.826 261.769 20.6197 263.45 22.7262 264.653L74.2984 294.497C77.4475 296.271 80.954 297.318 84.5605 297.56C87.5332 297.82 90.524 297.339 93.265 296.159C93.7493 296.159 100.215 292.455 100.556 292.232L199.878 232.204C201.334 231.482 202.532 230.33 203.312 228.904C204.091 227.479 204.414 225.848 204.237 224.233C204.111 223.358 203.868 222.504 203.517 221.693C202.168 219.174 200.129 217.09 197.64 215.685L145.282 185.475C144.545 185.054 143.784 184.674 143.005 184.336C140.388 183.254 137.59 182.681 134.758 182.648C131.741 182.535 128.747 183.221 126.08 184.637Z" fill="black"/>
<path opacity="0.27" d="M124.131 186.182L20.8557 248.527C19.4459 249.215 18.2894 250.331 17.5514 251.716C16.8133 253.1 16.5313 254.682 16.7456 256.236C16.961 257.444 17.4052 258.599 18.0545 259.64C19.4579 261.549 21.2403 263.149 23.2903 264.339L73.7107 293.45C75.9621 294.758 80.8183 296.643 83.6718 296.643C86.5734 297.004 89.5192 296.658 92.2584 295.635C92.9652 295.635 98.9994 292.298 99.5099 292.01L197.458 232.898C198.877 232.193 200.028 231.046 200.736 229.628C201.445 228.211 201.672 226.602 201.385 225.044C201.189 224.207 200.899 223.395 200.521 222.623C199.749 220.829 196.699 218.094 194.591 216.863L143.019 187.098C142.294 186.679 141.546 186.299 140.781 185.959C138.215 184.873 135.465 184.286 132.679 184.231C129.707 184.111 126.757 184.785 124.131 186.182Z" fill="black"/>
<path opacity="0.36" d="M122.194 187.714L20.9867 248.684C19.6058 249.347 18.4845 250.449 17.7996 251.819C17.1147 253.189 16.9051 254.748 17.2038 256.25C17.5184 257.397 18.018 258.484 18.6829 259.47C20.155 261.255 21.9268 262.77 23.9187 263.947L73.2004 292.39C75.1769 293.529 80.3603 295.728 82.8604 295.728C85.6887 296.196 88.588 295.98 91.3161 295.099C92.2716 295.099 97.8608 292.141 98.5546 291.748L195.076 233.605C198.283 231.76 199.474 228.841 198.662 225.843C198.402 225.053 198.074 224.286 197.681 223.553C196.948 222.008 193.518 219.115 191.673 218.055L140.873 188.722C140.401 188.447 139.197 187.819 138.674 187.583C136.153 186.494 133.447 185.899 130.702 185.829C127.747 185.671 124.806 186.322 122.194 187.714Z" fill="black"/>
<path opacity="0.45" d="M120.242 189.244L21.0636 248.945C17.9745 250.725 16.8357 253.513 17.6211 256.354C18.0034 257.445 18.546 258.473 19.231 259.404C20.7661 261.059 22.529 262.487 24.4668 263.645L72.6097 291.447C74.2982 292.415 79.822 294.928 81.9556 294.928C84.7122 295.493 87.5624 295.407 90.2804 294.68C91.4846 294.68 96.6419 292.062 97.4927 291.604L192.613 234.285C195.807 232.439 196.841 229.534 195.82 226.628C195.492 225.88 195.116 225.154 194.695 224.455C194.027 223.146 190.218 220.122 188.621 219.219L138.58 190.331C138.175 190.095 136.879 189.401 136.434 189.205C133.956 188.105 131.289 187.492 128.58 187.399C125.685 187.248 122.803 187.885 120.242 189.244Z" fill="black"/>
<path opacity="0.55" d="M118.305 190.789L21.1557 249.167C18.1189 250.921 17.1111 253.657 18.0666 256.419C18.5178 257.447 19.1032 258.411 19.8074 259.286C21.3679 260.817 23.0982 262.165 24.9647 263.304L71.9557 290.438C73.3693 291.25 79.2203 294.064 81.0135 294.064C83.6979 294.738 86.5011 294.788 89.2075 294.208C90.6343 294.208 95.3726 291.983 96.3936 291.394L190.205 235.031C193.373 233.198 194.263 230.319 193.02 227.491C192.684 226.747 192.243 226.055 191.711 225.436C191.318 224.285 186.894 221.208 185.572 220.449L136.29 191.993C135.95 191.797 134.536 191.037 134.17 190.867C131.744 189.773 129.132 189.151 126.473 189.035C123.641 188.855 120.814 189.462 118.305 190.789Z" fill="black"/>
<path opacity="0.64" d="M116.357 192.321L21.2624 249.377C18.2518 251.118 17.3355 253.815 18.5136 256.472C18.9475 257.492 19.5895 258.41 20.3985 259.168C20.765 259.914 24.6264 262.454 25.5165 262.964L71.3294 289.444C72.442 290.085 78.6333 293.214 80.0731 293.214C82.6862 294 85.4449 294.174 88.1362 293.724C89.8116 293.724 94.105 291.879 95.2961 291.198L187.734 235.751C190.888 233.932 191.66 231.052 190.155 228.303C189.786 227.599 189.319 226.951 188.768 226.379C188.467 225.463 183.623 222.256 182.563 221.641L134.054 193.629C133.779 193.472 132.261 192.635 131.973 192.504C129.598 191.403 127.034 190.768 124.42 190.632C121.628 190.444 118.839 191.029 116.357 192.321Z" fill="black"/>
<path opacity="0.73" d="M114.42 193.852L21.3539 249.6C18.3956 251.302 17.6364 253.972 18.9454 256.538C19.4467 257.499 20.1367 258.349 20.9742 259.038C22.5643 260.385 24.2729 261.585 26.0791 262.624L70.7925 288.437C71.6302 288.921 78.1619 292.363 79.2352 292.363C81.774 293.273 84.4891 293.582 87.1674 293.267C89.6725 292.995 92.0981 292.225 94.3011 291.002L185.364 236.472C188.506 234.665 189.108 231.799 187.406 229.142C186.98 228.473 186.465 227.865 185.875 227.335C185.652 226.641 180.403 223.304 179.605 222.846L131.855 195.266C131.658 195.148 130.035 194.245 129.813 194.153C127.488 193.047 124.973 192.394 122.404 192.229C119.644 192.02 116.879 192.582 114.42 193.852Z" fill="black"/>
<path opacity="0.82" d="M112.47 195.384L21.4592 249.81C18.5271 251.499 17.8989 254.13 19.3911 256.591C19.951 257.501 20.6849 258.293 21.5508 258.92C23.1797 260.142 24.88 261.265 26.6426 262.284L70.2041 287.442C70.767 287.756 77.6259 291.487 78.3458 291.487C80.8262 292.528 83.5154 292.976 86.1994 292.796C88.6907 292.666 91.1223 291.986 93.3201 290.806L182.996 237.14C186.111 235.333 186.595 232.48 184.658 229.914C184.182 229.283 183.623 228.72 182.996 228.239C182.839 227.768 177.184 224.312 176.66 223.998L129.63 196.903C129.486 196.824 127.771 195.856 127.627 195.79C125.348 194.683 122.878 194.021 120.35 193.84C117.63 193.611 114.901 194.146 112.47 195.384Z" fill="black"/>
<path opacity="0.91" d="M110.531 196.928L21.5228 250.031C18.63 251.694 18.1065 254.299 19.795 256.655C20.4181 257.507 21.195 258.235 22.0857 258.801C22.1773 258.985 26.9287 261.812 27.1643 261.943L69.5871 286.433C69.862 286.59 77.0612 290.635 77.4408 290.635C79.8371 291.781 82.4685 292.35 85.1243 292.297C87.5914 292.33 90.0269 291.74 92.2056 290.582L180.52 237.884C183.609 236.091 183.962 233.238 181.829 230.764C181.292 230.177 180.685 229.659 180.023 229.219C179.944 228.984 173.884 225.384 173.622 225.227L127.39 198.538L125.44 197.425C123.202 196.324 120.778 195.649 118.293 195.435C115.616 195.188 112.925 195.705 110.531 196.928Z" fill="black"/>
<path opacity="0.2" d="M91.1842 290.374L178.059 238.605C181.802 236.432 181.331 232.663 177.011 230.162L123.148 199.062C118.829 196.575 112.284 196.3 108.528 198.46L21.6008 250.242C17.8572 252.401 18.3285 256.184 22.6611 258.684L76.5109 289.772C80.8828 292.272 87.4275 292.547 91.1842 290.374Z" fill="black"/>
</g>
<path d="M131.499 53.9244L130.198 56.1963L202.582 97.6342L203.883 95.3622L131.499 53.9244Z" fill="#BECAD3"/>
<path d="M3.56422 144.467L2.24219 142.203L124.576 70.8652L196.672 111.953L195.376 114.23L124.589 73.8889L3.56422 144.467Z" fill="#BECAD3"/>
<path d="M119.563 49.8174H116.945V87.1484H119.563V49.8174Z" fill="url(#paint0_linear_6780_9755)"/>
<path d="M4.32296 125.959H1.70508V173.997H4.32296V125.959Z" fill="url(#paint1_linear_6780_9755)"/>
<path d="M13.9577 119.675H11.3398V168.21H13.9577V119.675Z" fill="url(#paint2_linear_6780_9755)"/>
<path d="M23.5915 113.406H20.9736V162.426H23.5915V113.406Z" fill="url(#paint3_linear_6780_9755)"/>
<path d="M33.2253 107.135H30.6074V156.639H33.2253V107.135Z" fill="url(#paint4_linear_6780_9755)"/>
<path d="M42.8728 100.854H40.2549V150.842H42.8728V100.854Z" fill="url(#paint5_linear_6780_9755)"/>
<path d="M52.4909 94.584H49.873V145.057H52.4909V94.584Z" fill="url(#paint6_linear_6780_9755)"/>
<path d="M62.1257 88.3135H59.5078V139.284H62.1257V88.3135Z" fill="url(#paint7_linear_6780_9755)"/>
<path d="M71.7732 82.0312H69.1553V133.486H71.7732V82.0312Z" fill="url(#paint8_linear_6780_9755)"/>
<path d="M81.4079 75.7617H78.79V127.701H81.4079V75.7617Z" fill="url(#paint9_linear_6780_9755)"/>
<path d="M91.0398 69.4766H88.4219V121.9H91.0398V69.4766Z" fill="url(#paint10_linear_6780_9755)"/>
<path d="M100.675 63.208H98.0566V116.115H100.675V63.208Z" fill="url(#paint11_linear_6780_9755)"/>
<path d="M110.309 56.9385H107.691V110.343H110.309V56.9385Z" fill="url(#paint12_linear_6780_9755)"/>
<path d="M87.6639 200.372C87.5685 201.298 87.7164 202.233 88.0928 203.085C88.4693 203.937 89.0614 204.675 89.8106 205.228L94.0384 207.676C95.4259 208.448 94.5358 206.694 96.6563 205.477C98.878 204.037 100.728 202.092 102.057 199.802C103.385 197.511 104.154 194.94 104.301 192.296C104.301 189.9 106.526 189.887 105.164 189.076L100.662 186.589C99.798 186.221 98.8539 186.081 97.9207 186.184C96.9875 186.288 96.0966 186.63 95.3343 187.178C93.1082 188.619 91.2534 190.565 89.9206 192.857C88.5878 195.15 87.8147 197.724 87.6639 200.372Z" fill="url(#paint13_linear_6780_9755)"/>
<path d="M92.0898 202.873C92.0898 207.716 95.5061 209.666 99.734 207.232C101.954 205.789 103.802 203.844 105.13 201.554C106.458 199.264 107.228 196.694 107.378 194.051C107.378 189.208 103.962 187.257 99.734 189.692C97.5145 191.134 95.6659 193.08 94.3379 195.369C93.0099 197.659 92.2397 200.23 92.0898 202.873Z" fill="url(#paint14_linear_6780_9755)"/>
<path d="M102.229 199.922C103.63 197.525 103.642 194.926 102.257 194.116C100.871 193.306 98.6124 194.592 97.2115 196.989C95.8105 199.385 95.798 201.985 97.1834 202.795C98.5689 203.605 100.828 202.318 102.229 199.922Z" fill="url(#paint15_linear_6780_9755)"/>
<path style="mix-blend-mode:screen" d="M99.3659 189.507C100.117 188.974 100.989 188.637 101.903 188.525C102.817 188.413 103.744 188.53 104.602 188.866C103.816 188.704 103.007 188.701 102.22 188.856C101.434 189.011 100.686 189.322 100.02 189.769C97.8009 191.212 95.9523 193.157 94.6242 195.446C93.2962 197.736 92.526 200.307 92.3762 202.95C92.3762 205.476 93.3055 207.217 94.7977 207.95C92.926 207.426 91.7217 205.581 91.7217 202.714C91.8675 200.067 92.6358 197.491 93.964 195.196C95.2922 192.901 97.143 190.952 99.3659 189.507Z" fill="url(#paint16_radial_6780_9755)"/>
<path d="M101.918 180.646V198.866L99.9019 200.109L83.8281 191.248L101.918 180.646Z" fill="url(#paint17_linear_6780_9755)"/>
<path d="M9.99201 245.518C9.89881 246.44 10.0464 247.372 10.4203 248.22C10.7942 249.069 11.3818 249.807 12.1256 250.361L16.3665 252.821C17.754 253.594 16.8639 251.84 18.9844 250.622C21.2061 249.182 23.0565 247.238 24.3848 244.947C25.7131 242.657 26.4819 240.085 26.6287 237.441C26.6287 235.046 28.8538 235.02 27.4925 234.221L22.9899 231.734C22.1262 231.366 21.1821 231.227 20.2489 231.33C19.3156 231.433 18.4248 231.775 17.6625 232.323C15.4342 233.762 13.5777 235.707 12.2446 238C10.9116 240.293 10.1397 242.869 9.99201 245.518Z" fill="url(#paint18_linear_6780_9755)"/>
<path d="M14.4414 248.016C14.4414 252.873 17.8578 254.823 22.0857 252.375C24.3052 250.933 26.1537 248.987 27.4818 246.698C28.8098 244.408 29.58 241.837 29.7298 239.194C29.7298 234.351 26.3005 232.401 22.0857 234.835C19.864 236.276 18.0136 238.22 16.6853 240.511C15.357 242.801 14.5882 245.373 14.4414 248.016Z" fill="url(#paint19_linear_6780_9755)"/>
<path d="M18.499 245.675C18.499 247.926 20.0829 248.842 22.0594 247.703C23.0948 247.03 23.9567 246.122 24.5753 245.053C25.1939 243.984 25.5517 242.784 25.6197 241.551C25.6197 239.287 24.0228 238.384 22.0594 239.522C21.024 240.196 20.162 241.104 19.5434 242.173C18.9247 243.242 18.567 244.441 18.499 245.675Z" fill="url(#paint20_linear_6780_9755)"/>
<path style="mix-blend-mode:screen" d="M21.693 234.654C22.444 234.121 23.3159 233.783 24.2299 233.671C25.1439 233.559 26.0713 233.676 26.9288 234.012C26.1434 233.851 25.3339 233.848 24.5473 234.003C23.7607 234.158 23.0128 234.468 22.3475 234.915C20.1279 236.358 18.2794 238.303 16.9514 240.593C15.6233 242.883 14.8532 245.453 14.7033 248.096C14.7033 250.623 15.6326 252.35 17.1248 253.097C15.253 252.573 14.0488 250.714 14.0488 247.861C14.1916 245.213 14.9585 242.636 16.287 240.34C17.6155 238.045 19.4679 236.096 21.693 234.654Z" fill="url(#paint21_radial_6780_9755)"/>
<path d="M24.2448 225.792V244.012L22.2291 245.256L6.15527 236.394L24.2448 225.792Z" fill="url(#paint22_linear_6780_9755)"/>
<path d="M116.341 196.778L40.0781 241.521L41.4029 243.779L117.665 199.036L116.341 196.778Z" fill="#BECAD3"/>
<path d="M140.888 210.848L64.3096 255.776L65.6343 258.034L142.213 213.106L140.888 210.848Z" fill="#BECAD3"/>
<path d="M93.6681 182.99L92.3584 185.257L165.709 227.64L167.018 225.373L93.6681 182.99Z" fill="url(#paint23_linear_6780_9755)"/>
<path d="M84.9779 183.276L83.6689 185.554L157.371 227.911L158.68 225.633L84.9779 183.276Z" fill="url(#paint24_linear_6780_9755)"/>
<path d="M75.5209 188.947L74.2119 191.225L147.914 233.582L149.223 231.304L75.5209 188.947Z" fill="url(#paint25_linear_6780_9755)"/>
<path d="M65.174 199.888L63.8643 202.154L137.215 244.537L138.524 242.271L65.174 199.888Z" fill="url(#paint26_linear_6780_9755)"/>
<path d="M56.5746 200.306L55.2656 202.584L128.967 244.941L130.276 242.664L56.5746 200.306Z" fill="url(#paint27_linear_6780_9755)"/>
<path d="M46.1877 211.166L44.8779 213.433L118.228 255.816L119.538 253.549L46.1877 211.166Z" fill="url(#paint28_linear_6780_9755)"/>
<path d="M36.6916 216.792L35.3818 219.059L108.732 261.442L110.042 259.175L36.6916 216.792Z" fill="url(#paint29_linear_6780_9755)"/>
<path d="M27.2209 222.439L25.9111 224.706L99.2614 267.089L100.571 264.822L27.2209 222.439Z" fill="url(#paint30_linear_6780_9755)"/>
<path d="M17.7072 228.064L16.3975 230.331L89.7477 272.714L91.0575 270.447L17.7072 228.064Z" fill="url(#paint31_linear_6780_9755)"/>
<path d="M141.875 42.894L117.785 113.618L120.263 114.462L144.353 43.7381L141.875 42.894Z" fill="url(#paint32_linear_6780_9755)"/>
<path d="M150.013 47.5561L125.923 118.28L128.401 119.124L152.491 48.4002L150.013 47.5561Z" fill="url(#paint33_linear_6780_9755)"/>
<path d="M158.24 52.2693L134.146 123.006L136.624 123.85L160.718 53.1134L158.24 52.2693Z" fill="url(#paint34_linear_6780_9755)"/>
<path d="M166.458 56.9667L142.363 127.703L144.841 128.547L168.936 57.8108L166.458 56.9667Z" fill="url(#paint35_linear_6780_9755)"/>
<path d="M174.595 61.6298L150.501 132.366L152.979 133.21L177.073 62.4738L174.595 61.6298Z" fill="url(#paint36_linear_6780_9755)"/>
<path d="M182.818 66.3563L158.724 137.093L161.202 137.937L185.296 67.2004L182.818 66.3563Z" fill="url(#paint37_linear_6780_9755)"/>
<path d="M191.023 71.0536L166.929 141.79L169.407 142.634L193.501 71.8977L191.023 71.0536Z" fill="url(#paint38_linear_6780_9755)"/>
<path d="M199.213 75.7439L175.118 146.48L177.596 147.325L201.691 76.588L199.213 75.7439Z" fill="url(#paint39_linear_6780_9755)"/>
<path d="M172.628 80.2248L170.56 86.1281L157.562 78.6278L159.617 72.8161L145.86 64.9756L132.312 103.275L172.667 126.535L186.215 87.9606L172.628 80.2248Z" fill="#FF5454"/>
<path d="M83.1747 288.136C83.0793 289.062 83.2271 289.997 83.6035 290.849C83.98 291.7 84.5721 292.439 85.3213 292.992L89.5492 295.439C90.9367 296.212 90.0466 294.458 92.1671 293.254C94.3807 291.812 96.2246 289.87 97.5502 287.585C98.8757 285.3 99.6458 282.736 99.7982 280.099C99.7982 277.703 102.01 277.69 100.649 276.892L96.1593 274.405C95.2942 274.033 94.3474 273.891 93.4114 273.995C92.4754 274.098 91.5821 274.442 90.8188 274.994C88.6045 276.433 86.759 278.371 85.4313 280.654C84.1035 282.937 83.3306 285.499 83.1747 288.136Z" fill="url(#paint40_linear_6780_9755)"/>
<path d="M87.5986 290.65C87.5986 295.493 91.028 297.443 95.2428 295.008C97.4645 293.568 99.3148 291.623 100.643 289.333C101.971 287.043 102.74 284.471 102.887 281.827C102.887 276.971 99.4707 275.021 95.2428 277.468C93.0233 278.911 91.1747 280.856 89.8466 283.146C88.5186 285.436 87.7485 288.007 87.5986 290.65Z" fill="url(#paint41_linear_6780_9755)"/>
<path d="M91.668 288.293C91.668 290.557 93.2648 291.461 95.2283 290.322C96.2643 289.651 97.1278 288.746 97.7487 287.679C98.3695 286.613 98.7303 285.415 98.8017 284.183C98.8017 281.918 97.2048 281.002 95.2283 282.141C94.1929 282.814 93.3309 283.722 92.7123 284.791C92.0937 285.86 91.7359 287.06 91.668 288.293Z" fill="url(#paint42_linear_6780_9755)"/>
<path style="mix-blend-mode:screen" d="M94.875 277.285C95.623 276.745 96.4951 276.404 97.4105 276.292C98.3259 276.179 99.2548 276.3 100.111 276.643C99.34 276.479 98.5443 276.468 97.7693 276.612C96.9943 276.755 96.2554 277.051 95.5949 277.481C93.3715 278.923 91.5201 280.869 90.1917 283.162C88.8633 285.455 88.0955 288.029 87.9507 290.675C87.9507 293.189 88.8801 294.929 90.3592 295.676C88.5005 295.152 87.2832 293.293 87.2832 290.44C87.4313 287.806 88.1952 285.244 89.5138 282.959C90.8323 280.674 92.6687 278.731 94.875 277.285Z" fill="url(#paint43_radial_6780_9755)"/>
<path d="M97.4415 268.411V286.632L95.4127 287.888L79.3389 279.014L97.4415 268.411Z" fill="url(#paint44_linear_6780_9755)"/>
<path d="M160.848 242.99C160.752 243.916 160.9 244.852 161.276 245.703C161.653 246.555 162.245 247.294 162.994 247.846L167.222 250.294C168.61 251.066 167.719 249.312 169.84 248.108C172.059 246.666 173.908 244.721 175.236 242.431C176.564 240.141 177.334 237.57 177.484 234.927C177.484 232.532 179.696 232.506 178.335 231.707L173.845 229.22C172.98 228.848 172.033 228.707 171.097 228.81C170.161 228.913 169.268 229.258 168.505 229.809C166.283 231.25 164.432 233.195 163.101 235.485C161.771 237.775 160.999 240.346 160.848 242.99Z" fill="url(#paint45_linear_6780_9755)"/>
<path d="M165.271 245.505C165.271 250.348 168.701 252.298 172.916 249.863C175.137 248.423 176.988 246.479 178.316 244.188C179.644 241.898 180.413 239.326 180.56 236.682C180.56 231.839 177.144 229.889 172.916 232.324C170.696 233.766 168.848 235.711 167.52 238.001C166.192 240.291 165.421 242.862 165.271 245.505Z" fill="url(#paint46_linear_6780_9755)"/>
<path d="M169.354 243.148C169.354 245.413 170.95 246.316 172.914 245.19C173.952 244.519 174.816 243.611 175.437 242.542C176.058 241.473 176.418 240.273 176.487 239.038C176.487 236.774 174.89 235.871 172.914 236.996C171.879 237.67 171.016 238.578 170.398 239.647C169.779 240.716 169.421 241.915 169.354 243.148Z" fill="url(#paint47_linear_6780_9755)"/>
<path style="mix-blend-mode:screen" d="M172.549 232.14C173.3 231.607 174.172 231.269 175.086 231.157C176 231.045 176.928 231.163 177.785 231.498C177.003 231.339 176.196 231.335 175.412 231.488C174.628 231.64 173.882 231.946 173.217 232.389C170.996 233.833 169.146 235.78 167.818 238.072C166.49 240.364 165.721 242.938 165.573 245.583C165.573 248.109 166.502 249.837 167.981 250.583C166.123 250.059 164.905 248.201 164.905 245.347C165.051 242.7 165.819 240.124 167.148 237.829C168.476 235.534 170.326 233.585 172.549 232.14Z" fill="url(#paint48_radial_6780_9755)"/>
<path d="M175.114 223.278V241.486L173.086 242.742L157.012 233.868L175.114 223.278Z" fill="url(#paint49_linear_6780_9755)"/>
<path d="M69.3374 282.717C65.2059 282.724 61.1445 281.65 57.5569 279.601L6.87463 250.634C5.24558 249.7 3.89201 248.353 2.95068 246.728C2.00935 245.103 1.51367 243.258 1.51367 241.38C1.51367 239.502 2.00935 237.658 2.95068 236.033C3.89201 234.408 5.24558 233.06 6.87463 232.126L96.5764 180.619C99.9423 178.67 102.738 175.872 104.686 172.505C106.634 169.138 107.665 165.32 107.676 161.43V160.933C107.678 156.98 106.62 153.099 104.613 149.695C102.605 146.29 99.7217 143.485 96.2623 141.573L76.759 130.775L79.2984 126.193L98.7885 136.992C103.067 139.357 106.634 142.825 109.117 147.035C111.601 151.245 112.912 156.044 112.912 160.933V161.43C112.9 166.241 111.626 170.965 109.217 175.13C106.807 179.294 103.347 182.753 99.1812 185.161L9.47949 236.747C8.65001 237.222 7.96078 237.909 7.48148 238.736C7.00218 239.563 6.74976 240.503 6.74976 241.459C6.74976 242.415 7.00218 243.354 7.48148 244.182C7.96078 245.009 8.65001 245.695 9.47949 246.171L60.1748 275.138C62.9669 276.727 66.1245 277.563 69.3374 277.563C72.5502 277.563 75.7078 276.727 78.4999 275.138L169.851 222.99C173.226 221.064 176.035 218.284 177.995 214.929C179.955 211.574 180.998 207.762 181.018 203.877C181.038 199.991 180.034 196.169 178.109 192.794C176.183 189.419 173.403 186.61 170.047 184.651L149.929 172.87L152.547 168.341L172.665 180.122C176.812 182.547 180.247 186.02 182.627 190.193C185.007 194.366 186.247 199.091 186.223 203.895C186.199 208.698 184.912 213.411 182.491 217.56C180.07 221.709 176.6 225.148 172.43 227.532L81.0655 279.68C77.4852 281.691 73.4438 282.737 69.3374 282.717Z" fill="#BECAD3"/>
<path d="M79.3519 126.757L98.3576 137.228C102.549 139.549 106.043 142.949 108.475 147.077C110.908 151.204 112.192 155.907 112.193 160.698V161.195C112.202 165.927 110.963 170.578 108.601 174.678C106.238 178.778 102.836 182.182 98.7373 184.547L9.03549 236.119C8.11884 236.644 7.35709 237.401 6.82729 238.315C6.29748 239.228 6.01847 240.266 6.01847 241.322C6.01847 242.378 6.29748 243.416 6.82729 244.329C7.35709 245.243 8.11884 246 9.03549 246.525L59.7177 275.479C62.5045 277.058 65.6441 277.909 68.8468 277.955C72.0495 278.001 75.2122 277.239 78.0429 275.741C78.2131 275.662 79.8231 274.759 79.9801 274.667L169.459 223.619C169.917 223.357 170.768 222.833 171.213 222.532C174.287 220.483 176.811 217.71 178.564 214.458C180.317 211.206 181.245 207.574 181.267 203.88C181.289 200.186 180.404 196.542 178.69 193.27C176.976 189.997 174.485 187.195 171.436 185.109C171.043 184.704 166.2 181.798 165.742 181.51L151.435 173.146L152.142 169.69L152.548 169.023L172.182 180.502C176.142 182.814 179.442 186.104 181.767 190.056C184.093 194.008 185.365 198.49 185.464 203.075C185.562 207.659 184.483 212.192 182.33 216.24C180.176 220.289 177.02 223.717 173.164 226.197C172.771 226.459 171.959 226.93 171.554 227.166L80.5823 279.091C77.2703 280.98 73.5423 282.019 69.7311 282.115H68.9065C65.3791 282.078 61.9061 281.241 58.7491 279.667C58.3695 279.484 57.6365 279.091 57.2699 278.882L6.94121 250.085C5.61675 249.342 4.48141 248.304 3.62332 247.051C2.76523 245.798 2.20745 244.363 1.99337 242.86C1.77825 241.369 1.9019 239.849 2.35512 238.412C2.80834 236.975 3.57948 235.659 4.61126 234.561C5.54839 233.573 6.62426 232.727 7.80508 232.048L96.656 180.999C100.002 179.069 102.799 176.316 104.783 173.001C106.767 169.686 107.871 165.92 107.991 162.059C107.991 162.059 107.991 161.614 107.991 161.575C108.019 160.701 107.993 159.827 107.913 158.957C107.913 158.826 107.913 158.577 107.913 158.446C107.556 155.078 106.443 151.833 104.657 148.955C102.871 146.076 100.458 143.638 97.5985 141.823C97.232 141.482 92.7685 138.93 92.3627 138.681L78.3046 130.88L78.9591 127.437L79.3519 126.757Z" fill="#C6D0D6"/>
<path d="M79.4038 127.359L97.9253 137.608C102.028 139.88 105.449 143.208 107.831 147.247C110.213 151.287 111.471 155.891 111.473 160.58V161.078C111.465 165.693 110.244 170.225 107.933 174.22C105.622 178.215 102.302 181.533 98.3049 183.84L8.59008 235.426C7.58907 235.998 6.75715 236.825 6.17855 237.823C5.59996 238.82 5.29519 239.953 5.29519 241.106C5.29519 242.26 5.59996 243.392 6.17855 244.39C6.75715 245.388 7.58907 246.215 8.59008 246.787L59.2854 275.754C62.0776 277.337 65.2152 278.211 68.4237 278.3C71.6321 278.389 74.8134 277.69 77.6891 276.265C78.0425 276.107 79.3383 275.401 79.6656 275.204L169.184 224.156C169.485 223.985 170.663 223.305 170.938 223.108C173.926 221.208 176.438 218.648 178.283 215.626C180.127 212.604 181.255 209.199 181.58 205.673C181.724 204.202 181.724 202.72 181.58 201.249C181.26 198.187 180.331 195.22 178.848 192.522C177.364 189.825 175.356 187.451 172.941 185.542C171.177 184.149 169.318 182.881 167.378 181.746L153.058 173.382L152.246 170.319L152.639 169.651L171.802 180.856C175.724 183.127 178.988 186.378 181.277 190.29C183.565 194.202 184.799 198.642 184.857 203.173C184.915 207.705 183.795 212.174 181.608 216.144C179.421 220.113 176.24 223.447 172.378 225.818C172.116 226.001 171.069 226.616 170.781 226.773L80.2153 278.477C76.9241 280.348 73.215 281.36 69.4296 281.422H68.605C65.0956 281.335 61.6544 280.434 58.5523 278.791L57.0994 277.992L7.11096 249.405C5.79631 248.666 4.68071 247.619 3.85994 246.353C3.03918 245.088 2.53772 243.642 2.39873 242.14C2.32673 241.466 2.32673 240.786 2.39873 240.112C2.64843 237.808 3.76157 235.685 5.51401 234.169C6.52776 233.28 7.62847 232.495 8.79947 231.826L96.7865 181.235C100.105 179.32 102.898 176.613 104.917 173.356C106.935 170.099 108.118 166.394 108.358 162.57C108.358 162.491 108.358 162.164 108.358 162.086C108.406 161.214 108.406 160.34 108.358 159.468C108.358 159.376 108.358 159.049 108.358 158.957C108.124 155.604 107.158 152.342 105.527 149.402C103.897 146.462 101.641 143.915 98.9201 141.941C97.2749 140.745 95.5569 139.652 93.7759 138.669L79.8881 131.051L79.0503 128.04L79.4038 127.359Z" fill="#CFD5DA"/>
<path d="M79.4573 127.949L97.4946 137.936C101.512 140.158 104.861 143.416 107.193 147.371C109.525 151.326 110.755 155.833 110.754 160.424V160.987C110.74 165.5 109.542 169.93 107.28 173.835C105.017 177.74 101.769 180.982 97.861 183.239L8.15932 234.785C7.07057 235.403 6.16506 236.298 5.53512 237.38C4.90519 238.462 4.57331 239.692 4.57331 240.944C4.57331 242.195 4.90519 243.425 5.53512 244.507C6.16506 245.589 7.07057 246.484 8.15932 247.102L58.8415 276.069C61.6357 277.653 64.767 278.55 67.9763 278.684C71.1856 278.818 74.3808 278.187 77.2976 276.841C77.8212 276.606 78.8029 276.082 79.3003 275.807L168.897 224.68C169.041 224.601 170.52 223.751 170.651 223.646C173.815 221.746 176.491 219.133 178.465 216.015C180.44 212.897 181.658 209.361 182.023 205.688C182.388 202.016 181.889 198.309 180.567 194.864C179.245 191.418 177.136 188.329 174.408 185.844C172.744 184.324 170.923 182.986 168.976 181.851L154.656 173.474L152.313 170.856L152.706 170.176L171.384 181.105C175.245 183.358 178.451 186.58 180.685 190.451C182.919 194.323 184.104 198.711 184.123 203.181C184.141 207.651 182.993 212.048 180.791 215.938C178.589 219.828 175.41 223.076 171.568 225.361C171.437 225.452 170.115 226.211 169.971 226.29L79.7977 277.758C76.5303 279.622 72.8394 280.618 69.0774 280.65H68.2659C64.7844 280.555 61.3752 279.635 58.318 277.967L56.8912 277.169L7.25614 248.804C5.94873 248.072 4.85006 247.018 4.06432 245.742C3.27859 244.466 2.83185 243.01 2.76648 241.513C2.73747 240.838 2.78132 240.162 2.89735 239.497C3.08535 238.369 3.49721 237.29 4.10866 236.323C4.72011 235.357 5.51882 234.522 6.45771 233.869C7.53466 233.089 8.65328 232.368 9.8086 231.709L96.9055 181.55C100.197 179.648 102.985 176.984 105.034 173.782C107.084 170.579 108.336 166.933 108.686 163.147C108.686 163.029 108.686 162.78 108.686 162.662C108.754 161.822 108.776 160.979 108.751 160.136C108.751 160.136 108.751 159.678 108.751 159.639C108.633 156.3 107.807 153.024 106.329 150.028C104.851 147.031 102.755 144.382 100.178 142.256C98.6182 140.968 96.9446 139.824 95.1777 138.84L81.3553 131.195L79.0254 128.578L79.4573 127.949Z" fill="#D7DBDD"/>
<path d="M68.6847 279.89C64.9495 279.889 61.2784 278.92 58.0299 277.076L7.33464 248.109C6.04247 247.371 4.96849 246.304 4.22151 245.017C3.47452 243.729 3.08105 242.268 3.08105 240.779C3.08105 239.291 3.47452 237.829 4.22151 236.542C4.96849 235.255 6.04247 234.188 7.33464 233.449L97.0233 181.929C100.733 179.787 103.815 176.708 105.961 173.001C108.106 169.293 109.24 165.087 109.249 160.803V160.305C109.249 155.955 108.084 151.683 105.874 147.936C103.664 144.188 100.49 141.101 96.683 138.996L79.13 129.284L79.5097 128.59L97.0626 138.302C100.975 140.481 104.236 143.663 106.509 147.522C108.782 151.38 109.986 155.775 109.995 160.253V160.751C109.989 165.173 108.82 169.516 106.605 173.343C104.39 177.171 101.208 180.349 97.3767 182.557L7.67497 234.13C6.50243 234.799 5.52774 235.767 4.84985 236.935C4.17196 238.103 3.81494 239.429 3.81494 240.779C3.81494 242.129 4.17196 243.456 4.84985 244.624C5.52774 245.791 6.50243 246.759 7.67497 247.429L58.3571 276.396C61.4881 278.172 65.0262 279.105 68.6258 279.105C72.2254 279.105 75.7635 278.172 78.8944 276.396L170.259 224.247C173.971 222.127 177.061 219.068 179.216 215.376C181.372 211.684 182.518 207.489 182.539 203.214C182.561 198.939 181.456 194.733 179.337 191.02C177.218 187.307 174.16 184.217 170.468 182.06L152.313 171.458L152.719 170.777L170.913 181.419C174.723 183.645 177.881 186.836 180.068 190.669C182.255 194.502 183.394 198.844 183.371 203.257C183.349 207.67 182.165 212 179.939 215.811C177.713 219.622 174.524 222.78 170.691 224.967L79.3395 277.115C76.0889 278.949 72.4169 279.906 68.6847 279.89Z" fill="#DFE0E0"/>
<path d="M79.2522 126.118L76.6406 130.656L149.872 172.8L152.483 168.262L79.2522 126.118Z" fill="#BECAD3"/>
<path d="M110.862 108.088L109.553 110.354L182.903 152.737L184.213 150.471L110.862 108.088Z" fill="#BECAD3"/>
<path d="M101.39 113.586L100.08 115.853L173.43 158.235L174.74 155.969L101.39 113.586Z" fill="#BECAD3"/>
<path d="M91.9006 119.081L90.5908 121.348L163.941 163.731L165.251 161.464L91.9006 119.081Z" fill="#BECAD3"/>
<path d="M82.4103 124.57L81.1006 126.837L154.451 169.22L155.761 166.953L82.4103 124.57Z" fill="#BECAD3"/>
<path d="M72.9201 130.08L71.6104 132.347L144.961 174.73L146.27 172.463L72.9201 130.08Z" fill="#BECAD3"/>
<path d="M63.4308 135.562L62.1211 137.829L135.471 180.212L136.781 177.945L63.4308 135.562Z" fill="#BECAD3"/>
<path d="M53.966 141.084L52.6562 143.351L126.007 185.734L127.316 183.467L53.966 141.084Z" fill="#BECAD3"/>
<path d="M45.1097 141.392L43.8008 143.67L117.503 186.027L118.812 183.75L45.1097 141.392Z" fill="#BECAD3"/>
<path d="M34.9787 152.051L33.6689 154.317L107.019 196.7L108.329 194.434L34.9787 152.051Z" fill="#BECAD3"/>
<path d="M25.5129 157.56L24.2031 159.827L97.5534 202.21L98.8631 199.943L25.5129 157.56Z" fill="#BECAD3"/>
<path d="M15.9845 163.037L14.6748 165.304L88.0251 207.687L89.3348 205.42L15.9845 163.037Z" fill="#BECAD3"/>
<path d="M6.50602 168.532L5.19629 170.799L78.5466 213.182L79.8563 210.915L6.50602 168.532Z" fill="#BECAD3"/>
<path d="M58.8675 213.566C58.4098 213.562 57.9601 213.445 57.5585 213.226L6.87629 184.259C5.24415 183.325 3.88772 181.977 2.94427 180.351C2.00082 178.725 1.50391 176.878 1.50391 174.998C1.50391 173.118 2.00082 171.271 2.94427 169.645C3.88772 168.019 5.24415 166.671 6.87629 165.737L108.149 107.502L138.255 20.7981C140.153 15.326 143.885 10.6784 148.818 7.64326L157.706 2.19807C158.297 1.84798 159.003 1.74454 159.67 1.91008C160.337 2.07563 160.912 2.49688 161.271 3.08289C161.63 3.6689 161.745 4.37265 161.589 5.04221C161.434 5.71176 161.022 6.2934 160.441 6.66156L151.554 12.1068C147.655 14.5134 144.701 18.1875 143.189 22.5128L112.495 111.076L9.48115 170.279C8.65167 170.755 7.96244 171.441 7.48314 172.269C7.00384 173.096 6.75142 174.035 6.75142 174.991C6.75142 175.948 7.00384 176.887 7.48314 177.714C7.96244 178.542 8.65167 179.228 9.48115 179.704L60.1764 208.67C60.6807 208.956 61.076 209.401 61.3001 209.936C61.5242 210.471 61.5646 211.064 61.4148 211.624C61.2651 212.184 60.9338 212.679 60.4727 213.03C60.0117 213.382 59.4471 213.57 58.8675 213.566Z" fill="#BECAD3"/>
<path d="M160.611 3.19228C160.721 3.36445 160.78 3.56406 160.781 3.76821C161.043 4.60594 159.996 5.98032 159.21 6.46463L153.098 10.2082C152.875 10.3522 150.611 11.7659 150.48 11.9229C147.073 14.1933 144.428 17.436 142.888 21.2295C142.744 21.5306 142.521 22.1458 142.417 22.4599L111.827 110.525L9.03556 169.637C7.88196 170.31 6.99328 171.357 6.51706 172.605C6.04085 173.853 6.00575 175.226 6.41768 176.496C6.75714 177.573 7.41982 178.519 8.31566 179.206C9.48006 180.129 10.7142 180.96 12.0069 181.693L58.9455 208.526C59.8225 209.023 60.9875 210.555 60.6079 211.458C60.6203 211.549 60.6203 211.642 60.6079 211.733C60.563 211.833 60.5104 211.929 60.4508 212.021C60.3596 212.134 60.254 212.236 60.1366 212.322L59.9665 212.414C59.4724 212.627 58.9298 212.704 58.3958 212.636C57.9622 212.578 57.5442 212.436 57.1654 212.217L7.09835 183.604C5.55001 182.722 4.26267 181.446 3.36718 179.906C2.4717 178.366 2 176.616 2 174.834C2 173.052 2.4717 171.302 3.36718 169.762C4.26267 168.221 5.55001 166.946 7.09835 166.064L108.031 108.025L109.143 106.023L138.307 21.884C138.81 20.4448 139.409 19.0411 140.1 17.6823C142.011 13.9421 144.85 10.7555 148.346 8.42804C148.556 8.25788 150.899 6.79187 151.134 6.64788L157.116 2.95667C157.888 2.47236 159.603 2.15821 160.231 2.77342L160.402 2.87813C160.483 2.97495 160.553 3.08028 160.611 3.19228Z" fill="#C6D0D6"/>
<path d="M159.969 3.31036C160.024 3.39489 160.058 3.49081 160.069 3.59069C160.08 3.69057 160.069 3.79172 160.035 3.8863C160.218 4.43605 158.556 5.95443 158.032 6.26857L151.958 9.99905C151.513 10.2739 149.72 11.4127 149.341 11.753C146.032 14.1166 143.488 17.3975 142.024 21.1905C141.932 21.3999 141.644 22.1984 141.579 22.4078L111.198 109.937L8.59013 168.931C7.75906 169.404 7.04658 170.06 6.5068 170.849C5.96702 171.638 5.61413 172.54 5.47484 173.486C5.36524 174.23 5.38738 174.988 5.54027 175.724C5.76592 176.823 6.29143 177.838 7.05861 178.656C8.07949 179.742 9.25762 180.669 10.5535 181.405L57.6754 208.317C58.2514 208.657 60.1362 210.293 59.8745 210.935C59.9003 211.024 59.9003 211.12 59.8745 211.21C59.8477 211.31 59.808 211.407 59.7566 211.497C59.6719 211.611 59.5592 211.702 59.4294 211.759H59.2592C59.0236 211.943 58.0419 211.628 57.7409 211.628C57.3299 211.522 56.9341 211.363 56.5628 211.157L7.11102 182.963C5.65041 182.126 4.43659 180.919 3.59244 179.463C2.74829 178.007 2.30371 176.354 2.30371 174.67C2.30371 172.987 2.74829 171.334 3.59244 169.878C4.43659 168.422 5.65041 167.215 7.11102 166.378L107.69 108.536L109.13 106.808L138.188 22.9707C138.45 22.2376 139.497 19.4103 139.877 18.7428C141.615 14.9371 144.324 11.6554 147.731 9.22677C148.149 8.87336 150.008 7.68223 150.479 7.39426L156.487 3.71613C156.998 3.38889 159.105 2.59045 159.537 2.99622C159.593 2.97908 159.652 2.97908 159.707 2.99622C159.822 3.07451 159.913 3.18331 159.969 3.31036Z" fill="#CFD5DA"/>
<path d="M159.328 3.44158C159.386 3.52169 159.417 3.61783 159.417 3.71646C159.417 3.81509 159.386 3.91123 159.328 3.99134C159.42 4.27931 157.142 5.91549 156.894 6.07256L150.859 9.77687C149.953 10.3243 149.079 10.923 148.242 11.5701C145.041 14.0414 142.604 17.3676 141.213 21.1647C141.213 21.2694 140.82 22.2511 140.781 22.3689L110.596 109.44L8.17179 168.342C7.33748 168.814 6.6108 169.454 6.03829 170.223C5.46579 170.991 5.06003 171.871 4.84703 172.806C4.68626 173.545 4.64213 174.304 4.71617 175.057C4.82274 176.19 5.21946 177.276 5.86805 178.211C6.72248 179.45 7.84559 180.479 9.1535 181.222L56.3277 208.225C56.6288 208.383 59.2074 210.15 59.0765 210.451C59.11 210.483 59.1365 210.521 59.1545 210.564C59.1725 210.607 59.1816 210.653 59.1812 210.699C59.1879 210.806 59.1604 210.911 59.1027 211C59.0284 211.119 58.911 211.203 58.7754 211.236C58.7151 211.25 58.6525 211.25 58.5922 211.236C58.4744 211.328 57.2832 210.778 57.1262 210.778C56.7409 210.616 56.3651 210.432 56.0005 210.228L7.17699 182.335C5.80074 181.546 4.6571 180.409 3.86173 179.036C3.06637 177.664 2.64746 176.106 2.64746 174.52C2.64746 172.934 3.06637 171.376 3.86173 170.004C4.6571 168.632 5.80074 167.494 7.17699 166.706L107.416 109.112L109.196 107.633L138.15 24.1098C138.267 23.7433 139.537 20.1829 139.733 19.8557C141.282 15.9915 143.836 12.6113 147.129 10.0648C147.995 9.39507 148.895 8.77032 149.825 8.19304L155.82 4.52801C156.082 4.35785 158.595 3.06199 158.805 3.21907C158.864 3.19911 158.929 3.19911 158.988 3.21907C159.057 3.22927 159.124 3.25445 159.183 3.29288C159.241 3.3313 159.291 3.38204 159.328 3.44158Z" fill="#D7DBDD"/>
<path d="M58.2125 210.726C58.1529 210.745 58.0888 210.745 58.0292 210.726L7.33395 181.667C6.04488 180.928 4.97375 179.862 4.22889 178.576C3.48403 177.29 3.0918 175.83 3.0918 174.344C3.0918 172.858 3.48403 171.398 4.22889 170.112C4.97375 168.826 6.04488 167.76 7.33395 167.02L109.327 108.367L139.642 20.9294C141.36 15.924 144.76 11.6686 149.262 8.88715L158.137 3.44195C158.206 3.42299 158.278 3.42299 158.347 3.44195C158.414 3.44645 158.481 3.46649 158.54 3.50053C158.599 3.53457 158.649 3.58171 158.687 3.6383C158.74 3.72696 158.756 3.83305 158.732 3.93354C158.707 4.03402 158.644 4.12077 158.556 4.17496L149.681 9.62016C145.337 12.288 142.049 16.376 140.375 21.1912L109.994 108.903L7.75282 167.701C6.58338 168.372 5.61162 169.339 4.93585 170.505C4.26008 171.672 3.90421 172.996 3.90421 174.344C3.90421 175.692 4.26008 177.016 4.93585 178.182C5.61162 179.349 6.58338 180.316 7.75282 180.987L58.435 209.954C58.5263 210.006 58.5959 210.09 58.6314 210.189C58.6675 210.286 58.6675 210.393 58.6314 210.49C58.5975 210.57 58.538 210.637 58.4622 210.68C58.3864 210.722 58.2986 210.739 58.2125 210.726Z" fill="#DFE0E0"/>
<path d="M6.35204 135.973C4.85572 135.108 3.60647 133.874 2.72393 132.388C1.8414 130.902 1.35512 129.215 1.31177 127.487C1.26842 125.76 1.66945 124.05 2.47635 122.522C3.28325 120.994 4.46899 119.699 5.92007 118.76L70.5164 77.031L135.1 35.3281L208.165 77.8949C208.752 78.2316 209.243 78.7145 209.589 79.2968C209.935 79.8792 210.124 80.541 210.139 81.2182C210.153 81.8953 209.992 82.5647 209.672 83.1613C209.351 83.7579 208.881 84.2614 208.309 84.6229L205.547 80.2248C205.363 80.3458 205.213 80.5112 205.11 80.7057C205.007 80.9001 204.955 81.1174 204.958 81.3374C204.967 81.5556 205.03 81.7681 205.142 81.9556C205.254 82.1431 205.411 82.2996 205.599 82.4108L135.283 41.454L72.0347 82.306L8.76045 123.158C8.06456 123.61 7.4962 124.233 7.10957 124.968C6.72294 125.702 6.53101 126.523 6.55201 127.353C6.57301 128.183 6.80628 128.993 7.22957 129.707C7.65286 130.421 8.25204 131.014 8.96993 131.431L6.35204 135.973Z" fill="#BECAD3"/>
<path d="M135.126 35.7979L205.927 77.0426C206.479 77.3571 206.962 77.7802 207.347 78.2863C207.731 78.7925 208.01 79.3712 208.165 79.9877C208.165 80.7731 208.466 81.8333 207.942 82.3831L207.825 82.5009C207.627 82.6809 207.417 82.8471 207.196 82.9983L204.002 79.0715C203.714 79.2547 203.296 79.4249 203.296 79.7521C203.296 80.0793 203.296 80.2495 203.518 80.4197L139.288 43.0101L133.974 41.4525L73.3439 80.6422L71.4459 81.8726L8.82617 122.319C8.39425 122.596 7.99848 122.926 7.64809 123.301C6.89855 124.116 6.43853 125.156 6.33915 126.259C6.2666 126.905 6.32294 127.56 6.50493 128.184C6.68691 128.809 6.99094 129.391 7.39939 129.898C7.55766 130.104 7.73762 130.293 7.9361 130.46C7.9361 130.814 6.47009 134.008 6.7057 134.27L6.29993 134.976C4.63845 133.879 3.37939 132.271 2.71336 130.395C2.24336 129.093 2.06904 127.702 2.20293 126.324C2.32684 124.988 2.74717 123.695 3.43334 122.541C4.45355 120.819 5.86067 119.358 7.54336 118.274L68.8934 78.6526L71.3674 77.0557L135.126 35.7979Z" fill="#C6D0D6"/>
<path d="M135.141 36.2959L203.651 76.2055C204.253 76.5589 206.164 78.0773 206.177 78.8234C206.19 79.5695 207.12 80.4988 206.779 80.8653C206.734 80.893 206.694 80.9284 206.662 80.9701L206.06 81.4413L202.486 77.9857C202.29 78.1035 201.662 77.9857 201.675 78.2475C201.688 78.5093 201.282 78.3653 201.478 78.4831L137.929 41.4662H132.693L72.6392 80.2632L70.7674 81.4675L8.76279 121.521C8.34159 121.794 7.94327 122.1 7.57169 122.437C6.75688 123.168 6.17814 124.125 5.9093 125.186C5.59751 126.423 5.73197 127.73 6.28895 128.877C6.40008 129.1 6.52691 129.314 6.66851 129.519C6.76014 130.226 5.96168 132.791 6.41981 133.302L6.01404 134.008C4.45989 132.813 3.36074 131.123 2.89876 129.218C2.59104 127.896 2.59104 126.521 2.89876 125.199C3.18457 123.917 3.7674 122.72 4.60036 121.704C4.99305 120.775 8.08218 118.393 8.97226 117.778L69.5893 78.6271L72.0239 77.0563L135.141 36.2959Z" fill="#CFD5DA"/>
<path d="M135.153 36.7803L201.386 75.3548C201.687 75.538 204.174 77.1873 204.187 77.5407C204.2 77.8941 205.771 79.0198 205.6 79.2031L205.483 79.2947L204.907 79.7528L200.98 76.7684C200.888 76.8339 200.051 76.4936 200.064 76.5983C200.077 76.703 199.344 76.3627 199.435 76.415L136.606 39.7647L131.488 41.4139L72.036 79.8314L70.1904 81.0225L8.81413 120.67C8.69633 120.749 7.67536 121.443 7.59683 121.534C6.65556 122.253 5.9422 123.228 5.54274 124.343C5.14328 125.458 5.07472 126.664 5.34541 127.817C5.4014 128.061 5.47137 128.301 5.55488 128.537C5.71196 129.597 5.55489 131.521 6.30099 132.294L5.89514 133.001C4.45056 131.697 3.52166 129.918 3.27726 127.987C3.11083 126.662 3.26344 125.315 3.72233 124.06C4.17946 122.833 4.92991 121.737 5.90824 120.867C7.35623 119.577 8.90098 118.4 10.5288 117.346L70.4129 78.6664L72.8083 77.1218L135.153 36.7803Z" fill="#D7DBDD"/>
<path d="M5.69803 131.993C4.90075 131.156 4.29799 130.154 3.93275 129.057C3.5675 127.96 3.44878 126.797 3.58506 125.649C3.72133 124.501 4.10924 123.398 4.72111 122.417C5.33299 121.437 6.15367 120.603 7.12473 119.977L71.1451 78.6272L135.165 37.2646L204.435 77.6193L204.304 77.6978C204.111 77.8239 203.931 77.9686 203.767 78.1298L135.192 38.194L71.3676 79.4126L7.5567 120.631C6.70013 121.186 5.97354 121.92 5.42648 122.782C4.87942 123.644 4.52478 124.614 4.38685 125.625C4.24892 126.637 4.33093 127.666 4.62724 128.643C4.92355 129.62 5.42719 130.521 6.1038 131.286L5.69803 131.993Z" fill="#DFE0E0"/>
<path d="M194.487 90.5381H191.869V127.869H194.487V90.5381Z" fill="url(#paint50_linear_6780_9755)"/>
<path d="M132.807 101.7L131.507 103.972L173.288 127.89L174.588 125.618L132.807 101.7Z" fill="#BECAD3"/>
<path d="M153.19 7.70876C153.146 8.15846 153.22 8.61179 153.403 9.02466C153.587 9.43753 153.874 9.79587 154.237 10.0648L230.496 52.6578C231.164 53.0374 230.732 52.1866 231.805 51.5976C232.882 50.8965 233.778 49.9517 234.422 48.8397C235.065 47.7276 235.438 46.4797 235.509 45.1968C235.509 44.0319 236.596 44.0188 235.928 43.6261L159.538 1.02007C159.114 0.838975 158.65 0.770334 158.192 0.820776C157.733 0.871219 157.295 1.03904 156.92 1.30803C155.837 2.00462 154.935 2.94778 154.286 4.0603C153.638 5.17283 153.262 6.4231 153.19 7.70876Z" fill="url(#paint51_linear_6780_9755)"/>
<path d="M229.578 50.3288C229.578 52.6849 231.24 53.6273 233.295 52.4493C234.371 51.7474 235.267 50.8024 235.911 49.6906C236.554 48.5787 236.927 47.3311 237 46.0486C237 43.6925 235.337 42.75 233.295 43.9281C232.217 44.6284 231.319 45.5728 230.673 46.6847C230.027 47.7967 229.652 49.045 229.578 50.3288Z" fill="url(#paint52_linear_6780_9755)"/>
<path style="mix-blend-mode:screen" d="M233.114 43.8358C233.476 43.5727 233.899 43.4069 234.344 43.3541C234.788 43.3014 235.239 43.3636 235.653 43.5348C235.274 43.452 234.883 43.4476 234.502 43.5219C234.122 43.5962 233.761 43.7476 233.441 43.9667C232.36 44.6648 231.46 45.6086 230.814 46.721C230.168 47.8334 229.794 49.0829 229.723 50.3674C229.67 50.8412 229.752 51.3205 229.961 51.7493C230.169 52.1781 230.496 52.5387 230.901 52.789C229.998 52.5403 229.409 51.6371 229.409 50.1711C229.494 48.9003 229.872 47.6666 230.515 46.5671C231.158 45.4677 232.048 44.5327 233.114 43.8358Z" fill="url(#paint53_radial_6780_9755)"/>
<path d="M223.793 55.3807C223.214 55.3848 222.649 55.1963 222.188 54.8449C221.727 54.4935 221.396 53.9991 221.246 53.4391C221.096 52.8791 221.137 52.2853 221.361 51.7507C221.585 51.2161 221.98 50.771 222.484 50.4853L231.987 45.027C232.286 44.8551 232.615 44.7436 232.956 44.6989C233.297 44.6543 233.644 44.6772 233.977 44.7666C234.309 44.8559 234.621 45.0099 234.894 45.2196C235.167 45.4294 235.396 45.6908 235.567 45.989C235.739 46.2873 235.851 46.6165 235.895 46.9578C235.94 47.2991 235.917 47.6458 235.828 47.9783C235.738 48.3107 235.584 48.6223 235.375 48.8952C235.165 49.1682 234.903 49.3971 234.605 49.569L225.089 55.0273C224.695 55.2558 224.249 55.3776 223.793 55.3807Z" fill="#BECAD3"/>
<path style="mix-blend-mode:color-dodge" d="M169.617 9.9071C168.492 11.8574 181.542 21.5567 198.781 31.5701C216.02 41.5835 230.889 48.1282 232.028 46.1779C233.167 44.2275 220.103 34.5414 202.865 24.528C185.626 14.5146 170.756 7.96986 169.617 9.9071Z" fill="url(#paint54_radial_6780_9755)"/>
<path d="M194.885 115.134L71.3975 187.584L72.7222 189.842L196.21 117.392L194.885 115.134Z" fill="#BECAD3"/>
<path d="M73.0944 166.798H70.4766V214.836H73.0944V166.798Z" fill="url(#paint55_linear_6780_9755)"/>
<path d="M83.1999 209.129H80.582V161.903L83.1999 160.594V209.129Z" fill="url(#paint56_linear_6780_9755)"/>
<path d="M93.3191 154.389H90.7012V203.409H93.3191V154.389Z" fill="url(#paint57_linear_6780_9755)"/>
<path d="M103.438 148.185H100.82V197.689H103.438V148.185Z" fill="url(#paint58_linear_6780_9755)"/>
<path d="M113.554 141.979H110.937V191.968H113.554V141.979Z" fill="url(#paint59_linear_6780_9755)"/>
<path d="M123.659 135.788H121.041V186.261H123.659V135.788Z" fill="url(#paint60_linear_6780_9755)"/>
<path d="M133.777 129.585H131.159V180.555H133.777V129.585Z" fill="url(#paint61_linear_6780_9755)"/>
<path d="M143.896 123.38H141.278V174.834H143.896V123.38Z" fill="url(#paint62_linear_6780_9755)"/>
<path d="M154.013 117.177H151.396V169.116H154.013V117.177Z" fill="url(#paint63_linear_6780_9755)"/>
<path d="M164.119 110.971H161.501V163.394H164.119V110.971Z" fill="url(#paint64_linear_6780_9755)"/>
<path d="M174.236 104.78H171.618V157.688H174.236V104.78Z" fill="url(#paint65_linear_6780_9755)"/>
<path d="M184.355 98.5742H181.737V151.979H184.355V98.5742Z" fill="url(#paint66_linear_6780_9755)"/>
<path d="M8.77316 134.649H6.15527V181.797H8.77316V134.649Z" fill="url(#paint67_linear_6780_9755)"/>
<path d="M16.6794 139.087H14.0615V186.235H16.6794V139.087Z" fill="url(#paint68_linear_6780_9755)"/>
<path d="M24.5993 143.525H21.9814V190.673H24.5993V143.525Z" fill="url(#paint69_linear_6780_9755)"/>
<path d="M32.5056 147.962H29.8877V195.11H32.5056V147.962Z" fill="url(#paint70_linear_6780_9755)"/>
<path d="M40.4118 152.398H37.7939V199.547H40.4118V152.398Z" fill="url(#paint71_linear_6780_9755)"/>
<path d="M48.3171 156.837H45.6992V203.985H48.3171V156.837Z" fill="url(#paint72_linear_6780_9755)"/>
<path d="M56.236 161.286H53.6182V208.434H56.236V161.286Z" fill="url(#paint73_linear_6780_9755)"/>
<path d="M64.1423 165.724H61.5244V212.872H64.1423V165.724Z" fill="url(#paint74_linear_6780_9755)"/>
<path d="M70.2929 169.311C66.305 169.292 62.3918 168.227 58.9444 166.222L6.35119 135.933C4.85296 135.072 3.60206 133.839 2.71932 132.353C1.83659 130.867 1.35178 129.179 1.31172 127.451C1.22009 123.904 6.54748 125.605 6.54748 127.307C6.56145 128.14 6.79218 128.954 7.21681 129.67C7.64145 130.386 8.24537 130.979 8.96907 131.391L61.5623 161.719C64.3434 163.33 67.5156 164.142 70.7288 164.063C73.9419 163.984 77.0707 163.019 79.7697 161.274L205.546 80.2244C205.179 80.4601 208.242 77.8945 208.242 77.8945C208.83 78.2312 209.321 78.7142 209.667 79.2965C210.012 79.8788 210.202 80.5407 210.216 81.2178C210.231 81.8949 210.07 82.5643 209.749 83.1609C209.428 83.7575 208.959 84.261 208.386 84.6225L82.6363 165.672C78.9597 168.052 74.6725 169.316 70.2929 169.311Z" fill="#BECAD3"/>
<path d="M70.2543 168.63C66.3664 168.627 62.5475 167.603 59.1806 165.658L6.58736 135.356C5.16614 134.549 3.9788 133.386 3.1414 131.982C2.304 130.578 1.84515 128.98 1.80969 127.346C1.73115 124.191 5.89362 125.539 5.93289 127.241C5.95258 128.168 6.21266 129.074 6.68762 129.87C7.16258 130.666 7.83615 131.325 8.64241 131.783L61.2357 162.085C63.674 163.501 66.4326 164.272 69.2516 164.327C72.0705 164.382 74.857 163.719 77.3487 162.399C78.2912 162.399 173.53 101.35 174.328 100.879L205.913 80.0537C206.375 80.3249 206.764 80.7054 207.044 81.1619C207.325 81.6183 207.489 82.1368 207.523 82.6716C207.555 83.1846 207.45 83.6968 207.22 84.1565C206.991 84.6161 206.643 85.007 206.214 85.2895L82.2573 165.135C78.6724 167.423 74.5071 168.636 70.2543 168.63Z" fill="#CBD4DB"/>
<path d="M70.2148 167.95C66.4244 167.944 62.7015 166.947 59.416 165.057L6.83588 134.807C5.49911 134.046 4.38261 132.952 3.59565 131.63C2.80869 130.309 2.37821 128.805 2.34622 127.268C2.26769 124.493 5.30442 125.474 5.35677 127.189C5.37854 128.21 5.6635 129.208 6.18405 130.086C6.7046 130.964 7.44313 131.693 8.3281 132.202L60.9214 162.491C63.0267 163.719 65.3819 164.455 67.8115 164.645C70.2411 164.836 72.6823 164.475 74.9532 163.591C76.838 163.591 141.565 122.516 143.162 121.482L203.661 82.2139C204.002 82.4124 204.296 82.6827 204.522 83.0059C204.748 83.329 204.901 83.6975 204.97 84.0856C204.993 84.4234 204.927 84.7612 204.78 85.0663C204.634 85.3713 204.411 85.6332 204.133 85.8265L81.9692 164.599C78.4551 166.823 74.3737 167.987 70.2148 167.95Z" fill="#D8DEE3"/>
<path d="M70.1763 167.27C66.4988 167.257 62.8885 166.283 59.7047 164.442L7.07218 134.153C5.81809 133.437 4.77075 132.409 4.03215 131.168C3.29354 129.927 2.88886 128.516 2.85742 127.072C2.85742 124.69 4.71606 125.318 4.75532 127.072C4.77801 128.19 5.09028 129.283 5.66153 130.244C6.23278 131.205 7.04355 132.002 8.01466 132.556L60.6079 162.858C64.2171 164.942 68.4736 165.605 72.5455 164.717C75.3859 164.717 109.589 143.643 111.984 142.099L201.398 84.2695C201.807 84.5489 202.122 84.946 202.301 85.4083C202.325 85.5785 202.305 85.752 202.243 85.9124C202.181 86.0728 202.08 86.2147 201.947 86.3246L81.5248 163.945C78.1399 166.12 74.2 167.274 70.1763 167.27Z" fill="#E4E8EA"/>
<path d="M70.1369 166.588C66.5426 166.588 63.012 165.639 59.9009 163.839L7.30768 133.498C6.15068 132.831 5.18294 131.88 4.49582 130.735C3.80871 129.59 3.42494 128.288 3.38086 126.953C3.38086 124.951 4.127 125.212 4.16627 126.953C4.19243 128.168 4.53292 129.355 5.15461 130.399C5.7763 131.443 6.6579 132.308 7.71345 132.909L60.2544 163.159C63.3879 164.973 66.9621 165.886 70.5819 165.796C74.2018 165.706 77.7261 164.616 80.7655 162.648L199.081 86.3369C199.257 86.4868 199.446 86.6225 199.644 86.7427L199.774 86.8212L81.1974 163.303C77.904 165.44 74.0632 166.581 70.1369 166.588Z" fill="#F1F2F2"/>
<path d="M69.3383 216.329C65.2088 216.334 61.1489 215.265 57.5578 213.226L6.87555 184.259C6.2715 183.912 5.83014 183.339 5.64849 182.667C5.46684 181.994 5.55979 181.277 5.90694 180.673C6.25409 180.069 6.82698 179.628 7.49958 179.446C8.17218 179.264 8.88938 179.357 9.49343 179.704L60.1888 208.671C62.9822 210.257 66.1393 211.09 69.3514 211.09C72.5635 211.09 75.7206 210.257 78.514 208.671L181.501 149.874L211.306 63.9939C213.295 58.2867 217.272 53.4867 222.511 50.4726L232.013 45.0143C232.312 44.8424 232.641 44.7309 232.982 44.6862C233.324 44.6416 233.67 44.6645 234.003 44.7539C234.335 44.8432 234.647 44.9972 234.92 45.2069C235.193 45.4167 235.422 45.6781 235.593 45.9764C235.765 46.2746 235.877 46.6038 235.921 46.9451C235.966 47.2864 235.943 47.6331 235.854 47.9656C235.765 48.298 235.611 48.6096 235.401 48.8825C235.191 49.1555 234.93 49.3844 234.631 49.5563L225.115 55.0146C220.97 57.3954 217.823 61.1929 216.254 65.7087L201.031 109.584L185.795 153.447L81.0794 213.213C77.5027 215.254 73.4562 216.328 69.3383 216.329Z" fill="#BECAD3"/>
<path d="M235.102 46.1013C235.204 46.2805 235.253 46.4844 235.246 46.6903C235.482 47.528 234.408 48.8762 233.61 49.3081L226.843 53.235C226.62 53.3659 224.395 54.6617 224.225 54.8188C220.494 57.1234 217.614 60.578 216.018 64.662L215.664 65.6176L200.546 109.166L185.349 152.937L80.8433 212.599C77.5297 214.481 73.8021 215.516 69.9922 215.609H69.1675C65.6393 215.579 62.1649 214.741 59.0101 213.161C58.6174 212.978 57.8975 212.586 57.531 212.376L7.18916 183.579C7.01937 183.474 6.87607 183.33 6.77029 183.161C6.4731 182.835 6.28746 182.424 6.24037 181.986C6.19329 181.548 6.2872 181.107 6.50849 180.726L6.63935 180.595C7.21529 179.757 9.16567 179.967 10.0558 180.477L59.9264 208.973C62.8059 210.599 66.0568 211.454 69.3639 211.454C72.671 211.454 75.9218 210.599 78.8013 208.973L181.435 150.385L182.561 148.343L197.784 104.519L211.476 65.0678C211.981 63.619 212.584 62.2064 213.282 60.8399C215.304 56.9004 218.357 53.5841 222.117 51.2454C222.327 51.0752 224.735 49.6877 224.945 49.5438L231.568 45.7478C232.366 45.2897 234.081 45.0279 234.696 45.6562C234.749 45.6789 234.797 45.7098 234.84 45.7478C234.945 45.8518 235.033 45.971 235.102 46.1013Z" fill="#C6D0D6"/>
<path d="M234.617 46.2181C234.658 46.3063 234.679 46.4023 234.679 46.4996C234.679 46.5968 234.658 46.6928 234.617 46.781C234.774 47.3438 233.085 48.7967 232.549 49.1109L225.834 52.9723C225.402 53.221 223.635 54.2812 223.216 54.5823C219.623 57.0019 216.877 60.4849 215.362 64.5433C215.362 64.7004 215.074 65.3156 215.022 65.4857L200.022 108.681L184.851 152.347L80.5283 211.904C77.238 213.779 73.529 214.796 69.7426 214.862H68.918C65.4097 214.779 61.9686 213.883 58.8653 212.244C58.6166 212.126 57.6611 211.59 57.4124 211.446L7.42395 182.885C7.33875 182.838 7.26517 182.772 7.20856 182.693C7.15195 182.613 7.11373 182.523 7.09671 182.427C6.92443 182.179 6.83203 181.884 6.83203 181.582C6.83203 181.281 6.92443 180.986 7.09671 180.738C7.13573 180.7 7.18657 180.677 7.24068 180.673C7.62027 180.11 10.0157 180.869 10.6178 181.209L59.6638 209.234C62.7954 211.039 66.3646 211.945 69.9782 211.852C73.2021 211.751 76.3505 210.852 79.1408 209.234L181.422 150.855L182.888 149.088L198.045 105.422L211.697 66.1533C211.946 65.4072 213.006 62.5537 213.399 61.8862C215.227 57.8828 218.126 54.4628 221.776 52.0037C222.208 51.6633 224.093 50.5376 224.564 50.2628L231.109 46.4668C231.633 46.1658 233.727 45.4197 234.172 45.8385H234.342C234.467 45.9373 234.562 46.0687 234.617 46.2181Z" fill="#CFD5DA"/>
<path d="M234.133 46.3355C234.191 46.4156 234.222 46.5118 234.222 46.6104C234.222 46.709 234.191 46.8052 234.133 46.8853C234.212 47.1602 231.921 48.7178 231.66 48.8749L224.997 52.7101C224.329 53.0897 223.034 53.8881 222.379 54.3463C218.881 56.8662 216.226 60.3837 214.761 64.4382C214.761 64.5167 214.46 65.2759 214.434 65.3675L199.538 108.262L184.42 151.823L80.2674 211.275C76.9966 213.13 73.3072 214.121 69.5472 214.155H68.7356C65.249 214.066 61.8341 213.146 58.7746 211.472C58.6568 211.472 57.4657 210.752 57.3479 210.673L7.71278 182.321C7.6266 182.27 7.55797 182.194 7.51592 182.103C7.47388 182.012 7.46038 181.91 7.47718 181.811C7.41787 181.655 7.39994 181.486 7.42517 181.321C7.4504 181.156 7.51791 181 7.62114 180.869H7.79131C7.98765 180.594 10.8281 181.903 11.1161 182.073L59.3505 209.561C62.3947 211.291 65.8362 212.201 69.3378 212.201C72.8393 212.201 76.2808 211.291 79.325 209.561L181.252 151.378L183.059 149.886L198.151 106.377L211.764 67.2001C211.881 66.8336 213.164 63.2732 213.361 62.9198C214.992 58.8453 217.741 55.3149 221.293 52.7363C222.176 52.0931 223.093 51.4988 224.042 50.9561L230.586 47.1733C230.848 47.0293 233.4 45.7989 233.61 46.0083C233.666 45.9954 233.724 45.9954 233.78 46.0083C233.858 46.0363 233.929 46.0797 233.99 46.1359C234.051 46.1921 234.1 46.26 234.133 46.3355Z" fill="#D7DBDD"/>
<path d="M69.3383 213.448C65.6023 213.453 61.9297 212.483 58.6835 210.634L7.9882 181.667C7.91211 181.623 7.85287 181.555 7.81987 181.474C7.78686 181.393 7.78203 181.303 7.80613 181.218C7.83022 181.134 7.88184 181.06 7.95281 181.008C8.02377 180.957 8.10992 180.931 8.19759 180.934C8.25743 180.916 8.32103 180.916 8.38086 180.934L59.0631 209.901C62.1941 211.677 65.7321 212.61 69.3317 212.61C72.9313 212.61 76.4695 211.677 79.6004 209.901L183.295 150.75L198.348 107.41L213.4 64.1238C215.207 58.9285 218.828 54.5596 223.597 51.8197L233.113 46.3484C233.177 46.3305 233.245 46.3305 233.309 46.3484C233.378 46.3483 233.446 46.3664 233.506 46.4009C233.566 46.4354 233.615 46.485 233.65 46.5447C233.675 46.5894 233.692 46.6387 233.699 46.6899C233.706 46.741 233.702 46.793 233.689 46.8429C233.676 46.8927 233.653 46.9394 233.621 46.9804C233.59 47.0213 233.55 47.0556 233.506 47.0814L223.99 52.5527C219.384 55.199 215.888 59.4196 214.146 64.4379L199.002 107.816L183.91 151.286L79.9407 210.634C76.7092 212.472 73.0563 213.442 69.3383 213.448Z" fill="#DFE0E0"/>
<path d="M70.2937 170.62C67.1498 170.62 64.0366 170.001 61.1312 168.8C60.7594 168.651 60.424 168.424 60.1475 168.134C59.8709 167.844 59.6598 167.499 59.5283 167.12C59.3968 166.742 59.348 166.34 59.3851 165.941C59.4223 165.542 59.5445 165.156 59.7437 164.808L60.9087 162.779C61.2509 162.205 61.7889 161.774 62.4238 161.565C63.0587 161.355 63.7477 161.382 64.3643 161.64C66.3817 162.44 68.5405 162.821 70.7097 162.76C72.8788 162.699 75.013 162.198 76.9825 161.287C77.592 161.026 78.2747 160.99 78.908 161.187C79.5414 161.384 80.0838 161.8 80.438 162.36L81.6553 164.271C81.8719 164.607 82.0139 164.985 82.0715 165.381C82.1291 165.776 82.1012 166.179 81.9895 166.563C81.8777 166.946 81.6849 167.301 81.424 167.604C81.1631 167.906 80.8403 168.149 80.4773 168.316C77.2955 169.829 73.817 170.616 70.2937 170.62Z" fill="url(#paint75_radial_6780_9755)"/>
<path style="mix-blend-mode:color-dodge" d="M70.1882 166.693C67.3984 166.69 64.6363 166.139 62.0597 165.069C62.0298 165.058 62.0025 165.041 61.98 165.018C61.9574 164.996 61.94 164.969 61.9288 164.939C61.9185 164.918 61.9131 164.896 61.9131 164.873C61.9131 164.85 61.9185 164.828 61.9288 164.808L63.0937 162.779H63.3293C65.673 163.708 68.181 164.15 70.7011 164.081C73.2211 164.011 75.7007 163.43 77.9895 162.373C78.0229 162.379 78.0545 162.393 78.0818 162.414C78.109 162.434 78.1311 162.461 78.1465 162.491L79.377 164.389C79.3864 164.409 79.3913 164.432 79.3913 164.454C79.3913 164.477 79.3864 164.499 79.377 164.52C79.3561 164.577 79.3139 164.624 79.2592 164.651C76.4244 165.996 73.3259 166.693 70.1882 166.693Z" fill="url(#paint76_radial_6780_9755)"/>
<g style="mix-blend-mode:darken">
<path d="M80.5168 166.902C77.5032 168.324 74.226 169.102 70.8948 169.185C67.5636 169.268 64.2517 168.656 61.1707 167.387C60.7648 167.22 60.404 166.96 60.1174 166.628C59.8308 166.296 59.6266 165.901 59.5214 165.475C59.3294 166.141 59.3919 166.854 59.6968 167.476C60.0016 168.098 60.5271 168.584 61.1707 168.839C64.2496 170.118 67.5625 170.735 70.8952 170.651C74.2278 170.568 77.5057 169.786 80.5168 168.355C81.1073 168.077 81.583 167.603 81.8624 167.013C82.1418 166.423 82.2075 165.755 82.0483 165.122C81.9363 165.512 81.7414 165.872 81.4771 166.18C81.2128 166.487 80.8852 166.733 80.5168 166.902Z" fill="#00ADF6"/>
</g>
<path d="M7.00683 134.807C6.83781 135.11 6.60205 135.371 6.31737 135.57C6.03269 135.769 5.7065 135.9 5.36354 135.954C5.02058 136.009 4.66985 135.984 4.33774 135.883C4.00562 135.782 3.70081 135.606 3.44647 135.37C1.31488 133.292 0.0795086 130.463 0.00370544 127.487C-0.0720977 124.511 1.01767 121.624 3.0407 119.44C3.28471 119.193 3.58124 119.005 3.90816 118.889C4.23508 118.773 4.58397 118.733 4.92877 118.771C5.27357 118.808 5.60536 118.923 5.89945 119.107C6.19355 119.291 6.44238 119.539 6.62727 119.833L8.47284 122.686C8.71213 123.084 8.83197 123.542 8.81805 124.007C8.80412 124.471 8.65702 124.921 8.39431 125.304C8.01827 125.893 7.83099 126.582 7.85759 127.28C7.87211 127.98 8.09553 128.659 8.49904 129.231C8.78204 129.601 8.95227 130.045 8.98942 130.509C9.02656 130.973 8.92902 131.438 8.70844 131.849L7.00683 134.807Z" fill="url(#paint77_radial_6780_9755)"/>
<path style="mix-blend-mode:color-dodge" d="M6.18279 132.869C4.51429 131.546 3.3834 129.662 3.00055 127.567C2.6177 125.472 3.00894 123.309 4.10154 121.481L5.96029 123.563C5.49839 124.68 5.3666 125.907 5.58065 127.097C5.79501 128.284 6.35514 129.381 7.1907 130.251L6.18279 132.869Z" fill="url(#paint78_radial_6780_9755)"/>
<g style="mix-blend-mode:darken">
<path d="M4.3233 134.204C2.46611 132.391 1.28077 130 0.962031 127.424C0.643295 124.848 1.21008 122.24 2.56929 120.028C0.766306 122.235 -0.143849 125.037 0.0185128 127.882C0.180874 130.727 1.40393 133.408 3.44626 135.395C3.70059 135.632 4.00541 135.807 4.33752 135.908C4.66964 136.01 5.02037 136.034 5.36333 135.98C5.70629 135.926 6.03248 135.794 6.31715 135.595C6.60183 135.397 6.8376 135.136 7.00662 134.832L7.34696 134.257C6.9251 134.622 6.38314 134.819 5.8251 134.809C5.26706 134.799 4.73226 134.584 4.3233 134.204Z" fill="#00ADF6"/>
</g>
<path style="mix-blend-mode:color-dodge" d="M51.7597 160.03C50.9612 161.968 55.464 165.659 61.8124 168.264C68.1607 170.868 73.9463 171.418 74.7447 169.481C75.5432 167.544 71.0535 163.853 64.7051 161.235C58.3568 158.617 52.5582 158.093 51.7597 160.03Z" fill="url(#paint79_radial_6780_9755)"/>
<defs>
<linearGradient id="paint0_linear_6780_9755" x1="116.945" y1="68.4829" x2="119.563" y2="68.4829" gradientUnits="userSpaceOnUse">
<stop offset="0.03" stop-color="#BECAD3"/>
<stop offset="0.32" stop-color="#E4E5E7"/>
<stop offset="0.33" stop-color="#E6E7E8"/>
<stop offset="0.41" stop-color="#DCE0E3"/>
<stop offset="0.58" stop-color="#CBD3DA"/>
<stop offset="0.77" stop-color="#C1CCD5"/>
<stop offset="1" stop-color="#BECAD3"/>
</linearGradient>
<linearGradient id="paint1_linear_6780_9755" x1="5.10833" y1="5600.87" x2="10.3441" y2="5600.87" gradientUnits="userSpaceOnUse">
<stop offset="0.03" stop-color="#BECAD3"/>
<stop offset="0.32" stop-color="#E4E5E7"/>
<stop offset="0.33" stop-color="#E6E7E8"/>
<stop offset="0.41" stop-color="#DCE0E3"/>
<stop offset="0.58" stop-color="#CBD3DA"/>
<stop offset="0.77" stop-color="#C1CCD5"/>
<stop offset="1" stop-color="#BECAD3"/>
</linearGradient>
<linearGradient id="paint2_linear_6780_9755" x1="34.0107" y1="5427.52" x2="39.2465" y2="5427.52" gradientUnits="userSpaceOnUse">
<stop offset="0.03" stop-color="#BECAD3"/>
<stop offset="0.32" stop-color="#E4E5E7"/>
<stop offset="0.33" stop-color="#E6E7E8"/>
<stop offset="0.41" stop-color="#DCE0E3"/>
<stop offset="0.58" stop-color="#CBD3DA"/>
<stop offset="0.77" stop-color="#C1CCD5"/>
<stop offset="1" stop-color="#BECAD3"/>
</linearGradient>
<linearGradient id="paint3_linear_6780_9755" x1="62.9121" y1="5248.24" x2="68.1479" y2="5248.24" gradientUnits="userSpaceOnUse">
<stop offset="0.03" stop-color="#BECAD3"/>
<stop offset="0.32" stop-color="#E4E5E7"/>
<stop offset="0.33" stop-color="#E6E7E8"/>
<stop offset="0.41" stop-color="#DCE0E3"/>
<stop offset="0.58" stop-color="#CBD3DA"/>
<stop offset="0.77" stop-color="#C1CCD5"/>
<stop offset="1" stop-color="#BECAD3"/>
</linearGradient>
<linearGradient id="paint4_linear_6780_9755" x1="91.8135" y1="5064.98" x2="97.0493" y2="5064.98" gradientUnits="userSpaceOnUse">
<stop offset="0.03" stop-color="#BECAD3"/>
<stop offset="0.32" stop-color="#E4E5E7"/>
<stop offset="0.33" stop-color="#E6E7E8"/>
<stop offset="0.41" stop-color="#DCE0E3"/>
<stop offset="0.58" stop-color="#CBD3DA"/>
<stop offset="0.77" stop-color="#C1CCD5"/>
<stop offset="1" stop-color="#BECAD3"/>
</linearGradient>
<linearGradient id="paint5_linear_6780_9755" x1="120.755" y1="4876.75" x2="125.991" y2="4876.75" gradientUnits="userSpaceOnUse">
<stop offset="0.03" stop-color="#BECAD3"/>
<stop offset="0.32" stop-color="#E4E5E7"/>
<stop offset="0.33" stop-color="#E6E7E8"/>
<stop offset="0.41" stop-color="#DCE0E3"/>
<stop offset="0.58" stop-color="#CBD3DA"/>
<stop offset="0.77" stop-color="#C1CCD5"/>
<stop offset="1" stop-color="#BECAD3"/>
</linearGradient>
<linearGradient id="paint6_linear_6780_9755" x1="149.614" y1="4684.07" x2="154.85" y2="4684.07" gradientUnits="userSpaceOnUse">
<stop offset="0.03" stop-color="#BECAD3"/>
<stop offset="0.32" stop-color="#E4E5E7"/>
<stop offset="0.33" stop-color="#E6E7E8"/>
<stop offset="0.41" stop-color="#DCE0E3"/>
<stop offset="0.58" stop-color="#CBD3DA"/>
<stop offset="0.77" stop-color="#C1CCD5"/>
<stop offset="1" stop-color="#BECAD3"/>
</linearGradient>
<linearGradient id="paint7_linear_6780_9755" x1="178.517" y1="4488.06" x2="183.753" y2="4488.06" gradientUnits="userSpaceOnUse">
<stop offset="0.03" stop-color="#BECAD3"/>
<stop offset="0.32" stop-color="#E4E5E7"/>
<stop offset="0.33" stop-color="#E6E7E8"/>
<stop offset="0.41" stop-color="#DCE0E3"/>
<stop offset="0.58" stop-color="#CBD3DA"/>
<stop offset="0.77" stop-color="#C1CCD5"/>
<stop offset="1" stop-color="#BECAD3"/>
</linearGradient>
<linearGradient id="paint8_linear_6780_9755" x1="207.458" y1="4286.38" x2="212.694" y2="4286.38" gradientUnits="userSpaceOnUse">
<stop offset="0.03" stop-color="#BECAD3"/>
<stop offset="0.32" stop-color="#E4E5E7"/>
<stop offset="0.33" stop-color="#E6E7E8"/>
<stop offset="0.41" stop-color="#DCE0E3"/>
<stop offset="0.58" stop-color="#CBD3DA"/>
<stop offset="0.77" stop-color="#C1CCD5"/>
<stop offset="1" stop-color="#BECAD3"/>
</linearGradient>
<linearGradient id="paint9_linear_6780_9755" x1="236.36" y1="4080.76" x2="241.596" y2="4080.76" gradientUnits="userSpaceOnUse">
<stop offset="0.03" stop-color="#BECAD3"/>
<stop offset="0.32" stop-color="#E4E5E7"/>
<stop offset="0.33" stop-color="#E6E7E8"/>
<stop offset="0.41" stop-color="#DCE0E3"/>
<stop offset="0.58" stop-color="#CBD3DA"/>
<stop offset="0.77" stop-color="#C1CCD5"/>
<stop offset="1" stop-color="#BECAD3"/>
</linearGradient>
<linearGradient id="paint10_linear_6780_9755" x1="265.26" y1="3870.15" x2="270.496" y2="3870.15" gradientUnits="userSpaceOnUse">
<stop offset="0.03" stop-color="#BECAD3"/>
<stop offset="0.32" stop-color="#E4E5E7"/>
<stop offset="0.33" stop-color="#E6E7E8"/>
<stop offset="0.41" stop-color="#DCE0E3"/>
<stop offset="0.58" stop-color="#CBD3DA"/>
<stop offset="0.77" stop-color="#C1CCD5"/>
<stop offset="1" stop-color="#BECAD3"/>
</linearGradient>
<linearGradient id="paint11_linear_6780_9755" x1="294.162" y1="3655.09" x2="299.398" y2="3655.09" gradientUnits="userSpaceOnUse">
<stop offset="0.03" stop-color="#BECAD3"/>
<stop offset="0.32" stop-color="#E4E5E7"/>
<stop offset="0.33" stop-color="#E6E7E8"/>
<stop offset="0.41" stop-color="#DCE0E3"/>
<stop offset="0.58" stop-color="#CBD3DA"/>
<stop offset="0.77" stop-color="#C1CCD5"/>
<stop offset="1" stop-color="#BECAD3"/>
</linearGradient>
<linearGradient id="paint12_linear_6780_9755" x1="323.065" y1="3436.4" x2="328.3" y2="3436.4" gradientUnits="userSpaceOnUse">
<stop offset="0.03" stop-color="#BECAD3"/>
<stop offset="0.32" stop-color="#E4E5E7"/>
<stop offset="0.33" stop-color="#E6E7E8"/>
<stop offset="0.41" stop-color="#DCE0E3"/>
<stop offset="0.58" stop-color="#CBD3DA"/>
<stop offset="0.77" stop-color="#C1CCD5"/>
<stop offset="1" stop-color="#BECAD3"/>
</linearGradient>
<linearGradient id="paint13_linear_6780_9755" x1="-1307.17" y1="5597.6" x2="-1504.36" y2="5315.05" gradientUnits="userSpaceOnUse">
<stop stop-color="#1E1F21"/>
<stop offset="0.08" stop-color="#2C2E30"/>
<stop offset="0.22" stop-color="#515359"/>
<stop offset="0.27" stop-color="#5D6066"/>
<stop offset="0.61" stop-color="#37383C"/>
</linearGradient>
<linearGradient id="paint14_linear_6780_9755" x1="-1291.36" y1="4972.84" x2="-1112.79" y2="4972.84" gradientUnits="userSpaceOnUse">
<stop stop-color="#484B4F"/>
<stop offset="1" stop-color="#1E1F21"/>
</linearGradient>
<linearGradient id="paint15_linear_6780_9755" x1="-370.993" y1="1601.63" x2="-425.494" y2="1601.5" gradientUnits="userSpaceOnUse">
<stop stop-color="#D4D1D8"/>
<stop offset="1" stop-color="#BECAD3"/>
</linearGradient>
<radialGradient id="paint16_radial_6780_9755" cx="0" cy="0" r="1" gradientUnits="userSpaceOnUse" gradientTransform="translate(-983.116 4927.44) scale(81.2729 122.835)">
<stop stop-color="white"/>
<stop offset="1"/>
</radialGradient>
<linearGradient id="paint17_linear_6780_9755" x1="83.8281" y1="190.384" x2="101.918" y2="190.384" gradientUnits="userSpaceOnUse">
<stop offset="0.03" stop-color="#00ADF6"/>
<stop offset="1" stop-color="#00ADF6"/>
</linearGradient>
<linearGradient id="paint18_linear_6780_9755" x1="-318.502" y1="6391.68" x2="-515.696" y2="6109.14" gradientUnits="userSpaceOnUse">
<stop stop-color="#1E1F21"/>
<stop offset="0.08" stop-color="#2C2E30"/>
<stop offset="0.22" stop-color="#515359"/>
<stop offset="0.27" stop-color="#5D6066"/>
<stop offset="0.61" stop-color="#37383C"/>
</linearGradient>
<linearGradient id="paint19_linear_6780_9755" x1="-461.793" y1="5697.3" x2="-283.224" y2="5697.3" gradientUnits="userSpaceOnUse">
<stop stop-color="#484B4F"/>
<stop offset="1" stop-color="#1E1F21"/>
</linearGradient>
<linearGradient id="paint20_linear_6780_9755" x1="-181.164" y1="2787.43" x2="-142.356" y2="2787.43" gradientUnits="userSpaceOnUse">
<stop stop-color="#D4D1D8"/>
<stop offset="1" stop-color="#BECAD3"/>
</linearGradient>
<radialGradient id="paint21_radial_6780_9755" cx="0" cy="0" r="1" gradientUnits="userSpaceOnUse" gradientTransform="translate(-296.486 5643.99) scale(81.2724 122.834)">
<stop stop-color="white"/>
<stop offset="1"/>
</radialGradient>
<linearGradient id="paint22_linear_6780_9755" x1="91.1763" y1="3716.26" x2="341.174" y2="3716.26" gradientUnits="userSpaceOnUse">
<stop offset="0.03" stop-color="#00ADF6"/>
<stop offset="1" stop-color="#00ADF6"/>
</linearGradient>
<linearGradient id="paint23_linear_6780_9755" x1="2671.83" y1="21179.1" x2="2662.48" y2="21179.6" gradientUnits="userSpaceOnUse">
<stop offset="0.03" stop-color="#BECAD3"/>
<stop offset="0.32" stop-color="#E4E5E7"/>
<stop offset="0.33" stop-color="#E6E7E8"/>
<stop offset="0.41" stop-color="#DCE0E3"/>
<stop offset="0.58" stop-color="#CBD3DA"/>
<stop offset="0.77" stop-color="#C1CCD5"/>
<stop offset="1" stop-color="#BECAD3"/>
</linearGradient>
<linearGradient id="paint24_linear_6780_9755" x1="2702.94" y1="21607.8" x2="2692.32" y2="21608.3" gradientUnits="userSpaceOnUse">
<stop offset="0.03" stop-color="#BECAD3"/>
<stop offset="0.32" stop-color="#E4E5E7"/>
<stop offset="0.33" stop-color="#E6E7E8"/>
<stop offset="0.41" stop-color="#DCE0E3"/>
<stop offset="0.58" stop-color="#CBD3DA"/>
<stop offset="0.77" stop-color="#C1CCD5"/>
<stop offset="1" stop-color="#BECAD3"/>
</linearGradient>
<linearGradient id="paint25_linear_6780_9755" x1="2675.28" y1="21979.9" x2="2664.69" y2="21980.5" gradientUnits="userSpaceOnUse">
<stop offset="0.03" stop-color="#BECAD3"/>
<stop offset="0.32" stop-color="#E4E5E7"/>
<stop offset="0.33" stop-color="#E6E7E8"/>
<stop offset="0.41" stop-color="#DCE0E3"/>
<stop offset="0.58" stop-color="#CBD3DA"/>
<stop offset="0.77" stop-color="#C1CCD5"/>
<stop offset="1" stop-color="#BECAD3"/>
</linearGradient>
<linearGradient id="paint26_linear_6780_9755" x1="2586.44" y1="22286.2" x2="2575.8" y2="22286.8" gradientUnits="userSpaceOnUse">
<stop offset="0.03" stop-color="#BECAD3"/>
<stop offset="0.32" stop-color="#E4E5E7"/>
<stop offset="0.33" stop-color="#E6E7E8"/>
<stop offset="0.41" stop-color="#DCE0E3"/>
<stop offset="0.58" stop-color="#CBD3DA"/>
<stop offset="0.77" stop-color="#C1CCD5"/>
<stop offset="1" stop-color="#BECAD3"/>
</linearGradient>
<linearGradient id="paint27_linear_6780_9755" x1="2619.94" y1="22723.2" x2="2609.31" y2="22723.8" gradientUnits="userSpaceOnUse">
<stop offset="0.03" stop-color="#BECAD3"/>
<stop offset="0.32" stop-color="#E4E5E7"/>
<stop offset="0.33" stop-color="#E6E7E8"/>
<stop offset="0.41" stop-color="#DCE0E3"/>
<stop offset="0.58" stop-color="#CBD3DA"/>
<stop offset="0.77" stop-color="#C1CCD5"/>
<stop offset="1" stop-color="#BECAD3"/>
</linearGradient>
<linearGradient id="paint28_linear_6780_9755" x1="2529.45" y1="23027.8" x2="2518.89" y2="23028.3" gradientUnits="userSpaceOnUse">
<stop offset="0.03" stop-color="#BECAD3"/>
<stop offset="0.32" stop-color="#E4E5E7"/>
<stop offset="0.33" stop-color="#E6E7E8"/>
<stop offset="0.41" stop-color="#DCE0E3"/>
<stop offset="0.58" stop-color="#CBD3DA"/>
<stop offset="0.77" stop-color="#C1CCD5"/>
<stop offset="1" stop-color="#BECAD3"/>
</linearGradient>
<linearGradient id="paint29_linear_6780_9755" x1="2500.97" y1="23397.7" x2="2490.38" y2="23398.2" gradientUnits="userSpaceOnUse">
<stop offset="0.03" stop-color="#BECAD3"/>
<stop offset="0.32" stop-color="#E4E5E7"/>
<stop offset="0.33" stop-color="#E6E7E8"/>
<stop offset="0.41" stop-color="#DCE0E3"/>
<stop offset="0.58" stop-color="#CBD3DA"/>
<stop offset="0.77" stop-color="#C1CCD5"/>
<stop offset="1" stop-color="#BECAD3"/>
</linearGradient>
<linearGradient id="paint30_linear_6780_9755" x1="2472.51" y1="23768.4" x2="2461.95" y2="23769" gradientUnits="userSpaceOnUse">
<stop offset="0.03" stop-color="#BECAD3"/>
<stop offset="0.32" stop-color="#E4E5E7"/>
<stop offset="0.33" stop-color="#E6E7E8"/>
<stop offset="0.41" stop-color="#DCE0E3"/>
<stop offset="0.58" stop-color="#CBD3DA"/>
<stop offset="0.77" stop-color="#C1CCD5"/>
<stop offset="1" stop-color="#BECAD3"/>
</linearGradient>
<linearGradient id="paint31_linear_6780_9755" x1="2444.01" y1="24138.3" x2="2433.37" y2="24138.9" gradientUnits="userSpaceOnUse">
<stop offset="0.03" stop-color="#BECAD3"/>
<stop offset="0.32" stop-color="#E4E5E7"/>
<stop offset="0.33" stop-color="#E6E7E8"/>
<stop offset="0.41" stop-color="#DCE0E3"/>
<stop offset="0.58" stop-color="#CBD3DA"/>
<stop offset="0.77" stop-color="#C1CCD5"/>
<stop offset="1" stop-color="#BECAD3"/>
</linearGradient>
<linearGradient id="paint32_linear_6780_9755" x1="72643.6" y1="474.502" x2="72645.4" y2="491.501" gradientUnits="userSpaceOnUse">
<stop offset="0.03" stop-color="#BECAD3"/>
<stop offset="0.32" stop-color="#E4E5E7"/>
<stop offset="0.33" stop-color="#E6E7E8"/>
<stop offset="0.41" stop-color="#DCE0E3"/>
<stop offset="0.58" stop-color="#CBD3DA"/>
<stop offset="0.77" stop-color="#C1CCD5"/>
<stop offset="1" stop-color="#BECAD3"/>
</linearGradient>
<linearGradient id="paint33_linear_6780_9755" x1="73117.2" y1="488.576" x2="73119" y2="505.902" gradientUnits="userSpaceOnUse">
<stop offset="0.03" stop-color="#BECAD3"/>
<stop offset="0.32" stop-color="#E4E5E7"/>
<stop offset="0.33" stop-color="#E6E7E8"/>
<stop offset="0.41" stop-color="#DCE0E3"/>
<stop offset="0.58" stop-color="#CBD3DA"/>
<stop offset="0.77" stop-color="#C1CCD5"/>
<stop offset="1" stop-color="#BECAD3"/>
</linearGradient>
<linearGradient id="paint34_linear_6780_9755" x1="73606" y1="502.645" x2="73607.8" y2="519.824" gradientUnits="userSpaceOnUse">
<stop offset="0.03" stop-color="#BECAD3"/>
<stop offset="0.32" stop-color="#E4E5E7"/>
<stop offset="0.33" stop-color="#E6E7E8"/>
<stop offset="0.41" stop-color="#DCE0E3"/>
<stop offset="0.58" stop-color="#CBD3DA"/>
<stop offset="0.77" stop-color="#C1CCD5"/>
<stop offset="1" stop-color="#BECAD3"/>
</linearGradient>
<linearGradient id="paint35_linear_6780_9755" x1="74081.3" y1="516.742" x2="74083.1" y2="534.068" gradientUnits="userSpaceOnUse">
<stop offset="0.03" stop-color="#BECAD3"/>
<stop offset="0.32" stop-color="#E4E5E7"/>
<stop offset="0.33" stop-color="#E6E7E8"/>
<stop offset="0.41" stop-color="#DCE0E3"/>
<stop offset="0.58" stop-color="#CBD3DA"/>
<stop offset="0.77" stop-color="#C1CCD5"/>
<stop offset="1" stop-color="#BECAD3"/>
</linearGradient>
<linearGradient id="paint36_linear_6780_9755" x1="74557.2" y1="530.84" x2="74559" y2="548.166" gradientUnits="userSpaceOnUse">
<stop offset="0.03" stop-color="#BECAD3"/>
<stop offset="0.32" stop-color="#E4E5E7"/>
<stop offset="0.33" stop-color="#E6E7E8"/>
<stop offset="0.41" stop-color="#DCE0E3"/>
<stop offset="0.58" stop-color="#CBD3DA"/>
<stop offset="0.77" stop-color="#C1CCD5"/>
<stop offset="1" stop-color="#BECAD3"/>
</linearGradient>
<linearGradient id="paint37_linear_6780_9755" x1="75033.2" y1="544.926" x2="75035" y2="562.105" gradientUnits="userSpaceOnUse">
<stop offset="0.03" stop-color="#BECAD3"/>
<stop offset="0.32" stop-color="#E4E5E7"/>
<stop offset="0.33" stop-color="#E6E7E8"/>
<stop offset="0.41" stop-color="#DCE0E3"/>
<stop offset="0.58" stop-color="#CBD3DA"/>
<stop offset="0.77" stop-color="#C1CCD5"/>
<stop offset="1" stop-color="#BECAD3"/>
</linearGradient>
<linearGradient id="paint38_linear_6780_9755" x1="75509.3" y1="559.002" x2="75511" y2="576.18" gradientUnits="userSpaceOnUse">
<stop offset="0.03" stop-color="#BECAD3"/>
<stop offset="0.32" stop-color="#E4E5E7"/>
<stop offset="0.33" stop-color="#E6E7E8"/>
<stop offset="0.41" stop-color="#DCE0E3"/>
<stop offset="0.58" stop-color="#CBD3DA"/>
<stop offset="0.77" stop-color="#C1CCD5"/>
<stop offset="1" stop-color="#BECAD3"/>
</linearGradient>
<linearGradient id="paint39_linear_6780_9755" x1="75984.5" y1="573.04" x2="75986.3" y2="590.367" gradientUnits="userSpaceOnUse">
<stop offset="0.03" stop-color="#BECAD3"/>
<stop offset="0.32" stop-color="#E4E5E7"/>
<stop offset="0.33" stop-color="#E6E7E8"/>
<stop offset="0.41" stop-color="#DCE0E3"/>
<stop offset="0.58" stop-color="#CBD3DA"/>
<stop offset="0.77" stop-color="#C1CCD5"/>
<stop offset="1" stop-color="#BECAD3"/>
</linearGradient>
<linearGradient id="paint40_linear_6780_9755" x1="-1248.22" y1="7126.75" x2="-1444.94" y2="6844.43" gradientUnits="userSpaceOnUse">
<stop stop-color="#1E1F21"/>
<stop offset="0.08" stop-color="#2C2E30"/>
<stop offset="0.22" stop-color="#515359"/>
<stop offset="0.27" stop-color="#5D6066"/>
<stop offset="0.61" stop-color="#37383C"/>
</linearGradient>
<linearGradient id="paint41_linear_6780_9755" x1="-1243.56" y1="6379.75" x2="-1065" y2="6379.75" gradientUnits="userSpaceOnUse">
<stop stop-color="#484B4F"/>
<stop offset="1" stop-color="#1E1F21"/>
</linearGradient>
<linearGradient id="paint42_linear_6780_9755" x1="-507.21" y1="3128.38" x2="-468.331" y2="3128.38" gradientUnits="userSpaceOnUse">
<stop stop-color="#D4D1D8"/>
<stop offset="1" stop-color="#BECAD3"/>
</linearGradient>
<radialGradient id="paint43_radial_6780_9755" cx="0" cy="0" r="1" gradientUnits="userSpaceOnUse" gradientTransform="translate(-939.182 6307.38) scale(80.9422 122.569)">
<stop stop-color="white"/>
<stop offset="1"/>
</radialGradient>
<linearGradient id="paint44_linear_6780_9755" x1="1176.54" y1="4395.4" x2="1426.9" y2="4395.4" gradientUnits="userSpaceOnUse">
<stop offset="0.03" stop-color="#00ADF6"/>
<stop offset="1" stop-color="#00ADF6"/>
</linearGradient>
<linearGradient id="paint45_linear_6780_9755" x1="-2237.17" y1="6345.31" x2="-2434.33" y2="6062.69" gradientUnits="userSpaceOnUse">
<stop stop-color="#1E1F21"/>
<stop offset="0.08" stop-color="#2C2E30"/>
<stop offset="0.22" stop-color="#515359"/>
<stop offset="0.27" stop-color="#5D6066"/>
<stop offset="0.61" stop-color="#37383C"/>
</linearGradient>
<linearGradient id="paint46_linear_6780_9755" x1="-2073.11" y1="5654.83" x2="-1894.54" y2="5654.83" gradientUnits="userSpaceOnUse">
<stop stop-color="#484B4F"/>
<stop offset="1" stop-color="#1E1F21"/>
</linearGradient>
<linearGradient id="paint47_linear_6780_9755" x1="-852.841" y1="2766.91" x2="-813.962" y2="2766.91" gradientUnits="userSpaceOnUse">
<stop stop-color="#D4D1D8"/>
<stop offset="1" stop-color="#BECAD3"/>
</linearGradient>
<radialGradient id="paint48_radial_6780_9755" cx="0" cy="0" r="1" gradientUnits="userSpaceOnUse" gradientTransform="translate(-1630.04 5603.92) scale(81.2724 122.835)">
<stop stop-color="white"/>
<stop offset="1"/>
</radialGradient>
<linearGradient id="paint49_linear_6780_9755" x1="2328.43" y1="3676.18" x2="2578.79" y2="3676.18" gradientUnits="userSpaceOnUse">
<stop offset="0.03" stop-color="#00ADF6"/>
<stop offset="1" stop-color="#00ADF6"/>
</linearGradient>
<linearGradient id="paint50_linear_6780_9755" x1="575.598" y1="3182.29" x2="580.834" y2="3182.29" gradientUnits="userSpaceOnUse">
<stop offset="0.03" stop-color="#BECAD3"/>
<stop offset="0.32" stop-color="#E4E5E7"/>
<stop offset="0.33" stop-color="#E6E7E8"/>
<stop offset="0.41" stop-color="#DCE0E3"/>
<stop offset="0.58" stop-color="#CBD3DA"/>
<stop offset="0.77" stop-color="#C1CCD5"/>
<stop offset="1" stop-color="#BECAD3"/>
</linearGradient>
<linearGradient id="paint51_linear_6780_9755" x1="191.411" y1="31.5708" x2="197.367" y2="21.2563" gradientUnits="userSpaceOnUse">
<stop offset="0.11" stop-color="#00ADF6"/>
<stop offset="0.64" stop-color="#00ADF6"/>
<stop offset="0.93" stop-color="#00ADF6"/>
</linearGradient>
<linearGradient id="paint52_linear_6780_9755" x1="8009.58" y1="1273.98" x2="8193.55" y2="1257.49" gradientUnits="userSpaceOnUse">
<stop offset="0.03" stop-color="#00ADF6"/>
<stop offset="1" stop-color="#00ADF6"/>
</linearGradient>
<radialGradient id="paint53_radial_6780_9755" cx="0" cy="0" r="1" gradientUnits="userSpaceOnUse" gradientTransform="translate(-932.601 1260.22) scale(19.1056 28.9263)">
<stop stop-color="white"/>
<stop offset="1"/>
</radialGradient>
<radialGradient id="paint54_radial_6780_9755" cx="0" cy="0" r="1" gradientUnits="userSpaceOnUse" gradientTransform="translate(292.422 20.1142) rotate(-149.826) scale(35.8994 4.20809)">
<stop stop-color="#00ADF6"/>
<stop offset="0.06" stop-color="#0093D1"/>
<stop offset="0.15" stop-color="#0071A0"/>
<stop offset="0.25" stop-color="#005375"/>
<stop offset="0.35" stop-color="#003951"/>
<stop offset="0.46" stop-color="#002434"/>
<stop offset="0.57" stop-color="#00141D"/>
<stop offset="0.69" stop-color="#00090D"/>
<stop offset="0.82" stop-color="#000203"/>
<stop offset="1"/>
</radialGradient>
<linearGradient id="paint55_linear_6780_9755" x1="211.423" y1="7140.5" x2="216.659" y2="7140.5" gradientUnits="userSpaceOnUse">
<stop offset="0.03" stop-color="#BECAD3"/>
<stop offset="0.32" stop-color="#E4E5E7"/>
<stop offset="0.33" stop-color="#E6E7E8"/>
<stop offset="0.41" stop-color="#DCE0E3"/>
<stop offset="0.58" stop-color="#CBD3DA"/>
<stop offset="0.77" stop-color="#C1CCD5"/>
<stop offset="1" stop-color="#BECAD3"/>
</linearGradient>
<linearGradient id="paint56_linear_6780_9755" x1="241.739" y1="6985.66" x2="246.975" y2="6985.66" gradientUnits="userSpaceOnUse">
<stop offset="0.03" stop-color="#BECAD3"/>
<stop offset="0.32" stop-color="#E4E5E7"/>
<stop offset="0.33" stop-color="#E6E7E8"/>
<stop offset="0.41" stop-color="#DCE0E3"/>
<stop offset="0.58" stop-color="#CBD3DA"/>
<stop offset="0.77" stop-color="#C1CCD5"/>
<stop offset="1" stop-color="#BECAD3"/>
</linearGradient>
<linearGradient id="paint57_linear_6780_9755" x1="272.094" y1="6824.52" x2="277.33" y2="6824.52" gradientUnits="userSpaceOnUse">
<stop offset="0.03" stop-color="#BECAD3"/>
<stop offset="0.32" stop-color="#E4E5E7"/>
<stop offset="0.33" stop-color="#E6E7E8"/>
<stop offset="0.41" stop-color="#DCE0E3"/>
<stop offset="0.58" stop-color="#CBD3DA"/>
<stop offset="0.77" stop-color="#C1CCD5"/>
<stop offset="1" stop-color="#BECAD3"/>
</linearGradient>
<linearGradient id="paint58_linear_6780_9755" x1="302.45" y1="6658.48" x2="307.685" y2="6658.48" gradientUnits="userSpaceOnUse">
<stop offset="0.03" stop-color="#BECAD3"/>
<stop offset="0.32" stop-color="#E4E5E7"/>
<stop offset="0.33" stop-color="#E6E7E8"/>
<stop offset="0.41" stop-color="#DCE0E3"/>
<stop offset="0.58" stop-color="#CBD3DA"/>
<stop offset="0.77" stop-color="#C1CCD5"/>
<stop offset="1" stop-color="#BECAD3"/>
</linearGradient>
<linearGradient id="paint59_linear_6780_9755" x1="332.802" y1="6488.52" x2="338.038" y2="6488.52" gradientUnits="userSpaceOnUse">
<stop offset="0.03" stop-color="#BECAD3"/>
<stop offset="0.32" stop-color="#E4E5E7"/>
<stop offset="0.33" stop-color="#E6E7E8"/>
<stop offset="0.41" stop-color="#DCE0E3"/>
<stop offset="0.58" stop-color="#CBD3DA"/>
<stop offset="0.77" stop-color="#C1CCD5"/>
<stop offset="1" stop-color="#BECAD3"/>
</linearGradient>
<linearGradient id="paint60_linear_6780_9755" x1="363.117" y1="6314.16" x2="368.352" y2="6314.16" gradientUnits="userSpaceOnUse">
<stop offset="0.03" stop-color="#BECAD3"/>
<stop offset="0.32" stop-color="#E4E5E7"/>
<stop offset="0.33" stop-color="#E6E7E8"/>
<stop offset="0.41" stop-color="#DCE0E3"/>
<stop offset="0.58" stop-color="#CBD3DA"/>
<stop offset="0.77" stop-color="#C1CCD5"/>
<stop offset="1" stop-color="#BECAD3"/>
</linearGradient>
<linearGradient id="paint61_linear_6780_9755" x1="393.471" y1="6136.93" x2="398.707" y2="6136.93" gradientUnits="userSpaceOnUse">
<stop offset="0.03" stop-color="#BECAD3"/>
<stop offset="0.32" stop-color="#E4E5E7"/>
<stop offset="0.33" stop-color="#E6E7E8"/>
<stop offset="0.41" stop-color="#DCE0E3"/>
<stop offset="0.58" stop-color="#CBD3DA"/>
<stop offset="0.77" stop-color="#C1CCD5"/>
<stop offset="1" stop-color="#BECAD3"/>
</linearGradient>
<linearGradient id="paint62_linear_6780_9755" x1="423.826" y1="5953.17" x2="429.062" y2="5953.17" gradientUnits="userSpaceOnUse">
<stop offset="0.03" stop-color="#BECAD3"/>
<stop offset="0.32" stop-color="#E4E5E7"/>
<stop offset="0.33" stop-color="#E6E7E8"/>
<stop offset="0.41" stop-color="#DCE0E3"/>
<stop offset="0.58" stop-color="#CBD3DA"/>
<stop offset="0.77" stop-color="#C1CCD5"/>
<stop offset="1" stop-color="#BECAD3"/>
</linearGradient>
<linearGradient id="paint63_linear_6780_9755" x1="454.18" y1="5765.52" x2="459.416" y2="5765.52" gradientUnits="userSpaceOnUse">
<stop offset="0.03" stop-color="#BECAD3"/>
<stop offset="0.32" stop-color="#E4E5E7"/>
<stop offset="0.33" stop-color="#E6E7E8"/>
<stop offset="0.41" stop-color="#DCE0E3"/>
<stop offset="0.58" stop-color="#CBD3DA"/>
<stop offset="0.77" stop-color="#C1CCD5"/>
<stop offset="1" stop-color="#BECAD3"/>
</linearGradient>
<linearGradient id="paint64_linear_6780_9755" x1="484.495" y1="5573.46" x2="489.731" y2="5573.46" gradientUnits="userSpaceOnUse">
<stop offset="0.03" stop-color="#BECAD3"/>
<stop offset="0.32" stop-color="#E4E5E7"/>
<stop offset="0.33" stop-color="#E6E7E8"/>
<stop offset="0.41" stop-color="#DCE0E3"/>
<stop offset="0.58" stop-color="#CBD3DA"/>
<stop offset="0.77" stop-color="#C1CCD5"/>
<stop offset="1" stop-color="#BECAD3"/>
</linearGradient>
<linearGradient id="paint65_linear_6780_9755" x1="514.849" y1="5377" x2="520.085" y2="5377" gradientUnits="userSpaceOnUse">
<stop offset="0.03" stop-color="#BECAD3"/>
<stop offset="0.32" stop-color="#E4E5E7"/>
<stop offset="0.33" stop-color="#E6E7E8"/>
<stop offset="0.41" stop-color="#DCE0E3"/>
<stop offset="0.58" stop-color="#CBD3DA"/>
<stop offset="0.77" stop-color="#C1CCD5"/>
<stop offset="1" stop-color="#BECAD3"/>
</linearGradient>
<linearGradient id="paint66_linear_6780_9755" x1="545.204" y1="5176.84" x2="550.44" y2="5176.84" gradientUnits="userSpaceOnUse">
<stop offset="0.03" stop-color="#BECAD3"/>
<stop offset="0.32" stop-color="#E4E5E7"/>
<stop offset="0.33" stop-color="#E6E7E8"/>
<stop offset="0.41" stop-color="#DCE0E3"/>
<stop offset="0.58" stop-color="#CBD3DA"/>
<stop offset="0.77" stop-color="#C1CCD5"/>
<stop offset="1" stop-color="#BECAD3"/>
</linearGradient>
<linearGradient id="paint67_linear_6780_9755" x1="18.4593" y1="5805.15" x2="23.6951" y2="5805.15" gradientUnits="userSpaceOnUse">
<stop offset="0.03" stop-color="#BECAD3"/>
<stop offset="0.32" stop-color="#E4E5E7"/>
<stop offset="0.33" stop-color="#E6E7E8"/>
<stop offset="0.41" stop-color="#DCE0E3"/>
<stop offset="0.58" stop-color="#CBD3DA"/>
<stop offset="0.77" stop-color="#C1CCD5"/>
<stop offset="1" stop-color="#BECAD3"/>
</linearGradient>
<linearGradient id="paint68_linear_6780_9755" x1="42.1776" y1="5969.42" x2="47.4134" y2="5969.42" gradientUnits="userSpaceOnUse">
<stop offset="0.03" stop-color="#BECAD3"/>
<stop offset="0.32" stop-color="#E4E5E7"/>
<stop offset="0.33" stop-color="#E6E7E8"/>
<stop offset="0.41" stop-color="#DCE0E3"/>
<stop offset="0.58" stop-color="#CBD3DA"/>
<stop offset="0.77" stop-color="#C1CCD5"/>
<stop offset="1" stop-color="#BECAD3"/>
</linearGradient>
<linearGradient id="paint69_linear_6780_9755" x1="65.9357" y1="6133.69" x2="71.1715" y2="6133.69" gradientUnits="userSpaceOnUse">
<stop offset="0.03" stop-color="#BECAD3"/>
<stop offset="0.32" stop-color="#E4E5E7"/>
<stop offset="0.33" stop-color="#E6E7E8"/>
<stop offset="0.41" stop-color="#DCE0E3"/>
<stop offset="0.58" stop-color="#CBD3DA"/>
<stop offset="0.77" stop-color="#C1CCD5"/>
<stop offset="1" stop-color="#BECAD3"/>
</linearGradient>
<linearGradient id="paint70_linear_6780_9755" x1="89.654" y1="6297.96" x2="94.8897" y2="6297.96" gradientUnits="userSpaceOnUse">
<stop offset="0.03" stop-color="#BECAD3"/>
<stop offset="0.32" stop-color="#E4E5E7"/>
<stop offset="0.33" stop-color="#E6E7E8"/>
<stop offset="0.41" stop-color="#DCE0E3"/>
<stop offset="0.58" stop-color="#CBD3DA"/>
<stop offset="0.77" stop-color="#C1CCD5"/>
<stop offset="1" stop-color="#BECAD3"/>
</linearGradient>
<linearGradient id="paint71_linear_6780_9755" x1="113.372" y1="6462.22" x2="118.608" y2="6462.22" gradientUnits="userSpaceOnUse">
<stop offset="0.03" stop-color="#BECAD3"/>
<stop offset="0.32" stop-color="#E4E5E7"/>
<stop offset="0.33" stop-color="#E6E7E8"/>
<stop offset="0.41" stop-color="#DCE0E3"/>
<stop offset="0.58" stop-color="#CBD3DA"/>
<stop offset="0.77" stop-color="#C1CCD5"/>
<stop offset="1" stop-color="#BECAD3"/>
</linearGradient>
<linearGradient id="paint72_linear_6780_9755" x1="137.09" y1="6626.49" x2="142.325" y2="6626.49" gradientUnits="userSpaceOnUse">
<stop offset="0.03" stop-color="#BECAD3"/>
<stop offset="0.32" stop-color="#E4E5E7"/>
<stop offset="0.33" stop-color="#E6E7E8"/>
<stop offset="0.41" stop-color="#DCE0E3"/>
<stop offset="0.58" stop-color="#CBD3DA"/>
<stop offset="0.77" stop-color="#C1CCD5"/>
<stop offset="1" stop-color="#BECAD3"/>
</linearGradient>
<linearGradient id="paint73_linear_6780_9755" x1="160.847" y1="6791.25" x2="166.082" y2="6791.25" gradientUnits="userSpaceOnUse">
<stop offset="0.03" stop-color="#BECAD3"/>
<stop offset="0.32" stop-color="#E4E5E7"/>
<stop offset="0.33" stop-color="#E6E7E8"/>
<stop offset="0.41" stop-color="#DCE0E3"/>
<stop offset="0.58" stop-color="#CBD3DA"/>
<stop offset="0.77" stop-color="#C1CCD5"/>
<stop offset="1" stop-color="#BECAD3"/>
</linearGradient>
<linearGradient id="paint74_linear_6780_9755" x1="184.565" y1="6955.52" x2="189.801" y2="6955.52" gradientUnits="userSpaceOnUse">
<stop offset="0.03" stop-color="#BECAD3"/>
<stop offset="0.32" stop-color="#E4E5E7"/>
<stop offset="0.33" stop-color="#E6E7E8"/>
<stop offset="0.41" stop-color="#DCE0E3"/>
<stop offset="0.58" stop-color="#CBD3DA"/>
<stop offset="0.77" stop-color="#C1CCD5"/>
<stop offset="1" stop-color="#BECAD3"/>
</linearGradient>
<radialGradient id="paint75_radial_6780_9755" cx="0" cy="0" r="1" gradientUnits="userSpaceOnUse" gradientTransform="translate(71.7598 107.712) scale(64.5046)">
<stop offset="0.29" stop-color="#00ADF6"/>
<stop offset="0.9" stop-color="#00ADF6"/>
<stop offset="1" stop-color="#00ADF6"/>
</radialGradient>
<radialGradient id="paint76_radial_6780_9755" cx="0" cy="0" r="1" gradientUnits="userSpaceOnUse" gradientTransform="translate(16246 1072.75) scale(399.551 98.744)">
<stop stop-color="#00ADF6"/>
<stop offset="0.06" stop-color="#0093D1"/>
<stop offset="0.15" stop-color="#0071A0"/>
<stop offset="0.25" stop-color="#005375"/>
<stop offset="0.35" stop-color="#003951"/>
<stop offset="0.46" stop-color="#002434"/>
<stop offset="0.57" stop-color="#00141D"/>
<stop offset="0.69" stop-color="#00090D"/>
<stop offset="0.82" stop-color="#000203"/>
<stop offset="1"/>
</radialGradient>
<radialGradient id="paint77_radial_6780_9755" cx="0" cy="0" r="1" gradientUnits="userSpaceOnUse" gradientTransform="translate(8269.98 3389.91) scale(431.412 825.971)">
<stop offset="0.29" stop-color="#00ADF6"/>
<stop offset="0.9" stop-color="#00ADF6"/>
<stop offset="1" stop-color="#00ADF6"/>
</radialGradient>
<radialGradient id="paint78_radial_6780_9755" cx="0" cy="0" r="1" gradientUnits="userSpaceOnUse" gradientTransform="translate(5320.23 -2497.59) rotate(-8.87995) scale(87.4456 229.806)">
<stop stop-color="#00ADF6"/>
<stop offset="0.06" stop-color="#0093D1"/>
<stop offset="0.15" stop-color="#0071A0"/>
<stop offset="0.25" stop-color="#005375"/>
<stop offset="0.35" stop-color="#003951"/>
<stop offset="0.46" stop-color="#002434"/>
<stop offset="0.57" stop-color="#00141D"/>
<stop offset="0.69" stop-color="#00090D"/>
<stop offset="0.82" stop-color="#000203"/>
<stop offset="1"/>
</radialGradient>
<radialGradient id="paint79_radial_6780_9755" cx="0" cy="0" r="1" gradientUnits="userSpaceOnUse" gradientTransform="translate(124.301 175.881) rotate(-157.557) scale(12.3646 3.78375)">
<stop stop-color="#00ADF6"/>
<stop offset="0.12" stop-color="#0085BD"/>
<stop offset="0.24" stop-color="#00628B"/>
<stop offset="0.36" stop-color="#004460"/>
<stop offset="0.49" stop-color="#002B3E"/>
<stop offset="0.61" stop-color="#001823"/>
<stop offset="0.74" stop-color="#000B0F"/>
<stop offset="0.86" stop-color="#000304"/>
<stop offset="1"/>
</radialGradient>
</defs>
</svg>
