<svg width="139" height="243" viewBox="0 0 139 243" fill="none" xmlns="http://www.w3.org/2000/svg">
<g opacity="0.36">
<g opacity="0.36">
<g opacity="0.36">
<path opacity="0.36" d="M0 230.973C0 237.081 31.1132 242.031 69.4892 242.031C107.865 242.031 138.978 237.081 138.978 230.973C138.978 224.865 107.865 219.915 69.4892 219.915C31.1064 219.908 0 224.865 0 230.973Z" fill="#C6C6C6"/>
</g>
</g>
</g>
<path d="M58.6154 218.177H66.9159L68.4521 124.022H46.4141L58.6154 218.177Z" fill="#40ADF6"/>
<path d="M68.4531 124.022L69.9892 218.177H78.2964L90.491 124.022H68.4531Z" fill="#40ADF6"/>
<path d="M58.7244 218.177H66.7554C66.7554 218.177 67.7727 224.265 67.1798 225.787C66.587 227.309 65.5696 228.495 65.0643 228.495C64.559 228.495 63.8785 228.414 62.6927 230.69C61.507 232.966 56.3529 239.229 50.7676 236.098C45.1891 232.973 53.8937 226.885 55.6724 224.265C57.4578 221.646 58.7244 218.177 58.7244 218.177Z" fill="#004772"/>
<path d="M62.7523 221.491C64.5849 221.491 66.0671 220.009 66.0671 218.177H59.4375C59.4375 220.009 60.9264 221.491 62.7523 221.491Z" fill="#E9B0B8"/>
<path d="M78.1254 218.177H70.0944C70.0944 218.177 69.0771 224.265 69.67 225.787C70.2628 227.309 71.2802 228.495 71.7855 228.495C72.2908 228.495 72.9713 228.414 74.1503 230.69C75.3361 232.966 80.4902 239.229 86.0755 236.098C91.654 232.973 82.9425 226.885 81.1706 224.265C79.392 221.646 78.1254 218.177 78.1254 218.177Z" fill="#004772"/>
<path d="M74.096 221.491C72.2634 221.491 70.7812 220.009 70.7812 218.177H77.4108C77.4108 220.009 75.9285 221.491 74.096 221.491Z" fill="#E9B0B8"/>
<path d="M86.0503 42.1648C79.8856 40.3465 74.7045 38.9727 74.7045 38.9727H68.3647H68.3579H61.8429C61.8429 38.9727 56.8303 40.3465 50.6723 42.1648C41.9609 44.7374 36.4767 48.273 33.6133 63.6344H68.3579H68.3647H103.109C100.239 48.273 94.7617 44.7441 86.0503 42.1648Z" fill="#E95558"/>
<path d="M39.4137 71.0288H27.4414V71.5339H39.4137V71.0288Z" fill="#F1CDD1"/>
<path d="M39.4137 71.5415H27.4414V72.4709H39.4137V71.5415Z" fill="#F1CCD0"/>
<path d="M39.4137 72.47H27.4414V73.3993H39.4137V72.47Z" fill="#F0CBCF"/>
<path d="M39.4137 73.3994H27.4414V74.3288H39.4137V73.3994Z" fill="#F0CACE"/>
<path d="M39.4137 74.3286H27.4414V75.258H39.4137V74.3286Z" fill="#F0C9CD"/>
<path d="M39.4137 75.2581H27.4414V76.1875H39.4137V75.2581Z" fill="#F0C8CC"/>
<path d="M39.4137 76.1875H27.4414V77.1168H39.4137V76.1875Z" fill="#EFC7CB"/>
<path d="M39.4137 77.1167H27.4414V78.046H39.4137V77.1167Z" fill="#EFC6CA"/>
<path d="M39.4137 78.0461H27.4414V78.9755H39.4137V78.0461Z" fill="#EFC5C9"/>
<path d="M39.4137 78.9756H27.4414V79.9049H39.4137V78.9756Z" fill="#EFC4C8"/>
<path d="M39.4137 79.9048H27.4414V80.8341H39.4137V79.9048Z" fill="#EEC4C7"/>
<path d="M39.4137 80.8342H27.4414V81.7636H39.4137V80.8342Z" fill="#EEC3C6"/>
<path d="M39.4137 81.7637H27.4414V82.6931H39.4137V81.7637Z" fill="#EEC2C5"/>
<path d="M39.4137 82.6929H27.4414V83.6223H39.4137V82.6929Z" fill="#EEC1C4"/>
<path d="M39.4137 83.6292H27.4414V84.5585H39.4137V83.6292Z" fill="#EDC0C3"/>
<path d="M39.4137 84.5583H27.4414V85.4877H39.4137V84.5583Z" fill="#EDBFC2"/>
<path d="M39.4137 85.4878H27.4414V86.4171H39.4137V85.4878Z" fill="#EDBEC1"/>
<path d="M39.4137 86.4172H27.4414V87.3466H39.4137V86.4172Z" fill="#EDBDBF"/>
<path d="M39.4137 87.3464H27.4414V88.2758H39.4137V87.3464Z" fill="#ECBCBE"/>
<path d="M39.4137 88.2759H27.4414V89.2052H39.4137V88.2759Z" fill="#ECBBBD"/>
<path d="M39.4137 89.2053H27.4414V90.1346H39.4137V89.2053Z" fill="#ECBABC"/>
<path d="M39.4137 90.1345H27.4414V91.0639H39.4137V90.1345Z" fill="#ECB9BB"/>
<path d="M39.4137 91.064H27.4414V91.9933H39.4137V91.064Z" fill="#EBB8BA"/>
<path d="M39.4137 91.9932H27.4414V92.9225H39.4137V91.9932Z" fill="#EBB7B9"/>
<path d="M39.4137 92.9226H27.4414V93.8519H39.4137V92.9226Z" fill="#EBB6B8"/>
<path d="M39.4137 93.8521H27.4414V94.7814H39.4137V93.8521Z" fill="#EBB5B7"/>
<path d="M39.4137 94.7815H27.4414V95.7108H39.4137V94.7815Z" fill="#EAB4B6"/>
<path d="M39.4137 95.7107H27.4414V96.64H39.4137V95.7107Z" fill="#EAB3B5"/>
<path d="M39.4137 96.6401H27.4414V97.5695H39.4137V96.6401Z" fill="#EAB2B4"/>
<path d="M39.4137 97.5693H27.4414V98.4987H39.4137V97.5693Z" fill="#EAB1B3"/>
<path d="M39.4137 98.4988H27.4414V99.4281H39.4137V98.4988Z" fill="#E9B0B2"/>
<path d="M39.4137 99.4351H27.4414V100.364H39.4137V99.4351Z" fill="#E9AFB1"/>
<path d="M39.4137 100.364H27.4414V101.294H39.4137V100.364Z" fill="#E9AEB0"/>
<path d="M39.4137 101.294H27.4414V102.223H39.4137V101.294Z" fill="#E9ADAF"/>
<path d="M39.4137 102.223H27.4414V103.152H39.4137V102.223Z" fill="#E8ACAE"/>
<path d="M39.4137 103.152H27.4414V103.408H39.4137V103.152Z" fill="#E8ABAD"/>
<path d="M68.4523 107.139L42.8906 108.399L44.3998 127.612H68.4523H92.3026L94.0206 108.399L68.4523 107.139Z" fill="#E95558"/>
<path d="M109.461 71.0288H97.4883V71.5339H109.461V71.0288Z" fill="#F1CDD1"/>
<path d="M109.461 71.5415H97.4883V72.4709H109.461V71.5415Z" fill="#F1CCD0"/>
<path d="M109.461 72.47H97.4883V73.3993H109.461V72.47Z" fill="#F0CBCF"/>
<path d="M109.461 73.3994H97.4883V74.3288H109.461V73.3994Z" fill="#F0CACE"/>
<path d="M109.461 74.3286H97.4883V75.258H109.461V74.3286Z" fill="#F0C9CD"/>
<path d="M109.461 75.2581H97.4883V76.1875H109.461V75.2581Z" fill="#F0C8CC"/>
<path d="M109.461 76.1875H97.4883V77.1168H109.461V76.1875Z" fill="#EFC7CB"/>
<path d="M109.461 77.1167H97.4883V78.046H109.461V77.1167Z" fill="#EFC6CA"/>
<path d="M109.461 78.0461H97.4883V78.9755H109.461V78.0461Z" fill="#EFC5C9"/>
<path d="M109.461 78.9756H97.4883V79.9049H109.461V78.9756Z" fill="#EFC4C8"/>
<path d="M109.461 79.9048H97.4883V80.8341H109.461V79.9048Z" fill="#EEC4C7"/>
<path d="M109.461 80.8342H97.4883V81.7636H109.461V80.8342Z" fill="#EEC3C6"/>
<path d="M109.461 81.7637H97.4883V82.6931H109.461V81.7637Z" fill="#EEC2C5"/>
<path d="M109.461 82.6929H97.4883V83.6223H109.461V82.6929Z" fill="#EEC1C4"/>
<path d="M109.461 83.6292H97.4883V84.5585H109.461V83.6292Z" fill="#EDC0C3"/>
<path d="M109.461 84.5583H97.4883V85.4877H109.461V84.5583Z" fill="#EDBFC2"/>
<path d="M109.461 85.4878H97.4883V86.4171H109.461V85.4878Z" fill="#EDBEC1"/>
<path d="M109.461 86.4172H97.4883V87.3466H109.461V86.4172Z" fill="#EDBDBF"/>
<path d="M109.461 87.3464H97.4883V88.2758H109.461V87.3464Z" fill="#ECBCBE"/>
<path d="M109.461 88.2759H97.4883V89.2052H109.461V88.2759Z" fill="#ECBBBD"/>
<path d="M109.461 89.2053H97.4883V90.1346H109.461V89.2053Z" fill="#ECBABC"/>
<path d="M109.461 90.1345H97.4883V91.0639H109.461V90.1345Z" fill="#ECB9BB"/>
<path d="M109.461 91.064H97.4883V91.9933H109.461V91.064Z" fill="#EBB8BA"/>
<path d="M109.461 91.9932H97.4883V92.9225H109.461V91.9932Z" fill="#EBB7B9"/>
<path d="M109.461 92.9226H97.4883V93.8519H109.461V92.9226Z" fill="#EBB6B8"/>
<path d="M109.461 93.8521H97.4883V94.7814H109.461V93.8521Z" fill="#EBB5B7"/>
<path d="M109.461 94.7815H97.4883V95.7108H109.461V94.7815Z" fill="#EAB4B6"/>
<path d="M109.461 95.7107H97.4883V96.64H109.461V95.7107Z" fill="#EAB3B5"/>
<path d="M109.461 96.6401H97.4883V97.5695H109.461V96.6401Z" fill="#EAB2B4"/>
<path d="M109.461 97.5693H97.4883V98.4987H109.461V97.5693Z" fill="#EAB1B3"/>
<path d="M109.461 98.4988H97.4883V99.4281H109.461V98.4988Z" fill="#E9B0B2"/>
<path d="M109.461 99.4351H97.4883V100.364H109.461V99.4351Z" fill="#E9AFB1"/>
<path d="M109.461 100.364H97.4883V101.294H109.461V100.364Z" fill="#E9AEB0"/>
<path d="M109.461 101.294H97.4883V102.223H109.461V101.294Z" fill="#E9ADAF"/>
<path d="M109.461 102.223H97.4883V103.152H109.461V102.223Z" fill="#E8ACAE"/>
<path d="M109.461 103.152H97.4883V103.408H109.461V103.152Z" fill="#E8ABAD"/>
<path d="M35.1282 66.355H31.207V113.113H35.1282V66.355Z" fill="#CF9D55"/>
<path d="M39.0501 66.355H35.1289V113.113H39.0501V66.355Z" fill="#CE9C54"/>
<path d="M42.9719 66.355H39.0508V113.113H42.9719V66.355Z" fill="#CD9B53"/>
<path d="M46.89 66.355H42.9688V113.113H46.89V66.355Z" fill="#CC9A52"/>
<path d="M50.8117 66.355H46.8906V113.113H50.8117V66.355Z" fill="#CB9951"/>
<path d="M54.7336 66.355H50.8125V113.113H54.7336V66.355Z" fill="#CA9850"/>
<path d="M58.6556 66.355H54.7344V113.113H58.6556V66.355Z" fill="#C9974F"/>
<path d="M62.5775 66.355H58.6562V113.113H62.5775V66.355Z" fill="#C8964E"/>
<path d="M66.4915 66.355H62.5703V113.113H66.4915V66.355Z" fill="#C7954D"/>
<path d="M70.4133 66.355H66.4922V113.113H70.4133V66.355Z" fill="#C6944C"/>
<path d="M74.3314 66.355H70.4102V113.113H74.3314V66.355Z" fill="#C5934B"/>
<path d="M78.2532 66.355H74.332V113.113H78.2532V66.355Z" fill="#C39149"/>
<path d="M82.1751 66.355H78.2539V113.113H82.1751V66.355Z" fill="#C29048"/>
<path d="M86.0969 66.355H82.1758V113.113H86.0969V66.355Z" fill="#C18F47"/>
<path d="M90.0187 66.355H86.0977V113.113H90.0187V66.355Z" fill="#C08E46"/>
<path d="M93.9368 66.355H90.0156V113.113H93.9368V66.355Z" fill="#BF8D45"/>
<path d="M97.8586 66.355H93.9375V113.113H97.8586V66.355Z" fill="#BE8C44"/>
<path d="M101.781 66.355H97.8594V113.113H101.781V66.355Z" fill="#BD8B43"/>
<path d="M105.702 66.355H101.781V113.113H105.702V66.355Z" fill="#BC8A42"/>
<path d="M32.548 61.001H28.957V67.264H32.548V61.001Z" fill="#E3AE76"/>
<path d="M36.138 61.001H32.5469V67.264H36.138V61.001Z" fill="#E2AD75"/>
<path d="M39.7316 61.001H36.1406V67.264H39.7316V61.001Z" fill="#E1AC74"/>
<path d="M43.3215 61.001H39.7305V67.264H43.3215V61.001Z" fill="#E0AB73"/>
<path d="M46.9034 61.001H43.3125V67.264H46.9034V61.001Z" fill="#DFAA72"/>
<path d="M50.4974 61.001H46.9062V67.264H50.4974V61.001Z" fill="#DEA971"/>
<path d="M54.087 61.001H50.4961V67.264H54.087V61.001Z" fill="#DDA870"/>
<path d="M57.677 61.001H54.0859V67.264H57.677V61.001Z" fill="#DCA76F"/>
<path d="M61.2707 61.001H57.6797V67.264H61.2707V61.001Z" fill="#DBA66E"/>
<path d="M64.8606 61.001H61.2695V67.264H64.8606V61.001Z" fill="#DAA56D"/>
<path d="M68.4504 61.001H64.8594V67.264H68.4504V61.001Z" fill="#DAA46C"/>
<path d="M72.0441 61.001H68.4531V67.264H72.0441V61.001Z" fill="#D9A36B"/>
<path d="M75.6339 61.001H72.043V67.264H75.6339V61.001Z" fill="#D8A169"/>
<path d="M79.2239 61.001H75.6328V67.264H79.2239V61.001Z" fill="#D7A068"/>
<path d="M82.8176 61.001H79.2266V67.264H82.8176V61.001Z" fill="#D69F67"/>
<path d="M86.4074 61.001H82.8164V67.264H86.4074V61.001Z" fill="#D59E66"/>
<path d="M89.9974 61.001H86.4062V67.264H89.9974V61.001Z" fill="#D49D65"/>
<path d="M93.587 61.001H89.9961V67.264H93.587V61.001Z" fill="#D39C64"/>
<path d="M97.1808 61.001H93.5898V67.264H97.1808V61.001Z" fill="#D29B63"/>
<path d="M100.771 61.001H97.1797V67.264H100.771V61.001Z" fill="#D19A62"/>
<path d="M104.361 61.001H100.77V67.264H104.361V61.001Z" fill="#D09961"/>
<path d="M107.954 61.001H104.363V67.264H107.954V61.001Z" fill="#CF9860"/>
<path d="M61.9489 30.7969H61.6523V44.0302H61.9489V30.7969Z" fill="#F3D6DA"/>
<path d="M62.2379 30.7969H61.9414V44.0302H62.2379V30.7969Z" fill="#F3D5D9"/>
<path d="M62.5348 30.7969H62.2383V44.0302H62.5348V30.7969Z" fill="#F3D4D8"/>
<path d="M62.8315 30.7969H62.5352V44.0302H62.8315V30.7969Z" fill="#F2D3D7"/>
<path d="M63.1207 30.7969H62.8242V44.0302H63.1207V30.7969Z" fill="#F2D2D6"/>
<path d="M63.4175 30.7969H63.1211V44.0302H63.4175V30.7969Z" fill="#F2D1D5"/>
<path d="M63.7145 30.7969H63.418V44.0302H63.7145V30.7969Z" fill="#F2D0D4"/>
<path d="M64.0035 30.7969H63.707V44.0302H64.0035V30.7969Z" fill="#F1CFD3"/>
<path d="M64.3004 30.7969H64.0039V44.0302H64.3004V30.7969Z" fill="#F1CED2"/>
<path d="M64.5972 30.7969H64.3008V44.0302H64.5972V30.7969Z" fill="#F1CDD1"/>
<path d="M64.8862 30.7969H64.5898V44.0302H64.8862V30.7969Z" fill="#F1CCD0"/>
<path d="M65.1832 30.7969H64.8867V44.0302H65.1832V30.7969Z" fill="#F0CBCF"/>
<path d="M65.4801 30.7969H65.1836V44.0302H65.4801V30.7969Z" fill="#F0CACE"/>
<path d="M65.769 30.7969H65.4727V44.0302H65.769V30.7969Z" fill="#F0C9CD"/>
<path d="M66.066 30.7969H65.7695V44.0302H66.066V30.7969Z" fill="#F0C8CC"/>
<path d="M66.3629 30.7969H66.0664V44.0302H66.3629V30.7969Z" fill="#EFC7CB"/>
<path d="M66.6519 30.7969H66.3555V44.0302H66.6519V30.7969Z" fill="#EFC6CA"/>
<path d="M66.9488 30.7969H66.6523V44.0302H66.9488V30.7969Z" fill="#EFC5C9"/>
<path d="M67.2457 30.7969H66.9492V44.0302H67.2457V30.7969Z" fill="#EFC4C8"/>
<path d="M67.5347 30.7969H67.2383V44.0302H67.5347V30.7969Z" fill="#EEC4C7"/>
<path d="M67.8316 30.7969H67.5352V44.0302H67.8316V30.7969Z" fill="#EEC3C6"/>
<path d="M68.1285 30.7969H67.832V44.0302H68.1285V30.7969Z" fill="#EEC2C5"/>
<path d="M68.4175 30.7969H68.1211V44.0302H68.4175V30.7969Z" fill="#EEC1C4"/>
<path d="M68.7144 30.7969H68.418V44.0302H68.7144V30.7969Z" fill="#EDC0C3"/>
<path d="M69.0114 30.7969H68.7148V44.0302H69.0114V30.7969Z" fill="#EDBFC2"/>
<path d="M69.3003 30.7969H69.0039V44.0302H69.3003V30.7969Z" fill="#EDBEC1"/>
<path d="M69.5972 30.7969H69.3008V44.0302H69.5972V30.7969Z" fill="#EDBDBF"/>
<path d="M69.8902 30.7969H69.5938V44.0302H69.8902V30.7969Z" fill="#ECBCBE"/>
<path d="M70.1832 30.7969H69.8867V44.0302H70.1832V30.7969Z" fill="#ECBBBD"/>
<path d="M70.4799 30.7969H70.1836V44.0302H70.4799V30.7969Z" fill="#ECBABC"/>
<path d="M70.773 30.7969H70.4766V44.0302H70.773V30.7969Z" fill="#ECB9BB"/>
<path d="M71.0659 30.7969H70.7695V44.0302H71.0659V30.7969Z" fill="#EBB8BA"/>
<path d="M71.3591 30.7969H71.0625V44.0302H71.3591V30.7969Z" fill="#EBB7B9"/>
<path d="M71.6557 30.7969H71.3594V44.0302H71.6557V30.7969Z" fill="#EBB6B8"/>
<path d="M71.9488 30.7969H71.6523V44.0302H71.9488V30.7969Z" fill="#EBB5B7"/>
<path d="M72.2418 30.7969H71.9453V44.0302H72.2418V30.7969Z" fill="#EAB4B6"/>
<path d="M72.5387 30.7969H72.2422V44.0302H72.5387V30.7969Z" fill="#EAB3B5"/>
<path d="M72.8278 30.7969H72.5312V44.0302H72.8278V30.7969Z" fill="#EAB2B4"/>
<path d="M73.1246 30.7969H72.8281V44.0302H73.1246V30.7969Z" fill="#EAB1B3"/>
<path d="M73.4214 30.7969H73.125V44.0302H73.4214V30.7969Z" fill="#E9B0B2"/>
<path d="M73.7184 30.7969H73.4219V44.0302H73.7184V30.7969Z" fill="#E9AFB1"/>
<path d="M74.0074 30.7969H73.7109V44.0302H74.0074V30.7969Z" fill="#E9AEB0"/>
<path d="M74.3042 30.7969H74.0078V44.0302H74.3042V30.7969Z" fill="#E9ADAF"/>
<path d="M74.6011 30.7969H74.3047V44.0302H74.6011V30.7969Z" fill="#E8ACAE"/>
<path d="M74.8901 30.7969H74.5938V44.0302H74.8901V30.7969Z" fill="#E8ABAD"/>
<path d="M58.9301 8.71436H58.4922V36.777H58.9301V8.71436Z" fill="#F3D6DA"/>
<path d="M59.3597 8.71436H58.9219V36.777H59.3597V8.71436Z" fill="#F3D5D9"/>
<path d="M59.7974 8.71436H59.3594V36.777H59.7974V8.71436Z" fill="#F3D4D8"/>
<path d="M60.2309 8.71436H59.793V36.777H60.2309V8.71436Z" fill="#F2D3D7"/>
<path d="M60.6685 8.71436H60.2305V36.777H60.6685V8.71436Z" fill="#F2D2D6"/>
<path d="M61.1059 8.71436H60.668V36.777H61.1059V8.71436Z" fill="#F2D1D5"/>
<path d="M61.5356 8.71436H61.0977V36.777H61.5356V8.71436Z" fill="#F2D0D4"/>
<path d="M61.9768 8.71436H61.5391V36.777H61.9768V8.71436Z" fill="#F1CFD3"/>
<path d="M62.4066 8.71436H61.9688V36.777H62.4066V8.71436Z" fill="#F1CED2"/>
<path d="M62.8442 8.71436H62.4062V36.777H62.8442V8.71436Z" fill="#F1CDD1"/>
<path d="M63.2739 8.71436H62.8359V36.777H63.2739V8.71436Z" fill="#F1CCD0"/>
<path d="M63.7153 8.71436H63.2773V36.777H63.7153V8.71436Z" fill="#F0CBCF"/>
<path d="M64.145 8.71436H63.707V36.777H64.145V8.71436Z" fill="#F0CACE"/>
<path d="M64.5824 8.71436H64.1445V36.777H64.5824V8.71436Z" fill="#F0C9CD"/>
<path d="M65.0121 8.71436H64.5742V36.777H65.0121V8.71436Z" fill="#F0C8CC"/>
<path d="M65.4536 8.71436H65.0156V36.777H65.4536V8.71436Z" fill="#EFC7CB"/>
<path d="M65.8833 8.71436H65.4453V36.777H65.8833V8.71436Z" fill="#EFC6CA"/>
<path d="M66.3207 8.71436H65.8828V36.777H66.3207V8.71436Z" fill="#EFC5C9"/>
<path d="M66.7504 8.71436H66.3125V36.777H66.7504V8.71436Z" fill="#EFC4C8"/>
<path d="M67.1917 8.71436H66.7539V36.777H67.1917V8.71436Z" fill="#EEC4C7"/>
<path d="M67.6214 8.71436H67.1836V36.777H67.6214V8.71436Z" fill="#EEC3C6"/>
<path d="M68.0591 8.71436H67.6211V36.777H68.0591V8.71436Z" fill="#EEC2C5"/>
<path d="M68.4886 8.71436H68.0508V36.777H68.4886V8.71436Z" fill="#EEC1C4"/>
<path d="M68.9301 8.71436H68.4922V36.777H68.9301V8.71436Z" fill="#EDC0C3"/>
<path d="M69.3599 8.71436H68.9219V36.777H69.3599V8.71436Z" fill="#EDBFC2"/>
<path d="M69.7974 8.71436H69.3594V36.777H69.7974V8.71436Z" fill="#EDBEC1"/>
<path d="M70.227 8.71436H69.7891V36.777H70.227V8.71436Z" fill="#EDBDBF"/>
<path d="M70.6683 8.71436H70.2305V36.777H70.6683V8.71436Z" fill="#ECBCBE"/>
<path d="M71.0981 8.71436H70.6602V36.777H71.0981V8.71436Z" fill="#ECBBBD"/>
<path d="M71.5356 8.71436H71.0977V36.777H71.5356V8.71436Z" fill="#ECBABC"/>
<path d="M71.9653 8.71436H71.5273V36.777H71.9653V8.71436Z" fill="#ECB9BB"/>
<path d="M72.4067 8.71436H71.9688V36.777H72.4067V8.71436Z" fill="#EBB8BA"/>
<path d="M72.8363 8.71436H72.3984V36.777H72.8363V8.71436Z" fill="#EBB7B9"/>
<path d="M73.2739 8.71436H72.8359V36.777H73.2739V8.71436Z" fill="#EBB6B8"/>
<path d="M73.7036 8.71436H73.2656V36.777H73.7036V8.71436Z" fill="#EBB5B7"/>
<path d="M74.1411 8.71436H73.7031V36.777H74.1411V8.71436Z" fill="#EAB4B6"/>
<path d="M74.5746 8.71436H74.1367V36.777H74.5746V8.71436Z" fill="#EAB3B5"/>
<path d="M75.0121 8.71436H74.5742V36.777H75.0121V8.71436Z" fill="#EAB2B4"/>
<path d="M75.4418 8.71436H75.0039V36.777H75.4418V8.71436Z" fill="#EAB1B3"/>
<path d="M75.8794 8.71436H75.4414V36.777H75.8794V8.71436Z" fill="#E9B0B2"/>
<path d="M76.3129 8.71436H75.875V36.777H76.3129V8.71436Z" fill="#E9AFB1"/>
<path d="M76.7505 8.71436H76.3125V36.777H76.7505V8.71436Z" fill="#E9AEB0"/>
<path d="M77.1802 8.71436H76.7422V36.777H77.1802V8.71436Z" fill="#E9ADAF"/>
<path d="M77.6177 8.71436H77.1797V36.777H77.6177V8.71436Z" fill="#E8ACAE"/>
<path d="M78.0513 8.71436H77.6133V36.777H78.0513V8.71436Z" fill="#E8ABAD"/>
<path d="M54.0686 21.564H53.6172V27.8068H54.0686V21.564Z" fill="#F3D6DA"/>
<path d="M54.1714 21.564H54.0703V27.8068H54.1714V21.564Z" fill="#F3D6DA"/>
<path d="M54.2728 21.564H54.1719V27.8068H54.2728V21.564Z" fill="#F3D5D9"/>
<path d="M54.3666 21.564H54.2656V27.8068H54.3666V21.564Z" fill="#F3D4D8"/>
<path d="M54.4682 21.564H54.3672V27.8068H54.4682V21.564Z" fill="#F2D3D7"/>
<path d="M54.562 21.564H54.4609V27.8068H54.562V21.564Z" fill="#F2D2D6"/>
<path d="M54.6597 21.564H54.5586V27.8068H54.6597V21.564Z" fill="#F2D1D5"/>
<path d="M54.7612 21.564H54.6602V27.8068H54.7612V21.564Z" fill="#F2D0D4"/>
<path d="M54.8549 21.564H54.7539V27.8068H54.8549V21.564Z" fill="#F1CFD3"/>
<path d="M54.9565 21.564H54.8555V27.8068H54.9565V21.564Z" fill="#F1CED2"/>
<path d="M55.0542 21.564H54.9531V27.8068H55.0542V21.564Z" fill="#F1CDD1"/>
<path d="M55.1517 21.564H55.0508V27.8068H55.1517V21.564Z" fill="#F1CCD0"/>
<path d="M55.2535 21.564H55.1523V27.8068H55.2535V21.564Z" fill="#F0CBCF"/>
<path d="M55.3472 21.564H55.2461V27.8068H55.3472V21.564Z" fill="#F0CACE"/>
<path d="M55.4487 21.564H55.3477V27.8068H55.4487V21.564Z" fill="#F0C9CD"/>
<path d="M55.5425 21.564H55.4414V27.8068H55.5425V21.564Z" fill="#F0C8CC"/>
<path d="M55.644 21.564H55.543V27.8068H55.644V21.564Z" fill="#EFC7CB"/>
<path d="M55.7455 21.564H55.6445V27.8068H55.7455V21.564Z" fill="#EFC6CA"/>
<path d="M55.8394 21.564H55.7383V27.8068H55.8394V21.564Z" fill="#EFC5C9"/>
<path d="M55.9409 21.564H55.8398V27.8068H55.9409V21.564Z" fill="#EFC4C8"/>
<path d="M56.0347 21.564H55.9336V27.8068H56.0347V21.564Z" fill="#EEC4C7"/>
<path d="M56.1361 21.564H56.0352V27.8068H56.1361V21.564Z" fill="#EEC3C6"/>
<path d="M56.2378 21.564H56.1367V27.8068H56.2378V21.564Z" fill="#EEC2C5"/>
<path d="M56.3315 21.564H56.2305V27.8068H56.3315V21.564Z" fill="#EEC1C4"/>
<path d="M56.433 21.564H56.332V27.8068H56.433V21.564Z" fill="#EDC0C3"/>
<path d="M56.5268 21.564H56.4258V27.8068H56.5268V21.564Z" fill="#EDBFC2"/>
<path d="M56.6284 21.564H56.5273V27.8068H56.6284V21.564Z" fill="#EDBEC1"/>
<path d="M56.73 21.564H56.6289V27.8068H56.73V21.564Z" fill="#EDBDBF"/>
<path d="M56.8237 21.564H56.7227V27.8068H56.8237V21.564Z" fill="#ECBCBE"/>
<path d="M56.9252 21.564H56.8242V27.8068H56.9252V21.564Z" fill="#ECBBBD"/>
<path d="M57.019 21.564H56.918V27.8068H57.019V21.564Z" fill="#ECBABC"/>
<path d="M57.1206 21.564H57.0195V27.8068H57.1206V21.564Z" fill="#ECB9BB"/>
<path d="M57.2221 21.564H57.1211V27.8068H57.2221V21.564Z" fill="#EBB8BA"/>
<path d="M57.3159 21.564H57.2148V27.8068H57.3159V21.564Z" fill="#EBB7B9"/>
<path d="M57.4175 21.564H57.3164V27.8068H57.4175V21.564Z" fill="#EBB6B8"/>
<path d="M57.5112 21.564H57.4102V27.8068H57.5112V21.564Z" fill="#EBB5B7"/>
<path d="M57.6128 21.564H57.5117V27.8068H57.6128V21.564Z" fill="#EAB4B6"/>
<path d="M57.7144 21.564H57.6133V27.8068H57.7144V21.564Z" fill="#EAB3B5"/>
<path d="M57.8081 21.564H57.707V27.8068H57.8081V21.564Z" fill="#EAB2B4"/>
<path d="M57.9096 21.564H57.8086V27.8068H57.9096V21.564Z" fill="#EAB1B3"/>
<path d="M58.0035 21.564H57.9023V27.8068H58.0035V21.564Z" fill="#E9B0B2"/>
<path d="M58.1048 21.564H58.0039V27.8068H58.1048V21.564Z" fill="#E9AFB1"/>
<path d="M58.2065 21.564H58.1055V27.8068H58.2065V21.564Z" fill="#E9AEB0"/>
<path d="M58.3002 21.564H58.1992V27.8068H58.3002V21.564Z" fill="#E9ADAF"/>
<path d="M58.4019 21.564H58.3008V27.8068H58.4019V21.564Z" fill="#E8ACAE"/>
<path d="M58.4968 21.564H58.4023V27.8068H58.4968V21.564Z" fill="#E8ABAD"/>
<path d="M82.9218 21.564H82.8477V27.8068H82.9218V21.564Z" fill="#F3D6DA"/>
<path d="M82.8538 21.564H82.7461V27.8068H82.8538V21.564Z" fill="#F3D6DA"/>
<path d="M82.7484 21.564H82.6406V27.8068H82.7484V21.564Z" fill="#F3D5D9"/>
<path d="M82.6469 21.564H82.5391V27.8068H82.6469V21.564Z" fill="#F3D4D8"/>
<path d="M82.5375 21.564H82.4297V27.8068H82.5375V21.564Z" fill="#F2D3D7"/>
<path d="M82.4319 21.564H82.3242V27.8068H82.4319V21.564Z" fill="#F2D2D6"/>
<path d="M82.3304 21.564H82.2227V27.8068H82.3304V21.564Z" fill="#F2D1D5"/>
<path d="M82.2212 21.564H82.1133V27.8068H82.2212V21.564Z" fill="#F2D0D4"/>
<path d="M82.1196 21.564H82.0117V27.8068H82.1196V21.564Z" fill="#F1CFD3"/>
<path d="M82.014 21.564H81.9062V27.8068H82.014V21.564Z" fill="#F1CED2"/>
<path d="M81.9125 21.564H81.8047V27.8068H81.9125V21.564Z" fill="#F1CDD1"/>
<path d="M81.8031 21.564H81.6953V27.8068H81.8031V21.564Z" fill="#F1CCD0"/>
<path d="M81.6976 21.564H81.5898V27.8068H81.6976V21.564Z" fill="#F0CBCF"/>
<path d="M81.5961 21.564H81.4883V27.8068H81.5961V21.564Z" fill="#F0CACE"/>
<path d="M81.4867 21.564H81.3789V27.8068H81.4867V21.564Z" fill="#F0C9CD"/>
<path d="M81.3852 21.564H81.2773V27.8068H81.3852V21.564Z" fill="#F0C8CC"/>
<path d="M81.2797 21.564H81.1719V27.8068H81.2797V21.564Z" fill="#EFC7CB"/>
<path d="M81.178 21.564H81.0703V27.8068H81.178V21.564Z" fill="#EFC6CA"/>
<path d="M81.0688 21.564H80.9609V27.8068H81.0688V21.564Z" fill="#EFC5C9"/>
<path d="M80.9672 21.564H80.8594V27.8068H80.9672V21.564Z" fill="#EFC4C8"/>
<path d="M80.8616 21.564H80.7539V27.8068H80.8616V21.564Z" fill="#EEC4C7"/>
<path d="M80.7522 21.564H80.6445V27.8068H80.7522V21.564Z" fill="#EEC3C6"/>
<path d="M80.6508 21.564H80.543V27.8068H80.6508V21.564Z" fill="#EEC2C5"/>
<path d="M80.5453 21.564H80.4375V27.8068H80.5453V21.564Z" fill="#EEC1C4"/>
<path d="M80.4437 21.564H80.3359V27.8068H80.4437V21.564Z" fill="#EDC0C3"/>
<path d="M80.3344 21.564H80.2266V27.8068H80.3344V21.564Z" fill="#EDBFC2"/>
<path d="M80.2328 21.564H80.125V27.8068H80.2328V21.564Z" fill="#EDBEC1"/>
<path d="M80.1274 21.564H80.0195V27.8068H80.1274V21.564Z" fill="#EDBDBF"/>
<path d="M80.0258 21.564H79.918V27.8068H80.0258V21.564Z" fill="#ECBCBE"/>
<path d="M79.9163 21.564H79.8086V27.8068H79.9163V21.564Z" fill="#ECBBBD"/>
<path d="M79.8109 21.564H79.7031V27.8068H79.8109V21.564Z" fill="#ECBABC"/>
<path d="M79.7094 21.564H79.6016V27.8068H79.7094V21.564Z" fill="#ECB9BB"/>
<path d="M79.5999 21.564H79.4922V27.8068H79.5999V21.564Z" fill="#EBB8BA"/>
<path d="M79.4984 21.564H79.3906V27.8068H79.4984V21.564Z" fill="#EBB7B9"/>
<path d="M79.393 21.564H79.2852V27.8068H79.393V21.564Z" fill="#EBB6B8"/>
<path d="M79.2914 21.564H79.1836V27.8068H79.2914V21.564Z" fill="#EBB5B7"/>
<path d="M79.1819 21.564H79.0742V27.8068H79.1819V21.564Z" fill="#EAB4B6"/>
<path d="M79.0764 21.564H78.9688V27.8068H79.0764V21.564Z" fill="#EAB3B5"/>
<path d="M78.975 21.564H78.8672V27.8068H78.975V21.564Z" fill="#EAB2B4"/>
<path d="M78.8657 21.564H78.7578V27.8068H78.8657V21.564Z" fill="#EAB1B3"/>
<path d="M78.7641 21.564H78.6562V27.8068H78.7641V21.564Z" fill="#E9B0B2"/>
<path d="M78.6586 21.564H78.5508V27.8068H78.6586V21.564Z" fill="#E9AFB1"/>
<path d="M78.557 21.564H78.4492V27.8068H78.557V21.564Z" fill="#E9AEB0"/>
<path d="M78.4476 21.564H78.3398V27.8068H78.4476V21.564Z" fill="#E9ADAF"/>
<path d="M78.3462 21.564H78.2383V27.8068H78.3462V21.564Z" fill="#E8ACAE"/>
<path d="M78.2405 21.564H78.1328V27.8068H78.2405V21.564Z" fill="#E8ABAD"/>
<path d="M78.1317 21.564H78.0508V27.8068H78.1317V21.564Z" fill="#E8ABAD"/>
<path d="M68.3449 9.21289C57.3226 9.21289 55.207 20.4595 55.207 20.4595C59.2966 12.8226 68.2371 13.4085 68.2775 13.4152H68.3381C68.3853 13.4085 77.319 12.7552 81.476 20.4595C81.4827 20.4595 79.3672 9.21289 68.3449 9.21289Z" fill="#D3444B"/>
<path d="M82.0556 9.83911C81.4088 5.19231 74.3548 0 68.3518 0C62.3488 0 55.2947 5.19231 54.648 9.83911C53.9473 14.8361 55.2207 20.4594 55.2207 20.4594C55.2207 20.4594 57.3362 9.21281 68.3586 9.21281C79.3809 9.21281 81.4964 20.4594 81.4964 20.4594C81.4964 20.4594 82.7496 14.8361 82.0556 9.83911Z" fill="#E95558"/>
</svg>
