<svg width="245" height="181" viewBox="0 0 245 181" fill="none" xmlns="http://www.w3.org/2000/svg">
<g clipPath="url(#clip0_1244_3831)">
<path d="M245 159.062H1.02734V159.185H245V159.062Z" fill="#EBEBEB"/>
<path d="M44.6985 162.368H26.625V162.491H44.6985V162.368Z" fill="#EBEBEB"/>
<path d="M118.135 164.999H83.4902V165.122H118.135V164.999Z" fill="#EBEBEB"/>
<path d="M72.1012 162.432H47.3379V162.555H72.1012V162.432Z" fill="#EBEBEB"/>
<path d="M223.255 166.066H199.51V166.189H223.255V166.066Z" fill="#EBEBEB"/>
<path d="M197.34 166.066H181.742V166.189H197.34V166.066Z" fill="#EBEBEB"/>
<path d="M166.549 164.016H136.291V164.139H166.549V164.016Z" fill="#EBEBEB"/>
<path d="M116.678 137.395H22.4565C20.9199 137.395 19.6699 136.151 19.6699 134.621V2.77417C19.6699 1.24444 20.9199 0 22.4565 0H116.678C118.214 0 119.464 1.24444 119.464 2.77417V134.626C119.459 136.156 118.214 137.395 116.678 137.395ZM22.4565 0.122969C20.9891 0.122969 19.7934 1.3133 19.7934 2.77417V134.626C19.7934 136.087 20.9891 137.277 22.4565 137.277H116.678C118.145 137.277 119.341 136.087 119.341 134.626V2.77417C119.341 1.3133 118.145 0.122969 116.678 0.122969H22.4565Z" fill="#EBEBEB"/>
<path d="M222.217 137.395H127.996C126.459 137.395 125.209 136.151 125.209 134.621V2.77417C125.209 1.24444 126.459 0 127.996 0H222.217C223.753 0 225.003 1.24444 225.003 2.77417V134.626C225.003 136.156 223.753 137.395 222.217 137.395ZM127.996 0.122969C126.528 0.122969 125.333 1.3133 125.333 2.77417V134.626C125.333 136.087 126.528 137.277 127.996 137.277H222.217C223.684 137.277 224.88 136.087 224.88 134.626V2.77417C224.88 1.3133 223.684 0.122969 222.217 0.122969H127.996Z" fill="#EBEBEB"/>
<path d="M175.599 110.194H213.584V157.567H175.599C171.869 157.567 168.82 154.532 168.82 150.818V116.943C168.82 113.234 171.869 110.194 175.599 110.194Z" fill="#DDDDDD"/>
<path d="M213.351 110.194H213.815C217.546 110.194 220.594 113.229 220.594 116.943V150.818C220.594 154.532 217.546 157.567 213.815 157.567H213.351C209.621 157.567 206.572 154.532 206.572 150.818V116.943C206.572 113.234 209.621 110.194 213.351 110.194Z" fill="#E2E2E2"/>
<path d="M208.485 127.666H125.084V157.567H208.485V127.666Z" fill="#DDDDDD"/>
<path d="M212.567 159.062H89.3032C88.5473 159.062 87.9297 158.452 87.9297 157.694V157.566H175.496L213.94 157.694C213.94 158.452 213.327 159.062 212.567 159.062Z" fill="#CCCCCC"/>
<path d="M177.092 90.5391H97.3815C92.159 90.5391 87.9297 94.7544 87.9297 99.9486V134.424H186.548V99.9486C186.548 94.7544 182.314 90.5391 177.092 90.5391Z" fill="#CCCCCC"/>
<path d="M184.405 90.5391H103.78C98.81 90.5391 94.7832 94.5478 94.7832 99.4961V134.424H193.402V99.4961C193.402 94.5528 189.37 90.5391 184.405 90.5391Z" fill="#E2E2E2"/>
<path d="M204.503 124.936H131.433C129.106 124.936 127.219 126.815 127.219 129.131V132.914C127.219 135.231 129.106 137.109 131.433 137.109H204.503C207.882 137.109 210.62 134.384 210.62 131.02C210.62 127.665 207.882 124.936 204.503 124.936Z" fill="#CCCCCC"/>
<path d="M86.8823 110.194H124.867V157.567H86.8823C83.152 157.567 80.1035 154.532 80.1035 150.818V116.943C80.1035 113.234 83.152 110.194 86.8823 110.194Z" fill="#DDDDDD"/>
<path d="M124.634 110.194H125.099C128.829 110.194 131.877 113.229 131.877 116.943V150.818C131.877 154.532 128.829 157.567 125.099 157.567H124.634C120.904 157.567 117.855 154.532 117.855 150.818V116.943C117.855 113.234 120.909 110.194 124.634 110.194Z" fill="#E2E2E2"/>
<path d="M196.718 18.248H162.256V68.6996H196.718V18.248Z" fill="#CCCCCC"/>
<path d="M198.798 18.248H163.199V68.6996H198.798V18.248Z" fill="#E2E2E2"/>
<path d="M166.178 22.2237V64.7217H195.808V22.2237H166.178Z" fill="white"/>
<path d="M177.311 45.5273V48.7638C181.382 48.7638 184.687 45.4781 184.687 41.4201V38.1836C180.611 38.1836 177.311 41.4693 177.311 45.5273Z" fill="#E2E2E2"/>
<path d="M177.311 34.6132V37.8497C181.382 37.8497 184.687 34.564 184.687 30.5061V27.2695C180.611 27.2695 177.311 30.5602 177.311 34.6132Z" fill="#E2E2E2"/>
<path d="M177.311 56.4374V59.674C181.382 59.674 184.687 56.3883 184.687 52.3303V49.0938C180.611 49.0938 177.311 52.3844 177.311 56.4374Z" fill="#E2E2E2"/>
<path d="M145.537 57.8206V22.2236L32.9854 22.2236V57.8206L145.537 57.8206Z" fill="#D9D9D9"/>
<path d="M32.9883 57.8177L32.9883 22.2207H32.3114L32.3114 57.8177H32.9883Z" fill="#CCCCCC"/>
<path d="M139.992 27.7461H38.5371V52.2956H139.992V27.7461Z" fill="#E2E2E2"/>
<path d="M62.846 52.2956H54.4219L61.0179 27.7461H69.442L62.846 52.2956Z" fill="white"/>
<path d="M70.6822 52.2956H65.8105L72.4065 27.7461H77.2831L70.6822 52.2956Z" fill="white"/>
<path d="M113.1 52.2956H108.229L114.829 27.7461H119.701L113.1 52.2956Z" fill="white"/>
<path d="M76.814 118.35H49.5308L46.1562 81.4492H73.4394L76.814 118.35Z" fill="#D4D4D4"/>
<path d="M78.2261 118.35H50.9429L47.5684 81.4492H74.8515L78.2261 118.35Z" fill="#DDDDDD"/>
<path d="M54.6734 114.267L52.0449 85.5371H71.1263L73.7499 114.267H54.6734Z" fill="white"/>
<path d="M97.2589 118.35H93.5879V159.057H97.2589V118.35Z" fill="#D4D4D4"/>
<path d="M98.4206 118.35H95.8711V159.057H98.4206V118.35Z" fill="#E2E2E2"/>
<path d="M60.4384 122.846H99.209V118.355H60.4384V122.846Z" fill="#E2E2E2"/>
<path d="M58.7902 122.846H55.1191V159.062H58.7902V122.846Z" fill="#D4D4D4"/>
<path d="M59.9498 122.846H57.4004V159.062H59.9498V122.846Z" fill="#E2E2E2"/>
<path d="M35.548 122.846H31.877V159.062H35.548V122.846Z" fill="#D4D4D4"/>
<path d="M36.7038 122.846H34.1543V159.062H36.7038V122.846Z" fill="#E2E2E2"/>
<path d="M74.0128 122.846H70.3418V159.062H74.0128V122.846Z" fill="#D4D4D4"/>
<path d="M75.1725 122.846H72.623V159.062H75.1725V122.846Z" fill="#E2E2E2"/>
<path d="M60.4398 118.35H31.877V122.84H60.4398V118.35Z" fill="#D4D4D4"/>
<path d="M123.011 181C175.261 181 217.618 178.538 217.618 175.501C217.618 172.464 175.261 170.002 123.011 170.002C70.7611 170.002 28.4043 172.464 28.4043 175.501C28.4043 178.538 70.7611 181 123.011 181Z" fill="#F5F5F5"/>
<path d="M161.248 39.3598C159.386 38.1989 154.03 39.3499 154.924 45.2082C155.813 51.0664 148.916 49.5416 150.418 56.3245C151.92 63.1075 164.114 73.1811 171.624 66.3391C179.134 59.4971 172.805 56.4819 172.948 48.366C173.027 43.5407 170.828 34.9034 161.248 39.3598Z" fill="#101B27"/>
<path d="M172.314 66.0442C172.28 66.0442 172.25 66.0344 172.225 66.0098C172.176 65.9606 172.176 65.8819 172.225 65.8327C176.855 61.2583 175.783 58.4694 174.429 54.9426C173.683 52.9948 172.833 50.7814 172.764 47.9137C172.69 44.8198 171.553 40.5848 168.594 38.8436C166.494 37.609 163.801 37.8205 160.59 39.4781C160.525 39.5076 160.451 39.4879 160.422 39.424C160.392 39.365 160.412 39.2862 160.476 39.2567C163.767 37.5598 166.543 37.3483 168.722 38.6271C171.771 40.4225 172.942 44.7461 173.016 47.9088C173.085 50.7371 173.925 52.9259 174.666 54.8541C176.049 58.4694 177.146 61.3222 172.403 66.0098C172.373 66.0295 172.344 66.0442 172.314 66.0442Z" fill="#263238"/>
<path d="M173.377 65.3801C173.372 65.3653 173.456 65.4932 173.505 65.5621L173.703 65.8228C173.846 66.0048 173.995 66.1868 174.158 66.3638C174.479 66.7229 174.83 67.0721 175.2 67.4017C175.936 68.0756 176.747 68.7002 177.621 69.2511C178.501 69.7922 179.405 70.3185 180.368 70.7563C180.838 70.9924 181.337 71.1793 181.826 71.3957C181.92 71.435 181.836 71.4105 181.767 71.435C181.687 71.4547 181.648 71.5039 181.702 71.4744C181.806 71.4252 182.063 71.1153 182.261 70.7317C182.468 70.3431 182.641 69.8807 182.809 69.4036C183.14 68.4346 183.377 67.382 183.605 66.3146C183.827 65.2424 183.995 64.1504 184.148 63.0486C184.316 61.9517 184.435 60.8302 184.558 59.7383L186.544 59.7481C186.707 62.0796 186.697 64.3717 186.495 66.7229C186.401 67.8985 186.228 69.079 185.942 70.2939C185.793 70.9038 185.606 71.5187 185.334 72.1581C185.047 72.7926 184.711 73.4862 183.94 74.1748C183.56 74.5093 182.992 74.8241 182.354 74.9372C181.722 75.0602 181.055 74.947 180.62 74.7896C180.047 74.588 179.464 74.4158 178.901 74.1846C177.764 73.7419 176.648 73.2058 175.576 72.586C174.508 71.9515 173.481 71.2235 172.517 70.3923C172.038 69.9693 171.583 69.5118 171.149 69.0249C170.931 68.7789 170.719 68.5232 170.511 68.2575L170.21 67.8296C170.101 67.6673 170.027 67.5591 169.879 67.2984L173.377 65.3801Z" fill="#EEC1BB"/>
<path d="M172.711 63.5797C177.276 66.4768 176.901 68.2672 176.901 68.2672L174.035 72.399C174.035 72.399 166.723 69.4772 166.263 67.1949C165.779 64.8143 170.497 62.1729 172.711 63.5797Z" fill="#263238"/>
<path opacity="0.1" d="M172.711 63.5797C177.276 66.4768 176.901 68.2672 176.901 68.2672L174.035 72.399C174.035 72.399 166.723 69.4772 166.263 67.1949C165.779 64.8143 170.497 62.1729 172.711 63.5797Z" fill="#004772"/>
<path d="M177.548 68.0731C177.726 68.1961 177.771 68.4371 177.647 68.6142L174.712 72.8C174.589 72.9771 174.347 73.0214 174.169 72.8984C173.991 72.7754 173.946 72.5344 174.07 72.3574L177.005 68.1715C177.123 67.9895 177.37 67.9452 177.548 68.0731Z" fill="#00ADF6"/>
<path d="M184.9 60.6923L182.637 57.682L186.98 56.5654C186.98 56.5654 187.864 59.2511 186.421 61.2136L184.9 60.6923Z" fill="#EEC1BB"/>
<path d="M182.755 53.978L186.372 53.373L186.98 56.5653L182.637 57.6819L182.755 53.978Z" fill="#EEC1BB"/>
<path d="M145.965 171.3L150.105 171.699L153.06 162.019L148.924 161.62L145.965 171.3Z" fill="#EEC1BB"/>
<path d="M119.641 156.987L122.714 159.859L129.339 152.609L126.266 149.741L119.641 156.987Z" fill="#EEC1BB"/>
<path d="M124.127 158.482L121.82 154.345C121.736 154.193 121.563 154.129 121.405 154.193L117.852 155.535C117.482 155.673 117.324 156.145 117.521 156.49C118.351 157.916 118.821 158.565 119.838 160.385C120.461 161.507 121.676 164.069 122.541 165.619C123.386 167.129 124.982 166.401 124.764 165.678C123.781 162.446 123.964 160.651 124.241 159.224C124.295 158.964 124.251 158.703 124.127 158.482Z" fill="#263238"/>
<path d="M150.596 170.444H145.576C145.393 170.444 145.23 170.572 145.181 170.749L144.089 174.704C143.975 175.112 144.276 175.491 144.701 175.496C146.47 175.511 147.31 175.506 149.514 175.506C150.872 175.506 154.385 175.506 156.258 175.506C158.091 175.506 158.476 173.661 157.715 173.494C154.311 172.746 152.355 171.708 151.302 170.725C151.114 170.538 150.862 170.444 150.596 170.444Z" fill="#004772"/>
<path opacity="0.2" d="M153.061 162.019L151.539 167.011H147.275L148.921 161.62L153.061 162.019Z" fill="black"/>
<path opacity="0.2" d="M126.267 149.741L129.335 152.609L125.921 156.347L122.848 153.475L126.267 149.741Z" fill="black"/>
<path d="M172.709 63.5799C172.709 63.5799 174.37 64.7062 163.855 87.4456C157.284 85.6355 150.496 83.7615 147.299 82.881C149.443 76.2505 150.599 72.1139 151.207 57.4609C151.207 57.4609 154.883 57.6675 158.495 58.4742C161.316 59.1087 163.623 59.6498 166.015 60.545C169.157 61.7304 172.709 63.5799 172.709 63.5799Z" fill="#004772"/>
<path d="M161.583 50.2549C161.385 52.793 160.634 57.3379 158.495 58.479C158.495 58.479 157.25 62.6895 162.65 64.2389C167.221 65.5473 166.01 60.5498 166.01 60.5498C163.49 59.1627 165.047 56.7132 165.506 53.9636L161.583 50.2549Z" fill="#EEC1BB"/>
<path opacity="0.2" d="M161.579 50.2549C161.426 52.2912 160.907 55.6311 159.598 57.451C161.119 57.5986 163.521 57.1362 164.203 56.0098C164.38 55.7196 164.736 54.608 165.047 53.5258L161.579 50.2549Z" fill="black"/>
<path d="M168.278 46.5753C168.268 50.7562 168.352 52.522 166.366 54.7847C163.377 58.1835 158.223 57.2588 156.978 53.1566C155.862 49.4675 156.064 43.2502 160.061 41.3565C164.004 39.4874 168.288 42.3943 168.278 46.5753Z" fill="#EEC1BB"/>
<path d="M159.597 44.2589C161.954 47.5348 169.884 52.0944 170.412 47.702C170.946 43.3095 166.894 38.9712 162.887 39.3893C158.88 39.8074 157.591 41.4699 159.597 44.2589Z" fill="#101B27"/>
<path d="M170.017 50.4769C169.637 51.259 168.935 51.7902 168.254 52.0165C167.231 52.351 166.672 51.4558 166.91 50.472C167.127 49.5866 167.918 48.3373 168.965 48.4307C169.998 48.5193 170.447 49.5866 170.017 50.4769Z" fill="#EEC1BB"/>
<path d="M163.856 87.4453C163.856 87.4453 169.751 111.213 165.882 129.196C163.293 141.237 153.955 165.565 153.955 165.565L146.652 165.378C146.652 165.378 153.723 139.85 155.18 129.81C157.68 112.639 151.727 84.1055 151.727 84.1055L163.856 87.4453Z" fill="#FF5454"/>
<path opacity="0.2" d="M157.28 90.8594L153.629 96.5897C154.558 102.532 155.482 109.969 155.719 117.121C160.852 107.972 158.421 95.7043 157.28 90.8594Z" fill="black"/>
<path d="M155.259 165.939L145.965 165.713L146.587 162.422L155.94 163.12L155.259 165.939Z" fill="#004772"/>
<path d="M160.224 86.4961C160.224 86.4961 156.815 112.487 149.453 127.253C143.504 139.181 127.635 156.155 127.635 156.155L123.578 151.994C123.578 151.994 134.3 133.544 138.722 125.62C149.562 106.191 139.952 88.7735 147.304 82.8809L160.224 86.4961Z" fill="#FF5454"/>
<path d="M128.046 156.716L122.809 151.63L124.543 149.279L130.249 155.152L128.046 156.716Z" fill="#263238"/>
<path d="M147.319 81.8482L146.163 83.1172C146.074 83.2156 146.178 83.3681 146.371 83.4222L163.733 88.2081C163.881 88.2475 164.024 88.2081 164.064 88.1196L164.622 86.6833C164.661 86.5849 164.558 86.462 164.39 86.4177L147.621 81.799C147.497 81.7646 147.374 81.7842 147.319 81.8482Z" fill="#DB3636"/>
<path d="M149.048 84.3321L148.598 84.2091C148.509 84.1845 148.455 84.1206 148.475 84.0665L149.221 82.2072C149.241 82.1531 149.334 82.1285 149.423 82.1531L149.873 82.2761C149.962 82.3007 150.016 82.3646 149.997 82.4187L149.25 84.278C149.231 84.337 149.142 84.3567 149.048 84.3321Z" fill="#9E3F3F"/>
<path d="M162.423 88.0216L161.973 87.8986C161.884 87.874 161.83 87.8101 161.85 87.756L162.596 85.8967C162.616 85.8426 162.709 85.818 162.798 85.8426L163.248 85.9655C163.337 85.9901 163.391 86.0541 163.372 86.1082L162.625 87.9675C162.606 88.0216 162.512 88.0462 162.423 88.0216Z" fill="#9E3F3F"/>
<path d="M155.739 86.1769L155.29 86.0539C155.201 86.0293 155.146 85.9653 155.166 85.9112L155.912 84.0519C155.932 83.9978 156.026 83.9732 156.115 83.9978L156.564 84.1208C156.653 84.1454 156.708 84.2093 156.688 84.2634L155.942 86.1227C155.917 86.1769 155.828 86.2014 155.739 86.1769Z" fill="#9E3F3F"/>
<path d="M162.004 48.1104C162.024 48.4498 161.861 48.7351 161.639 48.7498C161.416 48.7646 161.219 48.499 161.199 48.1596C161.179 47.8202 161.342 47.5349 161.565 47.5201C161.787 47.5054 161.984 47.771 162.004 48.1104Z" fill="#263238"/>
<path d="M158.155 48.3317C158.174 48.6711 158.011 48.9564 157.789 48.9712C157.567 48.9859 157.369 48.7203 157.349 48.3809C157.33 48.0415 157.493 47.7562 157.715 47.7415C157.937 47.7316 158.135 47.9973 158.155 48.3317Z" fill="#263238"/>
<path d="M157.814 47.7562L156.984 47.5693C156.979 47.5693 157.439 48.1793 157.814 47.7562Z" fill="#263238"/>
<path d="M159.206 48.8584C159.206 48.8584 158.712 50.3537 158.119 51.0915C158.593 51.485 159.344 51.2489 159.344 51.2489L159.206 48.8584Z" fill="#E3827E"/>
<path d="M161.243 52.3994C161.055 52.4485 160.848 52.483 160.621 52.4928C160.576 52.4977 160.537 52.4584 160.532 52.4141C160.527 52.3698 160.566 52.3305 160.611 52.3256C162.113 52.237 162.755 51.15 162.765 51.1402C162.79 51.1008 162.839 51.0861 162.879 51.1107C162.918 51.1353 162.933 51.1844 162.908 51.2238C162.884 51.2681 162.389 52.1042 161.243 52.3994Z" fill="#263238"/>
<path d="M163.278 45.632C163.223 45.6467 163.164 45.632 163.119 45.5877C162.472 44.9581 161.751 45.1008 161.721 45.1106C161.632 45.1303 161.543 45.0712 161.524 44.9827C161.504 44.8942 161.558 44.8056 161.652 44.786C161.692 44.7761 162.576 44.5892 163.357 45.3516C163.421 45.4156 163.426 45.5189 163.362 45.5877C163.337 45.6074 163.307 45.6222 163.278 45.632Z" fill="#263238"/>
<path d="M156.475 46.1235C156.421 46.1481 156.357 46.1432 156.307 46.1038C156.233 46.0497 156.219 45.9464 156.273 45.8726C156.92 45.002 157.829 45.0463 157.869 45.0463C157.963 45.0512 158.032 45.1299 158.027 45.2234C158.022 45.3119 157.943 45.3857 157.854 45.3807C157.824 45.3807 157.088 45.3512 156.545 46.0743C156.525 46.094 156.5 46.1136 156.475 46.1235Z" fill="#263238"/>
<path d="M151.592 63.7231C151.167 64.3625 150.782 64.874 150.347 65.42C149.922 65.9512 149.487 66.4726 149.038 66.9842C148.139 67.9974 147.175 68.9566 146.167 69.8715C145.159 70.7864 144.102 71.6521 142.975 72.4341C142.427 72.8424 141.834 73.1966 141.256 73.5704L140.357 74.0819L139.907 74.3377C139.744 74.4262 139.527 74.5394 139.319 74.623C138.494 74.9919 137.437 75.1837 136.429 75.0017C135.421 74.8296 134.571 74.3475 133.924 73.8163C133.262 73.2802 132.768 72.6801 132.333 72.0751C131.908 71.4652 131.542 70.8503 131.236 70.2207C130.016 67.6974 129.299 65.1593 128.85 62.5032L130.781 62.0556C131.187 63.2115 131.641 64.4068 132.15 65.5332C132.649 66.6694 133.202 67.7712 133.845 68.7697C134.472 69.7584 135.208 70.6831 135.955 71.1848C136.325 71.4406 136.666 71.5635 136.943 71.5783C137.219 71.593 137.486 71.5389 137.832 71.3619C137.921 71.3176 137.99 71.2733 138.104 71.2045L138.484 70.9585L139.24 70.4667C139.729 70.1076 140.233 69.7731 140.703 69.3895C141.666 68.6516 142.575 67.8351 143.465 66.9989C144.354 66.1578 145.194 65.2626 145.994 64.3379C146.399 63.8805 146.795 63.4083 147.175 62.9361C147.541 62.4688 147.941 61.9523 148.242 61.5293L151.592 63.7231Z" fill="#EEC1BB"/>
<path d="M131.198 63.8407L131.628 59.3105L127.537 60.978C127.537 60.978 128.026 63.2554 129.583 64.0719L131.198 63.8407Z" fill="#EEC1BB"/>
<path d="M130.317 56.8664L127.15 56.1777L127.531 60.9784L131.622 59.311L130.317 56.8664Z" fill="#EEC1BB"/>
<path d="M151.207 57.461C149.078 57.4413 143.939 65.5671 143.939 65.5671L147.571 69.3053C147.571 69.3053 154.389 64.7211 154.666 62.001C154.903 59.6941 153.92 57.4856 151.207 57.461Z" fill="#263238"/>
<path opacity="0.1" d="M151.207 57.461C149.078 57.4413 143.939 65.5671 143.939 65.5671L147.571 69.3053C147.571 69.3053 154.389 64.7211 154.666 62.001C154.903 59.6941 153.92 57.4856 151.207 57.461Z" fill="#004772"/>
<path d="M147.902 69.4672C147.749 69.6197 147.502 69.6246 147.349 69.4722L143.688 65.9011C143.535 65.7487 143.53 65.5027 143.683 65.3502C143.836 65.1978 144.083 65.1928 144.236 65.3453L147.897 68.9163C148.05 69.0688 148.055 69.3148 147.902 69.4672Z" fill="#00ADF6"/>
<path d="M124.937 160.706C125.06 160.706 125.184 160.662 125.302 160.568C125.431 160.47 125.45 160.352 125.445 160.273C125.401 159.747 124.062 159.034 123.909 158.955C123.879 158.94 123.845 158.945 123.82 158.965C123.795 158.984 123.785 159.019 123.79 159.053C123.943 159.589 124.27 160.514 124.774 160.681C124.828 160.696 124.882 160.706 124.937 160.706ZM124.008 159.196C124.467 159.457 125.253 159.963 125.282 160.288C125.287 160.322 125.282 160.381 125.203 160.435C125.07 160.534 124.951 160.563 124.828 160.519C124.541 160.426 124.24 159.934 124.008 159.196Z" fill="#457BFB"/>
<path d="M125.146 159.402C125.398 159.402 125.62 159.358 125.749 159.255C125.818 159.196 125.917 159.068 125.823 158.846C125.763 158.704 125.66 158.605 125.511 158.551C124.938 158.35 123.876 158.93 123.832 158.955C123.807 158.969 123.787 158.994 123.787 159.023C123.787 159.053 123.802 159.083 123.827 159.097C124.088 159.255 124.672 159.402 125.146 159.402ZM125.225 158.674C125.309 158.674 125.388 158.684 125.452 158.709C125.556 158.743 125.625 158.812 125.665 158.91C125.719 159.038 125.674 159.097 125.635 159.132C125.388 159.343 124.504 159.22 124.054 159.028C124.306 158.905 124.83 158.674 125.225 158.674Z" fill="#457BFB"/>
<path d="M152.823 171.251C153.208 171.251 153.564 171.192 153.791 171.02C153.944 170.907 154.028 170.75 154.038 170.553C154.048 170.41 153.979 170.336 153.919 170.297C153.465 169.987 151.642 170.823 151.434 170.922C151.4 170.936 151.385 170.971 151.385 171.005C151.39 171.04 151.414 171.069 151.449 171.079C151.815 171.158 152.338 171.251 152.823 171.251ZM153.623 170.39C153.712 170.39 153.781 170.405 153.826 170.435C153.85 170.45 153.875 170.479 153.87 170.543C153.86 170.691 153.801 170.804 153.687 170.887C153.277 171.197 152.274 171.064 151.736 170.966C152.358 170.695 153.203 170.39 153.623 170.39Z" fill="#FF5454"/>
<path d="M151.469 171.079C151.479 171.079 151.489 171.079 151.499 171.074C152.047 170.853 153.193 169.933 153.134 169.481C153.119 169.382 153.055 169.259 152.808 169.23C151.825 169.117 151.405 170.902 151.39 170.981C151.385 171.01 151.395 171.045 151.42 171.064C151.429 171.074 151.449 171.079 151.469 171.079ZM152.719 169.392C152.744 169.392 152.763 169.392 152.788 169.397C152.961 169.417 152.966 169.481 152.971 169.505C153.01 169.795 152.19 170.543 151.597 170.853C151.716 170.43 152.087 169.392 152.719 169.392Z" fill="#FF5454"/>
<path d="M161.662 47.5297L160.832 47.3428C160.832 47.3428 161.287 47.9576 161.662 47.5297Z" fill="#263238"/>
<path d="M75.4409 173.298L130.625 168.497C134.355 168.172 137.147 164.867 136.821 161.148L125.318 30.0982C124.992 26.3845 121.672 23.6054 117.937 23.9301L62.7529 28.7308C59.0226 29.0554 56.2311 32.3608 56.5572 36.0794L68.0594 167.134C68.3855 170.848 71.7106 173.622 75.4409 173.298Z" fill="#61ABF3"/>
<path d="M60.7023 74.7743C61.7646 74.6809 62.5601 73.7414 62.4662 72.6839L60.9494 55.3797C60.8555 54.3222 59.9118 53.5302 58.8495 53.6237C57.7872 53.7172 56.9918 54.6566 57.0857 55.7142L58.6025 73.0183C58.6964 74.0759 59.6401 74.8678 60.7023 74.7743Z" fill="#61ABF3"/>
<path d="M128.115 61.1156L128.757 61.0615C129.558 60.9926 130.151 60.2843 130.081 59.4924L129.157 48.9663C129.088 48.1694 128.377 47.5792 127.581 47.648L126.939 47.7021C126.139 47.771 125.546 48.4793 125.615 49.2712L126.539 59.7973C126.608 60.5942 127.319 61.1844 128.115 61.1156Z" fill="#263238"/>
<path d="M129.675 78.8578L130.318 78.8037C131.118 78.7348 131.711 78.0265 131.642 77.2346L130.718 66.7084C130.649 65.9116 129.937 65.3214 129.142 65.3902L128.5 65.4443C127.699 65.5132 127.106 66.2215 127.175 67.0134L128.099 77.5395C128.164 78.3315 128.875 78.9266 129.675 78.8578Z" fill="#263238"/>
<path d="M76.6011 173.199L131.785 168.398C135.515 168.074 138.307 164.768 137.981 161.05L126.479 29.9996C126.152 26.2859 122.832 23.5068 119.097 23.8314L63.9131 28.6321C60.1828 28.9568 57.3912 32.2622 57.7173 35.9808L69.2195 167.036C69.5456 170.749 72.8708 173.524 76.6011 173.199Z" fill="#263238"/>
<path opacity="0.4" d="M71.1668 165.029L135.714 159.412C136.415 159.353 136.934 158.733 136.875 158.035L125.936 33.389C125.876 32.6906 125.254 32.1741 124.552 32.2331L60.0055 37.8503C59.304 37.9093 58.7852 38.5291 58.8445 39.2276L69.7834 163.878C69.8476 164.577 70.4652 165.093 71.1668 165.029Z" fill="#00ADF6"/>
<path opacity="0.3" d="M116.03 32.9756L107.922 161.832L94.4336 163.008L102.541 34.1512L116.03 32.9756Z" fill="#00ADF6"/>
<path opacity="0.2" d="M98.6733 28.8384L84.9033 30.0336C84.5821 30.0631 84.34 30.3484 84.3696 30.6682L84.4191 31.2092C84.4487 31.5289 84.7353 31.7699 85.0564 31.7404L98.8265 30.5452C99.1476 30.5157 99.3897 30.2304 99.3601 29.9107L99.3106 29.3696C99.281 29.0499 98.9944 28.8089 98.6733 28.8384Z" fill="white"/>
<path d="M140.758 19.9012C140.052 19.9012 139.434 19.3847 139.325 18.6715C137.947 9.56196 129.384 3.26597 120.229 4.63338C119.433 4.75143 118.697 4.21037 118.579 3.41845C118.46 2.62653 119.004 1.89364 119.799 1.77559C130.536 0.16716 140.585 7.55512 142.201 18.2435C142.319 19.0355 141.776 19.7684 140.98 19.8864C140.901 19.8962 140.827 19.9012 140.758 19.9012Z" fill="#00ADF6"/>
<path d="M133.545 20.9784C132.839 20.9784 132.221 20.4619 132.113 19.7487C131.332 14.5987 126.49 11.0376 121.317 11.8147C120.526 11.9328 119.785 11.3917 119.667 10.5998C119.548 9.80788 120.092 9.07499 120.887 8.95694C127.646 7.94368 133.97 12.5968 134.988 19.3207C135.107 20.1127 134.563 20.8455 133.768 20.9636C133.689 20.9734 133.619 20.9784 133.545 20.9784Z" fill="#00ADF6"/>
<path d="M126.331 22.0606C125.624 22.0606 125.007 21.5441 124.898 20.8309C124.809 20.2554 124.503 19.7439 124.033 19.3995C123.564 19.0552 122.986 18.9077 122.403 18.9962C121.612 19.1143 120.871 18.5732 120.753 17.7813C120.634 16.9894 121.177 16.2565 121.973 16.1384C123.322 15.9367 124.666 16.2712 125.763 17.073C126.859 17.8796 127.571 19.0601 127.773 20.403C127.892 21.1949 127.349 21.9278 126.553 22.0458C126.474 22.0557 126.405 22.0606 126.331 22.0606Z" fill="#00ADF6"/>
<path d="M175.552 164.761L171.648 163.221L174.188 153.812L178.091 155.351L175.552 164.761Z" fill="#EEC1BB"/>
<path d="M214.782 169.084H210.582L207.307 159.399H211.506L214.782 169.084Z" fill="#EEC1BB"/>
<path d="M210.019 168.754H215.138C215.311 168.754 215.459 168.872 215.494 169.039L216.324 172.758C216.408 173.141 216.106 173.51 215.711 173.5C214.066 173.471 212.86 173.378 210.785 173.378C209.51 173.378 205.656 173.51 203.892 173.51C202.168 173.51 201.901 171.774 202.623 171.617C205.859 170.913 208.3 169.939 209.332 169.015C209.525 168.842 209.767 168.754 210.019 168.754Z" fill="#004772"/>
<path d="M171.851 162.94L176.115 164.622C176.273 164.686 176.367 164.849 176.343 165.021L175.74 168.779C175.676 169.167 175.27 169.398 174.905 169.251C173.378 168.616 171.189 167.652 169.258 166.89C166.995 166 164.994 165.35 162.345 164.308C160.74 163.678 160.937 161.888 161.668 162.006C164.989 162.542 167.513 163.457 170.794 162.876C171.15 162.812 171.515 162.807 171.851 162.94Z" fill="#004772"/>
<path d="M200.992 43.2729C200.601 43.5877 200.295 43.8188 199.949 44.0746C199.613 44.3255 199.267 44.5616 198.926 44.7977C198.24 45.2649 197.538 45.7175 196.826 46.1503C195.399 47.016 193.916 47.803 192.35 48.4916C190.784 49.1753 189.139 49.7705 187.36 50.1591C185.591 50.5428 183.669 50.7592 181.633 50.4493C181.115 50.3804 180.64 50.2624 180.082 50.1148C178.97 49.7705 178.348 49.1999 177.878 48.7327C176.979 47.7735 176.559 46.9127 176.144 46.0815C175.364 44.4288 174.899 42.8449 174.479 41.2611C173.674 38.0934 173.195 34.9799 172.928 31.7728L176.026 31.1875C176.984 34.0748 177.987 37.0064 179.104 39.751C179.657 41.1184 180.28 42.4613 180.942 43.5631C181.263 44.0992 181.658 44.5862 181.856 44.7337C181.94 44.8075 181.964 44.7239 181.604 44.596C181.801 44.6157 182.088 44.6796 182.35 44.6845C183.417 44.7632 184.647 44.5862 185.902 44.2369C187.157 43.8779 188.447 43.3761 189.712 42.7662C190.981 42.1612 192.236 41.4529 193.477 40.7053C194.094 40.3265 194.707 39.9379 195.31 39.5297L196.199 38.9148C196.486 38.7181 196.807 38.4869 197.029 38.3197L200.992 43.2729Z" fill="#EEC1BB"/>
<path d="M203.61 42.2448C202.593 46.111 190.008 50.4444 190.008 50.4444L186.135 41.7431C186.135 41.7431 191.244 39.0624 195.982 36.9326C199.154 35.5062 204.722 38.0344 203.61 42.2448Z" fill="#004772"/>
<path d="M176.045 31.8759L176.149 28.1475L171.594 29.4952C171.594 29.4952 171.648 31.4578 173.348 32.717L176.045 31.8759Z" fill="#EEC1BB"/>
<path d="M176.367 25.5508L171.989 27.0559L171.594 29.4956L176.149 28.1479L176.367 25.5508Z" fill="#EEC1BB"/>
<path d="M174.188 153.812L172.879 158.666L176.782 160.206L178.096 155.351L174.188 153.812Z" fill="#DB9792"/>
<path d="M211.511 159.399H207.307L208.996 164.392H213.201L211.511 159.399Z" fill="#DB9792"/>
<path d="M220.582 40.4991C218.793 44.9555 217.459 49.5446 216.441 53.8879C215.695 57.0654 215.122 60.115 214.673 62.8892C213.615 69.3869 213.215 74.3843 212.84 76.0518C209.598 75.4763 197.385 73.2923 190.724 72.102C190.265 48.128 197.385 36.569 197.385 36.569C197.385 36.569 199.904 36.3476 202.79 36.4903C203.17 36.505 203.556 36.5346 203.946 36.569C206.476 36.7903 210.547 37.6068 213.348 38.2463C213.936 38.3791 214.529 38.5316 215.107 38.689C218.037 39.4907 220.582 40.4991 220.582 40.4991Z" fill="#004772"/>
<path d="M214.307 45.875C213.892 49.5887 214.579 52.8449 216.017 55.7863C216.15 55.1616 216.293 54.5271 216.442 53.8926C217 51.5021 217.657 49.0378 218.443 46.5636L214.307 45.875Z" fill="#294970"/>
<path d="M214.317 27.5381C213.181 30.4451 211.595 35.8557 213.349 38.2413C211.511 39.5546 208.966 40.499 205.582 39.8153C202.988 39.2939 203.186 37.4592 203.947 36.5591C207.464 36.3623 207.825 33.8538 207.662 31.4091L214.317 27.5381Z" fill="#EEC1BB"/>
<path d="M211.6 29.1172L207.662 31.4093C207.702 31.9897 207.712 32.5701 207.652 33.121C208.976 33.1653 210.997 32.0734 211.378 30.7551C211.565 30.1009 211.654 29.4517 211.6 29.1172Z" fill="#DB9792"/>
<path d="M204.076 17.6859C203.152 19.5501 202.742 25.3296 205.341 24.4344C207.94 23.5392 207.806 19.1369 207.806 19.1369C207.806 19.1369 206.235 13.318 204.076 17.6859Z" fill="#1E2A4C"/>
<path d="M215.494 23.0716C214.506 27.105 214.135 29.5151 211.69 31.2367C208.009 33.8289 203.29 31.0596 203.048 26.8147C202.831 22.9929 204.481 17.0412 208.779 16.1362C213.019 15.2409 216.482 19.0382 215.494 23.0716Z" fill="#EEC1BB"/>
<path d="M213.428 19.7758C211.057 21.2023 211.457 25.8161 214.728 27.031C217.994 28.241 218.71 25.8702 218.176 25.6242C219.308 25.3881 223.76 23.401 221.991 19.8054C220.919 17.6214 217.648 17.9805 217.648 17.9805C217.648 17.9805 221.526 14.198 215.429 11.1484C207.984 7.42487 206.857 14.2521 206.857 14.2521C206.857 14.2521 202.064 13.7258 202.47 16.9033C203.008 21.1137 207.499 17.7493 207.499 17.7493C207.499 17.7493 207.776 21.463 213.428 19.7758Z" fill="#101B27"/>
<path d="M207.105 15.8511C207.016 15.8511 206.932 15.797 206.902 15.7084C206.858 15.5806 205.835 12.5604 207.401 10.5929C208.419 9.31407 210.272 8.80252 212.92 9.06813C213.039 9.07797 213.123 9.18618 213.113 9.30423C213.103 9.42228 212.999 9.51574 212.876 9.49606C210.385 9.24521 208.656 9.70265 207.737 10.8586C206.319 12.6391 207.297 15.5363 207.307 15.5658C207.347 15.6789 207.288 15.8019 207.174 15.8412C207.154 15.8462 207.129 15.8511 207.105 15.8511Z" fill="#1E2A4C"/>
<path d="M216.53 27.8975C215.779 28.7288 214.712 29.142 213.788 29.1764C212.4 29.2305 212.024 27.9172 212.681 26.781C213.269 25.7579 214.702 24.4938 215.967 24.9807C217.212 25.4578 217.39 26.9433 216.53 27.8975Z" fill="#EEC1BB"/>
<path d="M171.771 157.191L178.387 159.793C178.387 159.793 186.095 134.27 188.723 121.505C189.524 117.625 191.159 112.268 193.106 106.562C195.561 99.3711 198.506 91.629 200.883 85.574C203.393 79.1994 205.26 74.6938 205.26 74.6938L190.724 72.0967C190.724 72.0967 178.096 105.613 176.282 118.249C174.39 131.387 171.771 157.191 171.771 157.191Z" fill="#00ADF6"/>
<path d="M193.107 106.562C195.563 99.3709 198.508 91.6288 200.884 85.5738L199.718 82.1504C195.612 86.0608 193.186 99.2578 193.107 106.562Z" fill="#36A7DF"/>
<path d="M198.567 73.5039C198.567 73.5039 196.275 109.268 196.724 121.511C197.219 134.919 207.026 163.428 207.026 163.428H214.719C214.719 163.428 209.739 137.782 208.731 124.738C207.589 109.878 212.836 76.0518 212.836 76.0518L198.567 73.5039Z" fill="#00ADF6"/>
<path d="M206.1 163.59H215.157V160.9L205.033 160.723L206.1 163.59Z" fill="#004772"/>
<path d="M170.879 157.014L178.759 160.123L179.767 157.585L171.012 153.984L170.879 157.014Z" fill="#004772"/>
<path d="M209.075 23.101C209.015 23.4306 208.788 23.6716 208.571 23.6322C208.353 23.5929 208.225 23.2928 208.284 22.9584C208.343 22.6239 208.571 22.3878 208.788 22.4271C209.005 22.4665 209.134 22.7665 209.075 23.101Z" fill="#1E2A4C"/>
<path d="M205.305 22.4271C205.246 22.7567 205.018 22.9977 204.801 22.9583C204.584 22.919 204.455 22.6189 204.514 22.2845C204.574 21.9549 204.801 21.7139 205.018 21.7532C205.236 21.7926 205.364 22.0926 205.305 22.4271Z" fill="#1E2A4C"/>
<path d="M206.476 22.8066C206.476 22.8066 205.374 24.5872 204.371 25.3595C204.86 26.0137 205.913 25.9399 205.913 25.9399L206.476 22.8066Z" fill="#D4827D"/>
<path d="M210.464 22.0977C210.389 22.0977 210.32 22.0583 210.286 21.9895C209.885 21.2074 209.179 21.1189 209.149 21.1139C209.041 21.0992 208.962 21.0057 208.976 20.8975C208.986 20.7893 209.08 20.7057 209.194 20.7204C209.233 20.7254 210.142 20.8336 210.641 21.8124C210.691 21.9108 210.651 22.0288 210.552 22.078C210.523 22.0879 210.493 22.0977 210.464 22.0977Z" fill="#1E2A4C"/>
<path d="M203.921 20.8437C203.882 20.8437 203.837 20.8289 203.803 20.8043C203.714 20.7404 203.694 20.6174 203.758 20.5289C204.406 19.6435 205.325 19.6829 205.364 19.6829C205.473 19.6878 205.557 19.7813 205.552 19.8895C205.547 19.9977 205.473 20.0911 205.344 20.0764C205.32 20.0813 204.598 20.0518 204.08 20.7601C204.045 20.8191 203.986 20.8437 203.921 20.8437Z" fill="#1E2A4C"/>
<path d="M208.63 169.331C208.309 169.331 208.012 169.277 207.82 169.119C207.672 168.991 207.602 168.819 207.612 168.598C207.622 168.436 207.711 168.357 207.78 168.318C208.25 168.082 209.598 168.908 209.752 169.006C209.786 169.026 209.801 169.065 209.796 169.105C209.791 169.144 209.761 169.173 209.722 169.183C209.44 169.252 209.02 169.331 208.63 169.331ZM208.008 168.465C207.958 168.465 207.914 168.475 207.879 168.49C207.854 168.505 207.82 168.529 207.815 168.608C207.805 168.765 207.849 168.883 207.948 168.967C208.18 169.159 208.724 169.183 209.44 169.041C208.966 168.765 208.329 168.465 208.008 168.465Z" fill="#00ADF6"/>
<path d="M209.709 169.183C209.694 169.183 209.674 169.179 209.659 169.169C209.224 168.933 208.384 168.018 208.473 167.55C208.488 167.467 208.552 167.319 208.79 167.29C208.943 167.27 209.086 167.314 209.214 167.418C209.704 167.816 209.802 169.021 209.807 169.07C209.812 169.105 209.793 169.139 209.763 169.159C209.743 169.179 209.728 169.183 209.709 169.183ZM208.859 167.486C208.844 167.486 208.829 167.486 208.814 167.491C208.686 167.506 208.676 167.565 208.666 167.59C208.612 167.865 209.15 168.559 209.58 168.883C209.531 168.529 209.397 167.826 209.086 167.575C209.017 167.516 208.943 167.486 208.859 167.486Z" fill="#00ADF6"/>
<path d="M171.259 163.172C171.254 163.172 171.249 163.172 171.239 163.172C170.562 163.049 169.381 162.759 169.099 162.213C169.016 162.051 169.016 161.874 169.104 161.697C169.154 161.589 169.243 161.525 169.356 161.51C169.371 161.51 169.386 161.505 169.406 161.505C170.004 161.505 171.194 162.848 171.333 163.005C171.362 163.035 171.367 163.084 171.343 163.118C171.328 163.153 171.293 163.172 171.259 163.172ZM169.416 161.707C169.406 161.707 169.396 161.707 169.386 161.707C169.342 161.711 169.312 161.736 169.287 161.78C169.228 161.903 169.228 162.012 169.282 162.12C169.44 162.425 170.068 162.715 170.987 162.912C170.478 162.371 169.742 161.707 169.416 161.707Z" fill="#00ADF6"/>
<path d="M171.259 163.172C171.234 163.172 171.204 163.163 171.189 163.143C170.804 162.745 170.201 161.539 170.448 161.126C170.508 161.028 170.631 160.93 170.893 161.003C171.091 161.057 171.239 161.18 171.343 161.362C171.679 161.962 171.367 163.054 171.352 163.099C171.343 163.133 171.318 163.158 171.283 163.168C171.273 163.168 171.268 163.172 171.259 163.172ZM170.725 161.175C170.646 161.175 170.626 161.21 170.616 161.225C170.468 161.471 170.839 162.381 171.209 162.858C171.278 162.533 171.392 161.849 171.17 161.456C171.091 161.318 170.987 161.23 170.839 161.19C170.794 161.18 170.755 161.175 170.725 161.175Z" fill="#00ADF6"/>
<path d="M220.702 42.4512C221.26 43.1004 221.739 43.6809 222.219 44.3154C222.698 44.9351 223.167 45.5647 223.627 46.1993C224.536 47.4732 225.405 48.7816 226.221 50.1343C227.046 51.4771 227.802 52.8838 228.503 54.3299L229.017 55.4268L229.487 56.5581C229.65 56.932 229.783 57.3255 229.921 57.714L230.129 58.2994L230.183 58.4469L230.262 58.6929C230.322 58.8798 230.361 59.0519 230.396 59.2241C230.643 60.5768 230.495 61.5605 230.336 62.4803C230.163 63.3952 229.921 64.2117 229.66 65.0085C229.121 66.5825 228.469 68.0287 227.772 69.4403C226.364 72.2489 224.763 74.851 222.95 77.389L220.213 75.8347C221.339 73.1245 222.436 70.3355 223.38 67.6106C223.844 66.2481 224.264 64.8757 224.561 63.5624C224.709 62.9082 224.822 62.2688 224.867 61.6933C224.916 61.1326 224.882 60.5915 224.813 60.4685C224.803 60.4587 224.803 60.4439 224.798 60.4587C224.793 60.4489 224.808 60.4882 224.783 60.439L224.729 60.3259L224.516 59.8635C224.378 59.5537 224.244 59.2487 224.081 58.9437L223.612 58.0239L223.108 57.1041C222.416 55.8892 221.675 54.6792 220.88 53.4839C220.084 52.2936 219.264 51.1131 218.409 49.9473C217.579 48.7865 216.65 47.6109 215.82 46.5485L220.702 42.4512Z" fill="#EEC1BB"/>
<path d="M219.452 40.1544C223.424 40.7545 228.701 49.6771 228.701 49.6771L221.24 57.7635C221.24 57.7635 217.139 52.5152 214.758 47.9211C212.159 42.9236 214.639 39.4313 219.452 40.1544Z" fill="#004772"/>
<path d="M220.992 75.0283L217.316 77.1827L221.719 80.2323C221.719 80.2323 224.436 77.7041 223.255 76.1203L220.992 75.0283Z" fill="#EEC1BB"/>
<path d="M216.014 80.4241L219.774 82.7752L221.72 80.2322L217.318 77.1826L216.014 80.4241Z" fill="#EEC1BB"/>
<path d="M5.38667 61.8311H4.80859V73.1245H5.38667V61.8311Z" fill="#00ADF6"/>
<path d="M5.38667 76.2432H4.80859V79.8683H5.38667V76.2432Z" fill="#00ADF6"/>
<path d="M64.6554 100.665H13.5723C9.86178 100.665 6.82812 97.6447 6.82812 93.9507V57.0158C6.82812 53.3219 9.86178 50.3018 13.5723 50.3018H64.6554C68.3659 50.3018 71.3996 53.3219 71.3996 57.0158V93.9458C71.4045 97.6447 68.3659 100.665 64.6554 100.665Z" fill="#00ADF6"/>
<path d="M6.05267 50.1252C5.90444 50.1252 5.75622 50.0711 5.64752 49.958L1.19585 45.5262C0.968571 45.2999 0.968571 44.9409 1.19585 44.7146C1.42313 44.4884 1.78381 44.4884 2.01108 44.7146L6.46275 49.1464C6.69003 49.3727 6.69003 49.7317 6.46275 49.958C6.34911 50.0711 6.20089 50.1252 6.05267 50.1252Z" fill="#00ADF6"/>
<path d="M8.91417 48.905C8.64243 48.905 8.40033 48.7132 8.35092 48.4377L7.53568 44.2027C7.4764 43.8928 7.67897 43.5927 7.99518 43.5288C8.30645 43.4698 8.60784 43.6714 8.67207 43.9862L9.4873 48.2213C9.54659 48.5312 9.34402 48.8312 9.02781 48.8952C8.98828 48.9001 8.94876 48.905 8.91417 48.905Z" fill="#00ADF6"/>
<path d="M4.83235 52.9723C4.79776 52.9723 4.75824 52.9674 4.72365 52.9625L0.469613 52.1459C0.158342 52.0869 -0.0491722 51.7869 0.0101175 51.4721C0.0694072 51.1622 0.375738 50.9605 0.687009 51.0146L4.94105 51.8262C5.25232 51.8852 5.45983 52.1853 5.40054 52.5001C5.34125 52.7805 5.09915 52.9723 4.83235 52.9723Z" fill="#00ADF6"/>
<path d="M70.2383 73.1937L84.3937 68.875L70.2383 83.8132V73.1937Z" fill="#00ADF6"/>
<path d="M53.1329 84.4775H25.0938C25.0938 82.9872 25.6866 81.5558 26.7489 80.5081L27.3072 79.9474C28.2163 79.0473 28.7252 77.8176 28.7252 76.5387V70.0459C28.7252 64.2074 33.587 59.5002 39.4962 59.7067C40.3658 59.7412 41.2008 59.8789 42.0061 60.115C41.6949 60.9364 41.5219 61.8316 41.5219 62.7613C41.5219 66.9176 44.9064 70.2919 49.0863 70.2919C49.2296 70.2919 49.368 70.287 49.5063 70.282C49.5063 70.287 49.5063 70.287 49.5063 70.2919V76.5387C49.5063 77.8176 50.0201 79.0473 50.9243 79.9474L51.4826 80.5081C52.0113 81.0344 52.4263 81.6542 52.7129 82.3281C52.9846 83.0019 53.1329 83.7299 53.1329 84.4775Z" fill="white"/>
<path d="M44.6545 85.9873C44.5162 88.9927 41.9766 91.3733 38.9034 91.2602C36.0278 91.1618 33.76 88.8156 33.5723 85.9873H44.6545Z" fill="white"/>
<path d="M52.91 66.9093C55.2132 64.8035 55.3655 61.2378 53.2503 58.9449C51.1352 56.6521 47.5534 56.5004 45.2503 58.6062C42.9471 60.7119 42.7948 64.2777 44.91 66.5705C47.0252 68.8634 50.6069 69.015 52.91 66.9093Z" fill="#FF5454"/>
<path d="M50.2037 60.0459V65.7172H48.6276V62.0036C48.3707 62.1954 48.1286 62.3528 47.8865 62.4708C47.6493 62.5889 47.3479 62.702 46.9922 62.8152V61.5461C47.5209 61.374 47.9309 61.1723 48.2274 60.9362C48.5189 60.7001 48.7511 60.405 48.9142 60.0557H50.2037V60.0459Z" fill="white"/>
</g>
<defs>
<clipPath id="clip0_1244_3831">
<rect width="245" height="181" fill="white"/>
</clipPath>
</defs>
</svg>
